<svg width="24" height="24" viewBox="0 0 24 24" fill="none" xmlns="http://www.w3.org/2000/svg">
<g clip-path="url(#clip0_282_26693)">
<path d="M15.2113 4.36175L15.2113 4.36175C17.2045 5.26627 18.7752 6.90037 19.6002 8.92779C20.4143 10.9287 20.441 13.1625 19.677 15.1809C19.2818 15.1027 18.8707 15.1623 18.5128 15.3511C18.1287 15.5538 17.8329 15.8913 17.6823 16.2986C17.5317 16.706 17.5368 17.1547 17.6967 17.5585C17.8566 17.9624 18.1599 18.2929 18.5486 18.4868C18.9372 18.6807 19.3838 18.7243 19.8026 18.6091C20.2214 18.494 20.5829 18.2282 20.8178 17.8629C21.0527 17.4975 21.1444 17.0583 21.0753 16.6295C21.0102 16.2254 20.8067 15.8574 20.5008 15.5878C22.3505 11.0338 20.0988 5.49513 15.5889 3.52809C15.5343 3.50345 15.4755 3.48974 15.4157 3.48774C15.3556 3.48573 15.2958 3.49558 15.2395 3.51671C15.1833 3.53784 15.1317 3.56984 15.0878 3.61089C15.044 3.65194 15.0086 3.70123 14.9838 3.75595C14.9589 3.81066 14.9451 3.86974 14.9431 3.9298C14.9411 3.98985 14.9509 4.04972 14.9721 4.10597C14.9932 4.16223 15.0252 4.21377 15.0662 4.25765C15.1073 4.30154 15.1566 4.33691 15.2113 4.36175ZM2.704 13.395L2.704 13.3954L2.71279 13.3946C2.88047 13.38 3.00018 13.314 3.07357 13.2033C3.14286 13.0987 3.16071 12.9688 3.16187 12.8463C3.16286 12.7403 3.1511 12.6265 3.14029 12.5221C3.13852 12.505 3.13678 12.4881 3.13512 12.4715C3.12282 12.3489 3.11545 12.2455 3.12695 12.1654L3.12794 12.1656L3.12796 12.1513C3.13061 10.1322 3.84726 8.17902 5.15116 6.63732C6.43634 5.11776 8.21039 4.09444 10.1673 3.74196C10.2952 4.11302 10.544 4.43156 10.8751 4.64562C11.2314 4.87602 11.659 4.96987 12.079 4.90988C12.4991 4.84988 12.8833 4.64009 13.1609 4.31915C13.4384 3.99822 13.5906 3.58777 13.5895 3.16346L13.5894 3.16186C13.5494 1.02936 10.5242 0.773671 10.1026 2.81786C7.77165 3.21721 5.67275 4.47277 4.21834 6.33976C2.74958 8.22519 2.04624 10.5954 2.24885 12.9768L2.24886 12.9769C2.2587 13.0909 2.3109 13.197 2.39515 13.2744C2.4794 13.3518 2.5896 13.3948 2.704 13.395ZM16.4875 19.2201L16.4875 19.22L16.4846 19.222C14.7037 20.433 12.5313 20.9269 10.4019 20.6049C8.29932 20.2869 6.39186 19.1966 5.05112 17.5485C5.30096 17.2325 5.43507 16.8392 5.42931 16.4347C5.42315 16.002 5.25744 15.5868 4.96397 15.2688C4.6705 14.9508 4.26995 14.7524 3.83915 14.7116C3.40835 14.6707 2.97765 14.7904 2.62969 15.0477C2.28172 15.3049 2.041 15.6816 1.95369 16.1054C1.86639 16.5292 1.93865 16.9704 2.15663 17.3442C2.3746 17.718 2.72293 17.9982 3.13479 18.1309C3.52194 18.2557 3.93959 18.242 4.31661 18.0936C5.79877 19.9322 7.91596 21.1506 10.2523 21.5073C12.6137 21.8678 15.024 21.3214 16.9991 19.9779L16.9992 19.9779L17.0021 19.9757C17.0976 19.9056 17.162 19.8011 17.182 19.6844C17.202 19.5676 17.1759 19.4477 17.1092 19.3498C17.0425 19.2519 16.9405 19.1837 16.8245 19.1595L16.8041 19.2574L16.8245 19.1595C16.7086 19.1353 16.5878 19.157 16.4875 19.2201ZM19.3452 17.7579C19.12 17.7579 18.9041 17.6684 18.7448 17.5092C18.5856 17.35 18.4962 17.1341 18.4962 16.9089C18.4962 16.6837 18.5856 16.4678 18.7448 16.3086C18.9041 16.1494 19.12 16.0599 19.3452 16.0599C19.5703 16.0599 19.7863 16.1494 19.9455 16.3086C20.1047 16.4678 20.1941 16.6837 20.1941 16.9089C20.1941 17.1341 20.1047 17.35 19.9455 17.5092C19.7863 17.6684 19.5703 17.7579 19.3452 17.7579ZM11.8256 2.31477C12.0508 2.31477 12.2667 2.40422 12.4259 2.56343C12.5852 2.72264 12.6746 2.93858 12.6746 3.16374C12.6746 3.3889 12.5852 3.60484 12.4259 3.76405C12.2667 3.92326 12.0508 4.01271 11.8256 4.01271C11.6005 4.01271 11.3845 3.92326 11.2253 3.76405C11.0661 3.60484 10.9767 3.3889 10.9767 3.16374C10.9767 2.93858 11.0661 2.72264 11.2253 2.56343C11.3845 2.40422 11.6005 2.31477 11.8256 2.31477ZM2.83273 16.45C2.83273 16.2248 2.92217 16.0089 3.08138 15.8497C3.24059 15.6904 3.45653 15.601 3.68169 15.601C3.90685 15.601 4.12279 15.6904 4.282 15.8497C4.44121 16.0089 4.53066 16.2248 4.53066 16.45C4.53066 16.6751 4.44121 16.8911 4.282 17.0503C4.12279 17.2095 3.90685 17.2989 3.68169 17.2989C3.45653 17.2989 3.24059 17.2095 3.08138 17.0503C2.92217 16.8911 2.83273 16.6751 2.83273 16.45Z" fill="#B5B5B5" stroke="#B5B5B5" stroke-width="0.2"/>
<path d="M15.4819 12.7474C15.0155 12.1362 14.4155 11.6406 13.7283 11.2984C15.1451 9.55093 13.8397 6.76638 11.5316 6.79872C9.22324 6.76784 7.91778 9.54857 9.33461 11.2983C8.6473 11.6401 8.04718 12.1356 7.58122 12.747C7.0888 13.3932 6.76097 14.1495 6.62602 14.9506L6.62601 14.9506L6.62585 14.9517C6.60141 15.1066 6.61067 15.2651 6.65298 15.4161C6.6953 15.5672 6.76969 15.7074 6.87107 15.8271C6.97246 15.9468 7.09846 16.0433 7.2405 16.1099C7.38253 16.1765 7.53726 16.2117 7.69413 16.2132H7.69504L15.3675 16.2132L15.3682 16.2132C15.5254 16.2121 15.6804 16.1771 15.8228 16.1106C15.9652 16.0441 16.0916 15.9477 16.1933 15.8279C16.295 15.7081 16.3697 15.5678 16.4123 15.4166C16.4549 15.2653 16.4643 15.1066 16.44 14.9514L16.4397 14.9501C16.3033 14.1492 15.9747 13.3933 15.4819 12.7474ZM15.537 15.0996L15.537 15.0996L15.5374 15.1017C15.5422 15.1261 15.5413 15.1511 15.5351 15.1751C15.5288 15.199 15.5172 15.2213 15.5012 15.2402C15.4851 15.259 15.4651 15.2741 15.4424 15.2841C15.4198 15.2942 15.3952 15.2991 15.3704 15.2983L15.3704 15.2983H15.3675H7.69504L7.69481 15.2983C7.67064 15.2984 7.64676 15.2931 7.62485 15.2829C7.60296 15.2727 7.58358 15.2577 7.5681 15.2392L7.56811 15.2392L7.56712 15.238C7.55089 15.2192 7.53904 15.1969 7.5324 15.173C7.52577 15.149 7.52451 15.1238 7.52874 15.0993L7.52878 15.099C7.6487 14.391 7.95338 13.7272 8.41201 13.1747C8.8603 12.6346 9.44015 12.2195 10.0953 11.9693C10.5278 12.2322 11.0245 12.3716 11.5313 12.3716C12.0381 12.3716 12.5348 12.2322 12.9672 11.9693C13.6224 12.22 14.2024 12.6352 14.6512 13.1752C15.1103 13.7276 15.4158 14.3916 15.537 15.0996ZM11.5317 11.457C9.05947 11.3753 9.05993 7.79503 11.5316 7.71363C14.0037 7.79537 14.0032 11.3756 11.5317 11.457Z" fill="#B5B5B5" stroke="#B5B5B5" stroke-width="0.2"/>
</g>
<defs>
<clipPath id="clip0_282_26693">
<rect width="24" height="24" fill="white"/>
</clipPath>
</defs>
</svg>
