<svg width="24" height="25" viewBox="0 0 24 25" fill="none" xmlns="http://www.w3.org/2000/svg">
<path d="M12.3947 4.77813C12.2927 4.77813 12.1949 4.7376 12.1227 4.66547C12.0506 4.59334 12.0101 4.49552 12.0101 4.39351V3.45337C12.0101 3.40457 11.9907 3.35777 11.9563 3.32325C11.9218 3.28872 11.875 3.26929 11.8262 3.26923H8.27957C8.23084 3.26936 8.18415 3.28882 8.14976 3.32335C8.11537 3.35787 8.09609 3.40464 8.09615 3.45337V4.39351C8.09615 4.49552 8.05563 4.59334 7.9835 4.66547C7.91137 4.7376 7.81354 4.77813 7.71154 4.77813C7.60953 4.77813 7.5117 4.7376 7.43957 4.66547C7.36745 4.59334 7.32692 4.49552 7.32692 4.39351V3.45337C7.32711 3.2007 7.42752 2.95843 7.60611 2.7797C7.78471 2.60097 8.0269 2.50038 8.27957 2.5H11.8262C12.0789 2.50032 12.3212 2.60087 12.4999 2.7796C12.6786 2.95833 12.7791 3.20064 12.7793 3.45337V4.39351C12.7793 4.49552 12.7388 4.59334 12.6667 4.66547C12.5945 4.7376 12.4967 4.77813 12.3947 4.77813ZM15.9498 22.5H4.15649C3.84987 22.4997 3.55589 22.3777 3.33908 22.1609C3.12226 21.9441 3.00032 21.6501 3 21.3435V6.58654C3.00032 6.27992 3.12226 5.98594 3.33908 5.76913C3.55589 5.55231 3.84987 5.43037 4.15649 5.43005H6.15601C6.25802 5.43005 6.35584 5.47057 6.42797 5.5427C6.5001 5.61483 6.54063 5.71266 6.54063 5.81466C6.54063 5.91667 6.5001 6.0145 6.42797 6.08663C6.35584 6.15876 6.25802 6.19928 6.15601 6.19928H4.15649C4.05382 6.19941 3.95539 6.24025 3.8828 6.31284C3.8102 6.38544 3.76936 6.48387 3.76923 6.58654V21.3435C3.76936 21.4462 3.8102 21.5446 3.8828 21.6172C3.95539 21.6898 4.05382 21.7306 4.15649 21.7308H15.9498C16.0524 21.7306 16.1509 21.6898 16.2235 21.6172C16.2961 21.5446 16.3369 21.4462 16.337 21.3435V18.9409C16.337 18.8389 16.3775 18.741 16.4497 18.6689C16.5218 18.5968 16.6196 18.5562 16.7216 18.5562C16.8236 18.5562 16.9215 18.5968 16.9936 18.6689C17.0657 18.741 17.1062 18.8389 17.1062 18.9409V21.3435C17.1059 21.6501 16.984 21.9441 16.7672 22.1609C16.5504 22.3777 16.2564 22.4997 15.9498 22.5ZM16.7216 10.912C16.6196 10.912 16.5218 10.8715 16.4497 10.7994C16.3775 10.7272 16.337 10.6294 16.337 10.5274V6.58654C16.3369 6.48387 16.2961 6.38544 16.2235 6.31284C16.1509 6.24025 16.0524 6.19941 15.9498 6.19928H13.9505C13.8485 6.19928 13.7506 6.15876 13.6785 6.08663C13.6064 6.0145 13.5659 5.91667 13.5659 5.81466C13.5659 5.71266 13.6064 5.61483 13.6785 5.5427C13.7506 5.47057 13.8485 5.43005 13.9505 5.43005H15.9498C16.2564 5.43037 16.5504 5.55231 16.7672 5.76913C16.984 5.98594 17.1059 6.27992 17.1062 6.58654V10.5274C17.1062 10.6294 17.0657 10.7272 16.9936 10.7994C16.9215 10.8715 16.8236 10.912 16.7216 10.912Z" fill="#8A8A8A"/>
<path d="M13.426 7.72178H6.67337C6.43346 7.71746 6.20475 7.61949 6.03609 7.44881C5.86743 7.27813 5.7722 7.04827 5.77073 6.80832V4.9177C5.77105 4.67691 5.86687 4.44609 6.03718 4.27587C6.20748 4.10566 6.43836 4.00996 6.67914 4.00977H7.71809C7.82009 4.00977 7.91792 4.05029 7.99005 4.12242C8.06218 4.19455 8.1027 4.29237 8.1027 4.39438C8.1027 4.49639 8.06218 4.59422 7.99005 4.66635C7.91792 4.73847 7.82009 4.779 7.71809 4.779H6.67938C6.64255 4.779 6.60722 4.79359 6.58114 4.81959C6.55505 4.84559 6.54033 4.88087 6.5402 4.9177V6.8088C6.54076 6.84688 6.55613 6.88324 6.58306 6.91017C6.60999 6.9371 6.64635 6.95248 6.68443 6.95303H13.4219C13.46 6.95248 13.4964 6.9371 13.5233 6.91017C13.5502 6.88324 13.5656 6.84688 13.5662 6.8088V4.9177C13.566 4.88087 13.5513 4.84559 13.5252 4.81959C13.4991 4.79359 13.4638 4.779 13.427 4.779H12.3871C12.2851 4.779 12.1872 4.73847 12.1151 4.66635C12.043 4.59422 12.0025 4.49639 12.0025 4.39438C12.0025 4.29237 12.043 4.19455 12.1151 4.12242C12.1872 4.05029 12.2851 4.00977 12.3871 4.00977H13.426C13.6668 4.00996 13.8977 4.10566 14.068 4.27587C14.2383 4.44609 14.3341 4.67691 14.3344 4.9177V6.8088C14.333 7.04871 14.2378 7.27854 14.0692 7.44921C13.9006 7.61989 13.6719 7.71788 13.432 7.72227L13.426 7.72178ZM11.3056 12.6482H8.39477C8.29276 12.6482 8.19493 12.6077 8.1228 12.5356C8.05067 12.4634 8.01015 12.3656 8.01015 12.2636C8.01015 12.1616 8.05067 12.0638 8.1228 11.9916C8.19493 11.9195 8.29276 11.879 8.39477 11.879H11.3056C11.4076 11.879 11.5054 11.9195 11.5776 11.9916C11.6497 12.0638 11.6902 12.1616 11.6902 12.2636C11.6902 12.3656 11.6497 12.4634 11.5776 12.5356C11.5054 12.6077 11.4076 12.6482 11.3056 12.6482ZM11.3056 15.1196H8.39477C8.29276 15.1196 8.19493 15.0791 8.1228 15.007C8.05067 14.9348 8.01015 14.837 8.01015 14.735C8.01015 14.633 8.05067 14.5352 8.1228 14.463C8.19493 14.3909 8.29276 14.3504 8.39477 14.3504H11.3056C11.4076 14.3504 11.5054 14.3909 11.5776 14.463C11.6497 14.5352 11.6902 14.633 11.6902 14.735C11.6902 14.837 11.6497 14.9348 11.5776 15.007C11.5054 15.0791 11.4076 15.1196 11.3056 15.1196ZM11.3056 17.5908H8.39477C8.29276 17.5908 8.19493 17.5503 8.1228 17.4781C8.05067 17.406 8.01015 17.3082 8.01015 17.2062C8.01015 17.1042 8.05067 17.0063 8.1228 16.9342C8.19493 16.8621 8.29276 16.8215 8.39477 16.8215H11.3056C11.4076 16.8215 11.5054 16.8621 11.5776 16.9342C11.6497 17.0063 11.6902 17.1042 11.6902 17.2062C11.6902 17.3082 11.6497 17.406 11.5776 17.4781C11.5054 17.5503 11.4076 17.5908 11.3056 17.5908ZM13.9498 10.185H8.39477C8.29276 10.185 8.19493 10.1445 8.1228 10.0724C8.05067 10.0002 8.01015 9.9024 8.01015 9.80039C8.01015 9.69838 8.05067 9.60056 8.1228 9.52843C8.19493 9.4563 8.29276 9.41578 8.39477 9.41578H13.9498C14.0518 9.41578 14.1497 9.4563 14.2218 9.52843C14.2939 9.60056 14.3344 9.69838 14.3344 9.80039C14.3344 9.9024 14.2939 10.0002 14.2218 10.0724C14.1497 10.1445 14.0518 10.185 13.9498 10.185ZM13.9498 20.054H8.39477C8.29276 20.054 8.19493 20.0135 8.1228 19.9413C8.05067 19.8692 8.01015 19.7714 8.01015 19.6694C8.01015 19.5674 8.05067 19.4695 8.1228 19.3974C8.19493 19.3253 8.29276 19.2848 8.39477 19.2848H13.9498C14.0518 19.2848 14.1497 19.3253 14.2218 19.3974C14.2939 19.4695 14.3344 19.5674 14.3344 19.6694C14.3344 19.7714 14.2939 19.8692 14.2218 19.9413C14.1497 20.0135 14.0518 20.054 13.9498 20.054ZM5.81544 10.8648C5.71349 10.8648 5.6157 10.8244 5.54357 10.7523L4.86352 10.073C4.79315 10.0005 4.75412 9.90322 4.75488 9.80219C4.75564 9.70116 4.79613 9.60449 4.86758 9.53306C4.93904 9.46164 5.03573 9.4212 5.13676 9.42048C5.23779 9.41977 5.33505 9.45883 5.40751 9.52924L5.81616 9.93789L6.90414 8.84991C6.97664 8.77954 7.07391 8.74051 7.17494 8.74127C7.27597 8.74203 7.37264 8.78252 7.44407 8.85397C7.51549 8.92543 7.55593 9.02212 7.55665 9.12315C7.55736 9.22418 7.5183 9.32144 7.44789 9.3939L6.08828 10.7538C6.05233 10.7893 6.00973 10.8174 5.96291 10.8364C5.9161 10.8555 5.86599 10.8651 5.81544 10.8648ZM5.81544 13.328C5.71349 13.3281 5.6157 13.2876 5.54357 13.2155L4.86352 12.5355C4.79138 12.4633 4.75085 12.3655 4.75085 12.2635C4.75085 12.1615 4.79138 12.0636 4.86352 11.9915C4.93566 11.9194 5.0335 11.8788 5.13551 11.8788C5.23753 11.8788 5.33537 11.9194 5.40751 11.9915L5.81616 12.4002L6.90414 11.3122C6.97664 11.2418 7.07391 11.2028 7.17494 11.2035C7.27597 11.2043 7.37264 11.2448 7.44407 11.3162C7.51549 11.3877 7.55593 11.4844 7.55665 11.5854C7.55736 11.6864 7.5183 11.7837 7.44789 11.8562L6.08828 13.216C6.05241 13.2517 6.00984 13.28 5.96302 13.2992C5.91621 13.3184 5.86605 13.3282 5.81544 13.328ZM5.81544 15.7994C5.76493 15.7995 5.71489 15.7896 5.66823 15.7702C5.62157 15.7509 5.5792 15.7225 5.54357 15.6867L4.86352 15.0069C4.79138 14.9347 4.75085 14.8369 4.75085 14.7349C4.75085 14.6329 4.79138 14.535 4.86352 14.4629C4.93566 14.3908 5.0335 14.3502 5.13551 14.3502C5.23753 14.3502 5.33537 14.3908 5.40751 14.4629L5.81616 14.8715L6.90414 13.7838C6.93933 13.7458 6.98182 13.7153 7.02907 13.6941C7.07632 13.673 7.12736 13.6616 7.17913 13.6606C7.2309 13.6596 7.28233 13.6691 7.33034 13.6885C7.37836 13.7079 7.42196 13.7368 7.45854 13.7734C7.49512 13.8101 7.52392 13.8537 7.54323 13.9018C7.56253 13.9498 7.57193 14.0013 7.57087 14.053C7.56981 14.1048 7.5583 14.1558 7.53705 14.203C7.51579 14.2502 7.48522 14.2927 7.44717 14.3278L6.08756 15.6874C6.05182 15.7231 6.00938 15.7514 5.96268 15.7706C5.91598 15.7898 5.86594 15.7996 5.81544 15.7994ZM5.81544 18.2701C5.71345 18.2701 5.61566 18.2295 5.54357 18.1574L4.86352 17.4776C4.8278 17.4418 4.79947 17.3994 4.78013 17.3528C4.7608 17.3061 4.75085 17.2561 4.75085 17.2056C4.75085 17.155 4.7608 17.105 4.78013 17.0584C4.79947 17.0117 4.8278 16.9693 4.86352 16.9336C4.89924 16.8978 4.94164 16.8695 4.98831 16.8502C5.03498 16.8308 5.085 16.8209 5.13551 16.8209C5.18603 16.8209 5.23605 16.8308 5.28272 16.8502C5.32939 16.8695 5.37179 16.8978 5.40751 16.9336L5.81616 17.3422L6.90414 16.2545C6.97686 16.1854 7.07369 16.1474 7.17398 16.1487C7.27427 16.15 7.3701 16.1904 7.44102 16.2614C7.51194 16.3323 7.55236 16.4281 7.55364 16.5284C7.55492 16.6287 7.51698 16.7255 7.44789 16.7982L6.08828 18.1581C6.05241 18.1938 6.00984 18.2221 5.96302 18.2413C5.91621 18.2605 5.86605 18.2703 5.81544 18.2701ZM5.81544 20.734C5.71345 20.734 5.61566 20.6934 5.54357 20.6213L4.86352 19.9413C4.79315 19.8688 4.75412 19.7715 4.75488 19.6705C4.75564 19.5694 4.79613 19.4728 4.86758 19.4013C4.93904 19.3299 5.03573 19.2895 5.13676 19.2888C5.23779 19.288 5.33505 19.3271 5.40751 19.3975L5.81616 19.8062L6.90414 18.7182C6.93967 18.6816 6.98211 18.6525 7.029 18.6325C7.07589 18.6124 7.12629 18.602 7.17727 18.6016C7.22825 18.6012 7.27879 18.611 7.32596 18.6304C7.37313 18.6497 7.41598 18.6782 7.45202 18.7143C7.48806 18.7504 7.51657 18.7932 7.5359 18.8404C7.55523 18.8876 7.56498 18.9381 7.5646 18.9891C7.56421 19.0401 7.5537 19.0905 7.53366 19.1374C7.51363 19.1842 7.48447 19.2267 7.44789 19.2622L6.08828 20.622C6.05241 20.6577 6.00984 20.686 5.96302 20.7052C5.91621 20.7244 5.86605 20.7342 5.81544 20.734ZM16.7212 19.3264C14.1895 19.3264 12.1299 17.2665 12.1299 14.735C12.1299 12.2035 14.1895 10.1437 16.7212 10.1437C19.2529 10.1437 21.3126 12.2033 21.3126 14.735C21.3126 17.2667 19.2529 19.3264 16.7212 19.3264ZM16.7212 10.9129C14.6138 10.9129 12.8991 12.6273 12.8991 14.735C12.8991 16.8427 14.6138 18.5571 16.7212 18.5571C18.8287 18.5571 20.5433 16.8425 20.5433 14.735C20.5433 12.6276 18.8287 10.9129 16.7212 10.9129Z" fill="#8A8A8A"/>
<path d="M15.8713 16.8164C15.7693 16.8167 15.6715 16.7765 15.5992 16.7046L13.8994 15.0049C13.8637 14.9691 13.8354 14.9267 13.816 14.8801C13.7967 14.8334 13.7867 14.7834 13.7867 14.7329C13.7867 14.6823 13.7967 14.6323 13.816 14.5857C13.8354 14.539 13.8637 14.4966 13.8994 14.4609C13.9351 14.4251 13.9775 14.3968 14.0242 14.3775C14.0709 14.3581 14.1209 14.3482 14.1714 14.3482C14.2219 14.3482 14.2719 14.3581 14.3186 14.3775C14.3653 14.3968 14.4077 14.4251 14.4434 14.4609L15.8713 15.8887L18.9987 12.7611C19.0708 12.689 19.1687 12.6484 19.2707 12.6484C19.3727 12.6484 19.4705 12.689 19.5427 12.7611C19.6148 12.8332 19.6553 12.9311 19.6553 13.0331C19.6553 13.1351 19.6148 13.233 19.5427 13.3051L16.1432 16.7046C16.0709 16.7764 15.9731 16.8166 15.8713 16.8164Z" fill="#8A8A8A"/>
</svg>
