<svg width="24" height="25" viewBox="0 0 24 25" fill="none" xmlns="http://www.w3.org/2000/svg">
<g clip-path="url(#clip0_276_8023)">
<path d="M6.87156 4.44227C6.9652 4.5359 7.08792 4.58249 7.2102 4.58249C7.30492 4.58257 7.39753 4.55454 7.47631 4.50195C7.55509 4.44936 7.6165 4.37458 7.65276 4.28708C7.68902 4.19957 7.6985 4.10327 7.68 4.01038C7.6615 3.91748 7.61585 3.83216 7.54883 3.76522L6.42383 2.64022C6.37938 2.59577 6.3266 2.5605 6.26852 2.53644C6.21043 2.51238 6.14818 2.5 6.08531 2.5C6.02244 2.5 5.96019 2.51238 5.9021 2.53644C5.84402 2.5605 5.79124 2.59577 5.74679 2.64022C5.70233 2.68468 5.66707 2.73745 5.64301 2.79554C5.61895 2.85362 5.60657 2.91587 5.60657 2.97874C5.60657 3.04161 5.61895 3.10387 5.64301 3.16195C5.66707 3.22003 5.70233 3.27281 5.74679 3.31727L6.87156 4.44227ZM17.2307 4.58272C17.3534 4.58272 17.4761 4.5359 17.5697 4.44249L18.6947 3.31749C18.7392 3.27304 18.7745 3.22026 18.7985 3.16218C18.8226 3.10409 18.835 3.04184 18.835 2.97897C18.835 2.9161 18.8226 2.85385 18.7985 2.79576C18.7745 2.73768 18.7392 2.6849 18.6947 2.64045C18.6503 2.59599 18.5975 2.56073 18.5394 2.53667C18.4813 2.51261 18.4191 2.50023 18.3562 2.50023C18.2934 2.50023 18.2311 2.51261 18.173 2.53667C18.1149 2.56073 18.0622 2.59599 18.0177 2.64045L16.8922 3.76545C16.8252 3.83237 16.7796 3.91767 16.7611 4.01055C16.7426 4.10342 16.752 4.1997 16.7883 4.2872C16.8245 4.37469 16.8859 4.44948 16.9646 4.50208C17.0434 4.55469 17.136 4.58275 17.2307 4.58272ZM12.082 6.46477C12.2929 6.46022 12.5014 6.51028 12.6872 6.61007C12.8731 6.70986 13.03 6.856 13.1427 7.03431C13.1761 7.08767 13.2197 7.13391 13.2711 7.17036C13.3224 7.20681 13.3804 7.23276 13.4418 7.24672C13.5032 7.26068 13.5668 7.26237 13.6288 7.2517C13.6909 7.24103 13.7502 7.21821 13.8034 7.18454C13.9108 7.11694 13.987 7.00943 14.0152 6.88565C14.0434 6.76188 14.0212 6.63198 13.9536 6.52454C13.5454 5.87613 12.8107 5.48318 12.0557 5.50727C11.9287 5.51078 11.8083 5.56455 11.7209 5.65676C11.6336 5.74898 11.5864 5.8721 11.5897 5.99909C11.5975 6.26295 11.8191 6.45068 12.082 6.46477Z" fill="#8A8A8A"/>
<path d="M20.6193 7.34662C19.3657 7.1414 18.0811 7.1323 16.7939 7.29708C16.6448 6.30117 16.1946 5.38253 15.4584 4.66594C14.5527 3.78435 13.3577 3.3148 12.093 3.35162C9.84728 3.41117 7.98614 5.12776 7.64705 7.29571C6.345 7.12412 4.99796 7.14049 3.8075 7.34844C3.33205 7.43912 3 7.83958 3 8.32253V21.1948C3 21.3878 3.09477 21.5673 3.255 21.6755C3.35432 21.7428 3.56068 21.7796 3.68068 21.7637L4.15773 21.693C6.58886 21.3421 9.00341 21.5287 11.337 22.2514L12.0795 22.4789C12.125 22.4925 12.1725 22.4996 12.2198 22.4996C12.2707 22.4996 12.5198 22.4253 12.5198 22.4253C15.0075 21.5641 17.6825 21.3121 20.2591 21.6928C20.2591 21.6928 20.5561 21.7112 20.6521 21.7348C20.8359 21.7805 21.0268 21.7828 21.1848 21.6753C21.3164 21.5864 21.4398 21.3537 21.4398 21.1946V8.32231C21.4396 7.83935 21.1075 7.4389 20.6193 7.34662ZM12.1186 4.30912C12.1525 4.30799 12.1864 4.30799 12.2205 4.30799C13.1868 4.30799 14.0961 4.67639 14.79 5.3523C15.1442 5.69467 15.4255 6.10509 15.6171 6.55892C15.8088 7.01274 15.9067 7.5006 15.905 7.99321C15.905 9.01981 15.4718 10.0075 14.7157 10.7032C14.2889 11.0966 14.0539 11.613 14.0539 12.158C14.0535 12.445 13.9393 12.7202 13.7363 12.9232C13.5334 13.1262 13.2582 13.2404 12.9711 13.2407H12.6982V10.723C12.6944 10.5985 12.6422 10.4805 12.5528 10.3938C12.4634 10.3071 12.3438 10.2587 12.2193 10.2587C12.0948 10.2587 11.9752 10.3071 11.8858 10.3938C11.7964 10.4805 11.7443 10.5985 11.7405 10.723V13.2405H11.4675C11.1805 13.2401 10.9053 13.1259 10.7023 12.923C10.4993 12.72 10.3851 12.4448 10.3848 12.1578C10.3848 11.6123 10.1498 11.0959 9.72296 10.703C9.34472 10.3543 9.04353 9.93036 8.83872 9.45843C8.63391 8.9865 8.52999 8.47698 8.53364 7.96253C8.54977 6.00003 10.1577 4.36117 12.1186 4.30912ZM12.2209 15.5548C11.9173 15.5544 11.6263 15.4335 11.4117 15.2188C11.197 15.0041 11.0764 14.713 11.0761 14.4094V14.1587C11.2049 14.1844 11.3359 14.1977 11.4673 14.1982H12.9711C13.1003 14.1975 13.2292 14.1844 13.3559 14.1594V14.4094C13.3559 15.0409 12.8466 15.5548 12.2209 15.5548ZM4.01864 20.745L3.95841 20.755L3.98 8.29094C5.08614 8.09844 6.37318 8.08549 7.605 8.25526C7.67409 9.45367 8.18614 10.5914 9.07432 11.4084C9.30182 11.6171 9.42682 11.8839 9.42682 12.158C9.42682 12.7641 9.6975 13.303 10.118 13.6771V14.4096C10.118 15.4037 10.8132 16.2337 11.7409 16.4523V21.3734L11.6186 21.3362C9.14955 20.5703 6.59341 20.3719 4.01864 20.745ZM20.4818 20.7566L20.3964 20.745C17.8361 20.3644 15.1882 20.6009 12.6986 21.3821V16.4521C13.6225 16.2337 14.3141 15.4037 14.3141 14.4094V13.6823C14.7386 13.3082 15.0116 12.7669 15.0116 12.1578C15.0116 11.8834 15.1373 11.6169 15.3648 11.4075C16.2511 10.5919 16.7661 9.45321 16.8352 8.25617C18.0573 8.09253 19.278 8.10049 20.4818 8.32231V20.7566Z" fill="#8A8A8A"/>
<path d="M5.8908 12.4109H7.4308C7.55525 12.407 7.67332 12.3549 7.75999 12.2655C7.84667 12.1761 7.89514 12.0565 7.89514 11.932C7.89514 11.8075 7.84667 11.6879 7.75999 11.5985C7.67332 11.5091 7.55525 11.457 7.4308 11.4531H5.8908C5.76635 11.457 5.64828 11.5091 5.56161 11.5985C5.47494 11.6879 5.42646 11.8075 5.42646 11.932C5.42646 12.0565 5.47494 12.1761 5.56161 12.2655C5.64828 12.3549 5.76635 12.407 5.8908 12.4109ZM5.8908 15.4165H8.62762C8.75462 15.4165 8.87642 15.3661 8.96623 15.2763C9.05603 15.1865 9.10648 15.0647 9.10648 14.9377C9.10648 14.8107 9.05603 14.6889 8.96623 14.5991C8.87642 14.5093 8.75462 14.4588 8.62762 14.4588H5.8908C5.62603 14.4588 5.41125 14.6734 5.41125 14.9377C5.41125 15.202 5.62603 15.4165 5.8908 15.4165ZM9.40694 17.2711H5.8908C5.62603 17.2711 5.41125 17.4856 5.41125 17.7499C5.41125 18.0143 5.6258 18.2288 5.8908 18.2288H9.40694C9.53139 18.225 9.64945 18.1728 9.73613 18.0835C9.8228 17.9941 9.87127 17.8745 9.87127 17.7499C9.87127 17.6254 9.8228 17.5058 9.73613 17.4164C9.64945 17.327 9.53139 17.2749 9.40694 17.2711ZM16.5308 12.1254C16.5308 12.3897 16.7453 12.6043 17.0103 12.6043H18.5499C18.6743 12.6004 18.7924 12.5483 18.8791 12.4589C18.9658 12.3695 19.0142 12.2499 19.0142 12.1254C19.0142 12.0009 18.9658 11.8813 18.8791 11.7919C18.7924 11.7025 18.6743 11.6504 18.5499 11.6465H17.0103C16.7453 11.6465 16.5308 11.8611 16.5308 12.1254ZM18.549 14.4588H15.8122C15.6852 14.4588 15.5634 14.5093 15.4736 14.5991C15.3838 14.6889 15.3333 14.8107 15.3333 14.9377C15.3333 15.0647 15.3838 15.1865 15.4736 15.2763C15.5634 15.3661 15.6852 15.4165 15.8122 15.4165H18.549C18.8138 15.4165 19.0285 15.202 19.0285 14.9377C19.0285 14.6734 18.8138 14.4588 18.549 14.4588ZM18.2065 17.2681H15.0317C14.9073 17.272 14.7892 17.3241 14.7025 17.4135C14.6158 17.5029 14.5674 17.6225 14.5674 17.747C14.5674 17.8715 14.6158 17.9911 14.7025 18.0805C14.7892 18.1699 14.9073 18.222 15.0317 18.2259H18.2065C18.3309 18.222 18.449 18.1699 18.5357 18.0805C18.6223 17.9911 18.6708 17.8715 18.6708 17.747C18.6708 17.6225 18.6223 17.5029 18.5357 17.4135C18.449 17.3241 18.3309 17.272 18.2065 17.2681Z" fill="#8A8A8A"/>
</g>
<defs>
<clipPath id="clip0_276_8023">
<rect width="24" height="24" fill="white" transform="translate(0 0.5)"/>
</clipPath>
</defs>
</svg>
