<svg width="18" height="18" viewBox="0 0 18 18" fill="none" xmlns="http://www.w3.org/2000/svg">
<path d="M16.0799 3.44324H16.6361C16.8301 3.44324 16.9875 3.28584 16.9875 3.09178C16.9875 2.89789 16.8301 2.74048 16.6361 2.74048H15.301C15.1069 2.74048 14.9497 2.89789 14.9497 3.09178V4.42696C14.9497 4.62102 15.1069 4.77823 15.301 4.77823C15.495 4.77823 15.6523 4.62102 15.6523 4.42696V4.04036C16.7184 5.46753 17.2978 7.19928 17.2978 9.00029C17.2978 13.5756 13.5755 17.2978 9.00027 17.2978C4.425 17.2978 0.702728 13.5756 0.702728 9.00029C0.702728 4.42502 4.425 0.702728 9.00027 0.702728C9.33867 0.702728 9.67924 0.723206 10.0126 0.763733C10.205 0.787079 10.3804 0.649994 10.4037 0.457336C10.4272 0.264771 10.29 0.0895691 10.0974 0.0662079C9.73598 0.0222626 9.36696 0 9.00027 0C6.59627 0 4.33601 0.936218 2.63609 2.63611C0.936203 4.33603 0 6.59627 0 9.00029C0 11.4043 0.936203 13.6646 2.63609 15.3645C4.33601 17.0644 6.59627 18.0005 9.00027 18.0005C11.4043 18.0005 13.6645 17.0644 15.3645 15.3645C17.0643 13.6646 18.0005 11.4043 18.0005 9.00029C18.0005 6.9716 17.3228 5.02406 16.0799 3.44324Z" fill="#ABB2B3"/>
<path d="M3.81118 5.30572C3.64721 5.2019 3.43008 5.25079 3.32626 5.41461C2.52424 6.68139 2.16923 8.20495 2.32648 9.70449C2.48621 11.2263 3.17121 12.6614 4.2552 13.7454C5.56342 15.0536 7.28187 15.7078 9.00033 15.7078C10.7189 15.7078 12.4372 15.0538 13.7455 13.7454C16.3621 11.1289 16.3621 6.87158 13.7455 4.25512C12.6632 3.17279 11.2304 2.48815 9.71117 2.3272C8.21439 2.16863 6.69242 2.52087 5.42625 3.31903C5.26197 3.42248 5.21293 3.63946 5.31637 3.80358C5.41978 3.96777 5.63676 4.01696 5.80088 3.91339C8.18787 2.40905 11.2504 2.75378 13.2486 4.75198C15.5911 7.09448 15.5911 10.906 13.2486 13.2485C10.9061 15.5912 7.09455 15.5912 4.75205 13.2485C2.78147 11.2779 2.43154 8.14135 3.9201 5.79049C4.02378 5.62652 3.97501 5.40954 3.81118 5.30572Z" fill="#ABB2B3"/>
<path d="M13.5681 9.35699H14.0014C14.1954 9.35699 14.3528 9.19965 14.3528 9.00558C14.3528 8.81171 14.1954 8.6543 14.0014 8.6543H13.5681C13.3741 8.6543 13.2168 8.81171 13.2168 9.00558C13.2168 9.19965 13.3741 9.35699 13.5681 9.35699Z" fill="#ABB2B3"/>
<path d="M3.64844 8.995C3.64844 9.1889 3.8058 9.34631 3.99988 9.34631H4.43314C4.62708 9.34631 4.78444 9.1889 4.78444 8.995C4.78444 8.80093 4.62708 8.64355 4.43314 8.64355H3.99988C3.8058 8.64355 3.64844 8.80093 3.64844 8.995Z" fill="#ABB2B3"/>
<path d="M9.358 4.43317V3.99988C9.358 3.80582 9.20065 3.64844 9.00659 3.64844C8.81268 3.64844 8.65527 3.80582 8.65527 3.99988V4.43317C8.65527 4.62708 8.81268 4.78448 9.00659 4.78448C9.20065 4.78448 9.358 4.62708 9.358 4.43317Z" fill="#ABB2B3"/>
<path d="M8.64355 13.5681V14.0014C8.64355 14.1954 8.8009 14.3528 8.99496 14.3528C9.18887 14.3528 9.34625 14.1954 9.34625 14.0014V13.5681C9.34625 13.3742 9.18887 13.2168 8.99496 13.2168C8.8009 13.2168 8.64355 13.3741 8.64355 13.5681Z" fill="#ABB2B3"/>
<path d="M7.23955 6.74234C7.10222 6.60529 6.8799 6.60529 6.74251 6.74234C6.60536 6.87955 6.60536 7.10202 6.74251 7.23935L7.93336 8.43002C7.84203 8.60004 7.79024 8.79425 7.79024 9.0004C7.79024 9.66782 8.33315 10.2107 9.00056 10.2107C9.66798 10.2107 10.2109 9.66782 10.2109 9.0004C10.2109 8.79425 10.159 8.60004 10.0678 8.43002L12.4704 6.0275C12.6076 5.8902 12.6076 5.66785 12.4704 5.53055C12.3331 5.39346 12.1108 5.39346 11.9734 5.53055L9.57094 7.9332C9.40089 7.84183 9.20671 7.79007 9.00056 7.79007C8.79445 7.79007 8.60023 7.84201 8.43019 7.9332L7.23955 6.74234ZM9.50826 9.0004C9.50826 9.28024 9.28047 9.50809 9.00056 9.50809C8.72069 9.50809 8.49287 9.28024 8.49287 9.0004C8.49287 8.72049 8.72069 8.49268 9.00056 8.49268C9.28047 8.49268 9.50826 8.72049 9.50826 9.0004Z" fill="#ABB2B3"/>
<path d="M4.75208 4.75208C4.81769 4.68671 4.85535 4.59607 4.85535 4.50366C4.85535 4.41119 4.81769 4.32098 4.75208 4.25519C4.68671 4.18994 4.59631 4.15234 4.50366 4.15234C4.41119 4.15234 4.32056 4.18982 4.25519 4.25519C4.18997 4.32056 4.15234 4.41119 4.15234 4.50366C4.15234 4.59631 4.18982 4.68671 4.25519 4.75208C4.32056 4.81732 4.41119 4.85492 4.50366 4.85492C4.59631 4.85492 4.68671 4.81732 4.75208 4.75208Z" fill="#ABB2B3"/>
<path d="M11.4343 1.04941C11.5272 1.04941 11.6178 1.01207 11.6832 0.946442C11.7485 0.881042 11.7861 0.790833 11.7861 0.697968C11.7861 0.605682 11.7485 0.515045 11.6832 0.449692C11.6178 0.384308 11.5272 0.34668 11.4343 0.34668C11.342 0.34668 11.2514 0.384308 11.186 0.449692C11.1207 0.515045 11.083 0.605682 11.083 0.697968C11.083 0.790833 11.1207 0.881042 11.186 0.946442C11.2514 1.01207 11.342 1.04941 11.4343 1.04941Z" fill="#ABB2B3"/>
</svg>
