<svg width="41" height="40" viewBox="0 0 41 40" fill="none" xmlns="http://www.w3.org/2000/svg">
<g clip-path="url(#clip0_745_22380)">
<path d="M20.6665 24.1016C22.9317 24.1016 24.7681 22.2652 24.7681 20C24.7681 17.7348 22.9317 15.8984 20.6665 15.8984C18.4013 15.8984 16.5649 17.7348 16.5649 20C16.5649 22.2652 18.4013 24.1016 20.6665 24.1016Z" fill="white"/>
<path d="M20.6665 0.46875C9.87971 0.46875 1.13525 9.2132 1.13525 20C1.13525 30.7868 9.87971 39.5312 20.6665 39.5312C31.4533 39.5312 40.1978 30.7868 40.1978 20C40.1978 9.2132 31.4533 0.46875 20.6665 0.46875ZM32.7335 24.9641C32.6398 26.8209 32.118 28.652 30.7648 29.9909C29.3985 31.3424 27.5587 31.846 25.6839 31.9388H15.6492C13.7742 31.846 11.9346 31.3427 10.5683 29.9909C9.21502 28.652 8.6933 26.8209 8.59955 24.9641V15.0359C8.6933 13.1791 9.2151 11.348 10.5683 10.0091C11.9346 8.6575 13.7744 8.15391 15.6492 8.06117H25.6838C27.5588 8.15391 29.3984 8.65727 30.7647 10.0091C32.118 11.348 32.6397 13.1791 32.7335 15.0359L32.7335 24.9641Z" fill="white"/>
<path d="M25.5571 10.3232C23.1129 10.2562 18.2207 10.2562 15.7765 10.3232C14.5045 10.3581 13.0626 10.6748 12.1563 11.6428C11.2146 12.6489 10.8587 13.8646 10.8226 15.2245C10.7592 17.6113 10.8226 24.7754 10.8226 24.7754C10.864 26.1352 11.2146 27.351 12.1563 28.3571C13.0626 29.3254 14.5045 29.6417 15.7765 29.6767C18.2207 29.7437 23.1129 29.7437 25.5571 29.6767C26.829 29.6417 28.271 29.3251 29.1772 28.3571C30.119 27.351 30.4748 26.1353 30.5109 24.7754V15.2245C30.4748 13.8646 30.119 12.6489 29.1772 11.6428C28.2707 10.6745 26.8287 10.3581 25.5571 10.3232ZM20.6665 26.3574C19.4091 26.3574 18.1799 25.9845 17.1345 25.2859C16.089 24.5874 15.2741 23.5945 14.793 22.4328C14.3118 21.2712 14.1859 19.9929 14.4312 18.7597C14.6765 17.5265 15.282 16.3937 16.1711 15.5046C17.0602 14.6155 18.193 14.01 19.4262 13.7647C20.6594 13.5194 21.9377 13.6453 23.0993 14.1264C24.261 14.6076 25.2539 15.4225 25.9525 16.4679C26.651 17.5134 27.0239 18.7426 27.0239 19.9999C27.0239 21.686 26.3541 23.3031 25.1618 24.4953C23.9696 25.6876 22.3525 26.3574 20.6665 26.3574ZM27.0509 14.9548C26.7994 14.9547 26.5536 14.8801 26.3446 14.7404C26.1355 14.6006 25.9726 14.402 25.8764 14.1697C25.7802 13.9373 25.7551 13.6817 25.8042 13.4351C25.8533 13.1884 25.9744 12.9619 26.1523 12.7841C26.3301 12.6063 26.5566 12.4853 26.8033 12.4362C27.0499 12.3872 27.3056 12.4124 27.5379 12.5086C27.7702 12.6049 27.9687 12.7678 28.1084 12.9769C28.2481 13.186 28.3227 13.4318 28.3227 13.6833C28.3227 13.8503 28.2898 14.0157 28.2259 14.1699C28.162 14.3242 28.0683 14.4644 27.9502 14.5825C27.8321 14.7006 27.6919 14.7942 27.5376 14.8581C27.3833 14.922 27.2179 14.9548 27.0509 14.9548Z" fill="white"/>
</g>
<defs>
<clipPath id="clip0_745_22380">
<rect width="40" height="40" fill="white" transform="translate(0.666504)"/>
</clipPath>
</defs>
</svg>
