<svg width="41" height="40" viewBox="0 0 41 40" fill="none" xmlns="http://www.w3.org/2000/svg">
<g clip-path="url(#clip0_745_22374)">
<path d="M20.3335 0C16.3779 0 12.5111 1.17298 9.2221 3.37061C5.93312 5.56824 3.36967 8.69181 1.85591 12.3463C0.342162 16.0009 -0.053905 20.0222 0.7178 23.9018C1.4895 27.7814 3.39432 31.3451 6.19137 34.1421C8.98842 36.9392 12.5521 38.844 16.4317 39.6157C20.3113 40.3874 24.3327 39.9913 27.9872 38.4776C31.6417 36.9638 34.7653 34.4004 36.9629 31.1114C39.1605 27.8224 40.3335 23.9556 40.3335 20C40.3335 14.6957 38.2264 9.60859 34.4756 5.85786C30.7249 2.10714 25.6378 0 20.3335 0ZM14.5177 30.5263H10.1546V16.4711H14.5177V30.5263ZM12.3335 14.5526C11.8314 14.5547 11.3399 14.4079 10.9212 14.1307C10.5025 13.8535 10.1753 13.4584 9.98114 12.9953C9.78694 12.5322 9.73438 12.022 9.83012 11.529C9.92585 11.0361 10.1656 10.5826 10.519 10.2259C10.8724 9.86917 11.3236 9.62523 11.8157 9.52491C12.3077 9.42458 12.8184 9.47238 13.2833 9.66225C13.7481 9.85213 14.1463 10.1756 14.4273 10.5917C14.7084 11.0078 14.8598 11.4979 14.8625 12C14.8639 12.6733 14.5986 13.3198 14.1247 13.7982C13.6508 14.2765 13.0068 14.5478 12.3335 14.5526ZM30.8598 30.5263H26.4993V23.6842C26.4993 22.0526 26.4677 19.9605 24.2309 19.9605C21.994 19.9605 21.5993 21.7342 21.5993 23.5658V30.5263H17.2546V16.4711H21.4414V18.3868H21.5019C22.0835 17.2816 23.5072 16.1158 25.6309 16.1158C30.0467 16.1158 30.8598 19.0263 30.8598 22.8053V30.5263Z" fill="white"/>
</g>
<defs>
<clipPath id="clip0_745_22374">
<rect width="40" height="40" fill="white" transform="translate(0.333496)"/>
</clipPath>
</defs>
</svg>
