<svg width="24" height="25" viewBox="0 0 24 25" fill="none" xmlns="http://www.w3.org/2000/svg">
<g clip-path="url(#clip0_745_22328)">
<path d="M11.6667 2.5C7.99074 2.5 5 5.49074 5 9.16668C5 10.2702 5.2759 11.3643 5.80039 12.3348L11.3021 22.2852C11.3754 22.4178 11.5149 22.5 11.6667 22.5C11.8184 22.5 11.958 22.4178 12.0312 22.2852L17.535 12.3315C18.0575 11.3643 18.3334 10.2702 18.3334 9.16664C18.3334 5.49074 15.3426 2.5 11.6667 2.5ZM11.6667 12.5C9.82871 12.5 8.33336 11.0046 8.33336 9.16668C8.33336 7.32871 9.82871 5.83336 11.6667 5.83336C13.5046 5.83336 15 7.32871 15 9.16668C15 11.0046 13.5046 12.5 11.6667 12.5Z" fill="white"/>
</g>
<defs>
<clipPath id="clip0_745_22328">
<rect width="24" height="24" fill="white" transform="translate(0 0.5)"/>
</clipPath>
</defs>
</svg>
