<svg width="24" height="25" viewBox="0 0 24 25" fill="none" xmlns="http://www.w3.org/2000/svg">
<path d="M14.9596 13.3584L13.2845 15.0392C12.6052 15.7208 11.41 15.7355 10.716 15.0392L9.04086 13.3584L3.02441 19.3944C3.24837 19.4979 3.49529 19.5597 3.7578 19.5597H20.2427C20.5052 19.5597 20.7521 19.498 20.9759 19.3944L14.9596 13.3584Z" fill="white"/>
<path d="M20.2426 5.5H3.75772C3.49521 5.5 3.24829 5.5618 3.02441 5.66536L9.45341 12.1157C9.45384 12.1161 9.45435 12.1162 9.45478 12.1166C9.45521 12.117 9.45528 12.1176 9.45528 12.1176L11.5457 14.215C11.7677 14.437 12.2327 14.437 12.4547 14.215L14.5447 12.118C14.5447 12.118 14.5452 12.117 14.5456 12.1166C14.5456 12.1166 14.5466 12.1161 14.547 12.1157L20.9758 5.66532C20.752 5.56172 20.5051 5.5 20.2426 5.5Z" fill="white"/>
<path d="M2.18696 6.48242C2.0711 6.71673 2 6.97681 2 7.25542V17.8026C2 18.0812 2.07102 18.3413 2.18692 18.5756L8.21379 12.5292L2.18696 6.48242Z" fill="white"/>
<path d="M21.8115 6.48047L15.7847 12.5273L21.8115 18.5738C21.9273 18.3395 21.9984 18.0794 21.9984 17.8008V7.25354C21.9984 6.97486 21.9273 6.71477 21.8115 6.48047Z" fill="white"/>
</svg>
