<svg width="15" height="17" viewBox="0 0 15 17" fill="none" xmlns="http://www.w3.org/2000/svg">
<path d="M1.11659 17H13.0166C13.1731 17 13.2999 16.8731 13.2999 16.7167V15.3H14.7166C14.8731 15.3 14.9999 15.1731 14.9999 15.0167V4.25C14.9999 4.24377 14.9968 4.23838 14.9962 4.23215C14.9948 4.20732 14.99 4.18282 14.9818 4.15933C14.9787 4.15027 14.9764 4.14148 14.9724 4.1327C14.9587 4.10189 14.9395 4.07377 14.9158 4.04968L10.9491 0.0830173C10.925 0.0593224 10.8969 0.0401287 10.8661 0.02635C10.8573 0.0223827 10.8485 0.0201187 10.8397 0.0170002C10.816 0.00885582 10.7914 0.00389671 10.7664 0.00226784C10.7615 0.00311661 10.7562 0 10.7499 0H2.81659C2.66012 0 2.53326 0.126862 2.53326 0.283335V1.13334H1.11659C0.960121 1.13334 0.833252 1.2602 0.833252 1.41667V16.7167C0.833252 16.8731 0.960121 17 1.11659 17ZM14.0326 3.96667H11.0333V0.967299L14.0326 3.96667ZM3.09992 0.566668H10.4666V4.25C10.4666 4.40647 10.5935 4.53333 10.7499 4.53333H14.4333V14.7333H3.09992V0.566668ZM1.39992 1.7H2.53326V15.0167C2.53326 15.1731 2.66012 15.3 2.81659 15.3H12.7333V16.4333H1.39992V1.7Z" fill="#ABB2B3"/>
</svg>
