<svg width="24" height="25" viewBox="0 0 24 25" fill="none" xmlns="http://www.w3.org/2000/svg">
<path d="M19.5523 16.4203C18.3441 15.3869 17.1179 14.761 15.9246 15.7928L15.212 16.4164C14.6906 16.8691 13.7212 18.9842 9.97326 14.6728C6.22609 10.3668 8.45597 9.69631 8.97812 9.24752L9.69462 8.62312C10.8818 7.58896 10.4338 6.28709 9.57755 4.94698L9.06086 4.13526C8.20075 2.79826 7.26415 1.9202 6.07389 2.9528L5.43076 3.51476C4.9047 3.89799 3.43424 5.14366 3.07756 7.51013C2.64828 10.3496 4.00245 13.6011 7.10493 17.1688C10.2035 20.738 13.2373 22.5308 16.1111 22.4996C18.4994 22.4738 19.9418 21.1923 20.3929 20.7263L21.0384 20.1636C22.2255 19.1317 21.4879 18.0812 20.279 17.0455L19.5523 16.4203Z" fill="white"/>
</svg>
