<svg width="18" height="18" viewBox="0 0 18 18" fill="none" xmlns="http://www.w3.org/2000/svg">
<g clip-path="url(#clip0_490_20060)">
<path d="M5.1537 2.9567C5.22393 3.02693 5.31597 3.06187 5.40768 3.06187C5.47872 3.06193 5.54818 3.0409 5.60726 3.00146C5.66635 2.96202 5.71241 2.90594 5.7396 2.84031C5.76679 2.77468 5.7739 2.70245 5.76003 2.63278C5.74615 2.56311 5.71192 2.49912 5.66166 2.44892L4.81791 1.60517C4.78456 1.57182 4.74498 1.54538 4.70142 1.52733C4.65786 1.50929 4.61117 1.5 4.56401 1.5C4.51686 1.5 4.47017 1.50929 4.42661 1.52733C4.38305 1.54538 4.34346 1.57182 4.31012 1.60517C4.27678 1.63851 4.25033 1.67809 4.23229 1.72165C4.21424 1.76522 4.20496 1.81191 4.20496 1.85906C4.20496 1.90621 4.21424 1.9529 4.23229 1.99646C4.25033 2.04003 4.27678 2.07961 4.31012 2.11295L5.1537 2.9567ZM12.923 3.06204C13.0151 3.06204 13.1071 3.02693 13.1773 2.95687L14.0211 2.11312C14.0544 2.07978 14.0809 2.0402 14.0989 1.99663C14.117 1.95307 14.1263 1.90638 14.1263 1.85923C14.1263 1.81208 14.117 1.76539 14.0989 1.72182C14.0809 1.67826 14.0544 1.63868 14.0211 1.60534C13.9877 1.57199 13.9482 1.54555 13.9046 1.5275C13.861 1.50946 13.8144 1.50017 13.7672 1.50017C13.72 1.50017 13.6734 1.50946 13.6298 1.5275C13.5862 1.54555 13.5466 1.57199 13.5133 1.60534L12.6692 2.44909C12.619 2.49928 12.5847 2.56325 12.5709 2.63291C12.557 2.70257 12.5641 2.77478 12.5912 2.8404C12.6184 2.90602 12.6644 2.96211 12.7235 3.00156C12.7826 3.04102 12.852 3.06206 12.923 3.06204ZM9.06154 4.47358C9.21972 4.47017 9.37608 4.50771 9.51547 4.58255C9.65485 4.6574 9.77252 4.767 9.85706 4.90073C9.88211 4.94076 9.91483 4.97543 9.95333 5.00277C9.99183 5.03011 10.0354 5.04957 10.0814 5.06004C10.1274 5.07051 10.1751 5.07178 10.2216 5.06378C10.2682 5.05577 10.3127 5.03866 10.3526 5.01341C10.4331 4.9627 10.4903 4.88207 10.5114 4.78924C10.5325 4.69641 10.5159 4.59899 10.4652 4.5184C10.1591 4.0321 9.60802 3.73738 9.04177 3.75545C8.94654 3.75808 8.85624 3.79841 8.79072 3.86757C8.7252 3.93673 8.68982 4.02908 8.69234 4.12431C8.69813 4.32221 8.86433 4.46301 9.06154 4.47358Z" fill="#3B117F"/>
<path d="M15.4645 5.13448C14.5243 4.98056 13.5609 4.97374 12.5954 5.09732C12.4836 4.35039 12.1459 3.66141 11.5938 3.12397C10.9145 2.46277 10.0183 2.11061 9.06972 2.13823C7.38546 2.18289 5.9896 3.47033 5.73528 5.0963C4.75875 4.9676 3.74847 4.97988 2.85563 5.13584C2.49903 5.20385 2.25 5.50419 2.25 5.86641V15.5206C2.25 15.6653 2.32108 15.8 2.44125 15.8811C2.51574 15.9316 2.67051 15.9592 2.76051 15.9473L3.1183 15.8943C4.94165 15.6311 6.75256 15.771 8.50279 16.3131L9.05966 16.4837C9.09375 16.4939 9.12938 16.4992 9.16483 16.4992C9.20301 16.4992 9.38983 16.4435 9.38983 16.4435C11.2556 15.7976 13.2619 15.6086 15.1943 15.8941C15.1943 15.8941 15.4171 15.9079 15.489 15.9256C15.6269 15.9599 15.7701 15.9616 15.8886 15.881C15.9873 15.8143 16.0798 15.6398 16.0798 15.5204V5.86624C16.0797 5.50402 15.8306 5.20368 15.4645 5.13448ZM9.08898 2.85635C9.11438 2.8555 9.13977 2.8555 9.16534 2.8555C9.89012 2.8555 10.5721 3.13181 11.0925 3.63874C11.3581 3.89552 11.5692 4.20333 11.7129 4.5437C11.8566 4.88407 11.93 5.24996 11.9288 5.61942C11.9288 6.38937 11.6039 7.13016 11.0368 7.65192C10.7167 7.94698 10.5404 8.33425 10.5404 8.743C10.5401 8.95829 10.4545 9.16468 10.3023 9.31691C10.15 9.46914 9.94364 9.55478 9.72835 9.55505H9.52364V7.66675C9.52076 7.57342 9.48166 7.48487 9.41462 7.41986C9.34758 7.35485 9.25787 7.3185 9.16449 7.3185C9.07111 7.3185 8.9814 7.35485 8.91436 7.41986C8.84732 7.48487 8.80822 7.57342 8.80534 7.66675V9.55488H8.60063C8.38534 9.55461 8.17895 9.46897 8.02672 9.31674C7.87449 9.16451 7.78885 8.95812 7.78858 8.74283C7.78858 8.33374 7.61233 7.94647 7.29222 7.65175C7.00854 7.39022 6.78265 7.07228 6.62904 6.71834C6.47543 6.36439 6.3975 5.98224 6.40023 5.59641C6.41233 4.12454 7.6183 2.89539 9.08898 2.85635ZM9.16568 11.2906C8.93798 11.2903 8.71971 11.1997 8.55874 11.0386C8.39778 10.8776 8.30728 10.6592 8.3071 10.4315V10.2435C8.4037 10.2628 8.50194 10.2728 8.60046 10.2732H9.72835C9.82525 10.2726 9.92188 10.2628 10.0169 10.244V10.4315C10.0169 10.9052 9.63495 11.2906 9.16568 11.2906ZM3.01398 15.1833L2.96881 15.1908L2.985 5.84272C3.8146 5.69834 4.77989 5.68863 5.70375 5.81596C5.75557 6.71476 6.1396 7.56806 6.80574 8.18084C6.97636 8.33732 7.07011 8.53743 7.07011 8.743C7.07011 9.19761 7.27313 9.60175 7.58847 9.88232V10.4317C7.58847 11.1773 8.10989 11.7998 8.80568 11.9637V15.6546L8.71398 15.6266C6.86216 15.0522 4.94506 14.9034 3.01398 15.1833ZM15.3614 15.192L15.2973 15.1833C13.3771 14.8978 11.3911 15.0752 9.52398 15.6611V11.9636C10.2169 11.7998 10.7356 11.1773 10.7356 10.4315V9.88624C11.054 9.60567 11.2587 9.19965 11.2587 8.74283C11.2587 8.53709 11.353 8.33715 11.5236 8.18016C12.1884 7.5684 12.5746 6.71442 12.6264 5.81664C13.543 5.69391 14.4585 5.69988 15.3614 5.86624V15.192Z" fill="#3B117F"/>
<path d="M4.41813 8.93314H5.57313C5.66647 8.93026 5.75502 8.89116 5.82002 8.82412C5.88503 8.75709 5.92138 8.66737 5.92138 8.57399C5.92138 8.48061 5.88503 8.3909 5.82002 8.32386C5.75502 8.25682 5.66647 8.21772 5.57313 8.21484H4.41813C4.32479 8.21772 4.23624 8.25682 4.17124 8.32386C4.10623 8.3909 4.06988 8.48061 4.06988 8.57399C4.06988 8.66737 4.10623 8.75709 4.17124 8.82412C4.23624 8.89116 4.32479 8.93026 4.41813 8.93314ZM4.41813 11.1874H6.47075C6.566 11.1874 6.65735 11.1496 6.7247 11.0822C6.79205 11.0149 6.82989 10.9235 6.82989 10.8283C6.82989 10.733 6.79205 10.6417 6.7247 10.5743C6.65735 10.5069 6.566 10.4691 6.47075 10.4691H4.41813C4.21955 10.4691 4.05847 10.63 4.05847 10.8283C4.05847 11.0265 4.21955 11.1874 4.41813 11.1874ZM7.05523 12.5783H4.41813C4.21955 12.5783 4.05847 12.7392 4.05847 12.9375C4.05847 13.1357 4.21938 13.2966 4.41813 13.2966H7.05523C7.14857 13.2937 7.23712 13.2546 7.30213 13.1876C7.36713 13.1206 7.40349 13.0308 7.40349 12.9375C7.40349 12.8441 7.36713 12.7544 7.30213 12.6873C7.23712 12.6203 7.14857 12.5812 7.05523 12.5783ZM12.3981 8.71905C12.3981 8.91729 12.559 9.0782 12.7578 9.0782H13.9125C14.0058 9.07532 14.0943 9.03622 14.1593 8.96918C14.2243 8.90214 14.2607 8.81243 14.2607 8.71905C14.2607 8.62567 14.2243 8.53595 14.1593 8.46891C14.0943 8.40188 14.0058 8.36278 13.9125 8.3599H12.7578C12.559 8.3599 12.3981 8.52081 12.3981 8.71905ZM13.9118 10.4691H11.8592C11.7639 10.4691 11.6726 10.5069 11.6052 10.5743C11.5378 10.6417 11.5 10.733 11.5 10.8283C11.5 10.9235 11.5378 11.0149 11.6052 11.0822C11.6726 11.1496 11.7639 11.1874 11.8592 11.1874H13.9118C14.1103 11.1874 14.2714 11.0265 14.2714 10.8283C14.2714 10.63 14.1103 10.4691 13.9118 10.4691ZM13.6549 12.5761H11.2738C11.1805 12.579 11.0919 12.6181 11.0269 12.6851C10.9619 12.7521 10.9256 12.8419 10.9256 12.9352C10.9256 13.0286 10.9619 13.1183 11.0269 13.1854C11.0919 13.2524 11.1805 13.2915 11.2738 13.2944H13.6549C13.7482 13.2915 13.8368 13.2524 13.9018 13.1854C13.9668 13.1183 14.0031 13.0286 14.0031 12.9352C14.0031 12.8419 13.9668 12.7521 13.9018 12.6851C13.8368 12.6181 13.7482 12.579 13.6549 12.5761Z" fill="#3B117F"/>
</g>
<defs>
<clipPath id="clip0_490_20060">
<rect width="18" height="18" fill="white"/>
</clipPath>
</defs>
</svg>
