<svg width="18" height="18" viewBox="0 0 18 18" fill="none" xmlns="http://www.w3.org/2000/svg">
<path d="M11.3981 3.29408L11.3981 3.29407C11.3541 3.27409 11.3145 3.24563 11.2814 3.21032C11.2484 3.17501 11.2226 3.13353 11.2056 3.08827C11.1886 3.04301 11.1807 2.99484 11.1823 2.94651C11.1839 2.89819 11.1951 2.85065 11.215 2.80663C11.235 2.7626 11.2635 2.72294 11.2988 2.68991C11.3341 2.65688 11.3756 2.63113 11.4209 2.61413C11.4661 2.59712 11.5143 2.58921 11.5626 2.59082C11.6107 2.59242 11.658 2.60344 11.7018 2.62323C11.702 2.62333 11.7023 2.62343 11.7025 2.62353L11.6612 2.71459C15.0233 4.18066 16.6947 8.32555 15.2855 11.7129L11.3981 3.29408ZM11.3981 3.29408C12.8872 3.96982 14.0607 5.19062 14.677 6.70526C15.2826 8.19363 15.305 9.85447 14.7418 11.3572C14.4462 11.3036 14.1401 11.3502 13.8729 11.4912C13.5794 11.6461 13.3534 11.904 13.2383 12.2153C13.1232 12.5266 13.1271 12.8695 13.2493 13.1781C13.3714 13.4867 13.6033 13.7393 13.9003 13.8875C14.1973 14.0357 14.5385 14.0689 14.8586 13.9809C15.1786 13.8929 15.4549 13.6899 15.6344 13.4107C15.8139 13.1315 15.8839 12.7958 15.8311 12.4682C15.7824 12.1652 15.6317 11.8888 15.4054 11.6839L11.3981 3.29408ZM2.02797 10.0712L2.02797 10.0716L2.03675 10.0709C2.16843 10.0594 2.26591 10.007 2.32602 9.91626C2.38202 9.83175 2.39552 9.72841 2.3964 9.63494C2.39716 9.55392 2.38816 9.467 2.38007 9.38876C2.37874 9.37598 2.37744 9.36342 2.37621 9.35116C2.36695 9.25877 2.36184 9.18418 2.36996 9.12761L2.37095 9.12776L2.37097 9.11354C2.37295 7.60507 2.90835 6.14591 3.88246 4.99414C4.83801 3.86432 6.15531 3.1017 7.60897 2.83488C7.70872 3.10978 7.89578 3.34553 8.14273 3.50521C8.41503 3.68128 8.74179 3.75301 9.0628 3.70716C9.38381 3.66131 9.67743 3.50098 9.88955 3.25572C10.1017 3.01046 10.218 2.69679 10.2171 2.37253L10.2171 2.37093C10.1866 0.747656 7.89098 0.547313 7.55602 2.09164C5.80833 2.39533 4.23519 3.33876 3.14403 4.73946C2.03859 6.1585 1.50924 7.94237 1.66173 9.73469L1.66174 9.73481C1.66966 9.82653 1.71166 9.91195 1.77945 9.97422C1.84724 10.0365 1.93591 10.0711 2.02797 10.0712ZM12.3523 14.3939L12.3523 14.3938L12.3494 14.3958C11.0189 15.3005 9.39596 15.6695 7.80516 15.4289C6.24095 15.1924 4.82128 14.3836 3.82031 13.161C4.00331 12.9223 4.10129 12.6281 4.09698 12.3257C4.09227 11.995 3.96563 11.6777 3.74135 11.4347C3.51707 11.1916 3.21095 11.04 2.88172 11.0088C2.55249 10.9776 2.22333 11.0691 1.95741 11.2657C1.69148 11.4622 1.5075 11.7501 1.44078 12.074C1.37406 12.3979 1.42929 12.7351 1.59588 13.0207C1.76246 13.3064 2.02867 13.5205 2.34342 13.622C2.63344 13.7155 2.94585 13.7073 3.22946 13.6001C4.34444 14.976 5.93304 15.8876 7.68547 16.1552C9.46275 16.4265 11.2769 16.0153 12.7634 15.0041L12.7635 15.0041L12.7664 15.0019C12.8432 14.9455 12.8951 14.8614 12.9111 14.7675C12.9272 14.6736 12.9062 14.577 12.8526 14.4983C12.7989 14.4195 12.7168 14.3646 12.6235 14.3451C12.5302 14.3257 12.433 14.3431 12.3523 14.3939ZM14.5089 13.2934C14.3466 13.2934 14.191 13.2289 14.0763 13.1142C13.9616 12.9995 13.8971 12.8439 13.8971 12.6817C13.8971 12.5194 13.9616 12.3638 14.0763 12.2491C14.191 12.1344 14.3466 12.07 14.5089 12.07C14.6711 12.07 14.8267 12.1344 14.9414 12.2491C15.0561 12.3638 15.1206 12.5194 15.1206 12.6817C15.1206 12.8439 15.0561 12.9995 14.9414 13.1142C14.8267 13.2289 14.6711 13.2934 14.5089 13.2934ZM8.86923 1.76108C9.03146 1.76108 9.18706 1.82553 9.30178 1.94025C9.4165 2.05497 9.48095 2.21057 9.48095 2.3728C9.48095 2.53504 9.4165 2.69064 9.30178 2.80536C9.18706 2.92008 9.03146 2.98453 8.86923 2.98453C8.70699 2.98453 8.55139 2.92008 8.43667 2.80536C8.32195 2.69064 8.2575 2.53504 8.2575 2.3728C8.2575 2.21057 8.32195 2.05497 8.43667 1.94025C8.55139 1.82553 8.70699 1.76108 8.86923 1.76108ZM2.14955 12.3375C2.14955 12.1752 2.21399 12.0196 2.32871 11.9049C2.44344 11.7902 2.59903 11.7257 2.76127 11.7257C2.92351 11.7257 3.0791 11.7902 3.19382 11.9049C3.30854 12.0196 3.37299 12.1752 3.37299 12.3375C3.37299 12.4997 3.30854 12.6553 3.19382 12.77C3.0791 12.8847 2.92351 12.9492 2.76127 12.9492C2.59903 12.9492 2.44344 12.8847 2.32871 12.77C2.21399 12.6553 2.14955 12.4997 2.14955 12.3375Z" fill="#3B117F" stroke="#3B117F" stroke-width="0.2"/>
<path d="M11.6313 9.54538C11.2855 9.09212 10.8423 8.72313 10.3351 8.46531C11.3795 7.13719 10.3903 5.04991 8.64873 5.07403C6.90698 5.05101 5.91774 7.13546 6.96223 8.4652C6.45485 8.72271 6.0116 9.09169 5.66606 9.54513C5.29429 10.033 5.04678 10.604 4.94489 11.2088L4.94489 11.2088L4.94472 11.2099C4.92583 11.3296 4.93299 11.4521 4.96569 11.5688C4.9984 11.6856 5.0559 11.7939 5.13426 11.8865C5.21262 11.979 5.31001 12.0536 5.41979 12.105C5.52956 12.1565 5.64915 12.1838 5.7704 12.1849L5.7704 12.1849H5.77131L11.5257 12.1849L11.5264 12.1849C11.6478 12.184 11.7677 12.157 11.8777 12.1056C11.9878 12.0542 12.0854 11.9797 12.1641 11.8871C12.2427 11.7946 12.3004 11.6861 12.3333 11.5692C12.3662 11.4523 12.3735 11.3297 12.3547 11.2097L12.3547 11.2097L12.3545 11.2084C12.2515 10.6037 12.0034 10.033 11.6313 9.54538ZM11.6282 11.3289L11.6281 11.3289L11.6286 11.3311C11.6314 11.3456 11.6309 11.3606 11.6271 11.375C11.6234 11.3893 11.6165 11.4026 11.6069 11.4139C11.5973 11.4252 11.5852 11.4342 11.5717 11.4403C11.5581 11.4463 11.5434 11.4492 11.5286 11.4488L11.5286 11.4487H11.5257L5.77131 11.4487L5.77108 11.4487C5.75662 11.4488 5.74234 11.4456 5.72924 11.4395C5.71615 11.4334 5.70456 11.4245 5.6953 11.4134L5.69531 11.4134L5.69432 11.4122C5.68455 11.4009 5.67742 11.3875 5.67343 11.3731C5.66943 11.3586 5.66868 11.3435 5.67122 11.3287L5.67127 11.3285C5.76047 10.8018 5.98711 10.308 6.32827 9.89699C6.65914 9.49837 7.08637 9.1913 7.56906 9.00468C7.89485 9.20017 8.26792 9.30369 8.6485 9.30369C9.02906 9.30369 9.40212 9.20018 9.7279 9.0047C10.2106 9.19165 10.638 9.4988 10.9692 9.89735C11.3107 10.3083 11.538 10.8022 11.6282 11.3289ZM8.64877 8.56774C6.828 8.50673 6.82828 5.871 8.64876 5.81024C10.4695 5.87125 10.469 8.50698 8.64877 8.56774Z" fill="#3B117F" stroke="#3B117F" stroke-width="0.2"/>
</svg>
