<svg width="40" height="40" viewBox="0 0 40 40" fill="none" xmlns="http://www.w3.org/2000/svg">
<g clip-path="url(#clip0_745_22386)">
<g clip-path="url(#clip1_745_22386)">
<path d="M18.75 0C19.5833 0 20.4167 0 21.25 0C21.3667 0.0166667 21.4833 0.05 21.5833 0.0666667C22.35 0.166667 23.1333 0.233333 23.9 0.383333C34.5167 2.48333 41.55 12.7333 39.7 23.4C38.0833 32.6667 30.2833 39.5667 20.9167 39.9667C16.0333 40.1833 11.6 38.8 7.75 35.7833C3.7 32.6167 1.2 28.4833 0.3 23.4C0.166667 22.7 0.1 21.9667 0 21.25C0 20.4167 0 19.5833 0 18.75C0.05 18.2667 0.1 17.8 0.166667 17.3167C0.75 13.25 2.38333 9.66667 5.13333 6.63333C8.21667 3.21667 12.0333 1.1 16.5833 0.3C17.3 0.183333 18.0333 0.1 18.75 0ZM8.51667 8.23333C8.63333 8.41667 8.68333 8.51667 8.76667 8.61667C11.5833 12.7167 14.4167 16.8333 17.2333 20.9333C17.4167 21.2 17.4333 21.3667 17.2 21.6167C14.4 24.85 11.6 28.1 8.81667 31.35C8.73333 31.45 8.65 31.55 8.5 31.7167C9.11667 31.7167 9.63333 31.7 10.15 31.7167C10.4333 31.7333 10.6 31.6333 10.7833 31.4167C13.2167 28.5667 15.6667 25.7333 18.1167 22.8833C18.2 22.7833 18.2833 22.7 18.3833 22.6C18.5 22.7667 18.6 22.9 18.6833 23.0333C20.6 25.8167 22.5167 28.6 24.4333 31.4C24.5833 31.6333 24.75 31.7167 25.0333 31.7167C27.0333 31.7 29.05 31.7167 31.05 31.7167C31.1667 31.7167 31.3 31.7 31.4833 31.7C28.3667 27.1667 25.2833 22.6667 22.2 18.1833C25.05 14.8833 27.8667 11.5833 30.7667 8.23333C30.1333 8.23333 29.6167 8.25 29.1 8.23333C28.8333 8.21667 28.6667 8.31667 28.5 8.51667C27.1333 10.1167 25.7667 11.7 24.4 13.2833C23.3667 14.4833 22.35 15.6667 21.3 16.8833C21.1667 16.7 21.0667 16.5333 20.95 16.3833C19.1667 13.7833 17.3667 11.1667 15.5833 8.56667C15.4333 8.33333 15.2667 8.23333 14.9833 8.25C13.5333 8.26667 12.1 8.25 10.65 8.25C9.96667 8.23333 9.28333 8.23333 8.51667 8.23333Z" fill="white"/>
<path d="M28.7166 30.2835C28.0499 30.2835 27.4499 30.2168 26.8666 30.3002C25.9166 30.4335 25.3999 30.0335 24.8666 29.2668C20.4499 22.8835 15.9999 16.5335 11.5499 10.1835C11.4833 10.0668 11.3999 9.95016 11.2666 9.76682C11.7499 9.76682 12.1666 9.76682 12.5833 9.76682C13.1833 9.76682 13.8666 9.60016 14.3499 9.85016C14.8166 10.0835 15.0666 10.7502 15.3999 11.2168C19.7499 17.4335 24.0833 23.6502 28.4333 29.8668C28.5166 29.9835 28.5833 30.1002 28.7166 30.2835Z" fill="white"/>
</g>
</g>
<defs>
<clipPath id="clip0_745_22386">
<rect width="40" height="40" fill="white"/>
</clipPath>
<clipPath id="clip1_745_22386">
<rect width="40" height="40" fill="white"/>
</clipPath>
</defs>
</svg>
