<svg width="93" height="92" viewBox="0 0 93 92" fill="none" xmlns="http://www.w3.org/2000/svg">
<g clip-path="url(#clip0_539_78961)">
<path d="M46.5 21.083C50.0583 21.083 53.4709 22.4965 55.987 25.0127C58.5031 27.5288 59.9167 30.9414 59.9167 34.4997C59.9167 38.058 58.5031 41.4706 55.987 43.9867C53.4709 46.5028 50.0583 47.9163 46.5 47.9163C42.9417 47.9163 39.5291 46.5028 37.013 43.9867C34.4969 41.4706 33.0833 38.058 33.0833 34.4997C33.0833 30.9414 34.4969 27.5288 37.013 25.0127C39.5291 22.4965 42.9417 21.083 46.5 21.083ZM19.6667 30.6663C21.8133 30.6663 23.8067 31.2413 25.5317 32.2763C24.9567 37.758 26.5667 43.2013 29.8633 47.4563C27.9467 51.1363 24.1133 53.6663 19.6667 53.6663C16.6167 53.6663 13.6916 52.4547 11.5349 50.2981C9.37827 48.1414 8.16667 45.2163 8.16667 42.1663C8.16667 39.1164 9.37827 36.1913 11.5349 34.0346C13.6916 31.8779 16.6167 30.6663 19.6667 30.6663ZM73.3333 30.6663C76.3833 30.6663 79.3084 31.8779 81.4651 34.0346C83.6217 36.1913 84.8333 39.1164 84.8333 42.1663C84.8333 45.2163 83.6217 48.1414 81.4651 50.2981C79.3084 52.4547 76.3833 53.6663 73.3333 53.6663C68.8867 53.6663 65.0533 51.1363 63.1367 47.4563C66.4333 43.2013 68.0433 37.758 67.4683 32.2763C69.1933 31.2413 71.1867 30.6663 73.3333 30.6663ZM21.5833 69.958C21.5833 62.023 32.7383 55.583 46.5 55.583C60.2617 55.583 71.4167 62.023 71.4167 69.958V76.6663H21.5833V69.958ZM0.5 76.6663V70.9163C0.5 65.588 7.745 61.103 17.5583 59.7997C15.2967 62.4063 13.9167 66.0097 13.9167 69.958V76.6663H0.5ZM92.5 76.6663H79.0833V69.958C79.0833 66.0097 77.7033 62.4063 75.4417 59.7997C85.255 61.103 92.5 65.588 92.5 70.9163V76.6663Z" fill="#3B117F"/>
</g>
<defs>
<clipPath id="clip0_539_78961">
<rect width="92" height="92" fill="white" transform="translate(0.5)"/>
</clipPath>
</defs>
</svg>
