<svg width="621" height="669" viewBox="0 0 621 669" fill="none" xmlns="http://www.w3.org/2000/svg">
<g filter="url(#filter0_d_429_39056)">
<path d="M338.284 572.304C339.766 572.637 348.733 574.193 361.183 578.528C373.632 582.845 401.292 579.566 402.737 578.528C403.978 577.639 403.108 572.155 402.811 570.599C402.811 570.599 402.811 570.562 402.793 570.488C402.756 570.284 402.737 570.173 402.737 570.173L397.494 569.525L363.313 565.245L337.932 562.059C337.932 562.059 337.932 562.114 337.914 562.225C337.914 562.281 337.895 562.336 337.895 562.411C337.895 562.448 337.895 562.503 337.877 562.577C337.877 562.651 337.858 562.744 337.858 562.837C337.858 562.892 337.858 562.948 337.84 563.003C337.599 565.449 337.08 572.026 338.284 572.304Z" fill="url(#paint0_linear_429_39056)"/>
<path d="M242.985 569.932C243.393 570.543 246.079 571.692 250.359 572.766C250.359 572.766 250.414 572.766 250.507 572.785C256.158 574.23 264.513 575.545 273.924 575.471C290.561 575.36 293.136 572.47 297.731 572.322C302.344 572.137 316.535 571.784 316.979 570.191C317.331 568.95 316.498 565.578 316.22 563.781C316.109 563.225 316.071 562.836 316.127 562.688L315.46 562.67L292.562 561.78L245.542 559.946L243.986 559.891C243.986 559.891 243.93 560.261 243.838 560.854C243.449 563.225 242.578 569.265 242.985 569.932Z" fill="url(#paint1_linear_429_39056)"/>
<path d="M315.886 553.796C315.886 553.796 284.947 524.228 264.383 533.732C264.383 533.732 288.411 524.747 316.219 559.836L315.886 553.796Z" fill="url(#paint2_linear_429_39056)"/>
<path d="M390.491 539.977C390.491 539.977 362.776 526.656 337.524 556.206L337.802 559.837C337.802 559.855 354.105 529.972 390.491 539.977Z" fill="url(#paint3_linear_429_39056)"/>
<path opacity="0.5" d="M340.026 528.75C340.007 528.787 340.007 528.843 340.007 528.898L340.026 528.935C340.026 528.935 340.026 528.88 340.026 528.75Z" fill="#AB2781"/>
<path opacity="0.2" d="M338.284 572.303C339.766 572.637 348.733 574.193 361.183 578.528C373.632 582.845 401.292 579.566 402.737 578.528C402.737 578.528 385.915 580.585 376.152 579.732C366.37 578.88 365.073 577.917 364.48 577.046C363.869 576.194 366.815 573.156 367.852 572.303C368.89 571.433 377.356 574.026 387.657 573.248C397.939 572.47 402.83 570.58 402.83 570.58C402.83 570.58 402.83 570.543 402.811 570.469C402.774 569.951 402.552 567.876 402.33 566.931C402.33 566.931 400.996 568.283 397.513 569.506C393.937 570.784 388.101 571.914 379.098 571.34C371.52 570.858 366.852 568.283 363.332 565.208C358.589 561.095 355.94 556.167 351.178 554.388C342.879 551.295 337.951 562.021 337.951 562.021C337.951 562.021 337.951 562.077 337.932 562.188C337.932 562.244 337.932 562.299 337.914 562.373C337.914 562.41 337.914 562.466 337.895 562.54C337.895 562.614 337.895 562.707 337.877 562.799C337.877 562.855 337.877 562.911 337.858 562.966C337.673 565.245 337.339 570.969 338.284 572.303Z" fill="#C22781"/>
<path opacity="0.2" d="M281.038 574.083C273.998 576.158 252.544 573.083 250.507 572.768C256.157 574.213 264.512 575.528 273.924 575.454C290.56 575.343 293.136 572.453 297.73 572.305C302.343 572.119 316.534 571.767 316.979 570.174C317.331 568.933 316.497 565.561 316.219 563.764L315.886 563.301C315.886 563.301 315.737 563.042 315.441 562.653C314.163 560.818 310.217 554.834 303.603 555.872C299.286 556.539 296.174 559.688 292.543 561.745C289.393 563.542 285.688 565.302 279.963 566.117C268.922 567.692 250.525 564.746 245.504 559.892C244.93 559.355 244.56 558.799 244.356 558.206C244.356 558.206 243.707 558.688 243.8 560.8C243.8 560.8 254.138 569.211 275.814 568.988C297.508 568.785 288.411 571.897 281.038 574.083Z" fill="#C22781"/>
<path opacity="0.5" d="M313.589 551.739C313.589 551.739 301.899 538.956 288.226 532.713C274.572 526.469 264.365 533.75 264.365 533.75C264.365 533.75 285.873 527.785 313.589 551.739Z" fill="#D14894"/>
<path opacity="0.5" d="M390.491 539.975C390.491 539.975 389.12 532.842 370.223 535.732C351.327 538.622 337.524 556.222 337.524 556.222C337.524 556.222 364.313 528.229 390.491 539.975Z" fill="#D14894"/>
<path d="M304.734 547.478C309.569 552.184 291.432 565.486 273.924 565.597C256.417 565.708 250.377 559.28 249.34 556.538C248.302 553.796 257.473 535.473 270.942 533.917C284.429 532.361 304.734 547.478 304.734 547.478Z" fill="white"/>
<path d="M396.624 569.006C408.203 565.541 392.881 546.571 385.897 541.865C378.913 537.159 357.255 540.809 351.623 547.478C351.623 547.478 354.013 558.742 370.224 565.597C386.434 572.47 396.624 569.006 396.624 569.006Z" fill="white"/>
<path d="M368.501 552.87C371.817 558.187 362.887 561.855 360.683 555.741C358.478 549.646 366.778 550.109 368.501 552.87Z" fill="white"/>
<path d="M288.06 551.739C290.987 553.147 287.189 558.464 282.706 557.612C278.204 556.741 282.354 548.979 288.06 551.739Z" fill="white"/>
<path d="M306.548 515.298C310.642 517.484 305.511 528.415 302.065 528.748C298.619 529.081 302.621 513.167 306.548 515.298Z" fill="white"/>
<path d="M368.5 531.325C369.556 532.084 365.963 533.566 363.999 530.806C362.053 528.046 366.481 529.861 368.5 531.325Z" fill="white"/>
<g opacity="0.3">
<path d="M478.072 263.415C478.502 264.621 484.081 256.166 488.681 255.636C493.634 255.073 499.061 260.219 502.726 264.608C504.701 263.774 505.961 263.43 505.961 263.43C494.859 251.652 494.669 239.6 494.679 236.947C494.679 236.105 493.45 235.977 491.436 236.809C491.564 240.889 491.128 245.942 487.985 249.589C479.744 259.152 477.691 262.339 478.072 263.415Z" fill="#A41B8C"/>
</g>
<g opacity="0.3">
<path d="M490.1 298.012C494.006 295.722 503.738 289.981 515.745 297.055C520.382 299.791 523.647 305.026 525.431 308.539C525.38 303.811 524.179 298.63 521.05 294.154C517.015 288.378 516.664 283.711 516.701 281.967C514.434 287.855 506.095 286.206 496.553 290.629C486.792 295.154 486.195 300.301 490.1 298.012Z" fill="#A41B8C"/>
</g>
<path d="M488.462 142.106C487.755 143.875 487.022 145.745 486.694 147.624C486.592 148.188 487.511 148.491 487.772 147.986C488.648 146.293 489.195 144.364 489.709 142.519C489.928 141.711 488.774 141.315 488.462 142.106Z" fill="#F0F0F0"/>
<path d="M499.488 168.277C500.819 168.631 502.352 168.892 503.725 168.833C504.373 168.808 504.66 167.865 503.952 167.646C502.638 167.233 501.097 167.073 499.716 167.065C499.05 167.056 498.772 168.084 499.488 168.277Z" fill="#F0F0F0"/>
<path d="M467.7 157.04C466.866 156.627 466.015 156.273 465.148 155.945C464.272 155.616 463.396 155.187 462.452 155.17C461.779 155.162 461.492 156.004 462.031 156.408C462.789 156.964 463.75 157.158 464.642 157.427C465.535 157.697 466.428 157.933 467.338 158.101C467.894 158.211 468.205 157.293 467.7 157.04Z" fill="#F0F0F0"/>
<path d="M476.434 178.006C475.785 179.573 474.808 181.409 474.699 183.119C474.665 183.717 475.482 183.995 475.819 183.498C476.771 182.074 477.099 180.019 477.537 178.377C477.731 177.661 476.72 177.315 476.434 178.006Z" fill="#F0F0F0"/>
<path d="M479.846 165.759C479.905 167.073 480.865 168.202 482.221 168.286C483.594 168.362 484.656 167.182 484.63 165.843C484.597 164.47 483.434 163.333 482.028 163.704C480.739 164.049 479.762 165.548 480.638 166.744C481.051 167.309 481.758 166.753 481.716 166.214C481.682 165.767 482.019 165.254 482.482 165.178C482.996 165.102 483.165 165.666 483.097 166.079C482.87 167.444 481.118 166.677 480.949 165.683C480.832 165.077 479.812 165.127 479.846 165.759Z" fill="#F0F0F0"/>
<path d="M483.291 164.579C480.983 160.156 478.86 155.701 477.268 150.967C476.957 150.049 475.466 150.352 475.777 151.279C477.412 156.105 479.467 160.822 482.272 165.092C482.659 165.682 483.645 165.244 483.291 164.579Z" fill="#F0F0F0"/>
<path d="M483.012 165.953C485.977 164.597 488.816 162.929 491.663 161.337C494.232 159.897 496.952 158.583 499.353 156.865C499.985 156.41 499.285 155.509 498.637 155.787C495.664 157.058 492.85 158.912 490.045 160.52C487.476 161.986 484.882 163.418 482.439 165.086C481.926 165.431 482.49 166.197 483.012 165.953Z" fill="#F0F0F0"/>
<path d="M494.695 154.69C496.329 155.204 497.997 155.583 499.665 155.979C499.513 155.667 499.353 155.356 499.202 155.044C498.907 156.442 498.587 157.832 498.334 159.239C498.183 160.064 499.606 160.351 499.8 159.525C500.103 158.194 500.339 156.855 500.6 155.516C500.667 155.154 500.566 154.682 500.137 154.581C498.41 154.193 496.683 153.772 494.931 153.503C494.241 153.402 494.047 154.488 494.695 154.69Z" fill="#F0F0F0"/>
<path d="M474.261 153.621C475.103 152.062 475.844 150.462 476.585 148.853C476.173 148.938 475.751 149.022 475.339 149.098C476.24 150.319 477.386 152.012 478.792 152.669C479.289 152.905 479.803 152.239 479.559 151.793C479.188 151.119 478.556 150.631 478.043 150.058C477.478 149.443 476.948 148.794 476.451 148.129C476.08 147.649 475.406 147.91 475.204 148.373C474.513 149.94 473.831 151.49 473.233 153.098C473.006 153.713 473.941 154.21 474.261 153.621Z" fill="#F0F0F0"/>
<path d="M424.728 346.803C424.728 346.803 449.108 319.366 451.183 282.035C453.258 244.705 437.363 220.398 437.363 220.398C437.363 220.398 436.826 282.406 434.584 303.489C432.324 324.59 424.728 346.803 424.728 346.803Z" fill="#AAEFFF"/>
<path d="M425.913 344.061C425.913 344.061 409.629 383.151 396.716 391.951C383.803 400.769 352.216 399.88 352.216 399.88C352.216 399.88 390.065 409.495 404.145 416.684C418.225 423.872 406.628 440.101 397.179 453.403C387.731 466.686 380.709 468.075 380.709 468.075C380.709 468.075 385.656 497.18 388.25 511.205C390.843 525.229 393.029 535.104 393.715 539.735C394.4 544.367 402.644 554.538 404.441 564.19C406.239 573.842 402.737 578.511 402.737 578.511L361.22 560.448L357.57 431.801L334.282 378.705L425.913 344.061Z" fill="#AAEFFF"/>
<path d="M231.925 405.939C232.295 412.405 237.112 415.906 242.744 417.407H242.763C244.152 417.777 245.597 418.018 247.005 418.148C252.545 418.685 257.417 418.333 261.363 418.759C262.586 418.889 263.716 419.093 264.753 419.408C266.161 419.871 268.885 420.982 272.572 422.15H272.59C276.721 423.446 282.075 424.743 288.208 425.114C290.653 425.243 293.228 425.243 295.896 425.021C299.008 424.78 302.251 424.262 305.567 423.335C325.279 417.907 313.07 397.435 313.07 397.435C311.069 396.62 306.864 396.046 301.973 395.509C293.969 394.601 284.113 393.675 279.056 391.637C275.239 390.081 271.96 388.969 269.459 387.857C267.551 387.042 266.069 386.209 265.161 385.227C264.698 384.745 264.401 384.245 264.216 383.67C263.179 380.391 256.676 376.927 253.915 371.036C251.137 365.163 250.692 364.607 249.432 365.422C248.154 366.237 244.504 370.646 248.043 378.687C247.524 378.483 239.335 375.26 236.427 375.26C233.425 375.26 232.518 380.78 232.74 387.468C232.962 394.193 231.48 397.862 231.925 405.939Z" fill="url(#paint4_linear_429_39056)"/>
<path d="M231.925 405.939C232.295 412.405 237.112 415.906 242.744 417.407H242.763C244.152 417.777 245.597 418.018 247.005 418.148C252.545 418.685 257.417 418.333 261.363 418.759C265.161 412.071 267.718 401.141 267.162 392.952V392.897C266.977 389.821 266.328 387.153 265.143 385.227C264.679 384.745 264.383 384.245 264.198 383.67C263.16 380.391 256.657 376.927 253.897 371.036C251.118 365.163 250.674 364.607 249.414 365.422C248.135 366.237 244.486 370.646 248.024 378.687C247.506 378.483 239.317 375.26 236.408 375.26C233.407 375.26 232.499 380.78 232.722 387.468C232.962 394.193 231.48 397.862 231.925 405.939Z" fill="url(#paint5_linear_429_39056)"/>
<path opacity="0.5" d="M269.459 387.875C269.459 387.894 278.018 415.053 283.095 421.278C284.669 423.205 286.466 424.39 288.226 425.131C290.672 425.261 293.247 425.261 295.915 425.039L301.991 395.526C293.988 394.619 284.132 393.692 279.074 391.654C275.258 390.098 271.96 388.987 269.459 387.875Z" fill="#E767A7"/>
<path d="M243.967 559.855C244.82 561.578 248.803 564.505 261.086 566.932C273.369 569.359 293.581 568.488 297.564 566.932C301.547 565.376 315.034 564.338 315.887 563.301C316.757 562.264 315.72 555.687 315.887 552.408C315.942 551.352 316.201 549.61 316.683 547.48C317.683 543.07 319.703 536.938 322.982 531.658C327.817 523.877 333.69 516.467 334.894 513.836C335.005 513.576 335.135 513.206 335.265 512.669C336.506 507.63 338.285 491.234 338.285 491.234C338.285 491.234 305.234 461.388 305.697 467.316C305.901 469.91 304.159 475.875 301.306 482.526C301.176 482.841 301.028 483.138 300.899 483.453C297.193 491.79 291.784 501.034 286.17 506.073C275.796 515.411 269.219 529.768 262.142 535.975C255.028 542.218 243.115 558.132 243.967 559.855Z" fill="url(#paint6_linear_429_39056)"/>
<path d="M334.282 504.925C334.412 507.389 334.838 509.538 335.375 511.502C335.523 511.947 335.653 512.354 335.783 512.762C335.801 512.799 335.801 512.836 335.82 512.854C335.82 512.873 335.82 512.873 335.82 512.873C337.45 517.708 339.803 521.358 340.062 525.637C340.081 525.804 340.099 525.971 340.099 526.138C340.118 526.786 340.099 527.694 340.044 528.75C340.025 528.787 340.025 528.842 340.025 528.898C339.543 538.421 336.672 561.43 338.284 563.153C340.099 565.043 350.882 566.488 363.554 570.175C376.226 573.861 402.737 572.009 402.737 570.175C402.737 568.341 401.829 561.875 396.512 552.426C391.213 542.978 391.213 545.979 390.046 536.753C388.897 527.546 383.377 512.799 382.914 499.182C382.71 492.957 382.209 484.361 380.987 476.376C380.505 473.449 379.968 470.614 379.301 468.002C378.912 466.502 378.504 465.057 378.023 463.76C377.819 463.167 377.596 462.611 377.393 462.074C376.151 459.035 374.632 456.646 372.78 455.404C372.761 455.367 333.8 495.254 334.282 504.925Z" fill="url(#paint7_linear_429_39056)"/>
<path d="M347.584 400.325C352.012 401.215 349.251 421.39 355.476 434.358C361.701 447.327 368.611 448.234 372.761 455.386C376.911 462.537 349.474 498.959 334.968 501.72C320.443 504.48 305.233 480.507 305.233 461.388C305.233 442.25 302.009 436.026 304.084 421.279C306.159 406.532 310.309 399.844 314.922 397.083C319.517 394.286 347.584 400.325 347.584 400.325Z" fill="url(#paint8_linear_429_39056)"/>
<path d="M310.458 444.326C306.957 443.418 303.493 437.397 304.159 426.355C304.493 420.816 305.845 416.925 308.068 415.128C309.106 414.276 310.31 413.942 311.57 414.128C312.478 414.257 313.274 414.98 313.941 416.24C316.776 421.612 317.517 436.841 315.164 441.695C314.312 443.455 312.96 444.437 311.422 444.437C311.125 444.455 310.792 444.418 310.458 444.326ZM311.329 415.943C310.588 415.832 309.884 416.036 309.236 416.555C308.198 417.388 306.401 419.797 305.994 426.466C305.345 437.082 308.68 441.973 310.94 442.547C312.348 442.918 313.182 441.676 313.552 440.898C315.627 436.582 314.905 421.909 312.367 417.092C311.922 416.295 311.533 415.98 311.329 415.943Z" fill="url(#paint9_linear_429_39056)"/>
<path d="M335.356 511.65C335.56 512.206 335.709 512.577 335.783 512.762C335.801 512.799 335.801 512.836 335.82 512.855C336.264 512.114 345.768 495.755 360.478 480.675C372.428 468.429 376.763 464.723 378.041 463.723C378.375 463.445 378.504 463.371 378.504 463.371L379.32 467.965C380.283 465.909 380.728 463.797 380.728 461.833C380.709 453.737 373.428 447.383 365.295 452.014C355.161 457.776 336.82 494.31 334.301 498.589C332.281 501.943 334.375 508.834 335.356 511.65Z" fill="url(#paint10_linear_429_39056)"/>
<path opacity="0.5" d="M349.826 399.898C345.899 400.453 342.508 424.723 322.111 429.688C301.714 434.634 305.956 411.94 305.993 404.566C306.03 397.193 309.328 394.914 309.328 394.914C309.328 394.914 311.81 397.878 320.444 400.657C329.095 403.399 349.826 399.898 349.826 399.898Z" fill="#E767A7"/>
<path d="M369.186 434.173C369.649 434.562 369.131 435.988 368.741 436.877C368.538 437.341 368.371 437.637 368.371 437.637C368.371 437.637 362.924 436.099 357.663 438.786C352.383 441.472 350.456 442.732 350.623 444.214C350.808 445.677 353.568 447.234 355.551 446.622C357.533 446.029 358.497 446.363 358.497 446.363C352.513 449.364 347.473 458.479 350.975 464.074C357.033 473.763 379.505 467.89 386.934 461.48C388.88 459.794 391.251 457.238 393.697 454.274C395.531 452.05 397.42 449.586 399.18 447.085C399.18 447.085 399.18 447.067 399.199 447.048C404.034 440.249 408.017 433.191 408.017 430.023C408.017 424.15 404.738 418.611 392.289 414.461C383.729 411.608 368.686 404.642 358.163 401.492C353.346 400.047 349.474 399.417 347.566 400.325C340.248 403.808 343.472 426.003 351.994 429.8C352.253 429.912 352.531 430.041 352.772 430.134C361.035 433.598 368.519 433.617 369.186 434.173Z" fill="url(#paint11_linear_429_39056)"/>
<path d="M253.953 342.931C254.193 343.876 254.471 344.783 254.749 345.673C255.083 346.636 255.472 347.618 255.953 348.6C265.457 368.293 303.51 390.154 315.367 399.14C315.367 399.14 322.889 405.828 340.341 401.381H340.359C340.378 401.363 340.415 401.344 340.452 401.344C341.285 401.14 342.156 400.9 343.027 400.64C343.027 400.64 378.06 398.917 392.344 389.932C395.345 388.061 399.106 384.578 403.126 379.983C403.126 379.983 403.126 379.983 403.145 379.983C408.351 374.055 413.964 366.2 418.892 357.418C418.911 357.381 418.929 357.363 418.929 357.363C428.415 340.411 435.306 319.903 431.527 302.451C424.265 268.918 381.747 237.109 340.6 234.348C312.57 232.459 290.598 238.498 277.018 246.668C270.645 250.503 266.143 254.801 263.716 259.007C256.417 271.605 247.839 319.199 253.953 342.931Z" fill="url(#paint12_linear_429_39056)"/>
<path d="M423.06 319.237C432.286 315.421 422.263 353.992 409.943 367.053C397.623 380.114 389.601 381.004 386.989 380.3C384.377 379.596 390.194 332.854 423.06 319.237Z" fill="url(#paint13_linear_429_39056)"/>
<path d="M415.446 323.258C415.446 323.258 424.969 334.003 409.796 355.92C394.623 377.836 386.731 373.575 386.731 373.575C386.731 373.575 390.529 337.912 415.446 323.258Z" fill="url(#paint14_linear_429_39056)"/>
<path opacity="0.5" d="M340.47 401.344C341.304 401.14 342.174 400.899 343.045 400.64C343.045 400.64 378.078 398.917 392.362 389.932C395.363 388.06 399.124 384.577 403.145 379.983C403.145 379.983 403.145 379.983 403.163 379.983C408.369 374.055 413.982 366.199 418.91 357.418C417.984 358.455 403.144 375.222 391.436 380.502C379.727 385.763 342.767 400.417 340.47 401.344Z" fill="#AB2781"/>
<path d="M416.946 330.203C415.279 324.701 395.548 346.655 392.436 367.997C392.436 367.997 427.58 365.07 416.946 330.203Z" fill="url(#paint15_linear_429_39056)"/>
<path d="M418.095 343.82C416.706 338.225 407.628 352.009 408.332 360.438C408.591 363.495 420.671 354.25 418.095 343.82Z" fill="#731A88"/>
<path d="M341.026 427.725C341.101 427.854 341.156 427.984 341.23 428.114C341.23 428.132 341.249 428.151 341.249 428.169C341.675 428.929 342.082 429.688 342.527 430.392C342.527 430.411 342.564 430.429 342.583 430.448C345.454 435.098 348.826 438.155 351.494 438.433C357.645 439.118 357.589 431.8 357.589 431.8C357.589 431.8 353.254 433.301 351.698 421.018C350.141 408.754 358.237 401.473 358.237 401.473L360.72 402.251C359.775 400.565 358.478 399.157 356.959 398.008C349.641 392.488 337.34 393.673 336.506 406.734C335.969 414.404 338.044 421.926 341.026 427.725Z" fill="url(#paint16_linear_429_39056)"/>
<path d="M303.474 434.544C303.474 434.544 302.844 421.817 305.938 411.868C309.013 401.901 314.349 398.381 314.349 398.381L306.438 392.897C306.438 392.897 301.547 392.582 297.619 397.158C297.601 397.177 297.601 397.177 297.601 397.177C295.433 399.733 293.543 403.809 292.988 410.293C291.45 428.468 303.474 434.544 303.474 434.544Z" fill="url(#paint17_linear_429_39056)"/>
<path opacity="0.3" d="M305.085 454.33C305.085 454.33 308.772 478.414 326.335 483.046C341.99 487.177 354.087 459.962 362.331 454.33C362.331 454.33 338.025 488.141 333.708 503.258C333.708 503.258 316.516 494.347 310.643 480.86C304.77 467.373 305.196 458.146 305.196 458.146L305.085 454.33Z" fill="#C72781"/>
<path d="M305.196 458.127C305.196 458.127 297.915 465.463 301.195 482.23C304.474 498.996 328.929 512.576 335.802 512.872C335.802 512.872 334.079 503.424 333.19 501.905C332.3 500.385 319.684 493.123 313.292 483.1C306.901 473.059 305.196 458.127 305.196 458.127Z" fill="url(#paint18_linear_429_39056)"/>
<path d="M374.984 531.696C388.138 528.342 382.895 505.351 376.633 499.664C370.371 493.976 360.738 499.608 358.866 513.688C357.014 527.768 370.742 532.789 374.984 531.696Z" fill="url(#paint19_linear_429_39056)"/>
<path d="M291.839 497.997C298.101 494.422 297.304 509.984 290.635 518.654C284.169 527.065 275.851 525.212 273.183 523.489C270.533 521.766 281.871 503.666 291.839 497.997Z" fill="url(#paint20_linear_429_39056)"/>
<path d="M379.245 525.49C383.525 519.728 382.246 503.332 374.521 499.645C366.796 495.977 363.016 506.222 362.757 513.207C362.368 524.359 372.835 534.123 379.245 525.49Z" fill="url(#paint21_linear_429_39056)"/>
<path d="M292.969 497.495C296.137 497.958 295.044 510.464 289.301 516.948C283.558 523.432 275.48 523.228 273.924 521.561C272.368 519.894 277.777 511.353 282.001 505.906C286.244 500.459 291.561 497.273 292.969 497.495Z" fill="url(#paint22_linear_429_39056)"/>
<path opacity="0.5" d="M253.953 342.932L266.514 348.582L394.641 331.834C394.641 331.834 406.98 313.327 405.164 291.039C403.33 268.734 385.564 255.654 374.855 253.931C364.129 252.19 330.837 259.452 312.162 257.396C293.488 255.321 288.504 245.057 277.055 246.669C270.682 250.504 266.18 254.802 263.753 259.007C256.417 271.605 247.839 319.199 253.953 342.932Z" fill="url(#paint23_linear_429_39056)"/>
<path opacity="0.5" d="M357.292 433.915C357.292 433.915 349.084 437.25 343.508 431.914C343.508 431.914 347.51 447.05 353.309 454.331C361.905 465.132 368.5 455.961 368.5 455.961C368.5 455.961 359.996 444.104 356.458 436.12L357.292 433.915Z" fill="#AB2781"/>
<path d="M257.565 335.076C258.435 337.651 259.491 340.115 260.733 342.43C261.696 344.228 262.845 345.913 264.197 347.525L264.216 347.562C284.298 371.665 343.453 374.851 361.701 366.626C369.815 362.976 379.671 353.806 387.823 342.505C387.86 342.449 387.897 342.412 387.915 342.356C395.011 332.482 400.791 320.996 402.959 310.158C407.554 286.889 394.659 261.989 378.356 258.08C362.071 254.153 339.321 265.213 317.905 265.917C296.47 266.602 291.746 255.357 287.707 253.356C284.835 251.93 279.722 248.187 269.959 256.45C259.139 265.639 247.857 306.86 257.565 335.076Z" fill="url(#paint24_radial_429_39056)"/>
<path d="M257.565 335.076C258.435 337.651 259.491 340.115 260.733 342.43C261.696 344.228 262.845 345.913 264.197 347.525L264.216 347.562C284.298 371.665 343.453 374.851 361.701 366.626C369.815 362.976 379.671 353.806 387.823 342.505C387.86 342.449 387.897 342.412 387.915 342.356C395.011 332.482 400.791 320.996 402.959 310.158C407.554 286.889 394.659 261.989 378.356 258.08C362.071 254.153 339.321 265.213 317.905 265.917C296.47 266.602 291.746 255.357 287.707 253.356C284.835 251.93 279.722 248.187 269.959 256.45C259.139 265.639 247.857 306.86 257.565 335.076Z" fill="url(#paint25_radial_429_39056)"/>
<path opacity="0.5" d="M255.972 348.582C265.476 368.275 303.529 390.136 315.386 399.122C315.386 399.122 323.667 406.495 343.045 400.622C343.045 400.622 378.079 398.899 392.362 389.914C395.364 388.043 399.125 384.56 403.145 379.966C394.308 381.559 369.242 385.283 339.118 382.633C298.545 379.076 272.979 370.702 255.972 348.582Z" fill="url(#paint26_linear_429_39056)"/>
<path opacity="0.8" d="M418.948 342.041C418.948 342.041 420.133 333.908 411.834 334.779C403.534 335.649 389.12 361.994 389.12 361.994C389.12 361.994 392.344 346.191 403.904 333.574C415.465 320.94 422.319 318.012 425.895 320.069C429.489 322.125 424.005 340.596 422.838 342.523C421.671 344.449 418.429 347.673 418.429 347.673L418.948 342.041Z" fill="#AB2781"/>
<path d="M412.223 358.678C419.003 354.065 434.047 338.614 441.438 307.676C443.884 297.468 445.496 285.574 445.681 271.827C446.496 216.452 425.617 202.891 427.618 215.952C427.618 215.952 427.637 216.008 427.655 216.137C434.232 259.378 433.232 325.942 425.413 335.094C417.558 344.265 417.373 342.95 417.373 342.95C410.574 348.1 408.462 361.939 412.223 358.678Z" fill="url(#paint27_linear_429_39056)"/>
<path opacity="0.3" d="M412.223 358.678C419.003 354.065 434.047 338.614 441.438 307.675C437.492 315.16 434.491 313.511 434.324 278.052C434.139 244.278 428.229 218.471 427.655 216.137C434.232 259.377 433.232 325.942 425.413 335.094C417.558 344.264 417.373 342.949 417.373 342.949C410.574 348.099 408.462 361.939 412.223 358.678Z" fill="#AB2781"/>
<path d="M379.69 469.633C371.205 469.966 367.352 473.949 360.46 480.674C353.568 487.418 349.752 472.634 351.623 467.613C353.494 462.593 378.467 462.426 378.467 462.426L379.69 469.633Z" fill="#AB2781"/>
<path opacity="0.5" d="M306.141 399.252C306.141 399.252 302.38 422.113 303.473 434.544C303.473 434.544 302.843 421.817 305.937 411.868C309.012 401.901 314.348 398.381 314.348 398.381L306.437 392.897C306.437 392.897 301.546 392.582 297.618 397.158C298.063 397.029 304.492 394.694 306.141 399.252Z" fill="#AB2781"/>
<path opacity="0.5" d="M342.564 430.449C345.435 435.099 348.807 438.156 351.475 438.434C357.626 439.12 357.57 431.802 357.57 431.802C357.57 431.802 353.235 433.302 351.679 421.019C350.123 408.755 358.219 401.474 358.219 401.474L360.701 402.252C359.756 400.566 358.459 399.158 356.94 398.01C355.94 398.417 351.475 400.9 349.845 413.72C347.992 428.189 350.734 430.875 350.919 432.432C351.03 433.728 345.38 433.469 342.564 430.449Z" fill="#AB2781"/>
<path opacity="0.5" d="M341.026 427.726C341.1 427.856 341.156 427.985 341.23 428.115C340.841 426.781 340.822 426.837 341.026 427.726Z" fill="#AB2781"/>
<path opacity="0.5" d="M352.809 430.115C361.034 433.598 368.519 433.617 369.204 434.173C369.204 434.173 364.795 422.316 373.206 414.461C381.617 406.624 402.441 420.648 403.923 427.077C405.349 433.32 399.569 446.233 399.236 447.048C404.071 440.249 408.054 433.191 408.054 430.023C408.054 424.15 404.775 418.61 392.325 414.461C383.766 411.608 368.723 404.642 358.2 401.492C357.718 401.622 351.16 403.549 350.419 415.609C349.937 423.372 351.345 427.762 352.809 430.115Z" fill="#E767A7"/>
<path opacity="0.5" d="M313.292 518.764C315.793 531.862 316.683 547.48 316.683 547.48C317.683 543.071 319.702 536.939 322.982 531.659C327.817 523.878 333.69 516.467 334.894 513.836C335.005 513.577 335.135 513.206 335.265 512.669C309.365 503.239 302.177 485.046 301.287 482.527C301.232 482.342 301.195 482.23 301.195 482.23C301.195 482.23 300.898 482.638 300.88 483.453C300.824 487.64 310.069 501.924 313.292 518.764Z" fill="#C72781"/>
<path opacity="0.5" d="M335.357 511.649C335.561 512.205 335.709 512.575 335.783 512.76C335.802 512.797 335.802 512.835 335.82 512.853C335.82 512.872 335.82 512.872 335.82 512.872C337.45 517.707 339.803 521.357 340.063 525.636C340.396 519.43 345.324 500.792 357.088 485.916C372.817 466.037 380.969 476.375 380.969 476.375C380.969 476.375 380.969 476.375 380.987 476.356C380.505 473.429 379.968 470.595 379.301 467.982C380.265 465.926 380.709 463.814 380.709 461.85C379.746 461.721 378.653 461.758 377.393 462.054C372.428 463.184 367.667 468.723 355.365 482.229C341.36 497.624 335.894 508.036 335.375 511.501C335.375 511.556 335.375 511.612 335.357 511.649Z" fill="#AB2781"/>
<path d="M350.623 463.425C350.641 463.462 350.678 463.5 350.715 463.555C353.29 467.631 356.773 470.021 364.184 470.021C372.502 470.021 382.692 465.167 386.953 461.499C388.898 459.813 391.269 457.256 393.715 454.292C393.659 453.958 393.604 453.644 393.548 453.31C390.065 434.895 368.741 436.896 368.741 436.896C368.537 437.359 368.371 437.655 368.371 437.655C368.371 437.655 368 437.544 367.389 437.452C365.592 437.137 361.127 436.155 357.199 438.137C351.919 440.823 350.456 442.732 350.623 444.214C350.808 445.677 353.568 447.233 355.551 446.622C357.533 446.029 358.496 446.363 358.496 446.363C352.79 450.457 347.121 457.812 350.623 463.425Z" fill="url(#paint28_linear_429_39056)"/>
<path opacity="0.5" d="M257.565 335.076L264.179 347.433C263.031 344.857 244.374 301.506 289.319 297.523C335.542 293.447 402.885 321.551 387.935 342.356C395.03 332.482 400.81 320.996 402.978 310.158C407.572 286.889 394.678 261.989 378.375 258.08C362.091 254.153 339.34 265.213 317.924 265.917C296.489 266.602 291.765 255.357 287.726 253.356C284.854 251.93 279.741 248.187 269.978 256.45C259.14 265.639 247.857 306.86 257.565 335.076Z" fill="#AB2781"/>
<path opacity="0.8" d="M247.561 378.52C247.561 378.52 252.526 381.706 253.879 386.764C255.231 391.821 255.25 402.048 251.248 407.439C247.617 412.33 239.095 409.44 239.095 409.44L234.426 410.051C234.426 410.051 239.261 410.107 240.077 410.792C240.892 411.478 239.15 414.998 239.15 414.998C239.15 414.998 242.429 413.627 243.3 411.774C244.171 409.922 250.099 417.462 254.36 404.586C258.621 391.71 254.416 379.353 247.561 378.52Z" fill="#AB2781"/>
<path opacity="0.5" d="M350.641 444.195C350.826 445.658 353.587 447.215 355.569 446.603C357.551 446.01 358.515 446.344 358.515 446.344C362.813 443.787 361.609 436.784 357.7 438.767C352.401 441.472 350.474 442.731 350.641 444.195Z" fill="#AB2781"/>
<path opacity="0.5" d="M247.023 369.089C251.636 366.533 253.581 378.816 252.97 380.112C252.34 381.409 248.042 378.704 248.042 378.704C248.042 378.704 245.449 372.924 247.023 369.089Z" fill="#AB2781"/>
<path opacity="0.5" d="M242.763 417.388C244.152 417.759 245.598 418 247.006 418.129C252.545 418.667 257.417 418.315 261.363 418.741C262.586 418.87 263.716 419.074 264.754 419.389C266.162 419.852 268.885 420.964 272.572 422.131C272.201 421.872 266.477 420 265.272 417.981C263.716 415.387 268.681 403.679 267.181 392.934C267.107 394.008 266.051 408.162 262.382 412.608C257.843 418.148 243.393 417.37 242.763 417.388Z" fill="#AB2781"/>
<path opacity="0.5" d="M350.715 463.538C353.29 467.614 356.773 470.004 364.184 470.004C372.502 470.004 382.692 465.15 386.953 461.482C388.898 459.796 391.269 457.239 393.715 454.275C393.659 453.941 393.604 453.626 393.548 453.293C387.953 458.499 378.838 466.595 369.649 467.243C353.587 468.392 351.419 464.427 350.715 463.538Z" fill="#AB2781"/>
<path opacity="0.5" d="M335.783 512.762C335.783 512.762 326.891 526.064 320.481 524.582C314.071 523.1 305.085 490.957 305.085 490.957C305.085 490.957 320.055 508.89 335.783 512.762Z" fill="#AB2781"/>
<path opacity="0.5" d="M323.204 495.366C330.188 501.869 314.682 502.795 306.604 490.957C298.546 479.119 303.492 472.208 304.307 471.745C305.122 471.282 313.181 486.029 323.204 495.366Z" fill="white"/>
<path opacity="0.5" d="M349.659 478.896C353.643 477.265 344.62 492.364 340.896 499.238C338.284 504.036 334.282 504.925 334.282 504.925C334.282 504.925 336.024 484.472 349.659 478.896Z" fill="white"/>
<path opacity="0.5" d="M351.067 400.714C352.215 401.436 346.824 416.535 347.009 422.149C347.176 427.762 336.468 417.684 337.413 409.032C338.543 398.769 349.473 399.695 351.067 400.714Z" fill="white"/>
<path d="M308.068 292.763C336.728 293.374 351.105 263.973 342.249 249.559C341.249 247.911 339.933 246.484 338.303 245.298C324.149 234.979 302.955 238.907 293.525 249.3C290.838 252.264 288.708 256.044 287.337 260.193C282.65 274.329 286.8 292.318 308.068 292.763Z" fill="url(#paint29_linear_429_39056)"/>
<path d="M308.457 276.829C323.871 277.163 332.986 259.748 327.873 251.467C327.298 250.541 326.539 249.744 325.594 249.133C317.554 243.945 306.141 247.576 301.38 253.801C300.065 255.524 299.027 257.636 298.379 259.878C296.193 267.418 298.12 276.607 308.457 276.829Z" fill="#3BC7C2"/>
<path d="M308.976 276.848C322.148 277.144 329.781 262.397 325.483 255.357C325.001 254.561 324.353 253.894 323.556 253.357C316.757 248.855 307.012 251.782 302.881 257.043C301.732 258.507 300.843 260.304 300.269 262.231C298.342 268.696 300.028 276.644 308.976 276.848Z" fill="#3BFFC2"/>
<path opacity="0.5" d="M308.068 292.762C336.728 293.373 351.105 263.972 342.249 249.559C346.158 259.915 336.172 281.535 315.219 286.889C294.284 292.243 283.447 277.793 287.319 260.304C287.337 260.267 287.337 260.211 287.337 260.174C282.65 274.328 286.8 292.317 308.068 292.762Z" fill="url(#paint30_linear_429_39056)"/>
<path opacity="0.5" d="M305.622 398.01C307.16 398.955 304.047 416.185 302.843 419.908C301.639 423.632 293.098 418.148 293.358 409.849C293.617 401.549 298.323 398.177 300.416 397.343C302.528 396.51 304.585 397.399 305.622 398.01Z" fill="white"/>
<path d="M364.295 370.702C366.593 371.721 356.162 382.485 339.748 381.262C323.334 380.058 322.815 376.742 323.149 374.593C323.482 372.444 360.331 368.961 364.295 370.702Z" fill="white"/>
<path opacity="0.5" d="M369.779 323.256C378.134 328.703 366.741 351.509 348.548 348.582C330.355 345.655 352.031 311.696 369.779 323.256Z" fill="white"/>
<path d="M363.906 290.872C367.426 292.169 361.461 300.821 357.774 299.301C354.087 297.782 358.293 288.797 363.906 290.872Z" fill="white"/>
<path d="M324.223 274.31C328.058 274.662 325.408 281.517 319.406 280.757C313.385 279.979 320.74 273.977 324.223 274.31Z" fill="white"/>
<path d="M295.896 273.661C298.082 273.698 296.711 277.663 295.896 277.552C295.081 277.422 291.746 273.587 295.896 273.661Z" fill="white"/>
<path d="M335.357 437.749C340.026 439.379 338.47 446.53 333.431 446.753C328.391 446.957 329.41 435.674 335.357 437.749Z" fill="white"/>
<path d="M394.196 421.705C397.994 424.483 389.824 429.189 387.101 427.466C384.396 425.743 390.583 419.074 394.196 421.705Z" fill="white"/>
<path opacity="0.5" d="M369.186 434.173C369.186 434.173 369.037 422.687 378.467 420.093C378.467 420.093 372.928 419.167 369.427 423.798C365.907 428.411 369.186 434.173 369.186 434.173Z" fill="#AB0481"/>
<path opacity="0.5" d="M338.284 491.234C338.284 491.234 333.93 494.976 327.724 493.716C321.518 492.457 311.44 480.952 308.235 471.744C308.235 471.744 312.681 492.957 333.449 502.461L338.284 491.234Z" fill="#AB2781"/>
<path d="M277.684 366.238C280.463 367.424 272.33 355.993 265.235 351.788C258.139 347.582 257.676 349.75 257.676 349.75C257.676 349.75 265.068 360.866 277.684 366.238Z" fill="white"/>
<path d="M436.38 300.192C437.177 302.748 444.847 286.871 440.53 272.884C436.214 258.878 434.824 264.936 434.824 264.936C434.824 264.936 433.62 291.373 436.38 300.192Z" fill="white"/>
<path d="M414.279 340.707C415.853 341.559 412.389 346.932 408.128 346.821C403.867 346.691 406.368 336.428 414.279 340.707Z" fill="white"/>
<path opacity="0.3" d="M339.914 398.01C342.341 395.675 346.732 390.729 338.154 385.301C329.577 379.873 319.832 382.726 302.621 376.964C285.41 371.202 279.407 368.738 279.407 368.738C279.407 368.738 297.508 389.766 312.94 396.324C328.391 402.882 339.914 398.01 339.914 398.01Z" fill="#E767A7"/>
<path d="M270.256 283.944C274.239 284.685 269.904 290.094 266.977 290.558C264.031 291.021 265.588 283.073 270.256 283.944Z" fill="white"/>
<path d="M401.014 301.507C401.014 301.507 398.716 281.721 390.194 271.902C381.672 262.064 376.188 259.785 367.036 260.137C357.866 260.508 347.899 263.917 347.899 263.917C347.899 263.917 363.109 260.286 372.909 262.453C382.71 264.602 395.641 281.276 401.014 301.507Z" fill="white"/>
<path d="M287.893 256.838C287.893 256.838 282.798 253.114 275.351 256.06C267.922 259.005 263.16 272.307 263.16 272.307C263.16 272.307 273.72 253.559 287.893 256.838Z" fill="white"/>
<path opacity="0.6" d="M253.082 389.933C253.563 396.158 234.87 395.38 234.407 386.302C233.944 377.224 237.316 376.279 238.02 376.446C238.705 376.631 252.063 377.058 253.082 389.933Z" fill="white"/>
<path opacity="0.3" d="M363.517 442.585C369.557 439.603 379.69 440.418 381.673 446.735C387.045 463.928 360.868 466.447 353.606 460.463C346.343 454.479 361.331 443.678 363.517 442.585Z" fill="white"/>
<path fill-rule="evenodd" clip-rule="evenodd" d="M296.729 354.549C296.729 354.549 296.266 364.294 303.214 365.794C310.161 367.295 314.941 356.161 314.941 356.161C314.941 356.161 303.454 359.866 296.729 354.549Z" fill="#4D0542"/>
<path fill-rule="evenodd" clip-rule="evenodd" d="M379.652 332.464C379.875 340.801 363.887 347.989 343.934 348.545C323.981 349.101 307.622 342.784 307.381 334.447C307.159 326.11 323.147 318.922 343.1 318.366C363.071 317.829 379.43 324.146 379.652 332.464Z" fill="url(#paint31_radial_429_39056)"/>
<path fill-rule="evenodd" clip-rule="evenodd" d="M371.519 332.706C371.704 339.171 359.31 344.748 343.841 345.174C328.371 345.6 315.699 340.709 315.514 334.262C315.329 327.815 327.723 322.22 343.192 321.794C358.662 321.349 371.352 326.24 371.519 332.706Z" fill="url(#paint32_radial_429_39056)"/>
<path fill-rule="evenodd" clip-rule="evenodd" d="M323.869 339.541C323.869 339.541 339.95 329.759 364.016 335.65C363.997 335.669 338.802 315.438 323.869 339.541Z" fill="white"/>
<path d="M441.333 315.7L443.341 325.934C468.34 337.465 474.898 314.858 478.982 293.004C479.341 291.098 479.82 289.299 480.392 287.615L480.395 287.61C485.223 273.505 496.987 267.009 502.719 264.603C504.694 263.77 505.954 263.426 505.954 263.426C494.852 251.647 494.662 239.595 494.672 236.943C494.672 236.101 493.443 235.973 491.429 236.804C487.076 238.594 479.058 244.837 471.893 257.989C466.451 267.974 465.228 276.039 464.988 283.174C464.704 291.827 465.857 299.12 462.7 306.81C455.333 324.788 442.004 315.754 441.333 315.7Z" fill="#C48CDF"/>
<path d="M442.284 328.066C441.139 327.493 440.649 326.11 441.188 324.94C441.739 323.745 443.154 323.224 444.348 323.775C451.544 327.093 457.251 327.565 461.798 325.216C470.313 320.815 473.969 306.925 476.65 292.57C480.225 273.427 495.023 265.199 501.865 262.367C494.405 253.183 492.68 244.044 492.361 238.983C489.039 240.366 481.153 245.984 473.99 259.131C467.18 271.631 467.262 280.706 467.342 289.484C467.397 295.676 467.451 301.525 464.911 307.718C462.384 313.883 458.862 317.854 454.442 319.525C448.387 321.814 442.722 319.012 440.86 318.092C440.759 318.041 440.674 317.999 440.605 317.966C439.577 317.633 438.873 316.626 438.966 315.502C439.075 314.191 440.226 313.218 441.537 313.327C442.057 313.371 442.42 313.551 442.971 313.822C444.522 314.59 448.641 316.626 452.76 315.069C455.894 313.886 458.501 310.804 460.506 305.911C462.682 300.606 462.635 295.472 462.582 289.526C462.501 280.58 462.408 270.438 469.81 256.852C478.812 240.328 490.25 232.845 494.715 233.99C496.144 234.357 497.066 235.519 497.061 236.953C497.049 241.017 498.061 251.573 507.693 261.796C508.266 262.405 508.478 263.27 508.253 264.074C508.027 264.879 507.394 265.506 506.588 265.725C505.727 265.964 485.366 271.839 481.332 293.442C478.429 308.986 474.32 324.104 463.985 329.444C458.129 332.47 450.852 332.018 442.354 328.097C442.33 328.088 442.307 328.078 442.284 328.066ZM441.139 318.074C441.139 318.074 441.138 318.073 441.137 318.074C441.137 318.074 441.138 318.073 441.139 318.074ZM441.143 318.074C441.142 318.074 441.142 318.074 441.14 318.074C441.14 318.074 441.142 318.074 441.143 318.074Z" fill="#A41B8C"/>
<path d="M434.98 326.852C452.592 343.663 468.76 337.127 475.479 328.218C475.707 327.917 475.948 327.569 476.206 327.175C479.813 321.646 486.45 307.785 498.842 308.96C512.115 310.223 522.701 320.63 522.701 320.63C524.286 318.015 525.502 313.531 525.439 308.54C525.388 303.813 524.187 298.631 521.058 294.155C517.023 288.379 516.672 283.712 516.708 281.968C516.719 281.492 516.757 281.234 516.757 281.234C516.757 281.234 503.996 277.253 487.883 283.107C472.983 288.528 474.845 298.477 465.692 314.078C464.063 316.852 462.228 318.813 460.311 320.169C451.446 326.433 440.826 319.665 440.826 319.665L434.98 326.852Z" fill="#C48CDF"/>
<path d="M444.145 336.372C440.749 334.672 437.11 332.174 433.336 328.571C432.384 327.664 432.349 326.156 433.257 325.205C434.165 324.252 435.673 324.219 436.623 325.126C443.891 332.062 451.593 335.415 458.895 334.822C464.642 334.356 470.131 331.35 473.579 326.782C474.117 326.068 474.807 324.934 475.606 323.62C479.476 317.256 486.679 305.411 499.067 306.587C509.246 307.554 517.792 313.437 521.85 316.726C523.579 311.588 524.127 302.701 519.104 295.513C515.408 290.225 514.521 285.675 514.36 283.105C510.513 282.329 500.507 281.051 488.695 285.344C479.533 288.674 477.521 293.595 474.187 301.748C472.574 305.692 470.746 310.162 467.743 315.28C464.75 320.382 460.782 323.559 455.948 324.722C447.614 326.73 439.869 321.877 439.545 321.67C438.436 320.963 438.11 319.491 438.817 318.382C439.523 317.274 440.993 316.95 442.1 317.651C442.207 317.718 448.539 321.626 454.864 320.085C458.379 319.229 461.33 316.801 463.637 312.869C466.467 308.044 468.227 303.74 469.779 299.944C473.211 291.549 475.923 284.918 487.067 280.867C503.744 274.806 516.911 278.784 517.464 278.957C518.586 279.307 519.284 280.422 519.109 281.583C519.088 281.752 518.556 286.413 523.008 292.783C530.076 302.898 528.215 316.113 524.733 321.86C524.355 322.482 523.715 322.897 522.992 322.988C522.27 323.078 521.546 322.833 521.026 322.323C520.928 322.227 510.859 312.49 498.617 311.327C489.197 310.433 483.467 319.857 479.674 326.092C478.809 327.514 478.062 328.743 477.38 329.648C473.126 335.283 466.36 338.99 459.28 339.567C455.406 339.884 450.158 339.381 444.145 336.372Z" fill="#A41B8C"/>
<path d="M402.461 316.046L399.78 315.414C398.659 315.15 287.324 288.902 259.288 278.282L257.343 277.546L256.417 279.679C255.998 280.64 246.393 303.567 265.137 331.987L265.294 332.195C274.106 342.422 291.865 350.396 312.8 353.525C335.01 356.845 357.88 354.237 375.546 346.368L375.717 346.284C390.306 338.315 400.572 319.539 401.001 318.744L402.461 316.046ZM259.618 283.505C288.071 293.635 378.562 315.282 395.675 319.345C392.382 324.656 384.235 336.516 374.096 342.093C337.514 358.334 285.681 348.451 268.728 328.943C254.534 307.346 257.827 289.547 259.618 283.505Z" fill="#A41B8C"/>
<path d="M431.313 322.909C424.437 315.531 402.444 325.523 392.306 331.442C384.794 332.44 375.577 331.24 398.806 318.453C422.036 305.667 434.096 308.224 437.222 311.102C444.872 307.547 439.907 332.132 431.313 322.909Z" fill="#C48CDF" stroke="#A41B8C" stroke-width="4"/>
<path d="M259.91 282.844C287.565 293.416 396.383 319.781 396.383 319.781C396.383 319.781 386.778 337.517 373.232 344.668C370.001 346.051 366.654 347.226 363.22 348.204C328.144 358.238 284.241 348.014 268.768 330.437C253.779 308.331 257.624 290.008 259.317 284.522C259.657 283.427 259.91 282.844 259.91 282.844Z" fill="#C48CDF"/>
<path d="M366.385 308.328C337.082 300.476 311.697 315.52 311.697 315.52C311.697 315.52 297.226 289.797 267.923 281.945C267.923 281.945 250.049 328.635 279.617 336.774C282.029 337.416 284.55 337.541 287.014 337.14C292.665 336.223 303.149 334.709 306.319 335.558C309.489 336.408 317.804 342.958 322.239 346.579C324.172 348.158 326.418 349.31 328.828 349.96C358.559 357.71 366.385 308.328 366.385 308.328Z" fill="#FAFAFA"/>
<path d="M326.439 337.71L326.703 338.064C326.844 338.002 326.986 337.94 327.133 337.888C337.102 333.755 341.236 330.107 342.747 327.33C344.421 324.189 341.384 320.885 338.339 320.469C332.912 319.739 330.575 324.577 330.575 324.577C330.575 324.577 330.467 318.36 324.702 316.84C323.882 316.504 322.978 316.428 322.113 316.624C321.248 316.82 320.465 317.278 319.87 317.935C317.973 320.167 317.066 325.479 326.439 337.71Z" fill="#181818"/>
<path d="M286.614 327.039L286.878 327.393L287.308 327.216C297.277 323.083 301.411 319.435 302.921 316.658C304.635 313.528 301.566 310.215 298.513 309.797C293.087 309.068 290.75 313.905 290.75 313.905C290.75 313.905 290.634 307.686 284.869 306.167C284.049 305.831 283.145 305.756 282.281 305.952C281.416 306.148 280.633 306.605 280.037 307.262C278.124 309.489 277.209 314.8 286.614 327.039Z" fill="#181818"/>
<path d="M478.709 136.085C464.802 138.376 455.377 154.531 457.028 167.898C458.788 182.133 473.503 190.43 486.98 188.434C501.586 186.278 512.569 173.163 510.152 158.254C507.743 143.362 493.314 133.827 478.675 135.933C477.849 136.051 477.934 137.466 478.784 137.416C491.849 136.582 504.904 143.329 508.012 156.856C511.23 170.847 501.518 184.104 487.553 186.505C475.221 188.619 460.902 181.729 458.847 168.446C456.767 155.011 465.746 140.675 478.944 137.247C479.686 137.053 479.467 135.958 478.709 136.085Z" fill="#F0F0F0"/>
<path d="M210.081 498.639C209.305 498.455 208.53 498.271 207.755 498.087C207.002 497.912 206.288 497.651 205.517 497.861C204.828 498.049 204.466 499.032 205.055 499.538C205.672 500.07 206.34 500.16 207.117 500.325C207.265 500.359 207.411 500.385 207.551 500.422C204.709 501.208 201.864 502.012 199.022 502.798C196 489.91 192.462 476.543 187.482 464.269C187.317 463.854 186.69 463.992 186.79 464.449C189.751 477.414 194.048 490.396 198.169 503.03C195.197 503.856 192.222 504.674 189.247 505.518C188.563 498.892 185.868 492.162 183.946 485.806C181.976 479.297 180.286 472.521 177.589 466.268C180.617 465.926 183.574 465.322 186.44 464.239C187.224 463.943 186.945 462.726 186.102 462.963C183.059 463.815 180.016 464.668 176.922 465.315C176.451 465.411 176.448 466.096 176.8 466.287C176.737 466.383 176.709 466.502 176.738 466.626C178.068 472.638 180.205 478.535 182.092 484.419C182.047 484.418 181.998 484.409 181.948 484.419C179.544 484.832 177.214 485.73 175.034 486.833C175.009 486.743 174.981 486.646 174.965 486.553C174.869 486.157 174.26 486.315 174.347 486.714C174.759 488.547 175.168 490.373 175.596 492.2C175.523 492.344 175.538 492.527 175.695 492.63C175.858 493.325 176.023 494.027 176.186 494.721C176.13 494.86 176.142 495.035 176.287 495.133C176.424 495.711 176.572 496.294 176.717 496.869C176.61 497.018 176.608 497.252 176.794 497.362C176.805 497.367 176.83 497.385 176.841 497.39C177.027 498.12 177.209 498.843 177.403 499.571C177.373 499.564 177.343 499.558 177.306 499.554C176.936 499.486 176.679 499.979 177.038 500.186C177.131 500.241 177.344 500.349 177.647 500.505C178.346 503.075 179.101 505.625 179.96 508.162C177.407 508.901 174.847 509.643 172.297 510.39C172.371 510.272 172.405 510.124 172.366 509.95C170.286 501.377 167.715 492.917 165.032 484.518C162.357 476.143 159.891 467.554 156.606 459.409C156.559 459.283 156.445 459.245 156.343 459.238C156.27 459.14 156.17 459.069 156.036 459.048C153.452 458.674 150.288 459.518 148.177 461.044C147.799 461.313 148 462.011 148.51 461.854C149.736 461.482 150.947 461.024 152.194 460.733C153.465 460.433 154.75 460.434 156.019 460.224C156.112 460.207 156.18 460.172 156.242 460.122C158.545 468.422 161.457 476.564 163.874 484.83C166.349 493.299 168.67 501.816 171.259 510.251C171.322 510.443 171.444 510.55 171.586 510.614C169.012 511.37 166.442 512.134 163.875 512.905C163.788 512.866 163.676 512.81 163.534 512.746C161.242 503.011 158.402 493.385 155.385 483.816C155.781 483.738 155.972 483.144 155.551 482.916C155.368 482.814 155.185 482.712 155.002 482.61C152.823 475.739 150.554 468.894 148.31 462.065C148.276 461.952 148.093 461.994 148.129 462.115C149.339 466.707 150.535 471.312 151.759 475.916C151.751 475.919 151.748 475.911 151.74 475.914C148.679 476.864 145.656 478.203 142.738 479.53C142.538 479.624 142.445 479.785 142.423 479.965C142.351 480.063 142.324 480.182 142.372 480.334C142.893 482.001 143.422 483.664 143.942 485.33C143.751 485.519 143.727 485.861 144.017 486.03C144.074 486.063 144.14 486.092 144.189 486.127C144.353 486.632 144.512 487.148 144.667 487.656C144.367 487.725 144.172 488.141 144.529 488.321C144.584 488.345 144.739 488.421 144.941 488.525C145.842 491.388 146.726 494.258 147.584 497.128C147.591 497.171 147.595 497.205 147.618 497.242C147.771 497.742 147.924 498.242 148.068 498.745C149.662 504.137 150.732 510.635 153.707 515.423C153.827 515.621 154.194 515.563 154.184 515.297C154.122 514.294 153.982 513.276 153.788 512.261C154.712 512.695 156.441 513.463 157.242 513.764C156.481 513.736 155.036 513.814 154.875 513.821C154.715 513.827 154.619 513.981 154.694 514.132C155.173 515.112 154.896 514.857 155.851 515.279C151.755 516.457 147.635 517.599 143.524 518.738C139.841 505.227 136.404 491.048 131.069 478.098C130.916 477.715 130.361 477.996 130.437 478.363C133.094 492.082 138.045 505.789 142.388 519.059C139.956 519.735 137.521 520.402 135.093 521.086C135.158 520.971 135.18 520.837 135.125 520.669C130.775 507.643 127.77 494.273 123.81 481.154C124.861 480.703 125.938 480.297 127.032 479.982C127.993 479.7 129.086 479.648 129.901 479.052C130.255 478.792 130.227 478.263 129.782 478.116C128.672 477.761 127.471 478.224 126.383 478.554C125.248 478.901 124.173 479.361 123.121 479.903C123.017 479.915 122.917 479.962 122.847 480.042C122.839 480.045 122.832 480.048 122.824 480.051C122.257 480.346 122.433 480.981 122.86 481.225C123.596 486.383 124.724 491.526 126.092 496.634C126.058 496.638 126.028 496.631 125.986 496.638C125.556 496.747 125.146 496.883 124.732 497.031C124.596 496.911 124.406 496.839 124.169 496.883C123.46 497.016 122.837 497.404 122.196 497.719C121.615 498.001 121.156 498.175 120.806 498.613C120.794 498.581 120.782 498.55 120.781 498.523C120.623 498.034 119.937 498.23 120.015 498.722C120.113 499.342 120.219 499.959 120.329 500.584C120.21 500.772 120.237 501.059 120.432 501.193C120.498 501.582 120.574 501.976 120.64 502.365C120.434 502.515 120.405 502.894 120.657 503.033C120.69 503.048 120.736 503.075 120.783 503.103C120.977 504.145 121.191 505.189 121.415 506.238C121.143 506.332 121.056 506.725 121.334 506.935C121.422 507.001 121.511 507.066 121.599 507.132C122.826 512.752 124.374 518.385 126.18 523.669C123.711 524.413 121.255 525.169 118.807 525.968C117.047 515.105 113.789 504.251 110.778 493.716C107.764 483.174 104.555 472.616 100.592 462.388C101.379 463.035 102.242 463.546 103.161 463.658C103.785 463.728 104.241 462.899 103.898 462.399C103.41 461.683 102.696 461.323 102.015 460.815C101.222 460.224 100.474 459.561 99.8174 458.829C99.1775 458.116 98.1652 458.742 98.0776 459.54C97.922 460.876 97.4209 462.064 96.6979 463.192C96.3112 463.797 97.1196 464.716 97.7439 464.237C98.3683 463.758 98.8688 463.191 99.2545 462.56C102.676 473.056 106.261 483.481 109.28 494.111C112.308 504.81 114.413 515.749 117.305 526.472C116.51 526.737 115.719 526.99 114.926 527.263C114.477 527.414 114.639 528.082 115.114 527.975C115.931 527.792 116.74 527.586 117.554 527.395C117.619 527.613 117.668 527.838 117.729 528.049C117.977 528.945 119.237 528.568 119.105 527.691C119.07 527.479 119.035 527.267 119 527.056C133.595 523.541 147.959 518.791 162.465 514.968C177.325 511.056 192.093 506.801 206.851 502.496C206.537 503.46 207.699 504.407 208.635 503.603C209.701 502.688 210.403 501.361 210.873 500.067C211.084 499.475 210.656 498.773 210.081 498.639ZM133.82 520.351C133.792 520.326 133.765 520.3 133.732 520.286C131.912 519.443 128.013 518.486 126.756 517.242C127.59 518.061 131.669 518.68 133.422 519.224C133.545 519.6 133.68 519.981 133.82 520.351ZM132.632 517.039C132.791 517.483 132.947 517.919 133.102 518.355C131.102 517.635 128.146 516.825 126.701 515.634C127.422 515.722 128.142 515.81 128.863 515.898C130.166 516.161 131.392 516.58 132.632 517.039ZM132.276 516.048C132.058 515.951 131.838 515.845 131.62 515.747C131.49 515.643 131.272 515.546 130.988 515.464C129.338 514.737 127.651 514.007 126.142 513.101C124.326 512.005 127.138 513.175 127.722 513.332C128.255 513.473 129.1 513.819 129.736 513.921C130.398 514.166 131.073 514.397 131.767 514.603C131.937 515.079 132.103 515.565 132.276 516.048ZM124.467 512.069C124.394 511.754 124.332 511.445 124.258 511.131C124.912 511.568 125.577 511.964 126.252 512.339C125.667 512.227 125.064 512.14 124.467 512.069ZM131.466 513.736C130.565 513.41 129.655 513.133 128.749 512.89C127.08 511.775 124.791 510.075 124.251 510.225C125.382 509.914 129.228 511.881 130.501 512.354C130.691 512.427 130.848 512.313 130.925 512.158C131.105 512.684 131.286 513.21 131.466 513.736ZM123.879 509.528C123.806 509.214 123.732 508.9 123.659 508.586C124.346 509.064 125.041 509.539 125.756 509.971C125.126 509.813 124.5 509.663 123.879 509.528ZM130.073 509.664C130.299 510.334 130.522 510.997 130.748 511.667C128.468 510.54 125.427 509.339 123.601 507.546C123.525 507.466 123.432 507.411 123.336 507.349C123.333 507.341 123.333 507.341 123.33 507.333C123.582 507.4 123.925 507.495 124.403 507.611C126.324 508.074 128.214 508.863 130.013 509.65C130.035 509.66 130.054 509.662 130.073 509.664ZM123.161 506.668C123.088 506.38 123.016 506.093 122.935 505.808C123.693 506.305 124.568 506.874 125.428 507.377C124.637 507.127 123.827 506.875 123.161 506.668ZM129.74 508.638C127.877 507.514 125.982 506.376 124.042 505.408C125.428 505.821 126.656 506.221 128.059 506.87C128.497 507.073 128.878 506.452 128.443 506.212C126.771 505.304 124.877 504.553 123.3 503.493C122.24 502.984 122.317 502.973 123.546 503.472C124.879 503.769 126.17 504.217 127.4 504.815C127.879 505.03 128.304 504.357 127.825 504.096C127.142 503.724 122.913 500.886 122.316 501.174C122.792 500.949 126.569 502.519 127.238 502.734C127.496 502.817 127.699 502.659 127.782 502.448C128.412 504.523 129.062 506.581 129.74 508.638ZM127.62 501.924C127.609 501.919 127.606 501.911 127.592 501.899C127.24 501.708 124.836 500.348 123.755 499.883C124.599 500.033 126.249 500.21 127.136 500.307C127.301 500.839 127.46 501.382 127.62 501.924ZM125.541 497.76C125.774 497.708 126.016 497.653 126.254 497.59C126.297 497.583 126.323 497.555 126.362 497.54C126.468 497.941 126.593 498.343 126.7 498.744C126.231 498.534 125.733 498.389 125.209 498.318C125.508 498.249 125.6 497.99 125.541 497.76ZM124.534 498.113C124.704 498.778 124.961 498.285 125.444 499.084C125.466 499.12 125.486 499.149 125.514 499.174C125.487 499.175 125.457 499.168 125.423 499.173C124.539 499.155 123.621 499.025 122.725 498.905C123.34 498.663 123.991 498.471 124.534 498.113ZM121.182 499.298C121.198 499.436 121.26 499.575 121.404 499.647C122.175 500.057 122.934 500.463 123.704 500.874C122.949 500.719 122.179 500.596 121.404 500.484C121.282 500.089 121.165 499.683 121.046 499.296C121.094 499.305 121.137 499.298 121.182 499.298ZM124.734 513.3C125.848 513.833 126.956 514.368 128.068 514.893C128.046 514.884 128.147 514.935 128.297 515.023C126.981 514.89 125.642 514.819 125.044 514.793C124.945 514.291 124.841 513.799 124.734 513.3ZM125.245 515.779C125.842 516.067 126.538 516.425 127.272 516.787C126.649 516.671 126.021 516.566 125.389 516.472L125.381 516.475C125.337 516.239 125.289 516.015 125.245 515.779ZM125.535 517.29C126.263 517.636 127.639 518.286 128.946 518.872C127.648 518.669 126.339 518.534 125.899 518.493C125.842 518.487 125.798 518.513 125.753 518.539C125.687 518.123 125.62 517.707 125.535 517.29ZM125.865 519.145C126.409 519.461 126.951 519.769 127.494 520.059C126.987 519.936 126.479 519.813 125.961 519.711C125.932 519.515 125.898 519.33 125.865 519.145ZM126.093 520.444C126.934 520.946 128.533 521.898 129.361 522.27C128.408 522 126.409 521.45 126.358 521.433C126.317 521.421 126.289 521.441 126.254 521.445C126.193 521.117 126.149 520.783 126.093 520.444ZM126.566 523.541C126.49 523.003 126.399 522.452 126.32 521.907C127.369 522.41 128.919 522.824 126.755 522.318C126.588 522.282 126.517 522.525 126.679 522.572C127.226 522.725 127.765 522.882 128.311 523.035C127.734 523.208 127.146 523.376 126.566 523.541ZM129.047 522.829C126.864 521.647 128.301 522.121 129.733 522.633C129.503 522.693 129.275 522.761 129.047 522.829ZM130.652 522.358C129.365 521.8 127.358 520.992 126.987 520.44C127.267 520.847 129.148 521.252 130.476 521.462C130.92 521.654 131.371 521.843 131.828 522.022C131.428 522.137 131.036 522.249 130.652 522.358ZM132.765 521.749C132.583 521.674 132.4 521.599 132.213 521.534C131.808 521.156 127.246 519.856 127.269 519.271C127.282 518.897 133.028 520.722 133.463 520.891C133.697 520.983 133.889 520.749 133.881 520.536C133.931 520.669 133.977 520.814 134.027 520.948C134.09 521.113 134.204 521.223 134.337 521.29C133.816 521.442 133.289 521.605 132.765 521.749ZM161.704 509.577C158.514 508.244 155.103 506.59 152.278 505.173C154.745 506.41 158.333 507.287 161.246 508.22C161.4 508.675 161.553 509.13 161.704 509.577ZM160.962 507.373C157.992 506.048 154.466 504.761 151.792 502.927C153.958 504.278 157.583 505.086 160.454 505.837C160.621 506.35 160.796 506.86 160.962 507.373ZM160.149 504.909C157.286 503.605 154.492 502.195 151.704 500.729C149.689 499.681 152.589 501.204 153.426 501.482C155.37 502.125 157.306 502.77 159.246 503.405C159.412 503.46 159.55 503.371 159.62 503.246C159.797 503.809 159.978 504.361 160.149 504.909ZM159.463 502.756C156.297 501.082 152.926 498.719 149.535 497.525C152.112 498.433 155.739 499.844 158.867 500.867C159.062 501.504 159.262 502.13 159.463 502.756ZM158.538 499.83C157.413 499.247 156.289 498.664 155.156 498.084C154.763 497.882 151.77 496.042 150.745 495.7C151.956 496.008 156.459 497.727 158.067 498.271C158.226 498.787 158.38 499.314 158.538 499.83ZM156.758 493.87C157.093 495.022 157.439 496.178 157.782 497.326C155.869 496.285 153.852 495.112 151.801 494.303C153.205 494.619 154.707 494.789 156.049 495.083C156.413 495.162 156.685 494.636 156.317 494.451C155.97 494.276 154.706 493.539 153.294 492.794C154.447 493.142 155.585 493.495 156.723 493.875C156.739 493.869 156.747 493.866 156.758 493.87ZM156.081 491.552C156.223 492.048 156.368 492.551 156.518 493.043C153.305 491.746 149.034 490.354 146.263 488.503C146.142 488.422 151.002 489.817 153.366 490.544C154.231 490.892 155.1 491.23 155.987 491.543C156.017 491.55 156.044 491.549 156.081 491.552ZM155.816 490.636C155.083 490.346 154.352 490.064 153.614 489.811C151.947 488.894 148.716 487.837 146.998 486.929C147.078 486.926 147.14 486.921 147.228 486.914C147.742 487.053 148.248 487.195 148.761 487.334C150.809 487.893 152.859 488.459 154.915 489.014C155.077 489.061 155.22 489.007 155.333 488.901C155.489 489.481 155.653 490.058 155.816 490.636ZM155.084 488.05C153.457 487.333 151.824 486.627 150.199 485.918C151.756 486.401 153.295 486.954 154.832 487.597C154.875 487.617 154.921 487.617 154.966 487.618C155.001 487.758 155.047 487.903 155.084 488.05ZM154.614 486.374C152.271 485.369 149.934 484.354 147.591 483.349C149.171 483.652 150.706 484.098 152.261 484.743C152.786 484.959 153.147 484.094 152.65 483.832C151.615 483.296 150.588 482.757 149.564 482.226C150.971 482.621 152.386 483.014 153.796 483.417C154.068 484.403 154.341 485.389 154.614 486.374ZM152.197 477.46C152.347 478.025 152.497 478.589 152.647 479.153C151.907 478.92 151.217 478.578 150.582 478.143C151.126 477.928 151.666 477.706 152.197 477.46ZM152.976 480.361C153.091 480.785 153.209 481.218 153.316 481.645C152.34 481.096 151.367 480.555 150.382 480.009C151.252 480.013 152.116 480.119 152.976 480.361ZM149.501 478.587C149.532 478.692 149.598 478.793 149.715 478.866C149.801 478.924 149.891 478.971 149.973 479.021C149.553 479.035 149.11 479.059 148.649 479.107C148.171 479.161 147.872 479.805 148.375 480.083C149.356 480.621 150.338 481.16 151.316 481.69C149.352 481.136 147.379 480.585 145.415 480.031C146.788 479.594 148.159 479.103 149.501 478.587ZM143.485 480.67C143.898 480.541 144.308 480.404 144.717 480.268C144.608 480.48 144.639 480.756 144.899 480.892L147.572 482.294C146.476 482.096 145.36 481.969 144.191 481.915C144.089 481.909 143.994 481.945 143.916 482.001C143.768 481.562 143.625 481.112 143.485 480.67ZM144.229 482.999C144.836 483.264 145.44 483.522 146.047 483.788C145.586 483.692 145.126 483.578 144.652 483.496C144.563 483.476 144.473 483.501 144.394 483.53C144.344 483.351 144.287 483.175 144.229 482.999ZM144.743 484.622C146.106 485.214 147.478 485.803 148.841 486.395C147.554 486.053 146.264 485.704 144.977 485.362C144.9 485.112 144.827 484.87 144.743 484.622ZM145.435 486.791C146.405 487.324 147.378 487.839 148.365 488.321C147.504 488.124 146.635 487.957 145.757 487.812C145.653 487.464 145.544 487.127 145.435 486.791ZM146.178 489.093C147.429 489.7 149.207 490.549 150.866 491.326C149.232 490.927 147.611 490.612 147.039 490.486C146.861 490.446 146.746 490.525 146.681 490.64C146.514 490.127 146.344 489.606 146.178 489.093ZM147.302 492.573C147.145 492.084 146.984 491.587 146.826 491.097C146.837 491.102 146.851 491.115 146.862 491.12C147.641 491.411 152.908 493.57 154.376 494.032C152.944 493.736 147.869 492.683 147.348 492.574C147.321 492.575 147.313 492.578 147.302 492.573ZM147.554 493.36C149.562 494.078 156.864 496.476 156.989 497.644C156.88 496.686 149.913 495.151 148.79 494.81C148.443 494.707 148.206 495.229 148.534 495.402C149.312 495.81 154.486 498.562 156.856 499.664C154.773 498.939 150.491 497.542 148.748 496.977C148.355 495.766 147.945 494.562 147.554 493.36ZM149.624 499.534C149.492 499.161 149.363 498.796 149.234 498.431C149.201 498.318 149.156 498.199 149.122 498.086C151.158 499.189 153.19 500.329 155.251 501.378C153.381 500.761 151.502 500.148 149.624 499.534ZM150.569 502.084C150.37 501.557 150.173 501.037 149.977 500.517C153.089 502.266 156.281 503.985 159.584 505.329C157.232 504.373 153.567 503.147 150.569 502.084ZM150.968 503.139C152.38 503.884 153.8 504.625 155.237 505.342C153.801 504.94 152.355 504.586 151.414 504.321C151.265 503.927 151.116 503.533 150.968 503.139ZM152.565 507.584C152.329 506.864 152.074 506.141 151.811 505.421C153.549 506.286 156.718 507.825 158.8 508.883C156.772 508.281 153.83 507.772 152.841 507.525C152.733 507.503 152.635 507.531 152.565 507.584ZM157.836 510.786C155.819 510.189 153.77 509.649 153.362 509.551C153.292 509.533 153.233 509.546 153.17 509.57C153.044 509.14 152.918 508.711 152.781 508.277C153.583 508.676 155.759 509.789 157.836 510.786ZM153.362 510.271C155.32 511.214 157.895 512.068 159.525 513.198C158.445 512.446 155.384 511.982 153.673 511.548C153.577 511.126 153.47 510.698 153.362 510.271ZM156.193 515.177C156.227 515.101 156.218 515.005 156.117 514.953C156.113 513.578 156.938 513.438 158.581 514.482C157.784 514.72 156.992 514.947 156.193 515.177ZM159.118 514.324C159.101 514.303 159.1 514.277 159.071 514.27C158.573 513.981 157.128 513.006 156.065 512.516C157.375 512.895 159.457 513.593 160.487 513.924C160.029 514.052 159.574 514.188 159.118 514.324ZM162.085 513.437C161.85 513.508 161.606 513.582 161.371 513.653C161.348 513.617 161.314 513.575 161.26 513.551C159.737 512.776 158.151 511.81 156.568 511.166C156.098 510.974 153.582 510.134 155.476 510.741C157.958 511.54 160.417 512.277 162.848 513.203C162.591 513.291 162.337 513.36 162.085 513.437ZM154.566 508.475C155.234 509.141 160.324 510.188 162.055 510.578C162.262 511.175 162.462 511.774 162.68 512.376C160.19 511.318 155.17 509.237 154.566 508.475ZM184.037 492.944C183.966 492.899 183.872 492.844 183.764 492.795C181.65 491.632 178.347 489.856 178.017 490.107C178.293 489.903 178.933 489.994 179.707 490.224C180.468 490.584 181.224 490.911 181.918 491.071C182.961 491.533 183.911 492.011 184.369 492.243C184.462 492.585 184.559 492.936 184.655 493.286C184.469 493.177 184.264 493.065 184.037 492.944ZM183.146 490.824C182.549 490.465 181.846 490.208 181.11 490.009C180.416 489.704 179.735 489.386 179.119 489.024C180.42 489.307 182.936 489.958 183.313 490.095C183.504 490.167 183.658 490.072 183.749 489.93C183.87 490.37 183.994 490.818 184.115 491.259C183.846 491.144 183.576 491.03 183.304 490.908C183.25 490.884 183.203 490.856 183.146 490.824ZM182.543 485.85C182.662 486.237 182.792 486.629 182.903 487.019C183 487.324 183.084 487.644 183.174 487.952C183.071 487.847 182.94 487.716 182.77 487.555C182.826 487.606 182.853 487.677 182.869 487.743C182.985 487.861 183.107 487.968 183.204 488.057C183.327 488.479 183.453 488.908 183.579 489.337C182.777 488.938 181.671 488.573 180.901 488.09C180.447 487.92 179.994 487.749 179.543 487.586C180.549 487.566 181.492 487.786 182.381 488.224C182.688 488.342 182.919 488.021 182.872 487.751C182.336 487.242 181.704 486.599 181.9 486.615C182.295 486.655 182.385 486.198 182.175 485.953C182.233 485.94 182.291 485.927 182.353 485.922C182.43 485.911 182.479 485.874 182.543 485.85ZM175.512 487.786C177.056 487.131 178.626 486.691 180.23 486.337C180.195 486.485 180.236 486.641 180.411 486.745C180.458 486.773 180.493 486.795 180.537 486.815C180.465 486.815 180.392 486.816 180.315 486.827C179.453 486.963 178.844 486.932 177.955 487.142C177.55 487.241 177.574 487.808 177.945 487.929C178.067 487.964 178.235 488.026 178.419 488.083C177.918 488.074 177.434 488.086 177.04 488.073C176.547 488.061 176.534 488.696 176.928 488.853C177.336 489.023 177.791 489.247 178.272 489.488C177.594 489.42 176.939 489.362 176.327 489.323C175.976 489.302 175.83 489.826 176.144 489.986C176.561 490.206 177.963 490.946 179.479 491.678C178.446 491.483 177.587 491.34 177.404 491.31C176.97 491.24 176.709 491.77 177.096 492.029C177.256 492.14 177.596 492.371 178.022 492.66C177.382 492.452 176.83 492.282 176.451 492.165C176.051 490.723 175.656 489.27 175.288 487.817C175.374 487.829 175.443 487.821 175.512 487.786ZM177.474 495.783C178.427 496.296 179.392 496.813 180.345 497.326C181.08 497.714 183.568 499.438 184.384 499.445C183.492 499.431 179.845 497.821 177.835 497.05C177.712 496.629 177.597 496.204 177.474 495.783ZM177.183 494.75C177.032 494.231 176.884 493.72 176.741 493.198C178.813 494.251 181.282 495.28 182.921 496.578C182.118 495.936 178.984 495.302 177.183 494.75ZM178.189 498.275C179.183 498.944 180.498 499.815 181.777 500.565C180.743 500.271 179.693 500.029 178.635 499.816C178.487 499.305 178.34 498.794 178.189 498.275ZM183.239 507.238C180.688 505.682 180.87 505.829 183.828 506.692C184.105 506.776 184.292 506.364 184.03 506.22C183.257 505.801 182.488 505.371 181.715 504.952C181.579 504.833 181.457 504.726 181.349 504.631C181.462 504.643 181.589 504.667 181.716 504.691C183.069 505.377 184.769 506.165 185.228 505.965C185.259 505.953 185.28 505.936 185.301 505.92C185.736 506.088 186.119 506.241 186.417 506.335C185.363 506.634 184.301 506.936 183.239 507.238ZM180.263 503.143C179.896 503.084 179.666 503.648 180.028 503.817C180.039 503.821 180.072 503.836 180.086 503.849C179.986 503.824 179.875 503.794 179.775 503.768C179.677 503.436 179.586 503.102 179.488 502.77C179.75 502.887 180.006 503.015 180.263 503.143ZM180.019 504.63C180.913 505.057 181.904 505.502 182.607 506.046C182.288 505.798 180.889 505.327 180.152 505.102C180.103 504.949 180.06 504.786 180.019 504.63ZM179.184 501.724C179.137 501.553 179.091 501.381 179.036 501.213C179.819 501.61 180.733 502.066 181.633 502.509C180.828 502.246 180.008 501.989 179.184 501.724ZM180.4 505.998C180.554 506.12 180.696 506.255 180.859 506.374C181.291 506.849 181.591 507.114 181.76 507.203C181.76 507.203 181.76 507.203 181.763 507.211L181.774 507.216L181.785 507.221C181.996 507.303 182.203 507.396 182.407 507.48C181.917 507.621 181.425 507.753 180.93 507.904C180.769 507.262 180.584 506.63 180.4 505.998ZM188.266 505.817C188.252 505.732 188.195 505.654 188.089 505.613C187.853 505.514 186.872 505.074 185.674 504.537C186.343 504.725 186.867 504.869 187.084 504.94C187.504 505.07 187.652 504.456 187.266 504.296C186.687 504.055 186.032 503.808 185.356 503.55C185.266 503.503 185.171 503.467 185.049 503.432C182.871 502.599 180.431 501.649 178.83 500.499C180.408 501.54 184.978 502.334 186.865 503.187C187.271 503.376 187.619 502.812 187.222 502.575C186.563 502.195 181.917 499.333 179.728 498.135C181.595 498.815 185.153 499.946 185.814 500.165C186.164 500.276 186.374 499.755 186.065 499.584C184.736 498.844 183.398 498.126 182.051 497.411C181.846 497.299 181.336 496.979 180.739 496.619C181.891 496.94 183.057 497.201 184.229 497.452C184.59 497.522 184.839 497.032 184.487 496.841C182.162 495.524 179.707 494.318 177.468 492.869C178.052 493.243 179.244 493.764 180.538 494.292C181.744 495.016 182.849 495.57 183.105 495.339C183.113 495.336 183.11 495.328 183.118 495.325C183.537 495.5 183.931 495.657 184.265 495.8C184.826 496.039 185.166 495.262 184.597 495.027C184.179 494.852 178.543 492.409 178.607 492.196C178.676 491.972 184.141 494.083 184.956 494.396C186.013 498.272 187.15 502.144 188.853 505.649C188.658 505.705 188.462 505.761 188.266 505.817Z" fill="#F0F0F0"/>
<path d="M296.449 160.953C296.545 160.975 296.609 160.875 296.581 160.798C300.259 156.51 299.506 148.41 293.867 146.164C292.099 144.952 289.613 144.92 287.548 145.165C286.918 145.243 286.205 145.456 285.528 145.542C285.528 145.519 285.519 145.501 285.51 145.478C283.034 141.086 290.12 142.148 292.218 142.352C292.483 142.379 292.588 142.161 292.551 141.957C292.848 140.274 292.789 138.567 292.515 136.888C292.56 136.775 292.547 136.643 292.414 136.539C291.578 135.872 290.865 135.082 290.047 134.397C289.965 134.329 289.865 134.333 289.792 134.374C288.855 134.02 287.777 133.975 286.712 134.111C286.703 133.821 286.598 133.53 286.534 133.244C286.424 132.786 286.264 132.346 286.109 131.906C286.081 131.829 286.022 131.783 285.953 131.761C285.57 131.475 285.099 131.388 284.637 131.257C284.409 131.193 282.988 130.971 282.942 130.753C282.915 130.612 282.723 130.612 282.654 130.717C282.577 130.685 282.495 130.676 282.412 130.712C281.471 131.116 280.53 131.515 279.589 131.919C279.2 132.083 278.478 132.255 278.273 132.673C278.049 133.122 278.364 133.762 278.487 134.175C278.757 135.073 279.036 135.981 279.388 136.847C274.59 139.18 272.95 146.949 277.615 150.225C280.402 152.181 283.582 151.391 286.73 151.446C287.502 151.459 288.371 151.55 289.065 151.927C289.983 152.426 290.504 153.996 290.221 154.985C289.833 156.324 287.598 156.71 286.451 156.819C284.286 157.023 282.088 156.946 279.918 157.036C279.685 157.045 279.547 157.2 279.506 157.372C278.794 158.175 279.675 161.733 279.831 162.359C279.867 162.5 279.963 162.586 280.077 162.641C280.082 162.65 280.087 162.654 280.091 162.663C281.019 163.575 282.179 165.059 283.541 165.282C284.51 165.436 285.716 165.3 286.817 165.055C286.872 165.087 286.922 165.123 286.977 165.155C287.096 165.223 287.219 165.082 287.155 164.978C287.457 164.905 287.745 164.823 288.019 164.737C288.032 164.764 288.046 164.796 288.064 164.823C288.247 165.177 288.416 165.622 288.699 165.931C288.654 166.035 288.672 166.167 288.786 166.23C289.636 166.716 290.76 167.601 291.788 167.641C292.734 167.678 293.977 166.893 294.799 166.498C295.407 166.207 296.714 165.84 296.906 165.105C297.139 164.211 296.065 162.568 295.604 161.774C295.91 161.511 296.188 161.243 296.449 160.953ZM295.128 161.483C295.087 161.529 295.069 161.588 295.069 161.647C295.069 161.647 295.069 161.647 295.069 161.651C294.758 161.493 294.429 161.361 294.119 161.216C293.794 161.066 293.465 160.916 293.141 160.771C293.566 160.585 293.94 160.335 294.274 160.04C294.763 160.276 295.256 160.526 295.759 160.726C295.553 160.98 295.343 161.234 295.128 161.483ZM295.964 160.444C295.485 160.217 294.973 160.031 294.47 159.85C294.804 159.519 295.087 159.137 295.329 158.724C295.786 158.933 296.248 159.142 296.718 159.301C296.49 159.696 296.239 160.077 295.964 160.444ZM296.86 159.065C296.417 158.842 295.937 158.665 295.466 158.498C295.713 158.039 295.91 157.545 296.06 157.045C296.554 157.25 297.029 157.481 297.527 157.672C297.34 158.148 297.116 158.616 296.86 159.065ZM297.619 157.436C297.175 157.15 296.65 156.955 296.124 156.8C296.225 156.424 296.307 156.043 296.357 155.661C296.376 155.539 296.389 155.416 296.403 155.294C296.924 155.557 297.459 155.857 298.002 156.043C297.911 156.515 297.783 156.982 297.619 157.436ZM298.066 155.734C297.555 155.453 296.979 155.239 296.435 155.022C296.476 154.577 296.504 154.1 296.513 153.619C297.056 153.887 297.605 154.178 298.171 154.4C298.167 154.849 298.135 155.294 298.066 155.734ZM297.984 152.617C298.094 153.116 298.149 153.61 298.167 154.1C297.632 153.837 297.066 153.624 296.517 153.397C296.522 152.907 296.504 152.412 296.467 151.913C296.961 152.131 297.459 152.344 297.957 152.526C297.966 152.558 297.975 152.585 297.984 152.617ZM297.874 152.199C297.408 152.008 296.924 151.841 296.444 151.673C296.403 151.26 296.344 150.856 296.266 150.456C296.618 150.624 297.002 150.765 297.376 150.874C297.577 151.291 297.746 151.732 297.874 152.199ZM297.171 150.452C296.855 150.339 296.531 150.243 296.216 150.175C296.079 149.526 295.887 148.9 295.626 148.328C296.225 148.977 296.75 149.676 297.171 150.452ZM285.076 145.569C284.93 145.574 284.784 145.569 284.642 145.547C283.673 145.755 282.951 145.383 282.49 144.43C283.23 144.82 284.034 145.179 284.788 145.292C284.875 145.392 284.966 145.488 285.076 145.569ZM284.51 144.893C284.171 144.757 283.815 144.653 283.477 144.521C283.089 144.376 282.709 144.212 282.33 144.054C282.252 143.845 282.184 143.622 282.129 143.373C282.22 143.064 282.357 142.797 282.517 142.552C282.842 142.706 283.166 142.86 283.491 143.01C283.769 143.141 284.053 143.291 284.34 143.414C284.226 143.913 284.277 144.439 284.51 144.893ZM284.427 143.132C284.089 142.978 283.733 142.851 283.399 142.71C283.139 142.601 282.878 142.493 282.618 142.384C282.851 142.075 283.148 141.816 283.504 141.612C283.527 141.599 283.555 141.585 283.577 141.567C284.071 141.771 284.569 141.984 285.072 142.139C284.775 142.429 284.56 142.769 284.427 143.132ZM285.3 141.953C284.839 141.739 284.345 141.567 283.856 141.408C284.258 141.19 284.683 141.022 285.122 140.886C285.501 141.072 285.88 141.258 286.264 141.431C285.921 141.553 285.592 141.721 285.3 141.953ZM286.753 141.281C286.369 141.09 285.972 140.922 285.574 140.759C286.045 140.641 286.534 140.559 287.023 140.491C287.032 140.5 287.045 140.51 287.059 140.514C287.475 140.677 287.84 140.895 288.192 141.136C287.694 141.136 287.21 141.172 286.753 141.281ZM291.898 137.052C291.934 137.079 291.971 137.097 292.008 137.111C291.994 137.465 291.989 137.823 291.98 138.182C291.733 137.996 291.468 137.819 291.222 137.637C290.92 137.415 290.619 137.197 290.312 136.979C290.312 136.466 290.299 135.958 290.262 135.459C290.746 136.049 291.336 136.58 291.898 137.052ZM290.317 137.288C290.559 137.483 290.801 137.678 291.043 137.873C291.35 138.114 291.651 138.386 291.971 138.613C291.962 139.071 291.957 139.534 291.962 139.992C291.715 139.806 291.455 139.629 291.217 139.457C290.902 139.23 290.587 139.003 290.262 138.785C290.29 138.291 290.308 137.787 290.317 137.288ZM290.057 139.947C290.13 139.892 290.189 139.806 290.198 139.684C290.216 139.479 290.226 139.275 290.239 139.066C290.509 139.271 290.774 139.47 291.043 139.675C291.35 139.911 291.642 140.183 291.962 140.41C291.966 140.804 291.976 141.195 291.994 141.585C291.971 141.58 291.948 141.576 291.925 141.576C291.628 141.304 291.258 141.072 290.957 140.818C290.641 140.55 290.34 140.264 290.047 139.97C290.052 139.965 290.057 139.956 290.057 139.947ZM289.892 140.21C290.184 140.555 290.5 140.882 290.838 141.181C290.938 141.272 291.043 141.367 291.153 141.462C290.386 141.34 289.558 141.199 288.736 141.154C288.361 140.859 287.932 140.623 287.493 140.437C288.265 140.355 289.033 140.31 289.76 140.255C289.81 140.255 289.851 140.237 289.892 140.21ZM285.976 134.229C285.775 134.27 285.583 134.324 285.391 134.374C285.149 134.22 284.871 134.111 284.615 133.984C284.318 133.839 284.021 133.694 283.724 133.548C283.641 133.29 283.559 133.031 283.477 132.772C283.902 132.945 284.322 133.131 284.729 133.344C285.122 133.548 285.487 133.821 285.899 133.98C285.926 134.07 285.949 134.152 285.976 134.229ZM284.944 134.497C284.66 134.583 284.382 134.678 284.121 134.778C284.025 134.483 283.929 134.184 283.838 133.889C284.053 134.002 284.267 134.116 284.478 134.234C284.628 134.315 284.784 134.411 284.944 134.497ZM283.495 131.547C284.135 131.806 284.957 132.237 285.666 132.251C285.693 132.618 285.725 132.986 285.789 133.349C285.807 133.44 285.821 133.535 285.835 133.626C285.154 133.117 284.203 132.804 283.408 132.546C283.285 132.151 283.157 131.756 283.029 131.361C283.184 131.438 283.354 131.493 283.495 131.547ZM283.948 164.574C282.773 164.438 281.832 163.516 280.918 162.75C281.434 162.795 281.955 162.827 282.476 162.836C282.828 163.249 283.198 163.648 283.6 164.016C283.801 164.202 284.016 164.401 284.24 164.592C284.144 164.592 284.043 164.587 283.948 164.574ZM284.811 164.606C284.459 164.311 284.071 164.047 283.733 163.748C283.399 163.457 283.079 163.153 282.76 162.845C283.258 162.849 283.756 162.827 284.249 162.79C284.788 163.362 285.382 163.966 286.013 164.474C285.611 164.537 285.204 164.592 284.811 164.606ZM286.479 164.383C286.173 164.152 285.853 163.934 285.56 163.693C285.19 163.394 284.834 163.081 284.478 162.768C285.003 162.722 285.524 162.654 286.04 162.559C286.31 162.777 286.584 162.99 286.858 163.203C287.087 163.38 287.31 163.571 287.543 163.748C287.598 163.857 287.649 163.97 287.703 164.079C287.31 164.197 286.899 164.297 286.479 164.383ZM286.36 162.505C286.543 162.468 286.726 162.427 286.908 162.382C286.922 162.377 286.927 162.373 286.94 162.364C287.041 162.632 287.151 162.895 287.265 163.153C287.183 163.099 287.105 163.04 287.027 162.986C286.803 162.827 286.579 162.663 286.36 162.505ZM289.572 165.218C289.088 165.068 288.791 164.138 288.526 163.693C288.156 163.067 287.777 162.45 287.333 161.874C287.292 161.819 287.233 161.788 287.173 161.769C287.114 161.615 286.986 161.497 286.785 161.524C284.733 161.801 282.755 161.951 280.699 161.765C280.534 161.061 280.388 160.354 280.288 159.637C280.26 159.441 280.045 158.466 280.018 157.917C282.156 157.867 284.34 157.858 286.47 157.667C287.786 157.549 289.166 157.241 290.152 156.297C292.008 154.518 291.304 151.89 288.978 150.978C287.429 150.37 285.734 150.702 284.126 150.792C281.873 150.919 279.442 150.702 277.656 149.2C275.75 147.593 275.207 144.907 275.86 142.574C276.532 140.178 278.241 138.817 279.822 137.052C279.826 137.047 279.826 137.043 279.831 137.038C279.876 136.988 279.904 136.92 279.89 136.829C279.794 136.203 279.643 135.59 279.502 134.978C279.424 134.633 278.931 133.381 279.077 133.077C279.241 132.732 280.384 132.45 280.722 132.301C281.243 132.074 281.768 131.842 282.294 131.615C282.668 132.763 283.047 133.911 283.422 135.06C283.518 135.345 283.833 135.373 284.021 135.241C285.008 135.087 286.036 134.982 287.032 134.951C287.886 134.923 288.763 135.091 289.609 135.037C289.417 136.534 289.426 138.132 289.504 139.625C286.954 139.375 283.28 139.788 281.741 142.039C280.667 143.609 281.133 145.987 283.157 146.44C284.743 146.799 286.698 146.123 288.284 145.987C290.523 145.796 292.953 146.05 294.397 147.961C295.69 149.671 295.773 152.217 295.658 154.286C295.517 156.905 294.47 158.833 292.332 160.326C292.309 160.344 292.291 160.363 292.273 160.385C292.058 160.435 291.884 160.626 291.962 160.903C292.25 161.928 292.565 162.945 292.885 163.957C292.492 164.17 292.094 164.379 291.683 164.56C291.194 164.773 290.098 165.382 289.572 165.218ZM290.874 166.543C290.605 166.43 290.335 166.321 290.061 166.216C290.463 166.108 290.87 165.917 291.199 165.781C291.706 166.039 292.204 166.321 292.711 166.579C292.117 166.82 291.674 166.884 290.874 166.543ZM293.429 166.271C293.314 166.321 293.209 166.366 293.109 166.412C292.592 166.126 292.035 165.885 291.487 165.658C291.907 165.486 292.314 165.295 292.72 165.091C293.049 165.282 293.378 165.472 293.707 165.663C293.872 165.758 294.032 165.863 294.196 165.958C293.922 166.071 293.652 166.171 293.429 166.271ZM294.507 165.831C294.283 165.699 294.05 165.59 293.822 165.468C293.525 165.304 293.228 165.146 292.931 164.987C293.182 164.855 293.438 164.728 293.684 164.587C293.767 164.542 293.826 164.465 293.867 164.379C294.406 164.678 294.959 164.982 295.521 165.195C295.265 165.454 294.895 165.658 294.507 165.831ZM295.795 164.787C295.777 164.837 295.75 164.887 295.722 164.932C295.169 164.596 294.525 164.342 293.904 164.093C293.899 164.079 293.904 164.061 293.899 164.047C293.726 163.498 293.552 162.949 293.374 162.405C294.151 162.999 294.982 163.58 295.855 163.979C295.905 164.261 295.901 164.533 295.795 164.787ZM295.727 163.516C294.914 162.995 294.059 162.523 293.241 162.001C293.118 161.624 292.995 161.248 292.867 160.875C293.269 161.089 293.68 161.288 294.087 161.497C294.384 161.647 294.681 161.815 294.991 161.951C294.996 161.974 295 161.996 295.01 162.019C295.215 162.464 295.535 162.99 295.727 163.516Z" fill="#F0F0F0"/>
<path d="M192.333 176.659C186.06 175.449 178.951 177.606 174.48 182.202C170.427 186.365 168.855 192.948 171.7 198.221C175.041 204.416 183.194 205.912 188.195 210.439C187.918 210.551 187.649 210.671 187.383 210.801C186.693 211.144 185.892 212.036 186.595 212.544C186.614 212.644 186.681 212.735 186.811 212.745C186.892 212.754 186.964 212.755 187.045 212.764C186.103 213.67 186.688 214.721 187.646 215.208C187.085 215.794 187.041 216.712 187.588 217.329C187.797 217.56 188.148 217.765 188.517 217.848C188.524 217.89 188.536 217.931 188.562 217.978C191.011 221.74 197.171 220.597 198.242 216.264C198.272 216.144 198.247 216.024 198.19 215.93C199.003 215.001 199.227 213.523 198.239 212.734C198.437 211.886 198.119 210.833 197.326 210.451C197.399 210.29 197.45 210.108 197.464 209.899C197.47 209.791 197.417 209.707 197.343 209.647C197.398 209.369 197.259 209.056 196.894 209.061C196.126 209.071 195.316 209.094 194.496 209.154C198.137 203.061 203.742 196.928 203.761 189.416C203.781 182.86 198.529 177.854 192.333 176.659ZM189.304 217.826C190.682 217.975 192.028 217.929 193.408 217.683C194.503 217.485 195.823 217.296 196.914 216.811C195.148 219.599 192.014 220.065 189.304 217.826ZM193.498 216.64C192.225 216.931 190.965 217.206 189.671 217.315C189.654 217.204 189.588 217.096 189.471 217.076C189.043 217 188.628 217.187 188.253 216.867C187.879 216.547 187.898 215.97 188.128 215.573C188.161 215.518 188.166 215.461 188.166 215.406C188.238 215.423 188.316 215.443 188.392 215.454C191.242 215.901 194.829 214.582 197.463 213.38C199.467 215.344 194.599 216.39 193.498 216.64ZM197.623 212.404C197.567 212.404 197.505 212.418 197.445 212.441C195.937 213.07 194.424 213.628 192.84 214.008C192.219 214.157 191.591 214.286 190.956 214.389L190.195 214.497C188.971 214.929 188.092 214.445 187.556 213.059C187.617 212.968 187.613 212.88 187.578 212.802C189.951 212.939 192.271 212.697 194.565 212.003C195.256 211.794 196.141 211.581 196.75 211.136C197.261 211.409 197.658 211.861 197.623 212.404ZM196.637 210.066C195.692 211.29 193.53 211.556 192.135 211.845C190.416 212.199 188.666 212.306 186.916 212.264C186.798 211.656 189.155 211.098 189.186 211.089C189.949 210.896 190.729 210.721 191.501 210.576C193.201 210.251 194.91 210.117 196.637 210.066ZM193.558 208.622C193.444 208.85 193.493 209.069 193.618 209.225C192.971 209.288 192.321 209.379 191.678 209.49C191.675 209.463 191.681 209.445 191.673 209.42C190.914 206.84 190.512 204.153 189.484 201.655C189.229 201.033 188.905 200.514 188.532 200.05C188.65 199.964 188.727 199.835 188.704 199.665C188.701 199.638 188.698 199.611 188.696 199.584C189.655 197.8 191.401 196.544 192.207 194.64C192.677 193.532 192.328 191.517 190.773 191.588C189.408 191.646 188.793 193.87 188.47 194.878C188.174 195.806 187.853 196.908 187.723 197.985C187.033 196.989 186.273 196.037 185.59 195.028C185.017 194.18 184.261 193.315 183.444 192.707C181.606 191.348 181.06 194.073 181.753 195.373C182.963 197.627 185.705 198.524 187.488 200.216C188.649 201.319 189.079 203.288 189.483 204.77C189.932 206.399 190.252 208.062 190.731 209.683C190.09 209.821 189.462 209.983 188.859 210.194C188.858 210.189 188.856 210.183 188.855 210.178C184.994 205.073 177.662 204.362 173.669 199.369C168.107 192.419 173.075 183.082 180.062 179.624C187.418 175.976 198.761 176.912 201.884 185.782C204.879 194.302 196.982 201.667 193.558 208.622ZM188.788 197.724C188.862 197.307 188.959 196.895 189.046 196.502C189.319 195.259 189.671 193.781 190.515 192.793C190.934 192.305 191.306 192.837 191.448 193.288C191.687 194.059 190.869 195.117 190.46 195.691C189.958 196.398 189.348 197.044 188.788 197.724ZM186.849 198.472C186.434 198.164 185.994 197.865 185.532 197.549C184.556 196.895 183.535 196.216 182.829 195.258C182.501 194.819 182.426 194.37 182.421 193.838C182.416 192.941 182.901 193.499 183.293 193.858C184.044 194.541 184.632 195.384 185.209 196.209C185.751 196.972 186.319 197.711 186.849 198.472Z" fill="#F0F0F0"/>
<path d="M164.993 174.118C166.973 176.239 168.712 178.627 171.284 180.081C172.115 180.551 172.808 179.247 171.979 178.782C169.535 177.401 167.877 175.061 165.995 173.043C165.349 172.339 164.345 173.426 164.993 174.118Z" fill="#F0F0F0"/>
<path d="M180.504 165.438C181.336 168.279 181.763 171.214 182.595 174.054C182.861 174.968 184.275 174.54 184.009 173.626C183.177 170.786 182.75 167.851 181.918 165.01C181.647 164.098 180.238 164.525 180.504 165.438Z" fill="#F0F0F0"/>
<path d="M199.478 164.958C198.573 168.13 197.323 171.19 196.417 174.362C196.156 175.279 197.591 175.616 197.853 174.704C198.759 171.532 200.009 168.472 200.914 165.3C201.175 164.383 199.735 164.047 199.478 164.958Z" fill="#F0F0F0"/>
<path d="M206.61 181.402C208.76 180.269 210.999 179.302 213.007 177.922C213.789 177.386 213.005 176.136 212.218 176.673C210.21 178.053 207.971 179.019 205.821 180.153C204.979 180.597 205.773 181.844 206.61 181.402Z" fill="#F0F0F0"/>
<path d="M166.945 191.92C164.528 192.169 162.129 192.607 159.692 192.572C158.739 192.561 158.781 194.036 159.728 194.049C162.165 194.084 164.564 193.646 166.981 193.397C167.924 193.301 167.893 191.822 166.945 191.92Z" fill="#F0F0F0"/>
</g>
<defs>
<filter id="filter0_d_429_39056" x="63.5972" y="127.643" width="490.368" height="456.057" filterUnits="userSpaceOnUse" color-interpolation-filters="sRGB">
<feFlood flood-opacity="0" result="BackgroundImageFix"/>
<feColorMatrix in="SourceAlpha" type="matrix" values="0 0 0 0 0 0 0 0 0 0 0 0 0 0 0 0 0 0 127 0" result="hardAlpha"/>
<feOffset dx="-30"/>
<feGaussianBlur stdDeviation="1.5"/>
<feComposite in2="hardAlpha" operator="out"/>
<feColorMatrix type="matrix" values="0 0 0 0 0 0 0 0 0 0 0 0 0 0 0 0 0 0 0.25 0"/>
<feBlend mode="normal" in2="BackgroundImageFix" result="effect1_dropShadow_429_39056"/>
<feBlend mode="normal" in="SourceGraphic" in2="effect1_dropShadow_429_39056" result="shape"/>
</filter>
<linearGradient id="paint0_linear_429_39056" x1="370.449" y1="580.699" x2="370.449" y2="562.028" gradientUnits="userSpaceOnUse">
<stop offset="0.00558659" stop-color="#E522D9"/>
<stop offset="1" stop-color="#FF2443"/>
</linearGradient>
<linearGradient id="paint1_linear_429_39056" x1="279.974" y1="575.461" x2="279.974" y2="559.856" gradientUnits="userSpaceOnUse">
<stop offset="0.00558659" stop-color="#E522D9"/>
<stop offset="1" stop-color="#FF2443"/>
</linearGradient>
<linearGradient id="paint2_linear_429_39056" x1="316.21" y1="545.853" x2="264.372" y2="545.853" gradientUnits="userSpaceOnUse">
<stop stop-color="#FF2483"/>
<stop offset="0.9944" stop-color="#E522D9"/>
</linearGradient>
<linearGradient id="paint3_linear_429_39056" x1="390.494" y1="548.419" x2="337.524" y2="548.419" gradientUnits="userSpaceOnUse">
<stop stop-color="#FF2483"/>
<stop offset="0.9944" stop-color="#E522D9"/>
</linearGradient>
<linearGradient id="paint4_linear_429_39056" x1="274.331" y1="425.202" x2="274.331" y2="365.153" gradientUnits="userSpaceOnUse">
<stop stop-color="#FFD7DA"/>
<stop offset="0.3222" stop-color="#FFDFE2"/>
<stop offset="0.8289" stop-color="#FFF6F6"/>
<stop offset="1" stop-color="white"/>
</linearGradient>
<linearGradient id="paint5_linear_429_39056" x1="249.552" y1="418.765" x2="249.552" y2="365.153" gradientUnits="userSpaceOnUse">
<stop stop-color="#FF2443"/>
<stop offset="0.9944" stop-color="#E522D9"/>
</linearGradient>
<linearGradient id="paint6_linear_429_39056" x1="291.106" y1="568.447" x2="291.106" y2="466.524" gradientUnits="userSpaceOnUse">
<stop stop-color="#FFC3C4"/>
<stop offset="0.439" stop-color="#FFC5CC"/>
<stop offset="1" stop-color="#FFC9DE"/>
</linearGradient>
<linearGradient id="paint7_linear_429_39056" x1="368.505" y1="572.296" x2="368.505" y2="455.37" gradientUnits="userSpaceOnUse">
<stop stop-color="#FFD7DA"/>
<stop offset="0.4516" stop-color="#FFDFDF"/>
<stop offset="1" stop-color="#FFF0E8"/>
</linearGradient>
<linearGradient id="paint8_linear_429_39056" x1="338.287" y1="501.925" x2="338.287" y2="396.333" gradientUnits="userSpaceOnUse">
<stop stop-color="#FFD7DA"/>
<stop offset="0.4516" stop-color="#FFDFDF"/>
<stop offset="1" stop-color="#FFF0E8"/>
</linearGradient>
<linearGradient id="paint9_linear_429_39056" x1="310.333" y1="444.454" x2="310.333" y2="414.087" gradientUnits="userSpaceOnUse">
<stop offset="0.00558659" stop-color="#E522D9"/>
<stop offset="1" stop-color="#FF2443"/>
</linearGradient>
<linearGradient id="paint10_linear_429_39056" x1="357.072" y1="512.852" x2="357.072" y2="450.464" gradientUnits="userSpaceOnUse">
<stop stop-color="#931A84"/>
<stop offset="1" stop-color="#AE04B1"/>
</linearGradient>
<linearGradient id="paint11_linear_429_39056" x1="375.784" y1="469.202" x2="375.784" y2="399.892" gradientUnits="userSpaceOnUse">
<stop stop-color="#FFD7DA"/>
<stop offset="0.3222" stop-color="#FFDFE2"/>
<stop offset="0.8289" stop-color="#FFF6F6"/>
<stop offset="1" stop-color="white"/>
</linearGradient>
<linearGradient id="paint12_linear_429_39056" x1="342.236" y1="402.902" x2="342.236" y2="233.981" gradientUnits="userSpaceOnUse">
<stop stop-color="#FFD7DA"/>
<stop offset="0.3222" stop-color="#FFDFE2"/>
<stop offset="0.8289" stop-color="#FFF6F6"/>
<stop offset="1" stop-color="white"/>
</linearGradient>
<linearGradient id="paint13_linear_429_39056" x1="408.875" y1="378.816" x2="404.014" y2="320.66" gradientUnits="userSpaceOnUse">
<stop stop-color="#FFC3C4"/>
<stop offset="0.5113" stop-color="#FFBBC8"/>
<stop offset="1" stop-color="#FFAECE"/>
</linearGradient>
<linearGradient id="paint14_linear_429_39056" x1="404.216" y1="372.622" x2="400.196" y2="324.534" gradientUnits="userSpaceOnUse">
<stop stop-color="#FF7B7D"/>
<stop offset="0.3475" stop-color="#F97585"/>
<stop offset="0.8942" stop-color="#E7669C"/>
<stop offset="1" stop-color="#E363A1"/>
</linearGradient>
<linearGradient id="paint15_linear_429_39056" x1="406.726" y1="366.805" x2="403.679" y2="330.354" gradientUnits="userSpaceOnUse">
<stop stop-color="#FFD7DA"/>
<stop offset="0.3222" stop-color="#FFDFE2"/>
<stop offset="0.8289" stop-color="#FFF6F6"/>
<stop offset="1" stop-color="white"/>
</linearGradient>
<linearGradient id="paint16_linear_429_39056" x1="348.543" y1="438.481" x2="348.543" y2="394.896" gradientUnits="userSpaceOnUse">
<stop stop-color="#931A84"/>
<stop offset="1" stop-color="#AE04B1"/>
</linearGradient>
<linearGradient id="paint17_linear_429_39056" x1="303.613" y1="434.55" x2="303.613" y2="392.903" gradientUnits="userSpaceOnUse">
<stop stop-color="#931A84"/>
<stop offset="1" stop-color="#AE04B1"/>
</linearGradient>
<linearGradient id="paint18_linear_429_39056" x1="318.081" y1="512.873" x2="318.081" y2="458.13" gradientUnits="userSpaceOnUse">
<stop stop-color="#931A84"/>
<stop offset="1" stop-color="#AE04B1"/>
</linearGradient>
<linearGradient id="paint19_linear_429_39056" x1="370.932" y1="531.846" x2="370.932" y2="497.477" gradientUnits="userSpaceOnUse">
<stop stop-color="#931A84"/>
<stop offset="1" stop-color="#AE04B1"/>
</linearGradient>
<linearGradient id="paint20_linear_429_39056" x1="284.461" y1="524.961" x2="284.461" y2="497.475" gradientUnits="userSpaceOnUse">
<stop stop-color="#931A84"/>
<stop offset="1" stop-color="#AE04B1"/>
</linearGradient>
<linearGradient id="paint21_linear_429_39056" x1="372.212" y1="528.795" x2="372.212" y2="498.872" gradientUnits="userSpaceOnUse">
<stop offset="0.00558659" stop-color="#E522D9"/>
<stop offset="1" stop-color="#FF2483"/>
</linearGradient>
<linearGradient id="paint22_linear_429_39056" x1="284.185" y1="522.559" x2="284.185" y2="497.48" gradientUnits="userSpaceOnUse">
<stop offset="0.00558659" stop-color="#E522D9"/>
<stop offset="1" stop-color="#FF2483"/>
</linearGradient>
<linearGradient id="paint23_linear_429_39056" x1="328.604" y1="348.584" x2="328.604" y2="246.481" gradientUnits="userSpaceOnUse">
<stop stop-color="white"/>
<stop offset="1" stop-color="#D91A81"/>
</linearGradient>
<radialGradient id="paint24_radial_429_39056" cx="0" cy="0" r="1" gradientUnits="userSpaceOnUse" gradientTransform="translate(306.072 367.339) rotate(180) scale(109.449 109.448)">
<stop stop-color="#DC16B1"/>
<stop offset="0.3849" stop-color="#9517A9"/>
<stop offset="1" stop-color="#5A1A88"/>
</radialGradient>
<radialGradient id="paint25_radial_429_39056" cx="0" cy="0" r="1" gradientUnits="userSpaceOnUse" gradientTransform="translate(306.072 367.339) rotate(180) scale(109.449 109.448)">
<stop/>
<stop offset="0.2708" stop-color="#010002"/>
<stop offset="0.4085" stop-color="#05000A"/>
<stop offset="0.5161" stop-color="#0C0017"/>
<stop offset="0.6082" stop-color="#15002A"/>
<stop offset="0.6904" stop-color="#210043"/>
<stop offset="0.7655" stop-color="#310061"/>
<stop offset="0.8353" stop-color="#430085"/>
<stop offset="0.9008" stop-color="#5800AF"/>
<stop offset="0.9606" stop-color="#6F00DD"/>
<stop offset="1" stop-color="#8000FF"/>
</radialGradient>
<linearGradient id="paint26_linear_429_39056" x1="403.152" y1="375.742" x2="255.964" y2="375.742" gradientUnits="userSpaceOnUse">
<stop stop-color="white"/>
<stop offset="1" stop-color="#D91A81"/>
</linearGradient>
<linearGradient id="paint27_linear_429_39056" x1="428.044" y1="359.167" x2="428.044" y2="211.352" gradientUnits="userSpaceOnUse">
<stop stop-color="#FFD7DA"/>
<stop offset="0.3222" stop-color="#FFDFE2"/>
<stop offset="0.8289" stop-color="#FFF6F6"/>
<stop offset="1" stop-color="white"/>
</linearGradient>
<linearGradient id="paint28_linear_429_39056" x1="371.628" y1="470.004" x2="371.628" y2="436.803" gradientUnits="userSpaceOnUse">
<stop stop-color="#FF2443"/>
<stop offset="0.9944" stop-color="#E522D9"/>
</linearGradient>
<linearGradient id="paint29_linear_429_39056" x1="315.217" y1="292.772" x2="315.217" y2="239.243" gradientUnits="userSpaceOnUse">
<stop stop-color="#FFD7DA"/>
<stop offset="0.3222" stop-color="#FFDFE2"/>
<stop offset="0.8289" stop-color="#FFF6F6"/>
<stop offset="1" stop-color="white"/>
</linearGradient>
<linearGradient id="paint30_linear_429_39056" x1="315.217" y1="292.772" x2="315.217" y2="249.551" gradientUnits="userSpaceOnUse">
<stop stop-color="#D91A81"/>
<stop offset="1" stop-color="white"/>
</linearGradient>
<radialGradient id="paint31_radial_429_39056" cx="0" cy="0" r="1" gradientUnits="userSpaceOnUse" gradientTransform="translate(343.53 333.469) rotate(-1.57624) scale(36.1466 15.0928)">
<stop offset="0.0171" stop-color="#F200A5"/>
<stop offset="0.1703" stop-color="#C00083"/>
<stop offset="0.3951" stop-color="#7C0055"/>
<stop offset="0.5986" stop-color="#470030"/>
<stop offset="0.7736" stop-color="#200016"/>
<stop offset="0.9132" stop-color="#090006"/>
<stop offset="1"/>
</radialGradient>
<radialGradient id="paint32_radial_429_39056" cx="0" cy="0" r="1" gradientUnits="userSpaceOnUse" gradientTransform="translate(343.529 333.469) rotate(-1.57624) scale(28.0075 11.6944)">
<stop offset="0.0171" stop-color="#CE00F2"/>
<stop offset="0.1703" stop-color="#A300C0"/>
<stop offset="0.3951" stop-color="#6A007C"/>
<stop offset="0.5986" stop-color="#3C0047"/>
<stop offset="0.7736" stop-color="#1B0020"/>
<stop offset="0.9132" stop-color="#070009"/>
<stop offset="1"/>
</radialGradient>
</defs>
</svg>
