<svg width="1566" height="549" viewBox="0 0 1566 549" fill="none" xmlns="http://www.w3.org/2000/svg">
<path fill-rule="evenodd" clip-rule="evenodd" d="M1563.99 35.0552C1571.8 24.7079 1547.31 3.21033 1386.87 -0.00195312L940.532 2.84848C892.225 2.84848 844.62 14.0518 844.62 14.0518C835.218 14.6329 828.164 15.9757 820.567 17.4222C796.897 21.9285 767.948 27.4399 646.249 14.0518C622.634 10.3453 561.233 4.04428 504.556 8.49207L503.301 8.59052L503.3 8.59054C475.644 10.7588 430.782 14.2761 353.799 28.9565C307.664 35.0552 295.181 35.0552 159.489 21.3867C120.432 19.0702 22.3632 38.8797 1.00024 55.6825V270.108H2.01111V393.471C-5.80017 407.706 1.80102 484.806 162.241 489.225H625.465C673.771 489.225 721.377 473.813 721.377 473.813C730.779 473.014 737.833 471.166 745.43 469.177C769.099 462.978 798.049 455.396 919.747 473.813C943.363 478.912 1004.76 487.58 1061.44 481.461L1062.7 481.326C1090.35 478.343 1135.21 473.504 1212.2 453.31C1258.33 444.92 1270.82 444.92 1406.51 463.723C1445.56 466.91 1543.63 439.659 1565 416.544V121.573H1563.99V35.0552Z" fill="white"/>
<path fill-rule="evenodd" clip-rule="evenodd" d="M1563.99 35.0552C1571.8 24.7079 1547.31 3.21033 1386.87 -0.00195312L940.532 2.84848C892.225 2.84848 844.62 14.0518 844.62 14.0518C835.218 14.6329 828.164 15.9757 820.567 17.4222C796.897 21.9285 767.948 27.4399 646.249 14.0518C622.634 10.3453 561.233 4.04428 504.556 8.49207L503.301 8.59052L503.3 8.59054C475.644 10.7588 430.782 14.2761 353.799 28.9565C307.664 35.0552 295.181 35.0552 159.489 21.3867C120.432 19.0702 22.3632 38.8797 1.00024 55.6825V270.108H2.01111V393.471C-5.80017 407.706 1.80102 484.806 162.241 489.225H625.465C673.771 489.225 721.377 473.813 721.377 473.813C730.779 473.014 737.833 471.166 745.43 469.177C769.099 462.978 798.049 455.396 919.747 473.813C943.363 478.912 1004.76 487.58 1061.44 481.461L1062.7 481.326C1090.35 478.343 1135.21 473.504 1212.2 453.31C1258.33 444.92 1270.82 444.92 1406.51 463.723C1445.56 466.91 1543.63 439.659 1565 416.544V121.573H1563.99V35.0552Z" fill="url(#paint0_linear_484_19699)" fill-opacity="0.8"/>
<path d="M272.677 510.81C273.265 510.501 273.608 510.23 274.003 510.107C278.578 508.642 283.315 508.428 288.026 508.156C289.691 508.062 291.372 508.468 293.058 508.654C293.733 508.728 294.391 508.905 295.066 508.95C301.036 509.25 306.891 510.472 312.779 511.446C321.024 512.811 329.147 514.805 337.138 517.34C343.946 519.494 350.697 521.809 357.462 524.11C367.676 527.591 378.04 530.401 388.584 532.392C393.458 533.313 398.399 533.706 403.292 534.378C408.118 535.033 412.928 535.203 417.766 535.3C419.226 535.334 420.677 535.133 422.14 535.02C422.817 534.962 423.483 534.787 424.159 534.802C433.444 534.973 442.552 533.305 451.613 531.327C458.12 529.907 464.58 528.162 470.989 526.285C478.717 524.026 486.345 521.428 494.048 519.081C503.698 516.133 513.409 513.451 523.318 511.669C531.692 510.175 540.12 509.973 548.559 510.492C549.194 510.536 549.824 510.771 550.362 510.901C550.585 511.831 550.042 511.965 549.648 512.029C547.314 512.431 544.98 512.832 542.647 513.159C530.061 514.967 517.974 518.71 506.246 523.989C501.153 526.279 495.958 528.331 490.814 530.503C486.925 532.131 483.049 533.803 479.148 535.386C472.069 538.276 464.901 540.856 457.497 542.49C451.099 543.898 444.656 544.85 438.126 545.463C429.442 546.274 420.806 545.458 412.14 545.404C409.801 545.394 407.432 544.913 405.116 544.463C399.475 543.363 393.742 542.746 388.224 540.929C382.411 539.018 376.568 537.209 370.813 535.123C364.306 532.769 357.902 530.022 351.396 527.669C343.493 524.814 335.532 522.192 327.601 519.424C318.033 516.09 308.147 514.304 298.259 512.636C292.816 511.717 287.373 510.842 281.829 510.861C279.463 510.864 277.1 510.692 274.762 511.27C274.137 511.446 273.473 511.489 272.677 510.81Z" fill="#FF7723"/>
<defs>
<linearGradient id="paint0_linear_484_19699" x1="-357" y1="-21.9373" x2="1525.05" y2="537.207" gradientUnits="userSpaceOnUse">
<stop stop-color="#F3146D"/>
<stop offset="0.215839" stop-color="#C600AD"/>
<stop offset="0.4" stop-color="#AE04B1"/>
<stop offset="0.591839" stop-color="#31126D"/>
<stop offset="0.855" stop-color="#3906CE"/>
<stop offset="0.915" stop-color="#3208AE"/>
<stop offset="1" stop-color="#2B0A8E"/>
</linearGradient>
</defs>
</svg>
