<svg width="85" height="143" viewBox="0 0 85 143" fill="none" xmlns="http://www.w3.org/2000/svg">
<path d="M35.4027 9.97842C35.2313 11.4154 35.0612 12.9316 35.1895 14.3744C35.2263 14.8084 35.9596 14.8504 36.0518 14.4282C36.3617 13.0137 36.3842 11.4907 36.3985 10.0362C36.4002 9.39977 35.4757 9.33617 35.4027 9.97842Z" fill="#F0F0F0"/>
<path d="M23.104 25.0186C22.4109 24.8797 21.7172 24.7874 21.016 24.7169C20.3086 24.6481 19.5814 24.5051 18.8859 24.6783C18.3898 24.8046 18.3452 25.4789 18.8203 25.6696C19.4858 25.9285 20.2285 25.8818 20.9366 25.9041C21.6447 25.9263 22.3463 25.9238 23.0469 25.8686C23.4763 25.8396 23.5245 25.1047 23.104 25.0186Z" fill="#F0F0F0"/>
<path d="M33.635 38.6849C33.4672 39.9619 33.1112 41.5014 33.3671 42.7776C33.4599 43.223 34.1141 43.2663 34.2636 42.8354C34.6821 41.6038 34.5191 40.0312 34.5175 38.7399C34.5189 38.1764 33.7094 38.1217 33.635 38.6849Z" fill="#F0F0F0"/>
<path d="M33.7301 29.0277C34.0317 29.9802 34.9582 30.6196 35.9699 30.4148C36.9922 30.2005 37.5391 29.1266 37.2572 28.1488C36.9626 27.148 35.8861 26.5422 34.9268 27.0907C34.0491 27.5975 33.6269 28.8897 34.5049 29.5951C34.9187 29.9281 35.3285 29.381 35.1916 28.9938C35.0791 28.6728 35.2253 28.2296 35.5504 28.0829C35.9125 27.9262 36.1471 28.3072 36.1788 28.6233C36.2802 29.6692 34.8439 29.4513 34.5249 28.7551C34.3191 28.3333 33.5812 28.5708 33.7301 29.0277Z" fill="#F0F0F0"/>
<path d="M36.0261 27.4844C33.4632 24.6934 31.0296 21.8412 28.9308 18.6808C28.5216 18.0684 27.4873 18.584 27.8981 19.2026C30.0461 22.4227 32.4815 25.4798 35.3792 28.0618C35.7795 28.4183 36.4165 27.9031 36.0261 27.4844Z" fill="#F0F0F0"/>
<path d="M47.7862 135.001C47.7262 134.769 47.6463 134.545 47.5797 134.313C47.4532 133.893 47.3799 133.436 47.2667 133.009C47.0802 132.284 46.0811 128.661 45.7614 127.574C45.3552 126.169 45.0022 124.749 44.6225 123.343C44.456 122.727 43.77 119.945 43.79 119.981C44.2962 120.901 44.516 121.974 44.9156 122.952C44.8889 122.821 44.8623 122.684 44.8357 122.546C44.1497 119.641 43.0773 116.815 42.3181 113.917C42.3048 113.866 42.8842 115.206 43.1506 115.858C43.0174 115.293 42.8709 114.728 42.6977 114.177C42.5245 113.641 42.2648 112.511 42.2781 112.554C42.6111 113.576 42.9508 114.605 43.3371 115.612C43.1306 114.714 42.9042 113.808 42.6777 112.909C42.2448 111.221 41.8852 109.526 41.4589 107.838C41.1059 106.468 40.7129 105.026 40.0669 103.787C39.4142 102.534 38.5217 101.701 37.5426 101.462C34.9518 100.838 32.5408 103.548 33.1668 107.185C33.3733 108.381 34.1725 110.794 34.6854 111.895C35.125 112.83 36.3438 114.996 36.8233 115.902C37.0098 116.25 37.203 116.612 37.3961 116.967C38.0688 118.076 38.7282 119.228 39.4675 120.256C38.9147 119.025 37.7158 116.554 37.7424 116.597C38.0688 117.061 38.3419 117.59 38.6149 118.112C38.9213 118.699 39.261 119.264 39.5874 119.829C39.8937 120.365 40.2068 120.894 40.4998 121.437C40.7596 121.93 41.0127 122.43 41.299 122.894C40.7995 121.517 39.3476 117.902 39.3676 117.952C39.5008 118.228 39.634 118.503 39.7539 118.786C40.2001 119.757 40.6463 120.727 41.1126 121.684C41.6987 122.887 42.3247 124.068 42.9242 125.263C43.8233 127.06 44.7025 128.871 45.6149 130.647C44.8756 128.799 43.4104 125.01 43.4303 125.06C44.436 127.263 45.5283 129.408 46.4408 131.661C46.8804 132.762 47.3133 133.893 47.7862 135.001Z" fill="#ED1C24"/>
<path opacity="0.6" d="M35.265 102.454C35.6779 102.259 36.0842 101.947 36.5704 101.983C37.0433 102.012 37.5095 102.092 37.9824 102.389C38.5152 102.722 39.0613 103.266 39.4809 103.896C39.6941 104.215 39.8939 104.555 40.0803 104.91C40.2202 105.186 40.3201 105.497 40.4733 105.765C40.48 105.78 40.4866 105.751 40.48 105.744C40.3334 105.425 40.2335 105.063 40.087 104.737C39.9272 104.382 39.7207 104.048 39.5209 103.729C39.0946 103.063 38.5551 102.556 38.0157 102.179C37.01 101.476 35.9976 101.817 35.2516 102.433C35.245 102.425 35.2516 102.461 35.265 102.454Z" fill="#F1E10A"/>
<path opacity="0.6" d="M42.4381 108.585C42.3448 108.114 42.2782 107.643 42.1783 107.172C42.0784 106.715 41.9452 106.251 41.8053 105.795C41.5389 104.904 41.146 104.02 40.713 103.23C40.2668 102.419 39.7406 101.709 39.1146 101.23C38.5151 100.774 37.8691 100.441 37.2497 100.361C37.2364 100.361 37.243 100.412 37.2564 100.419C38.4752 100.716 39.7473 102.006 40.5932 103.498C41.0128 104.237 41.3991 105.07 41.6854 105.904C41.9918 106.795 42.185 107.679 42.4048 108.585C42.4181 108.635 42.4447 108.635 42.4381 108.585Z" fill="#F1E10A"/>
<path opacity="0.6" d="M42.9178 113.149C42.7846 112.649 42.7313 112.106 42.638 111.606C42.5248 111.004 42.4183 110.403 42.2984 109.802C42.0653 108.606 41.8188 107.396 41.4192 106.23C41.3926 106.15 41.3526 106.186 41.3659 106.251C41.4725 106.838 41.639 107.418 41.7722 108.005C41.9121 108.606 42.0453 109.208 42.1652 109.809C42.2917 110.41 42.4116 111.012 42.5381 111.613C42.6447 112.12 42.7246 112.656 42.8845 113.156C42.9045 113.2 42.9244 113.185 42.9178 113.149Z" fill="#F1E10A"/>
<path opacity="0.6" d="M42.791 126.293C42.3781 125.546 41.9851 124.786 41.5722 124.039C41.1659 123.308 40.713 122.619 40.2734 121.931C40.007 121.511 39.7406 121.105 39.4675 120.692C39.8272 121.387 40.1935 122.061 40.5731 122.728C40.8795 123.199 41.1859 123.677 41.4723 124.163C41.9052 124.887 42.3315 125.612 42.7644 126.336C42.791 126.372 42.7977 126.314 42.791 126.293Z" fill="#F1E10A"/>
<path opacity="0.6" d="M47.0403 135.19C46.3743 133.632 45.7082 132.074 44.9423 130.582C44.5693 129.857 44.2097 129.111 43.83 128.393C43.4704 127.712 43.0774 127.009 42.6312 126.444C42.5845 126.379 42.5912 126.495 42.6112 126.531C44.183 129.335 45.615 132.277 47.0203 135.226C47.0469 135.248 47.0536 135.211 47.0403 135.19Z" fill="#F1E10A"/>
<path opacity="0.6" d="M46.6342 129.632C46.8074 130.183 46.9606 130.726 47.1337 131.277C47.2403 131.61 47.3468 131.958 47.4468 132.299C47.6599 132.922 47.8797 133.538 48.1061 134.146C48.0728 133.994 48.0462 133.835 48.0062 133.683C47.8264 132.929 47.6199 132.176 47.4001 131.429C47.187 130.712 46.9872 129.98 46.7541 129.27C46.5809 128.741 46.4011 128.219 46.2146 127.698C46.3212 128.35 46.4677 128.987 46.6342 129.632Z" fill="#F1E10A"/>
<path opacity="0.6" d="M46.7273 128.191C46.6008 127.785 46.5475 127.372 46.4542 126.959C46.3477 126.488 46.2411 126.017 46.1279 125.553C45.8948 124.583 45.6617 123.619 45.4219 122.655C45.1821 121.699 44.929 120.75 44.6693 119.801C44.4095 118.851 44.0765 117.924 43.7702 116.989C43.7568 116.953 43.7369 116.968 43.7435 116.997C43.9966 117.946 44.1964 118.902 44.4562 119.851C44.7226 120.829 44.9823 121.8 45.2354 122.771C45.4752 123.72 45.7216 124.67 45.988 125.611C46.1146 126.068 46.2478 126.532 46.3743 126.988C46.4875 127.394 46.5542 127.807 46.7073 128.205C46.714 128.242 46.734 128.22 46.7273 128.191Z" fill="#F1E10A"/>
<path opacity="0.6" d="M45.2417 121.293C45.1685 121.076 45.1418 120.844 45.0952 120.619C45.0486 120.402 45.0153 120.177 44.982 119.96C44.9021 119.474 44.8088 118.989 44.7156 118.496C44.5158 117.467 44.296 116.446 44.0762 115.417C43.6566 113.432 43.2503 111.417 42.7108 109.454C42.6908 109.389 42.6575 109.417 42.6642 109.468C43.0638 111.497 43.5101 113.511 43.9363 115.533C44.1561 116.562 44.3759 117.583 44.589 118.605C44.6956 119.119 44.8022 119.634 44.9154 120.148C44.9953 120.525 45.0819 120.96 45.2284 121.315C45.2351 121.358 45.2484 121.322 45.2417 121.293Z" fill="#F1E10A"/>
<path opacity="0.6" d="M48.9252 139.298C48.752 138.907 48.5255 138.581 48.3257 138.219C48.0926 137.806 47.8728 137.393 47.653 136.98C47.2001 136.117 46.7406 135.255 46.2877 134.386C45.8414 133.531 45.4085 132.669 44.9823 131.792C44.556 130.915 44.1964 130.009 43.8101 129.111C43.7901 129.075 43.8167 129.068 43.8367 129.096C44.2696 129.959 44.7425 130.785 45.1688 131.661C45.6083 132.553 46.0479 133.444 46.5008 134.321C46.9404 135.176 47.38 136.03 47.7929 136.9C47.9994 137.327 48.1992 137.748 48.4057 138.175C48.5855 138.545 48.7986 138.9 48.9518 139.291C48.9651 139.334 48.9385 139.327 48.9252 139.298Z" fill="#F1E10A"/>
<path opacity="0.6" d="M42.5378 126.944C42.4446 126.734 42.3114 126.553 42.1982 126.357C42.0849 126.176 41.9717 125.995 41.8518 125.814C41.5921 125.416 41.339 125.003 41.0926 124.59C40.5664 123.72 40.0536 122.843 39.5407 121.959C38.5417 120.257 37.5226 118.54 36.6102 116.757C36.5769 116.692 36.6235 116.692 36.6501 116.735C37.6892 118.445 38.6882 120.191 39.7072 121.93C40.2201 122.807 40.7329 123.698 41.2524 124.575C41.4589 124.923 41.7186 125.358 42.0317 125.894C42.2182 126.22 42.4446 126.582 42.5711 126.952C42.5778 126.981 42.5445 126.966 42.5378 126.944Z" fill="#F1E10A"/>
<path opacity="0.6" d="M40.2001 101.484C40.2001 101.476 40.1934 101.476 40.1934 101.469C39.1811 100.332 37.8823 99.484 36.7501 99.4332C36.2439 99.4115 35.6711 99.4767 35.2182 99.6434C34.712 99.8317 34.1925 100.187 33.8329 100.672C33.8195 100.687 33.8262 100.752 33.8462 100.73C34.6321 99.9332 35.8376 99.4332 36.9765 99.7013C38.202 99.9984 39.3476 100.701 40.3733 101.955C41.3856 103.179 42.0117 104.751 42.6111 106.331C43.2372 107.99 43.6501 109.707 44.0631 111.417C44.0697 111.446 44.0964 111.41 44.0897 111.388C43.6568 109.49 43.1706 107.613 42.5046 105.78C41.9318 104.23 41.2125 102.629 40.2001 101.484Z" fill="#F1E10A"/>
<path opacity="0.6" d="M40.9792 109.584C41.0858 109.823 41.1857 110.07 41.279 110.309C41.5054 110.867 41.6653 111.526 41.9183 112.077C41.8517 111.671 41.8118 111.272 41.7718 110.867C41.219 108.7 40.7528 106.527 39.8137 104.476C39.3408 103.44 38.7147 102.447 37.9422 101.926C37.1829 101.418 36.4969 101.418 35.8042 101.607C34.4788 101.962 33.6063 103.454 33.4398 105.353C33.3599 106.295 33.5264 107.584 33.7928 108.577C33.9327 109.113 34.1191 109.729 34.3523 110.309C34.572 110.91 34.8251 111.504 35.1248 111.99C35.1781 112.077 35.2314 111.925 35.2181 111.867C35.1115 111.323 34.9317 110.787 34.8385 110.236C34.7585 109.773 34.6853 109.294 34.6453 108.823C34.6986 109.142 34.7386 109.461 34.8185 109.78C34.9583 110.316 35.1182 110.838 35.298 111.352C35.6377 112.345 36.0373 113.439 36.5701 114.301C36.6367 114.403 36.6767 114.229 36.67 114.163C36.6101 113.721 36.3836 113.2 36.2704 112.758C36.1439 112.294 36.0107 111.743 35.9241 111.222C36.0773 111.787 36.2305 112.345 36.4436 112.903C36.73 113.663 37.0697 114.424 37.4093 115.149C37.7623 115.895 38.1486 116.62 38.5149 117.359C38.7214 117.772 38.9678 118.409 39.2875 118.685C39.3475 118.735 39.3741 118.598 39.3675 118.547C39.3208 118.105 39.0478 117.525 38.9212 117.105C38.6681 116.279 38.4683 115.439 38.2885 114.598C38.2752 114.526 38.2618 114.453 38.2419 114.374C38.2885 114.475 38.3285 114.584 38.3751 114.685C38.8213 115.728 39.3741 116.743 39.8803 117.743C40.4664 118.909 41.0725 120.054 41.6919 121.192C41.9916 121.742 42.298 122.3 42.611 122.844C42.7842 123.141 42.9707 123.568 43.2104 123.778C43.277 123.836 43.3037 123.684 43.297 123.626C43.2704 123.315 43.1705 123.039 43.0639 122.742C42.9041 122.3 42.7908 121.836 42.671 121.373C42.3979 120.344 42.1581 119.315 41.8318 118.293C41.7052 117.895 41.572 117.504 41.4321 117.112C41.572 117.424 41.7052 117.735 41.8384 118.047C42.0249 118.482 42.1914 119.098 42.4711 119.453C42.4978 119.489 42.5311 119.467 42.5444 119.431C42.6443 119.17 42.4378 118.685 42.3513 118.409C42.1914 117.888 42.0582 117.359 41.9383 116.823C42.278 117.721 42.6243 118.627 42.9973 119.511C42.9241 119.112 42.8574 118.706 42.7908 118.308C42.631 117.764 42.4578 117.228 42.3246 116.699C42.1981 116.214 42.0782 115.736 41.965 115.25C42.1048 115.634 42.2447 116.011 42.3912 116.402C42.5577 116.851 42.7043 117.366 42.9307 117.801C42.7309 116.815 42.5045 115.823 42.298 114.837C42.1115 114.069 41.9583 113.301 41.7918 112.519C41.5853 111.555 41.3256 110.678 41.0192 109.736C41.0059 109.693 40.9926 109.635 40.9792 109.584Z" fill="#F3E235"/>
<path d="M39.3144 104.549C38.8149 103.368 38.0623 102.614 37.1898 102.23C36.97 102.129 36.7502 102.093 36.5371 102.093C36.5704 102.078 36.6103 102.064 36.6503 102.049C36.6636 102.042 36.6636 101.991 36.6436 101.991C36.4039 102.056 36.2041 101.991 35.9776 102.107C35.6846 102.259 35.4115 102.448 35.1384 102.651C34.9519 102.788 34.7921 102.94 34.6456 103.114C34.499 103.281 34.3658 103.462 34.2593 103.665C33.9596 104.643 33.7864 105.737 33.9063 106.846C33.9929 107.266 34.1061 107.686 34.2459 108.092C34.166 107.346 34.2926 106.469 34.5257 105.81C34.4458 106.397 34.4591 107.063 34.519 107.664C34.5257 107.715 34.5323 107.773 34.539 107.831C34.6922 108.751 35.0718 109.664 35.5314 110.49C35.4182 109.867 35.3183 109.266 35.2783 108.635C35.225 107.896 35.185 106.911 35.3516 106.23C35.3582 106.425 35.3516 106.621 35.3649 106.817C35.3915 107.179 35.4315 107.541 35.4848 107.911C35.6046 108.788 35.8977 109.635 36.2241 110.468C36.2374 110.505 36.2574 110.548 36.2707 110.584C36.8901 111.845 37.5561 113.062 38.3287 114.149C38.3287 114.127 38.3287 114.099 38.322 114.084C38.1422 113.533 37.9424 113.033 37.8159 112.461C37.7093 111.976 37.636 111.403 37.4895 110.925C37.4562 110.816 37.4362 110.613 37.4096 110.555C37.5228 110.831 37.5828 111.142 37.6693 111.418C37.8425 111.99 38.0756 112.57 38.3087 113.113C38.7416 114.128 39.2611 115.12 39.8073 116.04C39.9472 116.272 40.5333 117.511 40.773 117.511C40.7997 117.511 40.8263 117.482 40.8396 117.446C40.9062 117.105 40.7264 116.497 40.6598 116.135C40.4733 115.164 40.3135 114.2 40.1536 113.236C40.0537 112.642 39.9272 112.041 39.794 111.447C39.8073 111.476 39.8206 111.519 39.8339 111.548C39.9805 111.925 40.1603 112.287 40.3268 112.649C40.5066 113.041 40.6531 113.461 40.8596 113.823C40.8796 113.859 40.8996 113.859 40.9196 113.845C40.9196 113.57 40.9062 113.294 40.8796 113.019C40.7997 112.635 40.6864 112.244 40.6132 111.889C40.42 110.99 40.2402 110.099 40.0071 109.201C39.8273 108.498 39.5942 107.809 39.3477 107.136C39.6674 107.657 39.9871 108.179 40.3135 108.693C40.3002 108.447 40.2935 108.193 40.2868 107.947C40.2335 107.621 40.1736 107.295 40.1137 106.969C39.9072 106.15 39.6408 105.324 39.3144 104.549Z" fill="#EAC076"/>
<path d="M37.6628 102.759C37.0767 102.425 36.4373 102.331 35.9178 102.527C35.8179 102.57 35.7246 102.621 35.6447 102.665C35.5648 102.708 35.4915 102.759 35.4183 102.809C35.1319 103.02 34.8788 103.288 34.659 103.614C34.5924 103.73 34.5324 103.838 34.4725 103.969C34.3659 104.193 34.2927 104.454 34.2261 104.73C34.4925 103.94 34.9853 103.317 35.5382 103.063C36.1109 102.809 36.777 102.737 37.443 103.034C37.8226 103.164 38.2023 103.404 38.5486 103.773C38.5619 103.788 38.5752 103.744 38.5686 103.722C38.3155 103.411 38.0224 103.049 37.7094 102.78C37.6961 102.773 37.6761 102.766 37.6628 102.759Z" fill="#E7F6FD"/>
<path d="M36.9975 98.8599L36.0185 99.2801C36.0185 99.2801 35.6321 101.142 36.478 103.338C36.478 103.338 37.1174 103.352 37.9166 102.997C38.7225 102.664 39.1887 102.186 39.1887 102.186C38.4428 99.9394 36.9975 98.8599 36.9975 98.8599Z" fill="#626467"/>
<path d="M37.8163 99.6859C37.3568 99.1352 36.9905 98.8599 36.9905 98.8599L36.0114 99.2801C36.0114 99.2801 35.9115 99.7583 35.9248 100.519C36.3777 100.425 37.0504 100.2 37.8163 99.6859Z" fill="url(#paint0_linear_522_42624)"/>
<path d="M36.3247 102.904C36.3447 102.969 36.3647 103.027 36.3846 103.092C36.6377 103.07 37.104 102.998 37.7034 102.737C38.1163 102.563 38.5892 102.302 39.0954 101.911C39.0754 101.853 39.0488 101.795 39.0288 101.73C37.7633 102.715 36.691 102.882 36.3247 102.904Z" fill="#3A3C3F"/>
<path d="M36.1648 102.324C36.1781 102.389 36.1981 102.447 36.2114 102.512C36.4712 102.483 36.9241 102.411 37.5035 102.164C37.9098 101.99 38.3694 101.737 38.8689 101.36C38.8422 101.302 38.8156 101.251 38.789 101.193C37.5834 102.099 36.5578 102.287 36.1648 102.324Z" fill="#3A3C3F"/>
<path d="M38.2829 100.317C38.2496 100.266 38.2163 100.215 38.183 100.165C37.2439 100.838 36.4246 101.063 35.9651 101.135C35.9717 101.201 35.9784 101.266 35.9851 101.324C36.2515 101.28 36.6245 101.193 37.0774 100.998C37.437 100.846 37.8499 100.628 38.2829 100.317Z" fill="#3A3C3F"/>
<path d="M36.0449 101.73C36.0516 101.795 36.0649 101.853 36.0782 101.918C36.3446 101.889 36.7709 101.802 37.2904 101.577C37.6767 101.411 38.1229 101.172 38.5958 100.817C38.5625 100.759 38.5359 100.708 38.5026 100.657C37.4103 101.469 36.4778 101.679 36.0449 101.73Z" fill="#3A3C3F"/>
<path d="M37.9364 99.8314C37.8964 99.7807 37.8565 99.7372 37.8232 99.6865C37.0572 100.201 36.3779 100.426 35.9316 100.52C35.9316 100.585 35.9316 100.65 35.9383 100.715C36.1914 100.665 36.5044 100.578 36.8774 100.418C37.1904 100.281 37.5501 100.092 37.9364 99.8314Z" fill="#3A3C3F"/>
<path opacity="0.9" d="M36.9975 98.8599L36.0185 99.2801C36.0185 99.2801 35.6321 101.142 36.478 103.338C36.478 103.338 36.5246 103.338 36.6046 103.338C36.3914 102.838 36.3248 102.258 36.2183 101.722C36.1517 101.367 36.0051 100.519 36.4714 100.36C36.9842 100.186 37.6968 102.49 37.9033 103.004C37.9033 103.004 37.91 103.004 37.9166 102.997C38.7225 102.664 39.1887 102.186 39.1887 102.186C38.4428 99.9394 36.9975 98.8599 36.9975 98.8599Z" fill="#B3B5B8"/>
<path opacity="0.9" d="M36.9971 98.8599L36.4976 99.0772C37.4433 100.034 38.136 101.316 38.6622 102.606C39.0018 102.374 39.195 102.186 39.195 102.186C38.4424 99.9394 36.9971 98.8599 36.9971 98.8599Z" fill="#B3B5B8"/>
<path d="M37.1365 92.6442C37.1365 92.6442 38.8615 92.5065 39.6208 94.2527C40.38 95.9988 39.9471 102.462 39.5009 101.803C39.0546 101.15 37.5094 97.3682 37.5094 97.3682L37.1365 92.6442Z" fill="#3B117F"/>
<path d="M39.6071 101.839C39.6005 101.788 39.5872 101.737 39.5805 101.687C39.4939 101.259 39.3807 100.839 39.2741 100.419C39.081 99.6724 38.8945 98.9261 38.748 98.1726C38.4549 96.6728 38.1352 95.0932 38.1818 93.5499C38.1818 93.5137 38.2285 93.4847 38.2551 93.492C38.9145 93.6441 39.3807 94.0644 39.747 94.6005C39.7137 94.4701 39.6737 94.3614 39.6271 94.26C38.8678 92.5138 37.1428 92.6515 37.1428 92.6515L37.5158 97.3828C37.5158 97.3828 39.0676 101.158 39.5072 101.817C39.5405 101.861 39.5738 101.868 39.6071 101.839Z" fill="#008ED0"/>
<path d="M35.4047 86.6809C34.479 84.3551 33.9528 83.4856 33.8329 83.2972C32.8206 81.3337 27.6255 77.3052 27.2259 77.0951C26.9129 76.9284 26.6598 77.0226 26.5599 77.0661C26.46 77.1096 26.2135 77.2255 26.087 77.5805C25.9205 78.0297 24.6284 84.8261 25.1146 87.0215C25.1412 87.2461 25.2944 88.2749 26.067 90.666C26.9528 93.3975 30.0166 100.02 32.1412 101.766C32.1412 101.766 33.3401 101.628 35.1117 100.81C36.9166 100.1 37.8824 99.3171 37.8824 99.3171C38.3553 96.4624 36.4637 89.3473 35.4047 86.6809Z" fill="#C2C4C6"/>
<path d="M39.5605 94.6729C39.5605 94.6729 40.2865 98.0275 39.6938 101.114C39.6871 101.114 39.8936 97.6508 39.5605 94.6729Z" fill="white"/>
<path d="M35.405 86.6809C34.4792 84.3551 33.953 83.4856 33.8331 83.2972C32.8208 81.3337 27.6257 77.3052 27.2261 77.0951C26.9131 76.9284 26.66 77.0226 26.5601 77.0661C26.5534 77.0661 26.5468 77.0733 26.5334 77.0806C27.2195 77.8631 27.8722 78.6818 28.4849 79.5368C32.7275 85.4854 35.2118 92.702 36.9368 99.9403C37.5629 99.578 37.8892 99.3099 37.8892 99.3099C38.3555 96.4624 36.4639 89.3473 35.405 86.6809Z" fill="#DEDFE0"/>
<path d="M27.0615 7.47703C17.308 11.8923 13.5683 25.5996 17.4078 35.0835C21.4983 45.1824 33.9269 48.3771 43.4232 44.2626C53.7162 39.8088 59.1972 28.0262 54.4921 17.562C49.7966 7.10854 37.3347 2.94904 27.007 7.3724C26.4245 7.62122 26.7645 8.64299 27.3788 8.43864C36.8008 5.25822 47.7071 7.64191 52.6473 16.9567C57.759 26.5899 53.2395 38.2275 43.4642 42.7347C34.8316 46.7104 22.9701 44.4701 18.8505 35.1275C14.6825 25.6787 18.4523 13.3941 27.4631 8.28357C27.9689 7.99568 27.5929 7.23527 27.0615 7.47703Z" fill="#F0F0F0"/>
<path d="M48.6381 27.0133C49.6842 27.0112 50.8604 26.9014 51.8562 26.5882C52.3272 26.4421 52.3518 25.6936 51.7896 25.672C50.7443 25.6275 49.5818 25.8132 48.5665 26.0786C48.0766 26.2032 48.0747 27.0119 48.6381 27.0133Z" fill="#F0F0F0"/>
<path d="M36.0922 28.5474C38.0011 26.9694 39.7561 25.1876 41.5321 23.4597C43.1339 21.8977 44.8719 20.3987 46.2955 18.6659C46.6696 18.2079 45.9794 17.684 45.5582 18.0155C43.6265 19.5334 41.9266 21.4462 40.1848 23.1781C38.5879 24.7586 36.9658 26.3194 35.5014 28.0234C35.1923 28.3778 35.7571 28.8293 36.0922 28.5474Z" fill="#F0F0F0"/>
<path d="M42.4502 17.9867C43.7503 18.0425 45.0485 17.9927 46.3501 17.9553C46.1776 17.7564 45.9989 17.5592 45.8264 17.3603C45.885 18.4442 45.9233 19.527 46.0145 20.6088C46.0655 21.2443 47.1663 21.1745 47.1462 20.5308C47.107 19.4946 47.0168 18.4655 46.9451 17.4315C46.9233 17.1525 46.7564 16.8263 46.4213 16.8366C45.0781 16.8917 43.7283 16.9222 42.3898 17.0689C41.8631 17.1305 41.9346 17.9659 42.4502 17.9867Z" fill="#F0F0F0"/>
<path d="M27.2459 21.2194C27.5576 19.9104 27.7868 18.5904 28.0144 17.2642C27.7281 17.4071 27.4356 17.5517 27.1477 17.6885C28.0491 18.4075 29.2225 19.4245 30.3838 19.63C30.7949 19.7054 31.0411 19.1161 30.774 18.8366C30.3696 18.415 29.81 18.1807 29.3204 17.8615C28.7854 17.5212 28.2685 17.1497 27.773 16.7591C27.4067 16.4797 26.9636 16.8038 26.9064 17.1835C26.7076 18.4688 26.5117 19.7402 26.3892 21.0382C26.3432 21.5341 27.1269 21.715 27.2459 21.2194Z" fill="#F0F0F0"/>
<defs>
<linearGradient id="paint0_linear_522_42624" x1="35.8946" y1="98.1213" x2="39.2216" y2="103.813" gradientUnits="userSpaceOnUse">
<stop offset="0.4575" stop-color="#E5E0DF"/>
<stop offset="1" stop-color="#8CA99C"/>
</linearGradient>
</defs>
</svg>
