<svg width="45" height="218" viewBox="0 0 45 218" fill="none" xmlns="http://www.w3.org/2000/svg">
<g opacity="0.5">
<path d="M43.8309 213.679C43.7709 213.448 43.691 213.223 43.6244 212.991C43.4978 212.571 43.4246 212.114 43.3113 211.687C43.1249 210.962 42.1258 207.34 41.8061 206.253C41.3998 204.847 41.0468 203.427 40.6672 202.021C40.5007 201.405 39.8147 198.623 39.8347 198.659C40.3409 199.58 40.5606 200.652 40.9603 201.63C40.9336 201.5 40.907 201.362 40.8803 201.224C40.1943 198.319 39.122 195.493 38.3628 192.595C38.3494 192.544 38.9289 193.885 39.1953 194.537C39.0621 193.971 38.9156 193.406 38.7424 192.856C38.5692 192.319 38.3095 191.189 38.3228 191.233C38.6558 192.254 38.9955 193.283 39.3818 194.29C39.1753 193.392 38.9489 192.486 38.7224 191.588C38.2895 189.899 37.9298 188.204 37.5036 186.516C37.1506 185.146 36.7576 183.705 36.1116 182.466C35.4589 181.212 34.5664 180.379 33.5873 180.14C30.9965 179.517 28.5854 182.226 29.2115 185.864C29.418 187.059 30.2172 189.472 30.7301 190.573C31.1696 191.508 32.3885 193.674 32.868 194.58C33.0545 194.928 33.2476 195.29 33.4408 195.645C34.1135 196.754 34.7729 197.906 35.5121 198.935C34.9593 197.703 33.7605 195.232 33.7871 195.276C34.1135 195.739 34.3866 196.268 34.6596 196.79C34.966 197.377 35.3057 197.942 35.632 198.507C35.9384 199.043 36.2514 199.572 36.5445 200.116C36.8042 200.608 37.0573 201.108 37.3437 201.572C36.8442 200.195 35.3923 196.58 35.4122 196.631C35.5454 196.906 35.6787 197.181 35.7985 197.464C36.2448 198.435 36.691 199.406 37.1572 200.362C37.7433 201.565 38.3694 202.746 38.9688 203.941C39.868 205.738 40.7471 207.55 41.6596 209.325C40.9203 207.477 39.455 203.688 39.475 203.738C40.4807 205.941 41.573 208.086 42.4855 210.339C42.925 211.44 43.358 212.571 43.8309 213.679Z" fill="#ED1C24"/>
<path opacity="0.6" d="M31.3094 181.132C31.7223 180.937 32.1286 180.625 32.6148 180.662C33.0877 180.69 33.5539 180.77 34.0268 181.067C34.5596 181.401 35.1058 181.944 35.5254 182.574C35.7385 182.893 35.9383 183.234 36.1248 183.589C36.2646 183.864 36.3646 184.176 36.5177 184.444C36.5244 184.458 36.5311 184.429 36.5244 184.422C36.3779 184.103 36.278 183.741 36.1314 183.415C35.9716 183.06 35.7651 182.726 35.5653 182.408C35.1391 181.741 34.5996 181.234 34.0601 180.857C33.0544 180.154 32.042 180.495 31.2961 181.111C31.2894 181.103 31.2961 181.14 31.3094 181.132Z" fill="#F1E10A"/>
<path opacity="0.6" d="M29.4245 184.133C29.4178 184.437 29.4245 184.741 29.4378 185.038C29.4911 186.241 29.7242 187.523 30.1571 188.712C30.1638 188.733 30.1771 188.719 30.1704 188.697C29.8041 187.523 29.6176 186.313 29.5777 185.147C29.5577 184.582 29.5644 184.009 29.6376 183.48C29.6776 183.205 29.7309 182.937 29.7841 182.669C29.591 183.104 29.4844 183.604 29.4245 184.133Z" fill="#F1E10A"/>
<path opacity="0.6" d="M38.4827 187.263C38.3895 186.792 38.3229 186.321 38.223 185.85C38.1231 185.393 37.9899 184.93 37.85 184.473C37.5836 183.582 37.1906 182.698 36.7577 181.908C36.3115 181.097 35.7853 180.387 35.1592 179.909C34.5598 179.452 33.9138 179.119 33.2944 179.039C33.281 179.039 33.2877 179.09 33.301 179.097C34.5199 179.394 35.792 180.684 36.6378 182.176C37.0574 182.915 37.4437 183.749 37.7301 184.582C38.0365 185.473 38.2296 186.357 38.4494 187.263C38.4628 187.313 38.4894 187.313 38.4827 187.263Z" fill="#F1E10A"/>
<path opacity="0.6" d="M29.6377 181.183C29.8775 180.879 30.1439 180.626 30.4303 180.408C30.6567 180.198 30.9032 180.024 31.1762 179.894C31.2828 179.836 31.396 179.792 31.5026 179.749C31.709 179.647 31.9288 179.568 32.1553 179.553C32.3018 179.546 32.455 179.546 32.6082 179.56C32.062 179.43 31.5359 179.379 31.0364 179.56C30.5035 179.756 30.044 180.198 29.651 180.684C29.2447 181.198 28.9916 181.944 28.8185 182.712C28.7785 182.893 28.7386 183.082 28.7119 183.277C28.8917 182.444 29.2114 181.72 29.6377 181.183Z" fill="#F1E10A"/>
<path opacity="0.6" d="M30.2171 190.763C30.1106 190.552 30.0373 190.321 29.9441 190.096C29.8442 189.842 29.7376 189.596 29.6443 189.335C29.4712 188.828 29.318 188.314 29.1648 187.799C28.8717 186.806 28.6453 185.792 28.4988 184.785C28.4921 184.749 28.4521 184.691 28.4521 184.749C28.4521 185.234 28.4655 185.734 28.5521 186.234C28.652 186.785 28.8051 187.314 28.965 187.85C29.1315 188.408 29.3247 188.937 29.5378 189.473C29.6377 189.726 29.7709 189.965 29.8974 190.197C30.004 190.4 30.0839 190.618 30.2038 190.813C30.2238 190.849 30.2238 190.791 30.2171 190.763Z" fill="#F1E10A"/>
<path opacity="0.6" d="M38.9622 191.827C38.829 191.327 38.7757 190.784 38.6825 190.284C38.5692 189.683 38.4627 189.081 38.3428 188.48C38.1097 187.284 37.8633 186.074 37.4636 184.908C37.437 184.828 37.397 184.864 37.4104 184.93C37.5169 185.516 37.6834 186.096 37.8166 186.683C37.9565 187.284 38.0897 187.886 38.2096 188.487C38.3361 189.089 38.456 189.69 38.5826 190.291C38.6891 190.798 38.7691 191.335 38.9289 191.835C38.9489 191.878 38.9689 191.864 38.9622 191.827Z" fill="#F1E10A"/>
<path opacity="0.6" d="M33.3409 195.914C32.4018 194.153 31.5492 192.334 30.5635 190.617C30.5236 190.537 30.5102 190.661 30.5235 190.704C30.8432 191.646 31.3627 192.494 31.8156 193.349C32.2952 194.24 32.788 195.131 33.3275 195.95C33.3542 195.986 33.3542 195.928 33.3409 195.914Z" fill="#F1E10A"/>
<path opacity="0.6" d="M38.8357 204.971C38.4228 204.225 38.0298 203.464 37.6169 202.718C37.2106 201.986 36.7577 201.297 36.3181 200.609C36.0517 200.189 35.7853 199.783 35.5122 199.37C35.8719 200.066 36.2382 200.74 36.6178 201.406C36.9242 201.877 37.2306 202.355 37.517 202.841C37.9499 203.565 38.3761 204.29 38.809 205.014C38.8357 205.051 38.8424 204.993 38.8357 204.971Z" fill="#F1E10A"/>
<path opacity="0.6" d="M43.085 213.868C42.4189 212.31 41.7529 210.752 40.987 209.26C40.614 208.535 40.2543 207.789 39.8747 207.072C39.515 206.391 39.1221 205.688 38.6758 205.123C38.6292 205.057 38.6359 205.173 38.6559 205.21C40.2277 208.014 41.6597 210.955 43.065 213.904C43.0916 213.926 43.0983 213.89 43.085 213.868Z" fill="#F1E10A"/>
<path opacity="0.6" d="M42.6789 208.311C42.852 208.861 43.0052 209.405 43.1784 209.955C43.285 210.289 43.3915 210.636 43.4914 210.977C43.7046 211.6 43.9243 212.216 44.1508 212.825C44.1175 212.672 44.0909 212.513 44.0509 212.361C43.8711 211.607 43.6646 210.854 43.4448 210.107C43.2317 209.39 43.0319 208.658 42.7988 207.948C42.6256 207.419 42.4458 206.898 42.2593 206.376C42.3658 207.028 42.5124 207.666 42.6789 208.311Z" fill="#F1E10A"/>
<path opacity="0.6" d="M42.7718 206.869C42.6452 206.463 42.5919 206.05 42.4987 205.637C42.3921 205.166 42.2856 204.695 42.1723 204.232C41.9392 203.261 41.7061 202.297 41.4663 201.334C41.2266 200.377 40.9735 199.428 40.7137 198.479C40.454 197.53 40.121 196.602 39.8146 195.667C39.8013 195.631 39.7813 195.646 39.7879 195.675C40.041 196.624 40.2408 197.58 40.5006 198.529C40.767 199.508 41.0268 200.479 41.2798 201.449C41.5196 202.399 41.766 203.348 42.0325 204.29C42.159 204.746 42.2922 205.21 42.4188 205.666C42.532 206.072 42.5986 206.485 42.7518 206.884C42.7584 206.92 42.7784 206.898 42.7718 206.869Z" fill="#F1E10A"/>
<path opacity="0.6" d="M41.2864 199.971C41.2131 199.754 41.1865 199.522 41.1399 199.297C41.0933 199.08 41.06 198.855 41.0267 198.638C40.9467 198.153 40.8535 197.667 40.7602 197.174C40.5604 196.146 40.3406 195.124 40.1209 194.095C39.7013 192.11 39.295 190.095 38.7555 188.132C38.7355 188.067 38.7022 188.096 38.7089 188.146C39.1085 190.175 39.5547 192.189 39.981 194.211C40.2008 195.24 40.4206 196.261 40.6337 197.283C40.7403 197.797 40.8468 198.312 40.9601 198.826C41.04 199.203 41.1266 199.638 41.2731 199.993C41.2797 200.036 41.2931 200 41.2864 199.971Z" fill="#F1E10A"/>
<path opacity="0.6" d="M44.9698 217.976C44.7967 217.585 44.5702 217.259 44.3704 216.897C44.1373 216.484 43.9175 216.071 43.6977 215.658C43.2448 214.796 42.7853 213.933 42.3324 213.064C41.8861 212.209 41.4532 211.347 41.0269 210.47C40.6007 209.593 40.241 208.688 39.8547 207.789C39.8348 207.753 39.8614 207.746 39.8814 207.775C40.3143 208.637 40.7872 209.463 41.2134 210.34C41.653 211.231 42.0926 212.122 42.5455 212.999C42.9851 213.854 43.4247 214.709 43.8376 215.578C44.0441 216.006 44.2439 216.426 44.4503 216.853C44.6302 217.223 44.8433 217.578 44.9965 217.969C45.0098 218.013 44.9832 218.005 44.9698 217.976Z" fill="#F1E10A"/>
<path opacity="0.6" d="M38.5823 205.623C38.489 205.412 38.3558 205.231 38.2426 205.036C38.1294 204.855 38.0162 204.673 37.8963 204.492C37.6365 204.094 37.3834 203.681 37.137 203.268C36.6108 202.398 36.098 201.522 35.5852 200.638C34.5861 198.935 33.5671 197.218 32.6546 195.435C32.6213 195.37 32.6679 195.37 32.6946 195.414C33.7336 197.124 34.7326 198.87 35.7517 200.609C36.2645 201.485 36.7773 202.377 37.2968 203.253C37.5033 203.601 37.7631 204.036 38.0761 204.572C38.2626 204.898 38.489 205.26 38.6156 205.63C38.6222 205.659 38.5889 205.644 38.5823 205.623Z" fill="#F1E10A"/>
<path opacity="0.6" d="M28.4121 180.843C28.0924 181.69 27.846 182.589 27.7927 183.632C27.7328 184.784 27.9126 186.067 28.2123 187.262C28.5387 188.537 29.2247 189.849 29.8041 190.986C30.4302 192.225 31.1429 193.406 31.7423 194.667C31.7556 194.689 31.7756 194.653 31.7623 194.631C31.3227 193.631 30.7765 192.704 30.2704 191.754C29.631 190.552 29.1115 189.247 28.6852 187.929C27.866 185.407 27.826 182.973 28.4321 180.872C28.4521 180.843 28.4255 180.814 28.4121 180.843Z" fill="#F1E10A"/>
<path opacity="0.6" d="M36.2448 180.162C36.2448 180.155 36.2381 180.155 36.2381 180.147C35.2258 179.01 33.927 178.162 32.7947 178.111C32.2886 178.09 31.7158 178.155 31.2629 178.322C30.7567 178.51 30.2372 178.865 29.8775 179.35C29.8642 179.365 29.8709 179.43 29.8909 179.408C30.6768 178.611 31.8823 178.111 33.0212 178.38C34.2467 178.677 35.3923 179.379 36.4179 180.633C37.4303 181.857 38.0564 183.43 38.6558 185.009C39.2819 186.668 39.6948 188.386 40.1077 190.096C40.1144 190.125 40.141 190.088 40.1344 190.067C39.7015 188.168 39.2153 186.292 38.5492 184.459C37.9765 182.908 37.2571 181.307 36.2448 180.162Z" fill="#F1E10A"/>
<path opacity="0.6" d="M37.0239 188.262C37.1305 188.502 37.2304 188.748 37.3236 188.987C37.5501 189.545 37.7099 190.204 37.963 190.755C37.8964 190.349 37.8565 189.951 37.8165 189.545C37.2637 187.378 36.7975 185.205 35.8584 183.154C35.3855 182.118 34.7594 181.126 33.9868 180.604C33.2276 180.097 32.5415 180.097 31.8489 180.285C30.5235 180.64 29.651 182.133 29.4845 184.031C29.4045 184.973 29.5711 186.263 29.8375 187.255C29.9773 187.791 30.1638 188.407 30.3969 188.987C30.6167 189.588 30.8698 190.183 31.1695 190.668C31.2228 190.755 31.2761 190.603 31.2628 190.545C31.1562 190.001 30.9764 189.465 30.8831 188.915C30.8032 188.451 30.7299 187.973 30.69 187.502C30.7433 187.82 30.7832 188.139 30.8632 188.458C31.003 188.994 31.1629 189.516 31.3427 190.03C31.6824 191.023 32.082 192.117 32.6148 192.979C32.6814 193.081 32.7214 192.907 32.7147 192.842C32.6548 192.4 32.4283 191.878 32.3151 191.436C32.1886 190.972 32.0553 190.422 31.9688 189.9C32.1219 190.465 32.2751 191.023 32.4883 191.581C32.7747 192.342 33.1143 193.102 33.454 193.827C33.807 194.573 34.1933 195.298 34.5596 196.037C34.7661 196.45 35.0125 197.087 35.3322 197.363C35.3922 197.414 35.4188 197.276 35.4121 197.225C35.3655 196.783 35.0924 196.204 34.9659 195.783C34.7128 194.957 34.513 194.117 34.3332 193.276C34.3198 193.204 34.3065 193.131 34.2865 193.052C34.3332 193.153 34.3731 193.262 34.4198 193.363C34.866 194.407 35.4188 195.421 35.925 196.421C36.5111 197.587 37.1172 198.732 37.7366 199.87C38.0363 200.42 38.3427 200.978 38.6557 201.522C38.8289 201.819 39.0154 202.246 39.2551 202.456C39.3217 202.514 39.3484 202.362 39.3417 202.304C39.3151 201.993 39.2152 201.717 39.1086 201.42C38.9487 200.978 38.8355 200.515 38.7156 200.051C38.4426 199.022 38.2028 197.993 37.8764 196.972C37.7499 196.573 37.6167 196.182 37.4768 195.791C37.6167 196.102 37.7499 196.414 37.8831 196.725C38.0696 197.16 38.2361 197.776 38.5158 198.131C38.5425 198.167 38.5758 198.145 38.5891 198.109C38.689 197.848 38.4825 197.363 38.3959 197.088C38.2361 196.566 38.1029 196.037 37.983 195.501C38.3227 196.399 38.669 197.305 39.042 198.189C38.9687 197.79 38.9021 197.385 38.8355 196.986C38.6757 196.443 38.5025 195.906 38.3693 195.378C38.2428 194.892 38.1229 194.414 38.0096 193.928C38.1495 194.312 38.2894 194.689 38.4359 195.08C38.6024 195.53 38.7489 196.044 38.9754 196.479C38.7756 195.493 38.5491 194.501 38.3427 193.515C38.1562 192.747 38.003 191.979 37.8365 191.197C37.63 190.233 37.3703 189.357 37.0639 188.415C37.0506 188.371 37.0372 188.313 37.0239 188.262Z" fill="#F3E235"/>
<path d="M35.3591 183.227C34.8596 182.046 34.107 181.293 33.2345 180.909C33.0147 180.807 32.7949 180.771 32.5818 180.771C32.6151 180.756 32.655 180.742 32.695 180.727C32.7083 180.72 32.7083 180.669 32.6883 180.669C32.4486 180.735 32.2487 180.669 32.0223 180.785C31.7292 180.938 31.4562 181.126 31.1831 181.329C30.9966 181.466 30.8368 181.619 30.6902 181.792C30.5437 181.959 30.4105 182.14 30.3039 182.343C30.0042 183.321 29.8311 184.415 29.9509 185.524C30.0375 185.944 30.1508 186.364 30.2906 186.77C30.2107 186.024 30.3372 185.147 30.5704 184.488C30.4904 185.075 30.5038 185.741 30.5637 186.343C30.5704 186.393 30.577 186.451 30.5837 186.509C30.7369 187.43 31.1165 188.342 31.5761 189.168C31.4628 188.545 31.3629 187.944 31.323 187.314C31.2697 186.575 31.2297 185.589 31.3962 184.908C31.4029 185.104 31.3962 185.299 31.4096 185.495C31.4362 185.857 31.4762 186.22 31.5294 186.589C31.6493 187.466 31.9424 188.313 32.2687 189.147C32.2821 189.183 32.302 189.226 32.3154 189.263C32.9348 190.523 33.6008 191.741 34.3734 192.827C34.3734 192.806 34.3734 192.777 34.3667 192.762C34.1869 192.212 33.9871 191.712 33.8605 191.139C33.754 190.654 33.6807 190.081 33.5342 189.603C33.5009 189.495 33.4809 189.292 33.4543 189.234C33.5675 189.509 33.6274 189.821 33.714 190.096C33.8872 190.668 34.1203 191.248 34.3534 191.791C34.7863 192.806 35.3058 193.798 35.852 194.719C35.9918 194.95 36.5779 196.189 36.8177 196.189C36.8444 196.189 36.871 196.16 36.8843 196.124C36.9509 195.784 36.7711 195.175 36.7045 194.813C36.518 193.842 36.3582 192.878 36.1983 191.915C36.0984 191.32 35.9719 190.719 35.8386 190.125C35.852 190.154 35.8653 190.197 35.8786 190.226C36.0251 190.603 36.205 190.965 36.3715 191.328C36.5513 191.719 36.6978 192.139 36.9043 192.501C36.9243 192.538 36.9443 192.538 36.9642 192.523C36.9642 192.248 36.9509 191.972 36.9243 191.697C36.8444 191.313 36.7311 190.922 36.6579 190.567C36.4647 189.668 36.2849 188.777 36.0518 187.879C35.8719 187.176 35.6388 186.488 35.3924 185.814C35.7121 186.335 36.0318 186.857 36.3581 187.372C36.3448 187.125 36.3382 186.872 36.3315 186.625C36.2782 186.299 36.2183 185.973 36.1583 185.647C35.9519 184.828 35.6855 184.002 35.3591 183.227Z" fill="#EAC076"/>
<path d="M33.7072 181.437C33.1211 181.104 32.4817 181.009 31.9622 181.205C31.8623 181.249 31.7691 181.299 31.6891 181.343C31.6092 181.386 31.536 181.437 31.4627 181.488C31.1763 181.698 30.9232 181.966 30.7034 182.292C30.6368 182.408 30.5769 182.517 30.5169 182.647C30.4104 182.872 30.3371 183.132 30.2705 183.408C30.5369 182.618 31.0298 181.995 31.5826 181.741C32.1554 181.488 32.8214 181.415 33.4874 181.712C33.8671 181.843 34.2467 182.082 34.593 182.451C34.6064 182.466 34.6197 182.422 34.613 182.401C34.3599 182.089 34.0669 181.727 33.7538 181.459C33.7405 181.451 33.7205 181.444 33.7072 181.437Z" fill="#E7F6FD"/>
<path d="M33.0417 177.538L32.0626 177.958C32.0626 177.958 31.6763 179.82 32.5222 182.016C32.5222 182.016 33.1616 182.03 33.9608 181.675C34.7667 181.342 35.2329 180.864 35.2329 180.864C34.487 178.618 33.0417 177.538 33.0417 177.538Z" fill="#626467"/>
<path d="M33.8605 178.364C33.401 177.813 33.0346 177.538 33.0346 177.538L32.0556 177.958C32.0556 177.958 31.9557 178.437 31.969 179.197C32.4219 179.103 33.0946 178.879 33.8605 178.364Z" fill="url(#paint0_linear_2025_23684)"/>
<path d="M32.3687 181.582C32.3886 181.647 32.4086 181.705 32.4286 181.77C32.6817 181.749 33.1479 181.676 33.7473 181.415C34.1603 181.241 34.6331 180.981 35.1393 180.589C35.1194 180.531 35.0927 180.473 35.0727 180.408C33.8073 181.394 32.735 181.56 32.3687 181.582Z" fill="#3A3C3F"/>
<path d="M32.209 181.002C32.2223 181.067 32.2423 181.125 32.2556 181.19C32.5154 181.161 32.9683 181.089 33.5477 180.842C33.954 180.669 34.4135 180.415 34.9131 180.038C34.8864 179.98 34.8598 179.93 34.8331 179.872C33.6276 180.777 32.6019 180.966 32.209 181.002Z" fill="#3A3C3F"/>
<path d="M34.3271 178.995C34.2938 178.944 34.2605 178.893 34.2272 178.843C33.2881 179.517 32.4688 179.741 32.0093 179.814C32.0159 179.879 32.0226 179.944 32.0293 180.002C32.2957 179.959 32.6686 179.872 33.1215 179.676C33.4812 179.524 33.8941 179.306 34.3271 178.995Z" fill="#3A3C3F"/>
<path d="M32.0889 180.408C32.0955 180.473 32.1088 180.531 32.1222 180.596C32.3886 180.567 32.8148 180.48 33.3343 180.256C33.7206 180.089 34.1669 179.85 34.6398 179.495C34.6065 179.437 34.5798 179.386 34.5465 179.335C33.4542 180.147 32.5218 180.357 32.0889 180.408Z" fill="#3A3C3F"/>
<path d="M33.9808 178.51C33.9409 178.459 33.9009 178.415 33.8676 178.365C33.1017 178.879 32.4223 179.104 31.9761 179.198C31.9761 179.263 31.9761 179.328 31.9827 179.394C32.2358 179.343 32.5489 179.256 32.9218 179.097C33.2349 178.959 33.5945 178.77 33.9808 178.51Z" fill="#3A3C3F"/>
<path opacity="0.9" d="M33.0417 177.538L32.0626 177.958C32.0626 177.958 31.6763 179.82 32.5222 182.016C32.5222 182.016 32.5688 182.016 32.6487 182.016C32.4356 181.516 32.369 180.936 32.2624 180.4C32.1958 180.045 32.0493 179.197 32.5155 179.038C33.0284 178.864 33.741 181.168 33.9475 181.683C33.9475 181.683 33.9542 181.683 33.9608 181.675C34.7667 181.342 35.2329 180.864 35.2329 180.864C34.487 178.618 33.0417 177.538 33.0417 177.538Z" fill="#B3B5B8"/>
<path opacity="0.9" d="M33.0415 177.538L32.542 177.755C33.4878 178.712 34.1804 179.994 34.7066 181.284C35.0463 181.052 35.2394 180.864 35.2394 180.864C34.4868 178.618 33.0415 177.538 33.0415 177.538Z" fill="#B3B5B8"/>
<path d="M29.6643 178.98L28.6786 179.401C28.6786 179.401 28.2923 181.256 29.1448 183.458C29.1448 183.458 29.7842 183.473 30.5901 183.118C31.4027 182.784 31.8622 182.306 31.8622 182.306C31.1096 180.06 29.6643 178.98 29.6643 178.98Z" fill="#626467"/>
<path d="M30.4836 179.806C30.024 179.256 29.6643 178.98 29.6643 178.98L28.6786 179.401C28.6786 179.401 28.5787 179.879 28.592 180.64C29.0449 180.546 29.7176 180.321 30.4836 179.806Z" fill="url(#paint1_linear_2025_23684)"/>
<path d="M28.9985 183.024C29.0185 183.089 29.0385 183.147 29.0585 183.212C29.3116 183.191 29.7778 183.118 30.3772 182.857C30.7902 182.683 31.263 182.415 31.7692 182.031C31.7426 181.973 31.7226 181.915 31.7026 181.85C30.4372 182.835 29.3649 183.002 28.9985 183.024Z" fill="#3A3C3F"/>
<path d="M28.8257 182.444C28.839 182.502 28.859 182.567 28.8723 182.633C29.1321 182.611 29.585 182.531 30.1644 182.285C30.5707 182.111 31.0302 181.857 31.5298 181.481C31.5031 181.423 31.4765 181.365 31.4498 181.307C30.251 182.227 29.2253 182.408 28.8257 182.444Z" fill="#3A3C3F"/>
<path d="M30.9501 180.429C30.9168 180.379 30.8835 180.328 30.8502 180.277C29.9111 180.951 29.0919 181.176 28.6323 181.248C28.639 181.313 28.6456 181.371 28.6523 181.437C28.9187 181.393 29.2984 181.306 29.7446 181.111C30.1042 180.966 30.5172 180.748 30.9501 180.429Z" fill="#3A3C3F"/>
<path d="M28.7056 181.85C28.7189 181.915 28.7255 181.973 28.7389 182.038C29.0053 182.002 29.4315 181.915 29.951 181.698C30.3373 181.531 30.7836 181.292 31.2565 180.944C31.2232 180.886 31.1965 180.835 31.1632 180.785C30.0776 181.589 29.1451 181.799 28.7056 181.85Z" fill="#3A3C3F"/>
<path d="M30.6039 179.952C30.5639 179.901 30.5306 179.857 30.4906 179.807C29.7247 180.321 29.052 180.546 28.5991 180.64C28.5991 180.705 28.6058 180.77 28.6058 180.836C28.8589 180.785 29.1719 180.698 29.5382 180.538C29.8579 180.401 30.2176 180.212 30.6039 179.952Z" fill="#3A3C3F"/>
<path opacity="0.9" d="M29.6643 178.98L28.6786 179.401C28.6786 179.401 28.2923 181.256 29.1448 183.458C29.1448 183.458 29.1915 183.458 29.2714 183.451C29.0583 182.951 28.9917 182.371 28.8851 181.835C28.8185 181.48 28.672 180.632 29.1448 180.473C29.6577 180.299 30.3703 182.603 30.5701 183.118C30.5768 183.118 30.5835 183.118 30.5835 183.11C31.396 182.777 31.8556 182.299 31.8556 182.299C31.1096 180.06 29.6643 178.98 29.6643 178.98Z" fill="#B3B5B8"/>
<path opacity="0.9" d="M29.6644 178.98L29.1582 179.198C30.104 180.154 30.7966 181.437 31.3228 182.726C31.6691 182.495 31.8556 182.299 31.8556 182.299C31.1097 180.06 29.6644 178.98 29.6644 178.98Z" fill="#B3B5B8"/>
<path d="M24.6623 174.959C24.6623 174.959 23.3103 176.14 23.8431 177.981C24.3826 179.821 28.7317 184.241 28.6518 183.437C28.5719 182.625 27.3397 178.713 27.3397 178.713L24.6623 174.959Z" fill="#008ED0"/>
<path d="M24.5026 175.749C24.5359 175.706 24.6159 175.72 24.6159 175.785C24.6958 177.423 25.495 178.966 26.2676 180.343C26.927 181.509 27.7129 182.582 28.6453 183.495C28.652 183.48 28.6587 183.458 28.6587 183.43C28.5787 182.618 27.3466 178.705 27.3466 178.705L24.6691 174.959C24.6691 174.959 23.3171 176.14 23.8499 177.981C23.8766 178.075 23.9165 178.184 23.9632 178.292C23.8033 177.408 23.9498 176.481 24.5026 175.749Z" fill="#008ED0"/>
<path d="M26.348 180.966C25.9817 180.481 25.622 179.981 25.2158 179.532C24.9027 179.177 24.5231 178.894 24.1768 178.575C24.1768 178.575 24.1768 178.575 24.1768 178.582C24.9627 179.937 26.6411 181.792 27.6801 182.72C27.2205 182.147 26.7876 181.553 26.348 180.966Z" fill="white"/>
<path d="M33.1812 171.322C33.1812 171.322 34.9062 171.185 35.6654 172.931C36.4247 174.677 35.9918 181.14 35.5456 180.481C35.0993 179.829 33.5541 176.046 33.5541 176.046L33.1812 171.322Z" fill="#3B117F"/>
<path d="M35.6518 180.517C35.6452 180.466 35.6318 180.416 35.6252 180.365C35.5386 179.937 35.4254 179.517 35.3188 179.097C35.1256 178.351 34.9392 177.604 34.7926 176.851C34.4996 175.351 34.1799 173.771 34.2265 172.228C34.2265 172.192 34.2731 172.163 34.2998 172.17C34.9591 172.322 35.4254 172.743 35.7917 173.279C35.7584 173.148 35.7184 173.04 35.6718 172.938C34.9125 171.192 33.1875 171.33 33.1875 171.33L33.5605 176.061C33.5605 176.061 35.1123 179.836 35.5519 180.495C35.5852 180.539 35.6185 180.546 35.6518 180.517Z" fill="#008ED0"/>
<path d="M31.4497 165.359C30.5239 163.033 29.9977 162.164 29.8778 161.975C28.8655 160.012 23.6704 155.983 23.2708 155.773C22.9578 155.607 22.7047 155.701 22.6048 155.744C22.5049 155.788 22.2585 155.904 22.1319 156.259C21.9654 156.708 20.6733 163.504 21.1595 165.7C21.1862 165.924 21.3393 166.953 22.1119 169.344C22.9978 172.076 26.0615 178.698 28.1861 180.444C28.1861 180.444 29.385 180.307 31.1566 179.488C32.9616 178.778 33.9273 177.995 33.9273 177.995C34.4002 175.141 32.5087 168.025 31.4497 165.359Z" fill="#C2C4C6"/>
<path d="M29.3846 172.778C29.2714 172.757 29.1582 172.749 29.045 172.764L28.5521 172.974C28.4722 173.025 28.3989 173.09 28.3257 173.162C28.1658 173.43 27.966 174.119 28.6054 175.713C29.3047 177.459 32.0288 182.335 32.0887 182.038C32.3218 182.219 31.3294 176.604 30.6901 174.822C30.1639 173.351 29.671 172.909 29.3846 172.778Z" fill="#3B117F"/>
<path d="M28.9183 173.358C28.8583 173.336 28.7984 173.322 28.7384 173.322L28.492 173.423C28.452 173.452 28.4187 173.488 28.3854 173.532C28.3188 173.706 28.2589 174.162 28.7051 175.314C29.198 176.575 30.9763 180.162 30.9829 179.951C31.1228 180.096 30.217 176.14 29.7574 174.865C29.3712 173.822 29.0781 173.474 28.9183 173.358Z" fill="#008ED0"/>
<path d="M29.5179 176.604C29.1516 175.677 28.6987 174.764 28.4189 173.8C28.4323 174.076 28.5189 174.518 28.7786 175.191C29.0184 175.8 29.5579 176.967 30.0507 177.966C29.8775 177.51 29.6977 177.054 29.5179 176.604Z" fill="white"/>
<path d="M22.5976 155.751C22.4977 155.794 22.2513 155.91 22.1247 156.265C21.9649 156.707 20.7327 163.156 21.119 165.518C22.551 165.38 24.1162 164.989 25.6813 164.315C27.2531 163.641 28.6452 162.779 29.7774 161.822C28.5852 159.808 23.6499 155.983 23.257 155.78C22.9573 155.613 22.6975 155.707 22.5976 155.751Z" fill="url(#paint2_linear_2025_23684)"/>
<path d="M22.5976 155.751C22.4977 155.794 22.2513 155.91 22.1247 156.265C21.9649 156.707 20.7327 163.156 21.119 165.518C22.551 165.38 24.1162 164.989 25.6813 164.315C27.2531 163.641 28.6452 162.779 29.7774 161.822C28.5852 159.808 23.6499 155.983 23.257 155.78C22.9573 155.613 22.6975 155.707 22.5976 155.751Z" fill="#E522D9"/>
<path d="M21.8651 165.794C21.9051 165.91 21.8518 166.041 21.7519 166.084C21.6454 166.128 21.5255 166.07 21.4855 165.961C21.4456 165.845 21.4988 165.715 21.5987 165.671C21.7053 165.621 21.8252 165.679 21.8651 165.794Z" fill="white"/>
<path d="M26.0614 164.715C26.1014 164.831 26.0481 164.961 25.9482 165.005C25.8417 165.048 25.7218 164.99 25.6818 164.874C25.6418 164.758 25.6951 164.628 25.795 164.584C25.9016 164.548 26.0215 164.599 26.0614 164.715Z" fill="white"/>
<path d="M29.7841 162.338C29.8241 162.454 29.7708 162.584 29.6709 162.628C29.5643 162.671 29.4444 162.613 29.4045 162.505C29.3645 162.389 29.4178 162.258 29.5177 162.215C29.6243 162.164 29.7441 162.222 29.7841 162.338Z" fill="white"/>
<path d="M27.9992 163.736C28.0392 163.852 27.9859 163.983 27.8794 164.026C27.7728 164.07 27.6529 164.012 27.613 163.903C27.573 163.787 27.6263 163.657 27.7262 163.613C27.8327 163.562 27.9526 163.62 27.9992 163.736Z" fill="white"/>
<path d="M24.0297 165.432C24.0697 165.548 24.0164 165.678 23.9165 165.721C23.8099 165.765 23.69 165.707 23.6501 165.598C23.6101 165.482 23.6634 165.352 23.7633 165.308C23.8632 165.258 23.9831 165.316 24.0297 165.432Z" fill="white"/>
<path d="M29.3779 167.728C29.8042 168.902 29.2714 170.235 28.1857 170.699C27.1068 171.163 25.8813 170.583 25.4617 169.409C25.0421 168.228 25.5749 166.902 26.6539 166.439C27.7328 165.975 28.9583 166.555 29.3779 167.728Z" fill="#ECB020"/>
<path opacity="0.7" d="M29.0982 167.925C29.4579 168.925 29.005 170.048 28.0925 170.439C27.1734 170.83 26.1411 170.337 25.7881 169.345C25.4284 168.345 25.8813 167.222 26.7938 166.831C27.7062 166.439 28.7386 166.925 29.0982 167.925Z" fill="#C9E9EB"/>
<path d="M28.9184 167.939C29.238 168.837 28.8384 169.844 28.0126 170.192C27.1867 170.547 26.2609 170.105 25.9345 169.207C25.6082 168.308 26.0145 167.301 26.8403 166.946C27.6596 166.605 28.592 167.047 28.9184 167.939Z" fill="url(#paint3_radial_2025_23684)"/>
<path d="M26.4673 169.264C26.3807 169.278 26.2941 169.3 26.2075 169.314C26.4073 169.713 26.7537 169.981 27.14 170.082C26.8469 169.916 26.6071 169.633 26.4739 169.271C26.4673 169.271 26.4673 169.264 26.4673 169.264Z" fill="url(#paint4_radial_2025_23684)"/>
<path d="M26.9335 167.105C26.2275 167.402 25.8679 168.243 26.0877 169.018C26.1942 168.996 26.2941 168.967 26.394 168.946C26.2875 168.236 26.6471 167.518 27.2865 167.243C27.5662 167.127 27.8593 167.105 28.1257 167.178C27.766 166.975 27.3331 166.939 26.9335 167.105Z" fill="url(#paint5_radial_2025_23684)"/>
<path d="M35.6055 173.351C35.6055 173.351 36.3314 176.706 35.7387 179.792C35.732 179.792 35.9385 176.329 35.6055 173.351Z" fill="white"/>
<path opacity="0.7" d="M23.5168 165.381C23.4302 165.41 23.3369 165.432 23.2437 165.454C22.944 165.526 22.6376 165.555 22.3379 165.62C22.551 166.823 22.8774 167.997 23.3103 169.149C24.7023 172.873 26.7537 176.221 28.6518 179.655C28.8783 179.604 29.1447 179.525 29.4577 179.423C27.9325 176.141 26.2608 172.938 24.9154 169.555C24.3693 168.193 23.8897 166.801 23.5168 165.381Z" fill="#C9E9EB"/>
<path d="M31.4496 165.359C30.5239 163.033 29.9977 162.164 29.8778 161.975C28.8654 160.012 23.6704 155.983 23.2708 155.773C22.9578 155.607 22.7047 155.701 22.6048 155.744C22.5981 155.744 22.5914 155.752 22.5781 155.759C23.2641 156.541 23.9168 157.36 24.5296 158.215C28.7722 164.164 31.2565 171.38 32.9815 178.618C33.6076 178.256 33.9339 177.988 33.9339 177.988C34.4001 175.141 32.5086 168.025 31.4496 165.359Z" fill="#DEDFE0"/>
<path opacity="0.5" d="M22.9974 164.946C23.1239 164.917 23.2505 164.881 23.377 164.837C23.2571 164.33 23.1439 163.823 23.044 163.308C22.7243 161.606 22.5112 159.889 22.2914 158.171C22.1182 159.852 21.9917 161.541 22.0783 163.236C22.1049 163.852 22.1649 164.461 22.2514 165.062C22.4979 165.033 22.7443 165.011 22.9974 164.946Z" fill="#FFF2BB"/>
</g>
<path d="M39.1078 91.5062C39.005 91.1404 38.8678 90.786 38.7535 90.4202C38.5363 89.7572 38.4105 89.0371 38.2162 88.3626C37.8961 87.2195 36.1815 81.504 35.6328 79.7893C34.9355 77.5717 34.3297 75.3312 33.6781 73.1136C33.3923 72.142 32.2149 67.7524 32.2492 67.8096C33.118 69.2613 33.4952 70.9531 34.1811 72.4963C34.1353 72.2906 34.0896 72.0734 34.0439 71.8562C32.8665 67.2723 31.0261 62.8142 29.7229 58.2418C29.7001 58.1618 30.6946 60.2765 31.1518 61.3053C30.9232 60.4137 30.6717 59.5221 30.3745 58.6533C30.0773 57.8074 29.6315 56.0242 29.6543 56.0927C30.2259 57.7045 30.8089 59.3277 31.4719 60.9167C31.1175 59.4992 30.7289 58.0703 30.3402 56.6529C29.5972 53.9894 28.9799 51.3146 28.2483 48.6511C27.6425 46.4907 26.968 44.2159 25.8592 42.2612C24.739 40.2836 23.2072 38.969 21.5269 38.5918C17.0802 37.6087 12.9421 41.8839 14.0167 47.6223C14.371 49.5085 15.7428 53.315 16.6229 55.0525C17.3774 56.5271 19.4693 59.945 20.2923 61.3739C20.6124 61.9226 20.9439 62.4941 21.2754 63.0543C22.4299 64.8032 23.5616 66.6208 24.8304 68.244C23.8817 66.3007 21.8241 62.4027 21.8698 62.4713C22.4299 63.2029 22.8986 64.0373 23.3673 64.8604C23.8931 65.7863 24.4761 66.6779 25.0362 67.5695C25.562 68.4154 26.0993 69.2499 26.6023 70.1072C27.0481 70.8845 27.4825 71.6733 27.974 72.4049C27.1167 70.233 24.6247 64.5289 24.659 64.6089C24.8876 65.0433 25.1162 65.4777 25.322 65.9235C26.0879 67.4552 26.8537 68.987 27.6539 70.4959C28.6598 72.3934 29.7344 74.2567 30.7632 76.1428C32.3064 78.9777 33.8153 81.8355 35.3813 84.6361C34.1125 81.7212 31.5976 75.7427 31.6319 75.8228C33.358 79.2978 35.2327 82.6814 36.7988 86.2365C37.5532 87.974 38.2962 89.7572 39.1078 91.5062Z" fill="#ED1C24"/>
<path opacity="0.6" d="M17.6182 40.1585C18.3269 39.8498 19.0242 39.3583 19.8587 39.4155C20.6703 39.4612 21.4704 39.5869 22.282 40.0556C23.1965 40.5814 24.1339 41.4388 24.854 42.4333C25.2198 42.9362 25.5628 43.4735 25.8828 44.0336C26.1229 44.468 26.2943 44.9595 26.5573 45.3825C26.5687 45.4053 26.5801 45.3596 26.5687 45.3482C26.3172 44.8452 26.1457 44.2737 25.8943 43.7593C25.6199 43.1991 25.2655 42.6733 24.9226 42.1703C24.191 41.1187 23.2651 40.3185 22.3392 39.7241C20.6131 38.6153 18.8756 39.1525 17.5953 40.1242C17.5839 40.1128 17.5953 40.1699 17.6182 40.1585Z" fill="#F1E10A"/>
<path opacity="0.6" d="M14.3829 44.8911C14.3715 45.3712 14.3829 45.8513 14.4058 46.32C14.4972 48.2175 14.8973 50.2409 15.6403 52.1156C15.6517 52.1498 15.6746 52.127 15.6632 52.0927C15.0345 50.2409 14.7144 48.3319 14.6458 46.4915C14.6115 45.5998 14.623 44.6968 14.7487 43.8623C14.8173 43.4279 14.9087 43.005 15.0002 42.582C14.6687 43.2679 14.4858 44.0566 14.3829 44.8911Z" fill="#F1E10A"/>
<path opacity="0.6" d="M29.929 49.8292C29.7689 49.0862 29.6546 48.3432 29.4832 47.6002C29.3117 46.88 29.0831 46.1484 28.843 45.4283C28.3858 44.0223 27.7113 42.6277 26.9683 41.3817C26.2024 40.1014 25.2994 38.9812 24.2249 38.2267C23.1961 37.5065 22.0873 36.9807 21.0242 36.855C21.0013 36.855 21.0128 36.935 21.0356 36.9464C23.1275 37.4151 25.3108 39.4498 26.7626 41.8046C27.4827 42.9706 28.1457 44.2852 28.6373 45.5997C29.1631 47.0058 29.4946 48.4004 29.8718 49.8292C29.8947 49.9093 29.9404 49.9093 29.929 49.8292Z" fill="#F1E10A"/>
<path opacity="0.6" d="M14.7486 40.2388C15.1601 39.7587 15.6173 39.3586 16.1089 39.0156C16.4975 38.6841 16.9205 38.4098 17.3892 38.204C17.5721 38.1126 17.7664 38.044 17.9493 37.9754C18.3036 37.8154 18.6809 37.6896 19.0695 37.6668C19.321 37.6554 19.5839 37.6553 19.8468 37.6782C18.9095 37.4724 18.0064 37.3924 17.1491 37.6782C16.2346 37.9868 15.4459 38.6841 14.7715 39.45C14.0742 40.2616 13.6398 41.439 13.3426 42.6507C13.274 42.9365 13.2054 43.2337 13.1597 43.5423C13.4683 42.2278 14.017 41.0847 14.7486 40.2388Z" fill="#F1E10A"/>
<path opacity="0.6" d="M15.7431 55.3503C15.5602 55.0188 15.4345 54.653 15.2744 54.2986C15.103 53.8985 14.9201 53.5099 14.76 53.0984C14.4628 52.2982 14.1999 51.4866 13.937 50.675C13.434 49.1089 13.0454 47.5086 12.7939 45.9197C12.7825 45.8625 12.7139 45.7711 12.7139 45.8625C12.7139 46.6284 12.7367 47.4172 12.8853 48.2059C13.0568 49.0747 13.3197 49.9091 13.5941 50.755C13.8798 51.6352 14.2113 52.4697 14.5771 53.3156C14.7486 53.7157 14.9772 54.0929 15.1944 54.4587C15.3773 54.7787 15.5145 55.1217 15.7202 55.4303C15.7545 55.4875 15.7545 55.396 15.7431 55.3503Z" fill="#F1E10A"/>
<path opacity="0.6" d="M30.7525 57.031C30.5238 56.2423 30.4324 55.385 30.2723 54.5962C30.078 53.6474 29.8951 52.6987 29.6894 51.7499C29.2893 49.8638 28.8663 47.9548 28.1805 46.1144C28.1347 45.9886 28.0662 46.0458 28.089 46.1487C28.2719 47.0746 28.5577 47.9891 28.7863 48.915C29.0264 49.8638 29.255 50.8125 29.4607 51.7613C29.6779 52.7101 29.8837 53.6589 30.1009 54.6076C30.2838 55.4078 30.4209 56.2537 30.6953 57.0425C30.7296 57.111 30.7639 57.0882 30.7525 57.031Z" fill="#F1E10A"/>
<path opacity="0.6" d="M21.1042 63.4776C19.4924 60.6998 18.0292 57.8306 16.3374 55.1215C16.2688 54.9957 16.246 55.1901 16.2688 55.2587C16.8175 56.7447 17.7091 58.0821 18.4865 59.431C19.3095 60.837 20.1554 62.243 21.0813 63.5347C21.127 63.5919 21.127 63.5004 21.1042 63.4776Z" fill="#F1E10A"/>
<path opacity="0.6" d="M30.5352 77.7664C29.8264 76.589 29.152 75.3887 28.4433 74.2113C27.746 73.0568 26.9687 71.9708 26.2142 70.8849C25.757 70.2219 25.2997 69.5817 24.8311 68.9302C25.4483 70.0276 26.077 71.0906 26.7286 72.1423C27.2544 72.8853 27.7803 73.6398 28.2718 74.4057C29.0148 75.5488 29.7464 76.6919 30.4894 77.835C30.5351 77.8921 30.5466 77.8007 30.5352 77.7664Z" fill="#F1E10A"/>
<path opacity="0.6" d="M37.828 91.8042C36.6849 89.3465 35.5418 86.8888 34.2272 84.534C33.5871 83.3909 32.9698 82.2135 32.3182 81.0819C31.701 80.0073 31.0265 78.8985 30.2607 78.0069C30.1806 77.904 30.1921 78.0869 30.2263 78.1441C32.9241 82.5679 35.3818 87.2089 37.7937 91.8613C37.8394 91.8956 37.8509 91.8385 37.828 91.8042Z" fill="#F1E10A"/>
<path opacity="0.6" d="M37.1308 83.0355C37.428 83.9042 37.6909 84.7616 37.9881 85.6303C38.171 86.1562 38.3539 86.7049 38.5254 87.2421C38.8912 88.2252 39.2684 89.1968 39.6571 90.1571C39.5999 89.917 39.5542 89.6655 39.4856 89.4255C39.177 88.2366 38.8226 87.0478 38.4454 85.8704C38.0796 84.7387 37.7366 83.5842 37.3366 82.4639C37.0393 81.6295 36.7307 80.8064 36.4106 79.9834C36.5935 81.0122 36.845 82.0181 37.1308 83.0355Z" fill="#F1E10A"/>
<path opacity="0.6" d="M37.2904 80.762C37.0732 80.1219 36.9817 79.4703 36.8217 78.8187C36.6388 78.0757 36.4559 77.3327 36.2616 76.6011C35.8615 75.0693 35.4614 73.549 35.0499 72.0287C34.6384 70.5198 34.204 69.0223 33.7582 67.5248C33.3124 66.0274 32.7408 64.5642 32.215 63.0896C32.1921 63.0324 32.1578 63.0553 32.1693 63.101C32.6036 64.5985 32.9466 66.1074 33.3924 67.6048C33.8496 69.148 34.2954 70.6798 34.7298 72.2116C35.1413 73.709 35.5643 75.2065 36.0215 76.6925C36.2387 77.4127 36.4673 78.1443 36.6845 78.8644C36.8789 79.5046 36.9932 80.1561 37.2561 80.7849C37.2675 80.842 37.3018 80.8077 37.2904 80.762Z" fill="#F1E10A"/>
<path opacity="0.6" d="M34.7412 69.8789C34.6155 69.536 34.5698 69.1702 34.4897 68.8159C34.4097 68.4729 34.3526 68.1186 34.2954 67.7756C34.1582 67.0097 33.9982 66.2439 33.8382 65.4665C33.4952 63.8433 33.118 62.2316 32.7408 60.6083C32.0206 57.4762 31.3233 54.2984 30.3974 51.2006C30.3631 51.0977 30.306 51.1434 30.3174 51.2235C31.0033 54.4242 31.7692 57.602 32.5007 60.7913C32.878 62.4145 33.2552 64.0262 33.621 65.638C33.8039 66.4496 33.9868 67.2612 34.1811 68.0728C34.3183 68.6672 34.4669 69.3531 34.7184 69.9132C34.7298 69.9818 34.7527 69.9247 34.7412 69.8789Z" fill="#F1E10A"/>
<path opacity="0.6" d="M41.0627 98.2857C40.7655 97.6685 40.3768 97.1541 40.0339 96.5825C39.6338 95.9309 39.2566 95.2794 38.8793 94.6278C38.102 93.2675 37.3133 91.9072 36.536 90.5355C35.7701 89.1866 35.0271 87.8263 34.2955 86.4432C33.5639 85.06 32.9466 83.6311 32.2836 82.2137C32.2493 82.1565 32.2951 82.1451 32.3294 82.1908C33.0724 83.5511 33.884 84.8542 34.6156 86.2374C35.37 87.6434 36.1245 89.0494 36.9018 90.4326C37.6562 91.7815 38.4107 93.1303 39.1194 94.5021C39.4738 95.1765 39.8167 95.8395 40.1711 96.5139C40.4797 97.0969 40.8455 97.657 41.1084 98.2743C41.1313 98.3429 41.0855 98.3315 41.0627 98.2857Z" fill="#F1E10A"/>
<path opacity="0.6" d="M30.1002 78.7953C29.9402 78.4638 29.7116 78.178 29.5172 77.8694C29.3229 77.5836 29.1286 77.2978 28.9228 77.012C28.477 76.3833 28.0426 75.7318 27.6197 75.0802C26.7166 73.7085 25.8364 72.3253 24.9562 70.9307C23.2416 68.2444 21.4926 65.5352 19.9266 62.7232C19.8694 62.6203 19.9494 62.6203 19.9952 62.6889C21.7784 65.3866 23.4931 68.1415 25.242 70.885C26.1222 72.2681 27.0024 73.6742 27.894 75.0573C28.2484 75.606 28.6942 76.2919 29.2315 77.1378C29.5515 77.6522 29.9402 78.2237 30.1574 78.8067C30.1688 78.8524 30.1116 78.8296 30.1002 78.7953Z" fill="#F1E10A"/>
<path opacity="0.6" d="M12.6453 39.7011C12.0966 41.0385 11.6737 42.4559 11.5822 44.102C11.4793 45.9196 11.788 47.9429 12.3024 49.829C12.8625 51.8409 14.0399 53.9099 15.0344 55.7046C16.1089 57.6593 17.332 59.5225 18.3608 61.5115C18.3837 61.5458 18.418 61.4887 18.3951 61.4544C17.6407 59.8769 16.7033 58.4137 15.8346 56.9162C14.7372 55.0187 13.8456 52.9611 13.114 50.8806C11.708 46.9026 11.6394 43.0618 12.6796 39.7468C12.7139 39.7011 12.6682 39.6553 12.6453 39.7011Z" fill="#F1E10A"/>
<path opacity="0.6" d="M26.0879 38.6266C26.0879 38.6152 26.0765 38.6152 26.0765 38.6038C24.339 36.8091 22.1099 35.4717 20.1667 35.3916C19.2979 35.3573 18.3148 35.4602 17.5375 35.7231C16.6687 36.0203 15.7771 36.5805 15.1598 37.3464C15.137 37.3692 15.1484 37.4721 15.1827 37.4378C16.5316 36.1804 18.6006 35.3916 20.5553 35.8146C22.6586 36.2833 24.6248 37.3921 26.3852 39.3696C28.1227 41.3015 29.1972 43.782 30.226 46.274C31.3005 48.8917 32.0092 51.6009 32.718 54.2986C32.7294 54.3443 32.7751 54.2872 32.7637 54.2529C32.0207 51.258 31.1862 48.2973 30.0431 45.4052C29.06 42.959 27.8255 40.4327 26.0879 38.6266Z" fill="#F1E10A"/>
<path opacity="0.6" d="M27.4257 51.4067C27.6086 51.784 27.78 52.1726 27.9401 52.5498C28.3287 53.43 28.6031 54.4703 29.0374 55.339C28.9231 54.6989 28.8545 54.0702 28.786 53.43C27.8372 50.0121 27.037 46.5828 25.4252 43.3478C24.6136 41.7132 23.5391 40.1471 22.2131 39.3241C20.91 38.5239 19.7326 38.5239 18.5437 38.8211C16.2689 39.3813 14.7715 41.7361 14.4857 44.731C14.3485 46.217 14.6343 48.2518 15.0915 49.8178C15.3316 50.6637 15.6517 51.6354 16.0518 52.5498C16.429 53.4986 16.8634 54.436 17.3778 55.2019C17.4692 55.339 17.5606 55.099 17.5378 55.0075C17.3549 54.1502 17.0463 53.3043 16.8862 52.4355C16.749 51.7039 16.6233 50.9495 16.5547 50.2065C16.6462 50.7095 16.7148 51.2124 16.8519 51.7154C17.092 52.5613 17.3663 53.3843 17.675 54.1959C18.2579 55.762 18.9438 57.4881 19.8583 58.8484C19.9726 59.0084 20.0412 58.734 20.0298 58.6312C19.9269 57.9339 19.5382 57.1108 19.3439 56.4135C19.1267 55.682 18.8981 54.8132 18.7495 53.9902C19.0124 54.8818 19.2753 55.762 19.6411 56.6422C20.1326 57.8424 20.7156 59.0427 21.2986 60.1858C21.9045 61.3632 22.5675 62.5063 23.1962 63.6723C23.5505 64.3238 23.9735 65.3298 24.5222 65.7641C24.625 65.8442 24.6708 65.627 24.6593 65.547C24.5793 64.8497 24.1107 63.9352 23.8935 63.2722C23.4591 61.969 23.1161 60.643 22.8075 59.317C22.7846 59.2027 22.7618 59.0884 22.7275 58.9627C22.8075 59.1227 22.8761 59.2942 22.9561 59.4542C23.722 61.1003 24.6708 62.7006 25.5395 64.2781C26.5455 66.1185 27.5857 67.9246 28.6488 69.7193C29.1632 70.5881 29.689 71.4682 30.2263 72.3256C30.5235 72.7942 30.8435 73.4687 31.2551 73.8002C31.3694 73.8916 31.4151 73.6516 31.4037 73.5601C31.3579 73.0686 31.1865 72.6342 31.0036 72.1655C30.7292 71.4682 30.5349 70.7367 30.3291 70.0051C29.8605 68.3819 29.449 66.7586 28.8888 65.1469C28.6716 64.5182 28.443 63.9009 28.203 63.2836C28.443 63.7751 28.6716 64.2667 28.9003 64.7582C29.2203 65.4441 29.5061 66.4157 29.9862 66.9758C30.0319 67.033 30.0891 66.9987 30.112 66.9416C30.2834 66.53 29.9291 65.7642 29.7805 65.3298C29.5061 64.5067 29.2775 63.6723 29.0717 62.8264C29.6547 64.2438 30.2491 65.6727 30.8893 67.0673C30.7635 66.4386 30.6492 65.7984 30.5349 65.1697C30.2606 64.3124 29.9633 63.4665 29.7347 62.632C29.5175 61.8662 29.3118 61.1117 29.1175 60.3458C29.3575 60.9517 29.5976 61.5461 29.849 62.1634C30.1348 62.8721 30.3863 63.6837 30.775 64.3696C30.432 62.8149 30.0434 61.2489 29.689 59.6943C29.3689 58.4826 29.106 57.2709 28.8202 56.0363C28.4659 54.516 28.0201 53.1328 27.4942 51.6468C27.4714 51.5782 27.4485 51.4867 27.4257 51.4067Z" fill="#F3E235"/>
<path d="M24.5676 43.4624C23.7102 41.5991 22.4185 40.4103 20.9211 39.8045C20.5438 39.6444 20.1666 39.5873 19.8008 39.5873C19.858 39.5644 19.9266 39.5416 19.9951 39.5187C20.018 39.5073 20.018 39.4272 19.9837 39.4272C19.5722 39.5301 19.2293 39.4273 18.8406 39.6101C18.3376 39.8502 17.869 40.1474 17.4003 40.4675C17.0802 40.6847 16.8059 40.9247 16.5544 41.1991C16.3029 41.462 16.0743 41.7477 15.8914 42.0678C15.377 43.611 15.0798 45.3371 15.2855 47.0861C15.4341 47.7491 15.6285 48.4121 15.8685 49.0522C15.7314 47.8748 15.9485 46.4916 16.3486 45.4514C16.2115 46.3773 16.2343 47.429 16.3372 48.3778C16.3486 48.4578 16.3601 48.5492 16.3715 48.6407C16.6344 50.0924 17.286 51.5327 18.0747 52.8359C17.8804 51.8528 17.7089 50.904 17.6403 49.9095C17.5489 48.7436 17.4803 47.1889 17.7661 46.1144C17.7775 46.4231 17.7661 46.7317 17.7889 47.0403C17.8347 47.6119 17.9033 48.1834 17.9947 48.7664C18.2005 50.1496 18.7034 51.487 19.2636 52.8016C19.2864 52.8587 19.3207 52.9273 19.3436 52.9845C20.4067 54.9735 21.5498 56.8939 22.8758 58.6086C22.8758 58.5743 22.8758 58.5285 22.8643 58.5057C22.5557 57.6369 22.2128 56.8482 21.9956 55.9451C21.8127 55.1792 21.6869 54.2762 21.4355 53.5217C21.3783 53.3503 21.344 53.0302 21.2983 52.9388C21.4926 53.3731 21.5955 53.8647 21.7441 54.299C22.0413 55.2021 22.4414 56.1166 22.8415 56.9739C23.5845 58.5743 24.4761 60.1403 25.4135 61.5921C25.6535 61.9579 26.6595 63.9126 27.071 63.9126C27.1167 63.9126 27.1624 63.8669 27.1853 63.8097C27.2996 63.2724 26.9909 62.3122 26.8766 61.7407C26.5566 60.2089 26.2822 58.6886 26.0079 57.1683C25.8364 56.2309 25.6192 55.2821 25.3906 54.3448C25.4135 54.3905 25.4363 54.4591 25.4592 54.5048C25.7107 55.0992 26.0193 55.6708 26.3051 56.2423C26.6137 56.8596 26.8652 57.5226 27.2196 58.0942C27.2539 58.1513 27.2882 58.1513 27.3225 58.1285C27.3225 57.6941 27.2996 57.2597 27.2539 56.8253C27.1167 56.2195 26.9224 55.6022 26.7966 55.0421C26.4651 53.6246 26.1565 52.2186 25.7564 50.8011C25.4478 49.6923 25.0477 48.6064 24.6247 47.5433C25.1734 48.3663 25.7221 49.1894 26.2822 50.001C26.2594 49.6123 26.2479 49.2122 26.2365 48.8236C26.1451 48.3092 26.0422 47.7948 25.9393 47.2804C25.5849 45.9887 25.1277 44.6855 24.5676 43.4624Z" fill="#EAC076"/>
<path d="M21.7334 40.639C20.7275 40.1132 19.6301 39.9646 18.7385 40.2732C18.567 40.3418 18.4069 40.4218 18.2698 40.4904C18.1326 40.559 18.0069 40.639 17.8811 40.7191C17.3896 41.0506 16.9552 41.4735 16.578 41.9879C16.4637 42.1708 16.3608 42.3423 16.2579 42.548C16.075 42.9024 15.9493 43.3139 15.835 43.7483C16.2922 42.5023 17.1381 41.5192 18.0869 41.1191C19.07 40.719 20.2131 40.6047 21.3562 41.0734C22.0077 41.2792 22.6593 41.6564 23.2537 42.2394C23.2766 42.2622 23.2994 42.1937 23.288 42.1594C22.8536 41.6678 22.3507 41.0963 21.8134 40.6733C21.7905 40.6619 21.7562 40.6505 21.7334 40.639Z" fill="#E7F6FD"/>
<path d="M20.5897 34.4878L18.9094 35.1508C18.9094 35.1508 18.2464 38.0886 19.6981 41.5522C19.6981 41.5522 20.7955 41.575 22.1672 41.0149C23.5504 40.4891 24.3506 39.7346 24.3506 39.7346C23.0703 36.191 20.5897 34.4878 20.5897 34.4878Z" fill="#626467"/>
<path d="M21.9961 35.7909C21.2073 34.9222 20.5786 34.4878 20.5786 34.4878L18.8983 35.1508C18.8983 35.1508 18.7268 35.9052 18.7497 37.1055C19.527 36.9569 20.6815 36.6025 21.9961 35.7909Z" fill="url(#paint6_linear_2025_23684)"/>
<path d="M19.4355 40.8665C19.4698 40.9694 19.5041 41.0608 19.5384 41.1637C19.9728 41.1294 20.773 41.0151 21.8018 40.6036C22.5105 40.3292 23.3221 39.9177 24.1909 39.3004C24.1566 39.209 24.1108 39.1175 24.0766 39.0146C21.9047 40.5693 20.0643 40.8322 19.4355 40.8665Z" fill="#3A3C3F"/>
<path d="M19.1611 39.9517C19.184 40.0546 19.2183 40.146 19.2412 40.2489C19.687 40.2032 20.4643 40.0889 21.4588 39.7002C22.1561 39.4259 22.9448 39.0258 23.8021 38.4314C23.7564 38.3399 23.7107 38.2599 23.665 38.1685C21.596 39.5973 19.8356 39.8946 19.1611 39.9517Z" fill="#3A3C3F"/>
<path d="M22.7964 36.7855C22.7392 36.7055 22.6821 36.6254 22.6249 36.5454C21.0131 37.6085 19.6071 37.9629 18.8184 38.0772C18.8298 38.1801 18.8412 38.2829 18.8527 38.3744C19.3099 38.3058 19.95 38.1686 20.7273 37.86C21.3446 37.6199 22.0533 37.277 22.7964 36.7855Z" fill="#3A3C3F"/>
<path d="M18.9551 39.015C18.9665 39.1179 18.9894 39.2094 19.0122 39.3122C19.4695 39.2665 20.2011 39.1294 21.0927 38.775C21.7557 38.5121 22.5216 38.1348 23.3332 37.5747C23.276 37.4833 23.2303 37.4033 23.1731 37.3232C21.2984 38.6035 19.6981 38.935 18.9551 39.015Z" fill="#3A3C3F"/>
<path d="M22.2015 36.0196C22.1329 35.9396 22.0643 35.871 22.0072 35.791C20.6926 36.6026 19.5266 36.957 18.7607 37.1056C18.7607 37.2085 18.7607 37.3113 18.7722 37.4142C19.2066 37.3342 19.7438 37.197 20.384 36.9455C20.9212 36.7284 21.5385 36.4312 22.2015 36.0196Z" fill="#3A3C3F"/>
<path opacity="0.9" d="M20.5897 34.4878L18.9094 35.1508C18.9094 35.1508 18.2464 38.0886 19.6981 41.5522C19.6981 41.5522 19.7781 41.5522 19.9153 41.5522C19.5495 40.7634 19.4352 39.849 19.2523 39.0031C19.138 38.4429 18.8865 37.1055 19.6867 36.854C20.5669 36.5797 21.79 40.2147 22.1444 41.0263C22.1444 41.0263 22.1558 41.0264 22.1672 41.0149C23.5504 40.4891 24.3506 39.7346 24.3506 39.7346C23.0703 36.191 20.5897 34.4878 20.5897 34.4878Z" fill="#B3B5B8"/>
<path opacity="0.9" d="M20.5898 34.4878L19.7324 34.8307C21.3556 36.3396 22.5445 38.3629 23.4475 40.3976C24.0305 40.0319 24.362 39.7346 24.362 39.7346C23.0703 36.191 20.5898 34.4878 20.5898 34.4878Z" fill="#B3B5B8"/>
<path d="M14.7943 36.7642L13.1025 37.4272C13.1025 37.4272 12.4395 40.3535 13.9027 43.8286C13.9027 43.8286 15 43.8514 16.3832 43.2913C17.7778 42.7655 18.5665 42.011 18.5665 42.011C17.2748 38.4674 14.7943 36.7642 14.7943 36.7642Z" fill="#626467"/>
<path d="M16.2007 38.0668C15.4119 37.1981 14.7946 36.7637 14.7946 36.7637L13.1028 37.4267C13.1028 37.4267 12.9314 38.1811 12.9542 39.3814C13.7316 39.2328 14.8861 38.8784 16.2007 38.0668Z" fill="url(#paint7_linear_2025_23684)"/>
<path d="M13.6514 43.1428C13.6857 43.2457 13.72 43.3372 13.7543 43.44C14.1886 43.4058 14.9888 43.2915 16.0176 42.8799C16.7263 42.6056 17.5379 42.1826 18.4067 41.5768C18.361 41.4853 18.3267 41.3939 18.2924 41.291C16.1205 42.8456 14.2801 43.1085 13.6514 43.1428Z" fill="#3A3C3F"/>
<path d="M13.3545 42.2283C13.3774 42.3197 13.4116 42.4226 13.4345 42.5255C13.8803 42.4912 14.6576 42.3654 15.6521 41.9768C16.3494 41.7024 17.1382 41.3023 17.9955 40.7079C17.9498 40.6165 17.904 40.525 17.8583 40.4336C15.8007 41.8853 14.0404 42.1711 13.3545 42.2283Z" fill="#3A3C3F"/>
<path d="M17.001 39.0496C16.9438 38.9696 16.8866 38.8896 16.8295 38.8096C15.2177 39.8727 13.8117 40.227 13.0229 40.3413C13.0344 40.4442 13.0458 40.5357 13.0572 40.6385C13.5145 40.5699 14.1661 40.4328 14.9319 40.1241C15.5492 39.8955 16.2579 39.5526 17.001 39.0496Z" fill="#3A3C3F"/>
<path d="M13.1484 41.2902C13.1713 41.3931 13.1827 41.4846 13.2056 41.5874C13.6628 41.5303 14.3944 41.3931 15.286 41.0502C15.949 40.7873 16.7149 40.41 17.5265 39.8613C17.4694 39.7699 17.4236 39.6899 17.3665 39.6099C15.5032 40.8787 13.9029 41.2102 13.1484 41.2902Z" fill="#3A3C3F"/>
<path d="M16.4066 38.2955C16.338 38.2155 16.2808 38.1469 16.2122 38.0669C14.8977 38.8785 13.7431 39.2329 12.9658 39.3815C12.9658 39.4844 12.9773 39.5872 12.9773 39.6901C13.4116 39.6101 13.9489 39.4729 14.5776 39.2214C15.1263 39.0043 15.7436 38.707 16.4066 38.2955Z" fill="#3A3C3F"/>
<path opacity="0.9" d="M14.7943 36.7642L13.1025 37.4272C13.1025 37.4272 12.4395 40.3535 13.9027 43.8286C13.9027 43.8286 13.9827 43.8286 14.1199 43.8171C13.7541 43.0284 13.6397 42.1139 13.4568 41.268C13.3425 40.7079 13.0911 39.3704 13.9027 39.119C14.7828 38.8446 16.006 42.4797 16.3489 43.2913C16.3603 43.2913 16.3718 43.2913 16.3718 43.2799C17.7664 42.754 18.5551 41.9996 18.5551 41.9996C17.2748 38.4674 14.7943 36.7642 14.7943 36.7642Z" fill="#B3B5B8"/>
<path opacity="0.9" d="M14.7945 36.7637L13.9258 37.1066C15.549 38.6155 16.7378 40.6388 17.6409 42.6735C18.2353 42.3077 18.5554 41.9991 18.5554 41.9991C17.2751 38.4669 14.7945 36.7637 14.7945 36.7637Z" fill="#B3B5B8"/>
<path d="M6.20928 30.4194C6.20928 30.4194 3.88877 32.2827 4.80325 35.1862C5.72917 38.0897 13.1937 45.0626 13.0565 43.7938C12.9193 42.5135 10.8046 36.3407 10.8046 36.3407L6.20928 30.4194Z" fill="#008ED0"/>
<path d="M5.93521 31.6654C5.99237 31.5968 6.12955 31.6197 6.12955 31.7226C6.26672 34.306 7.63844 36.7408 8.96444 38.9127C10.0961 40.7531 11.445 42.4449 13.0453 43.8852C13.0568 43.8624 13.0682 43.8281 13.0682 43.7823C12.931 42.5021 10.8163 36.3293 10.8163 36.3293L6.22099 30.4194C6.22099 30.4194 3.90049 32.2827 4.81497 35.1862C4.8607 35.3348 4.92928 35.5063 5.0093 35.6777C4.73495 34.2831 4.98643 32.82 5.93521 31.6654Z" fill="#008ED0"/>
<path d="M9.10153 39.8958C8.47282 39.1299 7.85554 38.3412 7.15824 37.6324C6.62098 37.0723 5.96942 36.6265 5.375 36.1235C5.375 36.1235 5.375 36.1235 5.375 36.135C6.72387 38.2726 9.6045 41.1989 11.3877 42.6621C10.599 41.759 9.85598 40.8217 9.10153 39.8958Z" fill="white"/>
<path d="M20.8296 24.6808C20.8296 24.6808 23.7902 24.4636 25.0934 27.2185C26.3965 29.9734 25.6535 40.1699 24.8876 39.1296C24.1217 38.1009 21.4697 32.1338 21.4697 32.1338L20.8296 24.6808Z" fill="#3B117F"/>
<path d="M25.0703 39.1876C25.0589 39.1076 25.036 39.0275 25.0246 38.9475C24.876 38.2731 24.6817 37.6101 24.4988 36.9471C24.1673 35.7697 23.8472 34.5923 23.5957 33.4035C23.0927 31.0372 22.5441 28.5453 22.6241 26.1105C22.6241 26.0533 22.7041 26.0076 22.7498 26.019C23.8815 26.2591 24.6817 26.9221 25.3104 27.768C25.2532 27.5622 25.1846 27.3907 25.1046 27.2307C23.8015 24.4758 20.8408 24.693 20.8408 24.693L21.481 32.1575C21.481 32.1575 24.1444 38.1131 24.8988 39.1533C24.956 39.2219 25.0132 39.2333 25.0703 39.1876Z" fill="#008ED0"/>
<path d="M17.8574 15.2733C16.2685 11.6039 15.3654 10.2322 15.1596 9.93495C13.4221 6.83714 4.5059 0.481469 3.82004 0.149968C3.28278 -0.112946 2.8484 0.035665 2.67693 0.104251C2.50547 0.172838 2.08252 0.355725 1.86533 0.915847C1.57955 1.62457 -0.638073 12.3469 0.196394 15.8105C0.242119 16.1649 0.505033 17.7881 1.83104 21.5603C3.35137 25.8699 8.60966 36.3179 12.2562 39.0727C12.2562 39.0727 14.3138 38.8555 17.3544 37.5638C20.4522 36.4436 22.1097 35.209 22.1097 35.209C22.9213 30.7052 19.6749 19.4799 17.8574 15.2733Z" fill="#C2C4C6"/>
<path d="M14.3139 26.9786C14.1196 26.9443 13.9252 26.9329 13.7309 26.9557L12.885 27.2873C12.7478 27.3673 12.6221 27.4701 12.4964 27.5845C12.222 28.0074 11.8791 29.0934 12.9765 31.6082C14.1767 34.3631 18.852 42.0562 18.9549 41.5875C19.355 41.8733 17.6518 33.0142 16.5544 30.2022C15.6513 27.8817 14.8054 27.1844 14.3139 26.9786Z" fill="#3B117F"/>
<path d="M13.5136 27.8926C13.4107 27.8583 13.3078 27.8354 13.2049 27.8354L12.782 27.9955C12.7134 28.0412 12.6562 28.0984 12.5991 28.1669C12.4848 28.4413 12.3819 29.1615 13.1478 30.979C13.9937 32.968 17.0458 38.6264 17.0572 38.2949C17.2973 38.5235 15.7426 32.2821 14.9539 30.2703C14.2909 28.6242 13.7879 28.0755 13.5136 27.8926Z" fill="#008ED0"/>
<path d="M14.5429 33.0146C13.9142 31.5515 13.1368 30.1112 12.6567 28.5908C12.6796 29.0252 12.8282 29.7225 13.274 30.7856C13.6855 31.7458 14.6114 33.5862 15.4573 35.1637C15.1601 34.4435 14.8515 33.7234 14.5429 33.0146Z" fill="white"/>
<path d="M2.6657 0.114994C2.49424 0.18358 2.07129 0.366485 1.8541 0.926607C1.57975 1.6239 -0.534994 11.7975 0.128007 15.5241C2.58569 15.3069 5.27199 14.6896 7.95829 13.6265C10.656 12.5634 13.0451 11.2031 14.9884 9.69423C12.9422 6.51639 4.47181 0.48078 3.79738 0.16071C3.28298 -0.102204 2.83717 0.0464072 2.6657 0.114994Z" fill="url(#paint8_linear_2025_23684)"/>
<path d="M2.6657 0.114994C2.49424 0.18358 2.07129 0.366485 1.8541 0.926607C1.57975 1.6239 -0.534994 11.7975 0.128007 15.5241C2.58569 15.3069 5.27199 14.6896 7.95829 13.6265C10.656 12.5634 13.0451 11.2031 14.9884 9.69423C12.9422 6.51639 4.47181 0.48078 3.79738 0.16071C3.28298 -0.102204 2.83717 0.0464072 2.6657 0.114994Z" fill="#E522D9"/>
<path d="M1.40885 15.9593C1.47744 16.1422 1.38599 16.3479 1.21452 16.4165C1.03162 16.4851 0.825866 16.3937 0.757279 16.2222C0.688693 16.0393 0.780139 15.8335 0.951605 15.765C1.1345 15.6849 1.34026 15.7764 1.40885 15.9593Z" fill="white"/>
<path d="M8.61002 14.2562C8.67861 14.4391 8.58716 14.6448 8.4157 14.7134C8.2328 14.782 8.02704 14.6905 7.95845 14.5076C7.88986 14.3247 7.98131 14.119 8.15278 14.0504C8.33567 13.9933 8.54143 14.0733 8.61002 14.2562Z" fill="white"/>
<path d="M15.0002 10.5066C15.0687 10.6895 14.9773 10.8953 14.8058 10.9639C14.6229 11.0325 14.4172 10.941 14.3486 10.7696C14.28 10.5867 14.3715 10.3809 14.5429 10.3123C14.7258 10.2323 14.9316 10.3237 15.0002 10.5066Z" fill="white"/>
<path d="M11.9364 12.7132C12.005 12.8961 11.9135 13.1018 11.7306 13.1704C11.5477 13.239 11.342 13.1476 11.2734 12.9761C11.2048 12.7932 11.2963 12.5874 11.4677 12.5189C11.6506 12.4388 11.8564 12.5303 11.9364 12.7132Z" fill="white"/>
<path d="M5.1232 15.3875C5.19179 15.5704 5.10034 15.7762 4.92888 15.8447C4.74598 15.9133 4.54022 15.8219 4.47163 15.6504C4.40305 15.4675 4.4945 15.2618 4.66597 15.1932C4.83743 15.1132 5.04319 15.2046 5.1232 15.3875Z" fill="white"/>
<path d="M14.3029 19.0111C15.0345 20.8629 14.12 22.9663 12.2567 23.6978C10.4049 24.4294 8.30159 23.515 7.58144 21.6631C6.86128 19.7999 7.77577 17.708 9.6276 16.9764C11.4794 16.2448 13.5827 17.1593 14.3029 19.0111Z" fill="#ECB020"/>
<path opacity="0.7" d="M13.822 19.3204C14.4392 20.8979 13.6619 22.6697 12.0959 23.287C10.5184 23.9043 8.74656 23.1269 8.14072 21.5609C7.52344 19.9834 8.30076 18.2116 9.86681 17.5943C11.4329 16.977 13.2047 17.7429 13.822 19.3204Z" fill="#C9E9EB"/>
<path d="M13.5134 19.343C14.0621 20.7604 13.3762 22.3493 11.9588 22.898C10.5413 23.4581 8.95239 22.7608 8.39227 21.3434C7.83215 19.9259 8.52944 18.337 9.94689 17.7769C11.3529 17.2396 12.9533 17.9369 13.5134 19.343Z" fill="url(#paint9_radial_2025_23684)"/>
<path d="M9.30714 21.4346C9.15854 21.4574 9.00993 21.4917 8.86133 21.5146C9.20426 22.1433 9.79868 22.5663 10.4617 22.7263C9.95871 22.4634 9.54719 22.0176 9.31857 21.446C9.30714 21.446 9.30714 21.4346 9.30714 21.4346Z" fill="url(#paint10_radial_2025_23684)"/>
<path d="M10.1074 18.0285C8.89567 18.4971 8.2784 19.8231 8.65562 21.0463C8.83852 21.012 9.00998 20.9663 9.18145 20.932C8.99855 19.8117 9.61583 18.68 10.7132 18.2457C11.1933 18.0628 11.6963 18.0285 12.1535 18.1428C11.5362 17.8227 10.7932 17.7656 10.1074 18.0285Z" fill="url(#paint11_radial_2025_23684)"/>
<path d="M24.9902 27.8813C24.9902 27.8813 26.2362 33.1739 25.2189 38.0436C25.2074 38.0436 25.5618 32.5795 24.9902 27.8813Z" fill="white"/>
<path opacity="0.7" d="M4.24302 15.3081C4.09442 15.3538 3.93438 15.3881 3.77435 15.4224C3.25995 15.5367 2.73412 15.5825 2.21973 15.6853C2.58552 17.5829 3.14565 19.4347 3.88866 21.2523C6.27776 27.1278 9.79852 32.409 13.0564 37.8273C13.445 37.7473 13.9023 37.6215 14.4395 37.4615C11.8218 32.2832 8.95262 27.2307 6.64355 21.8924C5.7062 19.7434 4.88316 17.5486 4.24302 15.3081Z" fill="#C9E9EB"/>
<path d="M17.858 15.2733C16.2691 11.6039 15.366 10.2322 15.1603 9.93495C13.4228 6.83714 4.50653 0.481469 3.82066 0.149968C3.2834 -0.112946 2.84902 0.035665 2.67756 0.104251C2.66613 0.104251 2.6547 0.11567 2.63184 0.127101C3.80924 1.36166 4.92947 2.65337 5.98113 4.00223C13.2627 13.3871 17.5265 24.7725 20.4872 36.1921C21.5617 35.6206 22.1218 35.1976 22.1218 35.1976C22.922 30.7052 19.6755 19.4799 17.858 15.2733Z" fill="#DEDFE0"/>
<path opacity="0.5" d="M3.35158 14.6216C3.56877 14.5759 3.78595 14.5188 4.00315 14.4502C3.79739 13.65 3.60306 12.8498 3.43159 12.0382C2.8829 9.35191 2.51711 6.64276 2.13988 3.93359C1.84267 6.5856 1.62548 9.24904 1.77409 11.9239C1.81981 12.8956 1.92269 13.8558 2.07129 14.8045C2.49424 14.7588 2.91719 14.7245 3.35158 14.6216Z" fill="#FFF2BB"/>
<defs>
<linearGradient id="paint0_linear_2025_23684" x1="31.9388" y1="176.8" x2="35.2658" y2="182.492" gradientUnits="userSpaceOnUse">
<stop offset="0.4575" stop-color="#E5E0DF"/>
<stop offset="1" stop-color="#8CA99C"/>
</linearGradient>
<linearGradient id="paint1_linear_2025_23684" x1="28.5615" y1="178.24" x2="31.8899" y2="183.935" gradientUnits="userSpaceOnUse">
<stop offset="0.4575" stop-color="#E5E0DF"/>
<stop offset="1" stop-color="#8CA99C"/>
</linearGradient>
<linearGradient id="paint2_linear_2025_23684" x1="16.8727" y1="163.134" x2="31.6535" y2="157.806" gradientUnits="userSpaceOnUse">
<stop offset="0.4575" stop-color="#E5E0DF"/>
<stop offset="1" stop-color="#8CA99C"/>
</linearGradient>
<radialGradient id="paint3_radial_2025_23684" cx="0" cy="0" r="1" gradientUnits="userSpaceOnUse" gradientTransform="translate(26.2033 168.132) rotate(-23.104) scale(2.72004 2.88841)">
<stop offset="0.1486" stop-color="#21687E"/>
<stop offset="0.491" stop-color="#023F5F"/>
<stop offset="0.9801"/>
</radialGradient>
<radialGradient id="paint4_radial_2025_23684" cx="0" cy="0" r="1" gradientUnits="userSpaceOnUse" gradientTransform="translate(25.481 168.439) rotate(-23.1041) scale(2.58197 2.74181)">
<stop offset="0.2851" stop-color="white"/>
<stop offset="0.6912" stop-color="#6C6C6C"/>
<stop offset="1"/>
</radialGradient>
<radialGradient id="paint5_radial_2025_23684" cx="0" cy="0" r="1" gradientUnits="userSpaceOnUse" gradientTransform="translate(25.4796 168.443) rotate(-23.104) scale(2.58062 2.74037)">
<stop offset="0.2851" stop-color="white"/>
<stop offset="0.6912" stop-color="#6C6C6C"/>
<stop offset="1"/>
</radialGradient>
<linearGradient id="paint6_linear_2025_23684" x1="18.6978" y1="33.3226" x2="23.721" y2="42.6717" gradientUnits="userSpaceOnUse">
<stop offset="0.4575" stop-color="#E5E0DF"/>
<stop offset="1" stop-color="#8CA99C"/>
</linearGradient>
<linearGradient id="paint7_linear_2025_23684" x1="12.9018" y1="35.5956" x2="17.9272" y2="44.9489" gradientUnits="userSpaceOnUse">
<stop offset="0.4575" stop-color="#E5E0DF"/>
<stop offset="1" stop-color="#8CA99C"/>
</linearGradient>
<linearGradient id="paint8_linear_2025_23684" x1="-7.1599" y1="11.7641" x2="17.6842" y2="2.02125" gradientUnits="userSpaceOnUse">
<stop offset="0.4575" stop-color="#E5E0DF"/>
<stop offset="1" stop-color="#8CA99C"/>
</linearGradient>
<radialGradient id="paint9_radial_2025_23684" cx="0" cy="0" r="1" gradientUnits="userSpaceOnUse" gradientTransform="translate(8.85354 19.6487) rotate(-21.413) scale(4.61234 4.61234)">
<stop offset="0.1486" stop-color="#21687E"/>
<stop offset="0.491" stop-color="#023F5F"/>
<stop offset="0.9801"/>
</radialGradient>
<radialGradient id="paint10_radial_2025_23684" cx="0" cy="0" r="1" gradientUnits="userSpaceOnUse" gradientTransform="translate(7.61438 20.1332) rotate(-21.4131) scale(4.37823 4.37824)">
<stop offset="0.2851" stop-color="white"/>
<stop offset="0.6912" stop-color="#6C6C6C"/>
<stop offset="1"/>
</radialGradient>
<radialGradient id="paint11_radial_2025_23684" cx="0" cy="0" r="1" gradientUnits="userSpaceOnUse" gradientTransform="translate(7.61203 20.1397) rotate(-21.4131) scale(4.37594)">
<stop offset="0.2851" stop-color="white"/>
<stop offset="0.6912" stop-color="#6C6C6C"/>
<stop offset="1"/>
</radialGradient>
</defs>
</svg>
