<svg width="24" height="24" viewBox="0 0 24 24" fill="none" xmlns="http://www.w3.org/2000/svg">
<g clip-path="url(#clip0_272_13864)">
<path d="M14.9596 12.8584L13.2845 14.5392C12.6052 15.2208 11.41 15.2355 10.716 14.5392L9.04086 12.8584L3.02441 18.8944C3.24837 18.9979 3.49529 19.0597 3.7578 19.0597H20.2427C20.5052 19.0597 20.7521 18.998 20.9759 18.8944L14.9596 12.8584Z" fill="white"/>
<path d="M20.2426 5H3.75772C3.49521 5 3.24829 5.0618 3.02441 5.16536L9.45341 11.6157C9.45384 11.6161 9.45435 11.6162 9.45478 11.6166C9.45521 11.617 9.45528 11.6176 9.45528 11.6176L11.5457 13.715C11.7677 13.937 12.2327 13.937 12.4547 13.715L14.5447 11.618C14.5447 11.618 14.5452 11.617 14.5456 11.6166C14.5456 11.6166 14.5466 11.6161 14.547 11.6157L20.9758 5.16532C20.752 5.06172 20.5051 5 20.2426 5Z" fill="white"/>
<path d="M2.18696 5.98242C2.0711 6.21673 2 6.47681 2 6.75542V17.3026C2 17.5812 2.07102 17.8413 2.18692 18.0756L8.21379 12.0292L2.18696 5.98242Z" fill="white"/>
<path d="M21.8112 5.98047L15.7844 12.0273L21.8112 18.0738C21.9271 17.8395 21.9982 17.5794 21.9982 17.3008V6.75354C21.9982 6.47486 21.9271 6.21477 21.8112 5.98047Z" fill="white"/>
</g>
<defs>
<clipPath id="clip0_272_13864">
<rect width="24" height="24" fill="white"/>
</clipPath>
</defs>
</svg>
