<svg width="41" height="40" viewBox="0 0 41 40" fill="none" xmlns="http://www.w3.org/2000/svg">
<g clip-path="url(#clip0_272_9446)">
<path d="M20.5 24.1016C22.7652 24.1016 24.6016 22.2652 24.6016 20C24.6016 17.7348 22.7652 15.8984 20.5 15.8984C18.2348 15.8984 16.3984 17.7348 16.3984 20C16.3984 22.2652 18.2348 24.1016 20.5 24.1016Z" fill="white"/>
<path d="M20.5 0.46875C9.7132 0.46875 0.96875 9.2132 0.96875 20C0.96875 30.7868 9.7132 39.5312 20.5 39.5312C31.2868 39.5312 40.0312 30.7868 40.0312 20C40.0312 9.2132 31.2868 0.46875 20.5 0.46875ZM32.567 24.9641C32.4733 26.8209 31.9515 28.652 30.5983 29.9909C29.232 31.3424 27.3922 31.846 25.5174 31.9388H15.4827C13.6077 31.846 11.7681 31.3427 10.4018 29.9909C9.04852 28.652 8.5268 26.8209 8.43305 24.9641V15.0359C8.5268 13.1791 9.04859 11.348 10.4018 10.0091C11.7681 8.6575 13.6079 8.15391 15.4827 8.06117H25.5173C27.3923 8.15391 29.2319 8.65727 30.5982 10.0091C31.9515 11.348 32.4732 13.1791 32.567 15.0359L32.567 24.9641Z" fill="white"/>
<path d="M25.3906 10.3232C22.9464 10.2562 18.0542 10.2562 15.61 10.3232C14.338 10.3581 12.896 10.6748 11.9898 11.6428C11.0481 12.6489 10.6922 13.8646 10.6561 15.2245C10.5927 17.6113 10.6561 24.7754 10.6561 24.7754C10.6975 26.1352 11.0481 27.351 11.9898 28.3571C12.896 29.3254 14.338 29.6417 15.61 29.6767C18.0542 29.7437 22.9464 29.7437 25.3906 29.6767C26.6625 29.6417 28.1045 29.3251 29.0107 28.3571C29.9525 27.351 30.3083 26.1353 30.3444 24.7754V15.2245C30.3083 13.8646 29.9525 12.6489 29.0107 11.6428C28.1042 10.6745 26.6622 10.3581 25.3906 10.3232ZM20.5 26.3574C19.2426 26.3574 18.0134 25.9845 16.968 25.2859C15.9225 24.5874 15.1076 23.5945 14.6265 22.4328C14.1453 21.2712 14.0194 19.9929 14.2647 18.7597C14.51 17.5265 15.1155 16.3937 16.0046 15.5046C16.8937 14.6155 18.0265 14.01 19.2597 13.7647C20.4929 13.5194 21.7712 13.6453 22.9328 14.1264C24.0945 14.6076 25.0874 15.4225 25.786 16.4679C26.4845 17.5134 26.8574 18.7426 26.8574 19.9999C26.8574 21.686 26.1876 23.3031 24.9953 24.4953C23.8031 25.6876 22.186 26.3574 20.5 26.3574ZM26.8844 14.9548C26.6329 14.9547 26.3871 14.8801 26.1781 14.7404C25.969 14.6006 25.8061 14.402 25.7099 14.1697C25.6137 13.9373 25.5886 13.6817 25.6377 13.4351C25.6868 13.1884 25.8079 12.9619 25.9858 12.7841C26.1636 12.6063 26.3901 12.4853 26.6368 12.4362C26.8834 12.3872 27.1391 12.4124 27.3714 12.5086C27.6037 12.6049 27.8022 12.7678 27.9419 12.9769C28.0816 13.186 28.1562 13.4318 28.1562 13.6833C28.1562 13.8503 28.1233 14.0157 28.0594 14.1699C27.9955 14.3242 27.9018 14.4644 27.7837 14.5825C27.6656 14.7006 27.5254 14.7942 27.3711 14.8581C27.2168 14.922 27.0514 14.9548 26.8844 14.9548Z" fill="white"/>
</g>
<defs>
<clipPath id="clip0_272_9446">
<rect width="40" height="40" fill="white" transform="translate(0.5)"/>
</clipPath>
</defs>
</svg>
