<svg width="41" height="40" viewBox="0 0 41 40" fill="none" xmlns="http://www.w3.org/2000/svg">
<g clip-path="url(#clip0_272_9445)">
<path d="M20.5 0C16.5444 0 12.6776 1.17298 9.3886 3.37061C6.09962 5.56824 3.53617 8.69181 2.02242 12.3463C0.508666 16.0009 0.112599 20.0222 0.884303 23.9018C1.65601 27.7814 3.56082 31.3451 6.35787 34.1421C9.15492 36.9392 12.7186 38.844 16.5982 39.6157C20.4778 40.3874 24.4992 39.9913 28.1537 38.4776C31.8082 36.9638 34.9318 34.4004 37.1294 31.1114C39.327 27.8224 40.5 23.9556 40.5 20C40.5 14.6957 38.3929 9.60859 34.6421 5.85786C30.8914 2.10714 25.8043 0 20.5 0ZM14.6842 30.5263H10.3211V16.4711H14.6842V30.5263ZM12.5 14.5526C11.9979 14.5547 11.5064 14.4079 11.0877 14.1307C10.669 13.8535 10.3418 13.4584 10.1476 12.9953C9.95344 12.5322 9.90089 12.022 9.99662 11.529C10.0924 11.0361 10.3321 10.5826 10.6855 10.2259C11.0389 9.86917 11.4901 9.62523 11.9822 9.52491C12.4742 9.42458 12.9849 9.47238 13.4498 9.66225C13.9146 9.85213 14.3128 10.1756 14.5939 10.5917C14.8749 11.0078 15.0264 11.4979 15.029 12C15.0304 12.6733 14.7651 13.3198 14.2912 13.7982C13.8173 14.2765 13.1733 14.5478 12.5 14.5526ZM31.0263 30.5263H26.6658V23.6842C26.6658 22.0526 26.6342 19.9605 24.3974 19.9605C22.1605 19.9605 21.7658 21.7342 21.7658 23.5658V30.5263H17.4211V16.4711H21.6079V18.3868H21.6684C22.25 17.2816 23.6737 16.1158 25.7974 16.1158C30.2132 16.1158 31.0263 19.0263 31.0263 22.8053V30.5263Z" fill="white"/>
</g>
<defs>
<clipPath id="clip0_272_9445">
<rect width="40" height="40" fill="white" transform="translate(0.5)"/>
</clipPath>
</defs>
</svg>
