<svg width="24" height="24" viewBox="0 0 24 24" fill="none" xmlns="http://www.w3.org/2000/svg">
<path d="M19.5523 15.9203C18.3441 14.8869 17.1179 14.261 15.9246 15.2928L15.212 15.9164C14.6906 16.3691 13.7212 18.4842 9.97326 14.1728C6.22609 9.86675 8.45597 9.19631 8.97812 8.74752L9.69462 8.12312C10.8818 7.08896 10.4338 5.78709 9.57755 4.44698L9.06086 3.63526C8.20075 2.29826 7.26415 1.4202 6.07389 2.4528L5.43076 3.01476C4.9047 3.39799 3.43424 4.64366 3.07756 7.01013C2.64828 9.84958 4.00245 13.1011 7.10493 16.6688C10.2035 20.238 13.2373 22.0308 16.1111 21.9996C18.4994 21.9738 19.9418 20.6923 20.3929 20.2263L21.0384 19.6636C22.2255 18.6317 21.4879 17.5812 20.279 16.5455L19.5523 15.9203Z" fill="white"/>
</svg>
