<svg width="270" height="195" viewBox="0 0 270 195" fill="none" xmlns="http://www.w3.org/2000/svg">
<g filter="url(#filter0_d_360_13521)">
<path d="M190.549 152.645C221.174 122.02 221.174 72.3682 190.549 41.7436C159.924 11.1189 110.272 11.1189 79.6476 41.7436C49.0229 72.3682 49.0229 122.02 79.6476 152.645C110.272 183.27 159.924 183.27 190.549 152.645Z" fill="#C48CDF"/>
<path d="M178.111 163.939C178.111 165.419 176.921 166.609 175.441 166.609H93.5914C92.1114 166.609 90.9214 165.409 90.9214 163.939V137.739C90.9214 136.269 92.1114 135.069 93.5914 135.069H175.441C176.911 135.069 178.111 136.259 178.111 137.739V163.939Z" fill="white"/>
<path d="M93.5914 167.109C92.7414 167.109 91.9514 166.779 91.3514 166.179C90.7514 165.579 90.4214 164.789 90.4214 163.939V137.739C90.4214 135.989 91.8414 134.569 93.5914 134.569H175.441C177.191 134.569 178.611 135.989 178.611 137.739V163.939C178.611 164.789 178.281 165.579 177.681 166.179C177.081 166.779 176.291 167.109 175.441 167.109H93.5914ZM175.441 135.569H93.5914C92.3914 135.569 91.4214 136.539 91.4214 137.739V163.939C91.4214 164.519 91.6514 165.059 92.0514 165.469C92.4614 165.879 93.0014 166.109 93.5914 166.109H175.441C176.021 166.109 176.561 165.879 176.971 165.479C177.381 165.069 177.611 164.519 177.611 163.939V137.739C177.611 136.539 176.631 135.569 175.441 135.569Z" fill="#627CEE"/>
<path d="M93.5914 167.109C92.7414 167.109 91.9514 166.779 91.3514 166.179C90.7514 165.579 90.4214 164.789 90.4214 163.939V137.739C90.4214 135.989 91.8414 134.569 93.5914 134.569H175.441C177.191 134.569 178.611 135.989 178.611 137.739V163.939C178.611 164.789 178.281 165.579 177.681 166.179C177.081 166.779 176.291 167.109 175.441 167.109H93.5914ZM175.441 135.569H93.5914C92.3914 135.569 91.4214 136.539 91.4214 137.739V163.939C91.4214 164.519 91.6514 165.059 92.0514 165.469C92.4614 165.879 93.0014 166.109 93.5914 166.109H175.441C176.021 166.109 176.561 165.879 176.971 165.479C177.381 165.069 177.611 164.519 177.611 163.939V137.739C177.611 136.539 176.631 135.569 175.441 135.569Z" fill="black" fill-opacity="0.2"/>
<path d="M173.011 139.75H96.0112V161.62H173.011V139.75Z" fill="#627CEE"/>
<path d="M173.011 139.75H96.0112V161.62H173.011V139.75Z" fill="black" fill-opacity="0.2"/>
<path d="M96.0112 162.12C95.8812 162.12 95.7512 162.07 95.6612 161.97C95.5712 161.88 95.5112 161.75 95.5112 161.62V139.75C95.5112 139.47 95.7312 139.25 96.0112 139.25H173.011C173.291 139.25 173.511 139.47 173.511 139.75V161.61C173.511 161.89 173.291 162.11 173.011 162.11L96.0112 162.12ZM96.5112 140.25V161.12H172.511V140.26H96.5112V140.25Z" fill="#627CEE"/>
<path d="M96.0112 162.12C95.8812 162.12 95.7512 162.07 95.6612 161.97C95.5712 161.88 95.5112 161.75 95.5112 161.62V139.75C95.5112 139.47 95.7312 139.25 96.0112 139.25H173.011C173.291 139.25 173.511 139.47 173.511 139.75V161.61C173.511 161.89 173.291 162.11 173.011 162.11L96.0112 162.12ZM96.5112 140.25V161.12H172.511V140.26H96.5112V140.25Z" fill="black" fill-opacity="0.2"/>
<path d="M101.952 161.55C101.672 161.55 101.452 161.33 101.452 161.05V139.75C101.452 139.47 101.672 139.25 101.952 139.25C102.232 139.25 102.452 139.47 102.452 139.75V161.05C102.452 161.33 102.222 161.55 101.952 161.55Z" fill="#627CEE"/>
<path d="M101.952 161.55C101.672 161.55 101.452 161.33 101.452 161.05V139.75C101.452 139.47 101.672 139.25 101.952 139.25C102.232 139.25 102.452 139.47 102.452 139.75V161.05C102.452 161.33 102.222 161.55 101.952 161.55Z" fill="black" fill-opacity="0.2"/>
<path d="M108.391 161.55C108.111 161.55 107.891 161.33 107.891 161.05V139.75C107.891 139.47 108.111 139.25 108.391 139.25C108.671 139.25 108.891 139.47 108.891 139.75V161.05C108.891 161.33 108.671 161.55 108.391 161.55Z" fill="#627CEE"/>
<path d="M108.391 161.55C108.111 161.55 107.891 161.33 107.891 161.05V139.75C107.891 139.47 108.111 139.25 108.391 139.25C108.671 139.25 108.891 139.47 108.891 139.75V161.05C108.891 161.33 108.671 161.55 108.391 161.55Z" fill="black" fill-opacity="0.2"/>
<path d="M114.841 161.55C114.561 161.55 114.341 161.33 114.341 161.05V139.75C114.341 139.47 114.561 139.25 114.841 139.25C115.121 139.25 115.341 139.47 115.341 139.75V161.05C115.341 161.33 115.121 161.55 114.841 161.55Z" fill="#627CEE"/>
<path d="M114.841 161.55C114.561 161.55 114.341 161.33 114.341 161.05V139.75C114.341 139.47 114.561 139.25 114.841 139.25C115.121 139.25 115.341 139.47 115.341 139.75V161.05C115.341 161.33 115.121 161.55 114.841 161.55Z" fill="black" fill-opacity="0.2"/>
<path d="M121.292 156.95C121.012 156.95 120.792 156.73 120.792 156.45V139.76C120.792 139.48 121.012 139.26 121.292 139.26C121.572 139.26 121.792 139.48 121.792 139.76V156.45C121.792 156.72 121.572 156.95 121.292 156.95Z" fill="#627CEE"/>
<path d="M121.292 156.95C121.012 156.95 120.792 156.73 120.792 156.45V139.76C120.792 139.48 121.012 139.26 121.292 139.26C121.572 139.26 121.792 139.48 121.792 139.76V156.45C121.792 156.72 121.572 156.95 121.292 156.95Z" fill="black" fill-opacity="0.2"/>
<path d="M127.742 156.95C127.462 156.95 127.242 156.73 127.242 156.45V139.76C127.242 139.48 127.462 139.26 127.742 139.26C128.022 139.26 128.242 139.48 128.242 139.76V156.45C128.242 156.72 128.012 156.95 127.742 156.95Z" fill="#627CEE"/>
<path d="M127.742 156.95C127.462 156.95 127.242 156.73 127.242 156.45V139.76C127.242 139.48 127.462 139.26 127.742 139.26C128.022 139.26 128.242 139.48 128.242 139.76V156.45C128.242 156.72 128.012 156.95 127.742 156.95Z" fill="black" fill-opacity="0.2"/>
<path d="M134.181 156.95C133.901 156.95 133.681 156.73 133.681 156.45V139.76C133.681 139.48 133.901 139.26 134.181 139.26C134.461 139.26 134.681 139.48 134.681 139.76V156.45C134.681 156.72 134.461 156.95 134.181 156.95Z" fill="#627CEE"/>
<path d="M134.181 156.95C133.901 156.95 133.681 156.73 133.681 156.45V139.76C133.681 139.48 133.901 139.26 134.181 139.26C134.461 139.26 134.681 139.48 134.681 139.76V156.45C134.681 156.72 134.461 156.95 134.181 156.95Z" fill="black" fill-opacity="0.2"/>
<path d="M140.631 161.55C140.351 161.55 140.131 161.33 140.131 161.05V139.75C140.131 139.47 140.351 139.25 140.631 139.25C140.911 139.25 141.131 139.47 141.131 139.75V161.05C141.131 161.33 140.911 161.55 140.631 161.55Z" fill="#627CEE"/>
<path d="M140.631 161.55C140.351 161.55 140.131 161.33 140.131 161.05V139.75C140.131 139.47 140.351 139.25 140.631 139.25C140.911 139.25 141.131 139.47 141.131 139.75V161.05C141.131 161.33 140.911 161.55 140.631 161.55Z" fill="black" fill-opacity="0.2"/>
<path d="M147.072 161.55C146.792 161.55 146.572 161.33 146.572 161.05V139.75C146.572 139.47 146.792 139.25 147.072 139.25C147.352 139.25 147.572 139.47 147.572 139.75V161.05C147.572 161.33 147.352 161.55 147.072 161.55Z" fill="#627CEE"/>
<path d="M147.072 161.55C146.792 161.55 146.572 161.33 146.572 161.05V139.75C146.572 139.47 146.792 139.25 147.072 139.25C147.352 139.25 147.572 139.47 147.572 139.75V161.05C147.572 161.33 147.352 161.55 147.072 161.55Z" fill="black" fill-opacity="0.2"/>
<path d="M153.521 161.55C153.241 161.55 153.021 161.33 153.021 161.05V139.75C153.021 139.47 153.241 139.25 153.521 139.25C153.801 139.25 154.021 139.47 154.021 139.75V161.05C154.021 161.33 153.801 161.55 153.521 161.55Z" fill="#627CEE"/>
<path d="M153.521 161.55C153.241 161.55 153.021 161.33 153.021 161.05V139.75C153.021 139.47 153.241 139.25 153.521 139.25C153.801 139.25 154.021 139.47 154.021 139.75V161.05C154.021 161.33 153.801 161.55 153.521 161.55Z" fill="black" fill-opacity="0.2"/>
<path d="M159.971 161.55C159.691 161.55 159.471 161.33 159.471 161.05V139.75C159.471 139.47 159.691 139.25 159.971 139.25C160.251 139.25 160.471 139.47 160.471 139.75V161.05C160.471 161.33 160.251 161.55 159.971 161.55Z" fill="#627CEE"/>
<path d="M159.971 161.55C159.691 161.55 159.471 161.33 159.471 161.05V139.75C159.471 139.47 159.691 139.25 159.971 139.25C160.251 139.25 160.471 139.47 160.471 139.75V161.05C160.471 161.33 160.251 161.55 159.971 161.55Z" fill="black" fill-opacity="0.2"/>
<path d="M166.421 161.55C166.141 161.55 165.921 161.33 165.921 161.05V139.75C165.921 139.47 166.141 139.25 166.421 139.25C166.701 139.25 166.921 139.47 166.921 139.75V161.05C166.921 161.33 166.691 161.55 166.421 161.55Z" fill="#627CEE"/>
<path d="M166.421 161.55C166.141 161.55 165.921 161.33 165.921 161.05V139.75C165.921 139.47 166.141 139.25 166.421 139.25C166.701 139.25 166.921 139.47 166.921 139.75V161.05C166.921 161.33 166.691 161.55 166.421 161.55Z" fill="black" fill-opacity="0.2"/>
<path d="M173.011 145.729H96.0112C95.7312 145.729 95.5112 145.509 95.5112 145.229C95.5112 144.949 95.7312 144.729 96.0112 144.729H173.011C173.291 144.729 173.511 144.949 173.511 145.229C173.511 145.509 173.291 145.729 173.011 145.729Z" fill="#627CEE"/>
<path d="M173.011 145.729H96.0112C95.7312 145.729 95.5112 145.509 95.5112 145.229C95.5112 144.949 95.7312 144.729 96.0112 144.729H173.011C173.291 144.729 173.511 144.949 173.511 145.229C173.511 145.509 173.291 145.729 173.011 145.729Z" fill="black" fill-opacity="0.2"/>
<path d="M140.631 151.34H96.0513C95.7713 151.34 95.5513 151.12 95.5513 150.84C95.5513 150.56 95.7713 150.34 96.0513 150.34H140.631C140.911 150.34 141.131 150.56 141.131 150.84C141.131 151.12 140.901 151.34 140.631 151.34Z" fill="#627CEE"/>
<path d="M140.631 151.34H96.0513C95.7713 151.34 95.5513 151.12 95.5513 150.84C95.5513 150.56 95.7713 150.34 96.0513 150.34H140.631C140.911 150.34 141.131 150.56 141.131 150.84C141.131 151.12 140.901 151.34 140.631 151.34Z" fill="black" fill-opacity="0.2"/>
<path d="M172.941 156.95H95.9409C95.6609 156.95 95.4409 156.73 95.4409 156.45C95.4409 156.17 95.6609 155.95 95.9409 155.95H172.941C173.221 155.95 173.441 156.17 173.441 156.45C173.441 156.73 173.211 156.95 172.941 156.95Z" fill="#627CEE"/>
<path d="M172.941 156.95H95.9409C95.6609 156.95 95.4409 156.73 95.4409 156.45C95.4409 156.17 95.6609 155.95 95.9409 155.95H172.941C173.221 155.95 173.441 156.17 173.441 156.45C173.441 156.73 173.211 156.95 172.941 156.95Z" fill="black" fill-opacity="0.2"/>
<path d="M166.422 151.34H147.322C147.042 151.34 146.822 151.12 146.822 150.84C146.822 150.56 147.042 150.34 147.322 150.34H166.422C166.702 150.34 166.922 150.56 166.922 150.84C166.922 151.12 166.692 151.34 166.422 151.34Z" fill="#627CEE"/>
<path d="M166.422 151.34H147.322C147.042 151.34 146.822 151.12 146.822 150.84C146.822 150.56 147.042 150.34 147.322 150.34H166.422C166.702 150.34 166.922 150.56 166.922 150.84C166.922 151.12 166.692 151.34 166.422 151.34Z" fill="black" fill-opacity="0.2"/>
<path d="M135.162 41.0492C135.532 41.2092 135.932 41.2992 136.352 41.2992L161.952 41.7592C162.092 41.7592 162.222 41.7292 162.352 41.7092C162.332 41.7092 162.312 41.7092 162.292 41.7092V33.4592C162.302 33.4592 162.312 33.4592 162.322 33.4592C162.192 33.4392 162.072 33.4092 161.942 33.4092L136.342 33.8792C135.922 33.8792 135.522 33.9692 135.152 34.1292L135.162 41.0492Z" fill="#627CEE"/>
<path d="M135.162 41.0492C135.532 41.2092 135.932 41.2992 136.352 41.2992L161.952 41.7592C162.092 41.7592 162.222 41.7292 162.352 41.7092C162.332 41.7092 162.312 41.7092 162.292 41.7092V33.4592C162.302 33.4592 162.312 33.4592 162.322 33.4592C162.192 33.4392 162.072 33.4092 161.942 33.4092L136.342 33.8792C135.922 33.8792 135.522 33.9692 135.152 34.1292L135.162 41.0492Z" fill="black" fill-opacity="0.2"/>
<path d="M161.952 42.2597L136.342 41.7997C135.872 41.7997 135.412 41.6996 134.962 41.4996C134.782 41.4196 134.662 41.2396 134.662 41.0396V34.1197C134.662 33.9197 134.782 33.7396 134.962 33.6596C135.412 33.4596 135.882 33.3596 136.352 33.3596L161.942 32.8896C162.072 32.8896 162.192 32.9096 162.312 32.9296C162.562 32.9696 162.782 33.1897 162.782 33.4397H162.792V41.5297C162.812 41.5797 162.822 41.6197 162.822 41.6697C162.832 41.9197 162.682 42.1396 162.432 42.1796C162.222 42.2396 162.092 42.2597 161.952 42.2597ZM135.662 40.6996C135.892 40.7696 136.122 40.7997 136.352 40.7997L161.792 41.2496V33.8997L136.362 34.3697C136.122 34.3697 135.892 34.3997 135.662 34.4697V40.6996Z" fill="#627CEE"/>
<path d="M161.952 42.2597L136.342 41.7997C135.872 41.7997 135.412 41.6996 134.962 41.4996C134.782 41.4196 134.662 41.2396 134.662 41.0396V34.1197C134.662 33.9197 134.782 33.7396 134.962 33.6596C135.412 33.4596 135.882 33.3596 136.352 33.3596L161.942 32.8896C162.072 32.8896 162.192 32.9096 162.312 32.9296C162.562 32.9696 162.782 33.1897 162.782 33.4397H162.792V41.5297C162.812 41.5797 162.822 41.6197 162.822 41.6697C162.832 41.9197 162.682 42.1396 162.432 42.1796C162.222 42.2396 162.092 42.2597 161.952 42.2597ZM135.662 40.6996C135.892 40.7696 136.122 40.7997 136.352 40.7997L161.792 41.2496V33.8997L136.362 34.3697C136.122 34.3697 135.892 34.3997 135.662 34.4697V40.6996Z" fill="black" fill-opacity="0.2"/>
<path d="M95.5815 37.5797C95.5815 38.6097 96.4215 39.4497 97.4515 39.4497H99.3715L99.3615 39.4397V35.7297C99.3615 35.7297 99.3615 35.7197 99.3715 35.7197H97.4515C96.4215 35.7197 95.5815 36.5497 95.5815 37.5797Z" fill="#627CEE"/>
<path d="M95.5815 37.5797C95.5815 38.6097 96.4215 39.4497 97.4515 39.4497H99.3715L99.3615 39.4397V35.7297C99.3615 35.7297 99.3615 35.7197 99.3715 35.7197H97.4515C96.4215 35.7197 95.5815 36.5497 95.5815 37.5797Z" fill="black" fill-opacity="0.2"/>
<path d="M99.3715 39.95H97.4515C96.1515 39.95 95.0815 38.89 95.0815 37.58C95.0815 36.28 96.1415 35.21 97.4515 35.21H99.3715C99.5515 35.21 99.7115 35.31 99.8015 35.46C99.8615 35.57 99.8815 35.69 99.8615 35.81V39.37C99.8715 39.47 99.8615 39.57 99.8115 39.67C99.7315 39.84 99.5615 39.95 99.3715 39.95ZM96.0815 37.58C96.0815 38.33 96.6915 38.95 97.4515 38.95H98.8615V36.22H97.4515C96.7015 36.22 96.0815 36.83 96.0815 37.58Z" fill="#627CEE"/>
<path d="M99.3715 39.95H97.4515C96.1515 39.95 95.0815 38.89 95.0815 37.58C95.0815 36.28 96.1415 35.21 97.4515 35.21H99.3715C99.5515 35.21 99.7115 35.31 99.8015 35.46C99.8615 35.57 99.8815 35.69 99.8615 35.81V39.37C99.8715 39.47 99.8615 39.57 99.8115 39.67C99.7315 39.84 99.5615 39.95 99.3715 39.95ZM96.0815 37.58C96.0815 38.33 96.6915 38.95 97.4515 38.95H98.8615V36.22H97.4515C96.7015 36.22 96.0815 36.83 96.0815 37.58Z" fill="black" fill-opacity="0.2"/>
<path d="M137.431 37.5802C137.431 36.9602 138.031 36.4502 138.781 36.4502H141.031C141.781 36.4502 142.381 36.9502 142.381 37.5802C142.381 38.2002 141.781 38.7102 141.031 38.7102H138.781C138.031 38.7102 137.431 38.2102 137.431 37.5802Z" fill="white"/>
<path d="M141.021 39.2102H138.771C137.751 39.2102 136.921 38.4802 136.921 37.5802C136.921 36.6802 137.751 35.9502 138.771 35.9502H141.021C142.041 35.9502 142.871 36.6802 142.871 37.5802C142.871 38.4802 142.041 39.2102 141.021 39.2102ZM138.771 36.9602C138.311 36.9602 137.921 37.2502 137.921 37.5902C137.921 37.9302 138.311 38.2202 138.771 38.2202H141.021C141.481 38.2202 141.871 37.9302 141.871 37.5902C141.871 37.2502 141.481 36.9602 141.021 36.9602H138.771Z" fill="#627CEE"/>
<path d="M141.021 39.2102H138.771C137.751 39.2102 136.921 38.4802 136.921 37.5802C136.921 36.6802 137.751 35.9502 138.771 35.9502H141.021C142.041 35.9502 142.871 36.6802 142.871 37.5802C142.871 38.4802 142.041 39.2102 141.021 39.2102ZM138.771 36.9602C138.311 36.9602 137.921 37.2502 137.921 37.5902C137.921 37.9302 138.311 38.2202 138.771 38.2202H141.021C141.481 38.2202 141.871 37.9302 141.871 37.5902C141.871 37.2502 141.481 36.9602 141.021 36.9602H138.771Z" fill="black" fill-opacity="0.2"/>
<path d="M143.372 37.5802C143.372 36.9602 144.082 36.4502 144.952 36.4502H147.582C148.452 36.4502 149.162 36.9602 149.162 37.5802C149.162 38.2002 148.452 38.7102 147.582 38.7102H144.952C144.082 38.7102 143.372 38.2102 143.372 37.5802Z" fill="white"/>
<path d="M147.582 39.2102H144.952C143.782 39.2102 142.872 38.5002 142.872 37.5802C142.872 36.6702 143.782 35.9502 144.952 35.9502H147.582C148.752 35.9502 149.662 36.6602 149.662 37.5802C149.652 38.5002 148.742 39.2102 147.582 39.2102ZM144.952 36.9602C144.312 36.9602 143.872 37.2902 143.872 37.5902C143.872 37.8902 144.332 38.2202 144.952 38.2202H147.582C148.202 38.2202 148.662 37.8902 148.662 37.5902C148.662 37.2902 148.202 36.9602 147.582 36.9602H144.952Z" fill="#627CEE"/>
<path d="M147.582 39.2102H144.952C143.782 39.2102 142.872 38.5002 142.872 37.5802C142.872 36.6702 143.782 35.9502 144.952 35.9502H147.582C148.752 35.9502 149.662 36.6602 149.662 37.5802C149.652 38.5002 148.742 39.2102 147.582 39.2102ZM144.952 36.9602C144.312 36.9602 143.872 37.2902 143.872 37.5902C143.872 37.8902 144.332 38.2202 144.952 38.2202H147.582C148.202 38.2202 148.662 37.8902 148.662 37.5902C148.662 37.2902 148.202 36.9602 147.582 36.9602H144.952Z" fill="black" fill-opacity="0.2"/>
<path d="M99.3716 35.7301V39.4401C99.8516 40.3901 100.912 41.0501 102.152 41.0501H135.162V34.1301C135.172 34.1201 135.192 34.1201 135.202 34.1201H102.152C100.912 34.1201 99.8516 34.7801 99.3716 35.7301Z" fill="white"/>
<path d="M135.162 41.5501H102.152C100.772 41.5501 99.5016 40.8101 98.9216 39.6701C98.8816 39.6001 98.8716 39.5201 98.8716 39.4401V35.7301C98.8716 35.6501 98.8916 35.5701 98.9216 35.5001C99.5016 34.3601 100.772 33.6201 102.152 33.6201H135.202C135.442 33.6201 135.642 33.7901 135.692 34.0201C135.712 34.1201 135.702 34.2201 135.662 34.3101V41.0501C135.662 41.1801 135.612 41.3101 135.512 41.4001C135.422 41.5001 135.302 41.5501 135.162 41.5501ZM99.8716 39.3201C100.312 40.0701 101.192 40.5501 102.152 40.5501H134.662V34.6201H102.152C101.182 34.6201 100.302 35.1001 99.8716 35.8601V39.3201Z" fill="#627CEE"/>
<path d="M135.162 41.5501H102.152C100.772 41.5501 99.5016 40.8101 98.9216 39.6701C98.8816 39.6001 98.8716 39.5201 98.8716 39.4401V35.7301C98.8716 35.6501 98.8916 35.5701 98.9216 35.5001C99.5016 34.3601 100.772 33.6201 102.152 33.6201H135.202C135.442 33.6201 135.642 33.7901 135.692 34.0201C135.712 34.1201 135.702 34.2201 135.662 34.3101V41.0501C135.662 41.1801 135.612 41.3101 135.512 41.4001C135.422 41.5001 135.302 41.5501 135.162 41.5501ZM99.8716 39.3201C100.312 40.0701 101.192 40.5501 102.152 40.5501H134.662V34.6201H102.152C101.182 34.6201 100.302 35.1001 99.8716 35.8601V39.3201Z" fill="black" fill-opacity="0.2"/>
<path d="M162.301 41.7099C163.941 41.8999 167.511 40.2699 168.521 38.7099C168.511 38.7099 168.501 38.7099 168.491 38.7099V36.4699C167.441 34.9099 163.911 33.2599 162.291 33.4599V41.7099H162.301Z" fill="white"/>
<path d="M162.561 42.2195C162.451 42.2195 162.341 42.2095 162.241 42.1995C161.991 42.1695 161.801 41.9595 161.801 41.6995V33.4495C161.801 33.1995 161.991 32.9795 162.241 32.9495C164.101 32.7095 167.781 34.4995 168.911 36.1695C168.971 36.2495 169.001 36.3495 169.001 36.4495V38.5695C169.041 38.6995 169.031 38.8495 168.951 38.9695C167.841 40.6695 164.441 42.2195 162.561 42.2195ZM162.801 33.9495V41.2095C164.321 41.0995 167.031 39.8495 168.001 38.5895V36.6195C167.011 35.3395 164.291 34.0695 162.801 33.9495Z" fill="#627CEE"/>
<path d="M162.561 42.2195C162.451 42.2195 162.341 42.2095 162.241 42.1995C161.991 42.1695 161.801 41.9595 161.801 41.6995V33.4495C161.801 33.1995 161.991 32.9795 162.241 32.9495C164.101 32.7095 167.781 34.4995 168.911 36.1695C168.971 36.2495 169.001 36.3495 169.001 36.4495V38.5695C169.041 38.6995 169.031 38.8495 168.951 38.9695C167.841 40.6695 164.441 42.2195 162.561 42.2195ZM162.801 33.9495V41.2095C164.321 41.0995 167.031 39.8495 168.001 38.5895V36.6195C167.011 35.3395 164.291 34.0695 162.801 33.9495Z" fill="black" fill-opacity="0.2"/>
<path d="M168.492 38.7102C168.502 38.7102 168.512 38.7102 168.532 38.7102H170.782C171.532 38.7102 172.132 38.2102 172.132 37.5802C172.132 36.9602 171.532 36.4502 170.782 36.4502H168.532C168.522 36.4502 168.512 36.4502 168.492 36.4502V38.7102Z" fill="#627CEE"/>
<path d="M168.492 38.7102C168.502 38.7102 168.512 38.7102 168.532 38.7102H170.782C171.532 38.7102 172.132 38.2102 172.132 37.5802C172.132 36.9602 171.532 36.4502 170.782 36.4502H168.532C168.522 36.4502 168.512 36.4502 168.492 36.4502V38.7102Z" fill="black" fill-opacity="0.2"/>
<path d="M170.782 39.21H168.532C168.252 39.21 167.992 38.98 167.992 38.71V36.46C167.992 36.18 168.212 35.96 168.492 35.96H170.772C171.792 35.96 172.622 36.69 172.622 37.59C172.622 38.48 171.792 39.21 170.782 39.21ZM168.992 36.96V38.21H170.772C171.232 38.21 171.622 37.92 171.622 37.58C171.622 37.24 171.232 36.95 170.772 36.95H168.992V36.96Z" fill="#627CEE"/>
<path d="M170.782 39.21H168.532C168.252 39.21 167.992 38.98 167.992 38.71V36.46C167.992 36.18 168.212 35.96 168.492 35.96H170.772C171.792 35.96 172.622 36.69 172.622 37.59C172.622 38.48 171.792 39.21 170.782 39.21ZM168.992 36.96V38.21H170.772C171.232 38.21 171.622 37.92 171.622 37.58C171.622 37.24 171.232 36.95 170.772 36.95H168.992V36.96Z" fill="black" fill-opacity="0.2"/>
<path d="M175.831 46.6895H93.1312C91.1312 46.6895 89.5112 48.3095 89.5112 50.3195V64.3895V99.8995V113.969C89.5112 115.969 91.1312 117.589 93.1312 117.589H175.831C177.831 117.589 179.461 115.969 179.461 113.969V99.8995V64.3795V50.3195C179.461 48.3095 177.831 46.6895 175.831 46.6895Z" fill="white"/>
<path d="M175.831 118.089H93.1312C90.8612 118.089 89.0112 116.239 89.0112 113.969V50.3195C89.0112 48.0495 90.8612 46.1895 93.1312 46.1895H175.831C178.101 46.1895 179.961 48.0395 179.961 50.3195V113.959C179.961 116.239 178.111 118.089 175.831 118.089ZM93.1412 47.1895C91.4212 47.1895 90.0212 48.5895 90.0212 50.3195V113.959C90.0212 115.679 91.4212 117.079 93.1412 117.079H175.841C177.561 117.079 178.971 115.679 178.971 113.959V50.3195C178.971 48.5995 177.571 47.1895 175.841 47.1895H93.1412Z" fill="#627CEE"/>
<path d="M175.831 118.089H93.1312C90.8612 118.089 89.0112 116.239 89.0112 113.969V50.3195C89.0112 48.0495 90.8612 46.1895 93.1312 46.1895H175.831C178.101 46.1895 179.961 48.0395 179.961 50.3195V113.959C179.961 116.239 178.111 118.089 175.831 118.089ZM93.1412 47.1895C91.4212 47.1895 90.0212 48.5895 90.0212 50.3195V113.959C90.0212 115.679 91.4212 117.079 93.1412 117.079H175.841C177.561 117.079 178.971 115.679 178.971 113.959V50.3195C178.971 48.5995 177.571 47.1895 175.841 47.1895H93.1412Z" fill="black" fill-opacity="0.2"/>
<path d="M145.351 117.59H123.611V125.19H145.351V117.59Z" fill="white"/>
<path d="M145.351 125.68H123.611C123.331 125.68 123.111 125.46 123.111 125.18V117.58C123.111 117.3 123.331 117.08 123.611 117.08H145.351C145.631 117.08 145.851 117.3 145.851 117.58V125.18C145.851 125.46 145.631 125.68 145.351 125.68ZM124.111 124.68H144.851V118.08H124.111V124.68Z" fill="#627CEE"/>
<path d="M145.351 125.68H123.611C123.331 125.68 123.111 125.46 123.111 125.18V117.58C123.111 117.3 123.331 117.08 123.611 117.08H145.351C145.631 117.08 145.851 117.3 145.851 117.58V125.18C145.851 125.46 145.631 125.68 145.351 125.68ZM124.111 124.68H144.851V118.08H124.111V124.68Z" fill="black" fill-opacity="0.2"/>
<path d="M170.832 127.84C170.832 129.31 169.642 130.5 168.172 130.5H101.452C99.9815 130.5 98.7915 129.31 98.7915 127.84C98.7915 126.37 99.9815 125.18 101.452 125.18H168.172C169.632 125.18 170.832 126.37 170.832 127.84Z" fill="white"/>
<path d="M168.162 131H101.452C99.7115 131 98.2915 129.58 98.2915 127.84C98.2915 126.1 99.7115 124.68 101.452 124.68H168.172C169.912 124.68 171.332 126.1 171.332 127.84C171.332 129.59 169.912 131 168.162 131ZM101.452 125.68C100.262 125.68 99.2915 126.65 99.2915 127.84C99.2915 129.03 100.262 130 101.452 130H168.172C169.362 130 170.332 129.03 170.332 127.84C170.332 126.65 169.362 125.68 168.172 125.68H101.452Z" fill="#627CEE"/>
<path d="M168.162 131H101.452C99.7115 131 98.2915 129.58 98.2915 127.84C98.2915 126.1 99.7115 124.68 101.452 124.68H168.172C169.912 124.68 171.332 126.1 171.332 127.84C171.332 129.59 169.912 131 168.162 131ZM101.452 125.68C100.262 125.68 99.2915 126.65 99.2915 127.84C99.2915 129.03 100.262 130 101.452 130H168.172C169.362 130 170.332 129.03 170.332 127.84C170.332 126.65 169.362 125.68 168.172 125.68H101.452Z" fill="black" fill-opacity="0.2"/>
<path d="M179.461 103.729C179.461 105.729 177.841 107.359 175.831 107.359H93.1312C91.1312 107.359 89.5112 105.739 89.5112 103.729V54.1493C89.5112 52.1493 91.1312 50.5293 93.1312 50.5293H175.831C177.831 50.5293 179.461 52.1493 179.461 54.1493V103.729Z" fill="#FF7723"/>
<path d="M175.831 107.859H93.1312C90.8612 107.859 89.0112 106.009 89.0112 103.729V54.1493C89.0112 51.8793 90.8612 50.0293 93.1312 50.0293H175.831C178.101 50.0293 179.961 51.8793 179.961 54.1493V103.729C179.961 106.009 178.111 107.859 175.831 107.859ZM93.1412 51.0293C91.4212 51.0293 90.0212 52.4293 90.0212 54.1493V103.729C90.0212 105.449 91.4212 106.859 93.1412 106.859H175.841C177.561 106.859 178.971 105.459 178.971 103.729V54.1493C178.971 52.4293 177.571 51.0293 175.841 51.0293H93.1412Z" fill="#627CEE"/>
<path d="M175.831 107.859H93.1312C90.8612 107.859 89.0112 106.009 89.0112 103.729V54.1493C89.0112 51.8793 90.8612 50.0293 93.1312 50.0293H175.831C178.101 50.0293 179.961 51.8793 179.961 54.1493V103.729C179.961 106.009 178.111 107.859 175.831 107.859ZM93.1412 51.0293C91.4212 51.0293 90.0212 52.4293 90.0212 54.1493V103.729C90.0212 105.449 91.4212 106.859 93.1412 106.859H175.841C177.561 106.859 178.971 105.459 178.971 103.729V54.1493C178.971 52.4293 177.571 51.0293 175.841 51.0293H93.1412Z" fill="black" fill-opacity="0.2"/>
<path d="M202.111 110.57C202.111 114.4 199.001 117.51 195.171 117.51H190.421C186.581 117.51 183.481 114.4 183.481 110.57V95.8101C183.481 91.9801 186.591 88.8701 190.421 88.8701H195.171C199.001 88.8701 202.111 91.9801 202.111 95.8101V110.57Z" fill="white"/>
<path d="M195.171 118.02H190.421C186.321 118.02 182.981 114.68 182.981 110.58V95.8199C182.981 91.7199 186.321 88.3799 190.421 88.3799H195.171C197.161 88.3799 199.031 89.1499 200.431 90.5599C201.841 91.9699 202.611 93.8299 202.611 95.8199V110.58C202.611 112.57 201.841 114.44 200.431 115.84C199.031 117.24 197.161 118.02 195.171 118.02ZM190.421 89.3699C186.871 89.3699 183.981 92.2599 183.981 95.8099V110.57C183.981 114.12 186.871 117.01 190.421 117.01H195.171C196.891 117.01 198.511 116.34 199.721 115.12C200.941 113.9 201.611 112.28 201.611 110.56V95.7999C201.611 94.0799 200.941 92.4599 199.721 91.2399C198.501 90.0199 196.891 89.3499 195.171 89.3499L190.421 89.3699Z" fill="#627CEE"/>
<path d="M195.171 118.02H190.421C186.321 118.02 182.981 114.68 182.981 110.58V95.8199C182.981 91.7199 186.321 88.3799 190.421 88.3799H195.171C197.161 88.3799 199.031 89.1499 200.431 90.5599C201.841 91.9699 202.611 93.8299 202.611 95.8199V110.58C202.611 112.57 201.841 114.44 200.431 115.84C199.031 117.24 197.161 118.02 195.171 118.02ZM190.421 89.3699C186.871 89.3699 183.981 92.2599 183.981 95.8099V110.57C183.981 114.12 186.871 117.01 190.421 117.01H195.171C196.891 117.01 198.511 116.34 199.721 115.12C200.941 113.9 201.611 112.28 201.611 110.56V95.7999C201.611 94.0799 200.941 92.4599 199.721 91.2399C198.501 90.0199 196.891 89.3499 195.171 89.3499L190.421 89.3699Z" fill="black" fill-opacity="0.2"/>
<path d="M195.201 97.3297C195.201 98.6597 194.121 99.7297 192.801 99.7297C191.481 99.7297 190.401 98.6597 190.401 97.3297C190.401 96.0097 191.481 94.9297 192.801 94.9297C194.121 94.9297 195.201 95.9997 195.201 97.3297Z" fill="#FF7723"/>
<path d="M192.801 100.23C191.201 100.23 189.901 98.9297 189.901 97.3297C189.901 95.7297 191.201 94.4297 192.801 94.4297C194.401 94.4297 195.701 95.7297 195.701 97.3297C195.701 98.0997 195.401 98.8297 194.851 99.3797C194.301 99.9297 193.571 100.23 192.801 100.23ZM192.801 99.2297C193.311 99.2297 193.791 99.0297 194.141 98.6697C194.501 98.3097 194.701 97.8297 194.701 97.3297C194.701 96.2797 193.851 95.4297 192.801 95.4297C191.751 95.4297 190.901 96.2797 190.901 97.3297C190.901 98.3797 191.751 99.2297 192.801 99.2297Z" fill="#627CEE"/>
<path d="M192.801 100.23C191.201 100.23 189.901 98.9297 189.901 97.3297C189.901 95.7297 191.201 94.4297 192.801 94.4297C194.401 94.4297 195.701 95.7297 195.701 97.3297C195.701 98.0997 195.401 98.8297 194.851 99.3797C194.301 99.9297 193.571 100.23 192.801 100.23ZM192.801 99.2297C193.311 99.2297 193.791 99.0297 194.141 98.6697C194.501 98.3097 194.701 97.8297 194.701 97.3297C194.701 96.2797 193.851 95.4297 192.801 95.4297C191.751 95.4297 190.901 96.2797 190.901 97.3297C190.901 98.3797 191.751 99.2297 192.801 99.2297Z" fill="black" fill-opacity="0.2"/>
<path d="M136.942 110.09C138.102 111.25 138.102 113.13 136.942 114.3C135.782 115.46 133.892 115.46 132.732 114.3C131.572 113.14 131.572 111.25 132.732 110.09C133.892 108.93 135.772 108.93 136.942 110.09Z" fill="#FF7723"/>
<path d="M134.831 115.669C133.941 115.669 133.051 115.329 132.371 114.649C131.021 113.289 131.021 111.089 132.371 109.729C133.731 108.379 135.931 108.379 137.291 109.729C138.641 111.079 138.641 113.289 137.291 114.639C136.611 115.329 135.721 115.669 134.831 115.669ZM134.831 109.719C134.201 109.719 133.561 109.959 133.081 110.439C132.121 111.399 132.121 112.979 133.081 113.939C134.041 114.899 135.621 114.899 136.581 113.939C137.541 112.979 137.541 111.409 136.581 110.439C136.101 109.959 135.461 109.719 134.831 109.719Z" fill="#627CEE"/>
<path d="M134.831 115.669C133.941 115.669 133.051 115.329 132.371 114.649C131.021 113.289 131.021 111.089 132.371 109.729C133.731 108.379 135.931 108.379 137.291 109.729C138.641 111.079 138.641 113.289 137.291 114.639C136.611 115.329 135.721 115.669 134.831 115.669ZM134.831 109.719C134.201 109.719 133.561 109.959 133.081 110.439C132.121 111.399 132.121 112.979 133.081 113.939C134.041 114.899 135.621 114.899 136.581 113.939C137.541 112.979 137.541 111.409 136.581 110.439C136.101 109.959 135.461 109.719 134.831 109.719Z" fill="black" fill-opacity="0.2"/>
<path d="M84.0213 126.149C84.0213 128.719 81.9313 130.809 79.3613 130.809H48.0413C45.4713 130.809 43.3813 128.719 43.3813 126.149V53.1395C43.3813 50.5695 45.4713 48.4795 48.0413 48.4795H79.3713C81.9413 48.4795 84.0313 50.5595 84.0313 53.1395V126.149H84.0213Z" fill="white"/>
<path d="M79.3713 131.309H48.0413C45.2013 131.309 42.8813 128.999 42.8813 126.149V53.1395C42.8813 50.2995 45.1913 47.9795 48.0413 47.9795H79.3713C82.2113 47.9795 84.5313 50.2895 84.5313 53.1395V126.159C84.5214 128.999 82.2113 131.309 79.3713 131.309ZM48.0413 48.9795C45.7513 48.9795 43.8813 50.8495 43.8813 53.1395V126.159C43.8813 128.449 45.7413 130.319 48.0413 130.319H79.3713C81.6613 130.319 83.5313 128.449 83.5313 126.159V53.1395C83.5313 50.8495 81.6713 48.9795 79.3713 48.9795H48.0413Z" fill="#627CEE"/>
<path d="M79.3713 131.309H48.0413C45.2013 131.309 42.8813 128.999 42.8813 126.149V53.1395C42.8813 50.2995 45.1913 47.9795 48.0413 47.9795H79.3713C82.2113 47.9795 84.5313 50.2895 84.5313 53.1395V126.159C84.5214 128.999 82.2113 131.309 79.3713 131.309ZM48.0413 48.9795C45.7513 48.9795 43.8813 50.8495 43.8813 53.1395V126.159C43.8813 128.449 45.7413 130.319 48.0413 130.319H79.3713C81.6613 130.319 83.5313 128.449 83.5313 126.159V53.1395C83.5313 50.8495 81.6713 48.9795 79.3713 48.9795H48.0413Z" fill="black" fill-opacity="0.2"/>
<path d="M79.641 56.2102C79.641 57.8502 78.311 59.1802 76.671 59.1802H50.741C49.101 59.1802 47.771 57.8502 47.771 56.2102C47.771 54.5702 49.101 53.2402 50.741 53.2402H76.671C78.311 53.2402 79.641 54.5702 79.641 56.2102Z" fill="#627CEE"/>
<path d="M79.641 56.2102C79.641 57.8502 78.311 59.1802 76.671 59.1802H50.741C49.101 59.1802 47.771 57.8502 47.771 56.2102C47.771 54.5702 49.101 53.2402 50.741 53.2402H76.671C78.311 53.2402 79.641 54.5702 79.641 56.2102Z" fill="black" fill-opacity="0.2"/>
<path d="M76.671 59.6802H50.741C48.821 59.6802 47.271 58.1202 47.271 56.2102C47.271 54.2902 48.831 52.7402 50.741 52.7402H76.671C78.591 52.7402 80.141 54.3002 80.141 56.2102C80.141 58.1302 78.581 59.6802 76.671 59.6802ZM50.741 53.7402C49.381 53.7402 48.271 54.8502 48.271 56.2102C48.271 57.5702 49.381 58.6802 50.741 58.6802H76.671C78.031 58.6802 79.141 57.5702 79.141 56.2102C79.141 54.8502 78.031 53.7402 76.671 53.7402H50.741Z" fill="#627CEE"/>
<path d="M76.671 59.6802H50.741C48.821 59.6802 47.271 58.1202 47.271 56.2102C47.271 54.2902 48.831 52.7402 50.741 52.7402H76.671C78.591 52.7402 80.141 54.3002 80.141 56.2102C80.141 58.1302 78.581 59.6802 76.671 59.6802ZM50.741 53.7402C49.381 53.7402 48.271 54.8502 48.271 56.2102C48.271 57.5702 49.381 58.6802 50.741 58.6802H76.671C78.031 58.6802 79.141 57.5702 79.141 56.2102C79.141 54.8502 78.031 53.7402 76.671 53.7402H50.741Z" fill="black" fill-opacity="0.2"/>
<path d="M79.641 66.2494C79.641 67.8894 78.311 69.2194 76.671 69.2194H50.741C49.101 69.2194 47.771 67.8894 47.771 66.2494C47.771 64.6094 49.101 63.2794 50.741 63.2794H76.671C78.311 63.2694 79.641 64.6094 79.641 66.2494Z" fill="#627CEE"/>
<path d="M79.641 66.2494C79.641 67.8894 78.311 69.2194 76.671 69.2194H50.741C49.101 69.2194 47.771 67.8894 47.771 66.2494C47.771 64.6094 49.101 63.2794 50.741 63.2794H76.671C78.311 63.2694 79.641 64.6094 79.641 66.2494Z" fill="black" fill-opacity="0.2"/>
<path d="M76.671 69.7193H50.741C48.821 69.7193 47.271 68.1593 47.271 66.2493C47.271 64.3293 48.831 62.7793 50.741 62.7793H76.671C78.591 62.7793 80.141 64.3393 80.141 66.2493C80.141 68.1593 78.581 69.7193 76.671 69.7193ZM50.741 63.7693C49.381 63.7693 48.271 64.8793 48.271 66.2393C48.271 67.5993 49.381 68.7093 50.741 68.7093H76.671C78.031 68.7093 79.141 67.5993 79.141 66.2393C79.141 64.8793 78.031 63.7693 76.671 63.7693H50.741Z" fill="#627CEE"/>
<path d="M76.671 69.7193H50.741C48.821 69.7193 47.271 68.1593 47.271 66.2493C47.271 64.3293 48.831 62.7793 50.741 62.7793H76.671C78.591 62.7793 80.141 64.3393 80.141 66.2493C80.141 68.1593 78.581 69.7193 76.671 69.7193ZM50.741 63.7693C49.381 63.7693 48.271 64.8793 48.271 66.2393C48.271 67.5993 49.381 68.7093 50.741 68.7093H76.671C78.031 68.7093 79.141 67.5993 79.141 66.2393C79.141 64.8793 78.031 63.7693 76.671 63.7693H50.741Z" fill="black" fill-opacity="0.2"/>
<path d="M79.641 76.2894C79.641 77.9294 78.311 79.2594 76.671 79.2594H50.741C49.101 79.2594 47.771 77.9294 47.771 76.2894C47.771 74.6494 49.101 73.3194 50.741 73.3194H76.671C78.311 73.3094 79.641 74.6494 79.641 76.2894Z" fill="#627CEE"/>
<path d="M79.641 76.2894C79.641 77.9294 78.311 79.2594 76.671 79.2594H50.741C49.101 79.2594 47.771 77.9294 47.771 76.2894C47.771 74.6494 49.101 73.3194 50.741 73.3194H76.671C78.311 73.3094 79.641 74.6494 79.641 76.2894Z" fill="black" fill-opacity="0.2"/>
<path d="M76.671 79.7593H50.741C48.821 79.7593 47.271 78.1993 47.271 76.2893C47.271 74.3693 48.831 72.8193 50.741 72.8193H76.671C78.591 72.8193 80.141 74.3793 80.141 76.2893C80.141 78.1993 78.581 79.7593 76.671 79.7593ZM50.741 73.8093C49.381 73.8093 48.271 74.9193 48.271 76.2793C48.271 77.6393 49.381 78.7493 50.741 78.7493H76.671C78.031 78.7493 79.141 77.6393 79.141 76.2793C79.141 74.9193 78.031 73.8093 76.671 73.8093H50.741Z" fill="#627CEE"/>
<path d="M76.671 79.7593H50.741C48.821 79.7593 47.271 78.1993 47.271 76.2893C47.271 74.3693 48.831 72.8193 50.741 72.8193H76.671C78.591 72.8193 80.141 74.3793 80.141 76.2893C80.141 78.1993 78.581 79.7593 76.671 79.7593ZM50.741 73.8093C49.381 73.8093 48.271 74.9193 48.271 76.2793C48.271 77.6393 49.381 78.7493 50.741 78.7493H76.671C78.031 78.7493 79.141 77.6393 79.141 76.2793C79.141 74.9193 78.031 73.8093 76.671 73.8093H50.741Z" fill="black" fill-opacity="0.2"/>
<path d="M78.3517 122.809C78.3517 124.279 77.1617 125.469 75.6917 125.469C74.2217 125.469 73.0317 124.279 73.0317 122.809C73.0317 121.339 74.2217 120.149 75.6917 120.149C77.1617 120.149 78.3517 121.339 78.3517 122.809Z" fill="#FF7723"/>
<path d="M75.6917 125.969C73.9517 125.969 72.5317 124.549 72.5317 122.809C72.5317 121.069 73.9517 119.649 75.6917 119.649C77.4317 119.649 78.8517 121.069 78.8517 122.809C78.8517 124.549 77.4317 125.969 75.6917 125.969ZM75.6917 120.649C74.5017 120.649 73.5317 121.619 73.5317 122.809C73.5317 123.999 74.5017 124.969 75.6917 124.969C76.8817 124.969 77.8517 123.999 77.8517 122.809C77.8517 121.619 76.8817 120.649 75.6917 120.649Z" fill="#627CEE"/>
<path d="M75.6917 125.969C73.9517 125.969 72.5317 124.549 72.5317 122.809C72.5317 121.069 73.9517 119.649 75.6917 119.649C77.4317 119.649 78.8517 121.069 78.8517 122.809C78.8517 124.549 77.4317 125.969 75.6917 125.969ZM75.6917 120.649C74.5017 120.649 73.5317 121.619 73.5317 122.809C73.5317 123.999 74.5017 124.969 75.6917 124.969C76.8817 124.969 77.8517 123.999 77.8517 122.809C77.8517 121.619 76.8817 120.649 75.6917 120.649Z" fill="black" fill-opacity="0.2"/>
<path d="M179.461 55.6895H89.5112V102.189H179.461V55.6895Z" fill="#F6C1A0"/>
<path d="M179.461 102.689H89.5112C89.2312 102.689 89.0112 102.469 89.0112 102.189V55.6895C89.0112 55.4095 89.2312 55.1895 89.5112 55.1895H179.461C179.741 55.1895 179.961 55.4095 179.961 55.6895V102.189C179.961 102.459 179.741 102.689 179.461 102.689ZM90.0112 101.689H178.961V56.1895H90.0112V101.689Z" fill="#627CEE"/>
<path d="M179.461 102.689H89.5112C89.2312 102.689 89.0112 102.469 89.0112 102.189V55.6895C89.0112 55.4095 89.2312 55.1895 89.5112 55.1895H179.461C179.741 55.1895 179.961 55.4095 179.961 55.6895V102.189C179.961 102.459 179.741 102.689 179.461 102.689ZM90.0112 101.689H178.961V56.1895H90.0112V101.689Z" fill="black" fill-opacity="0.2"/>
<path d="M129.741 59.3496H97.5112V97.3496H129.741V59.3496Z" fill="white"/>
<path d="M129.741 97.8398H97.5112C97.2312 97.8398 97.0112 97.6198 97.0112 97.3398V59.3398C97.0112 59.0598 97.2312 58.8398 97.5112 58.8398H129.741C130.021 58.8398 130.241 59.0598 130.241 59.3398V97.3398C130.241 97.6198 130.011 97.8398 129.741 97.8398ZM98.0112 96.8398H129.241V59.8398H98.0112V96.8398Z" fill="#627CEE"/>
<path d="M129.741 97.8398H97.5112C97.2312 97.8398 97.0112 97.6198 97.0112 97.3398V59.3398C97.0112 59.0598 97.2312 58.8398 97.5112 58.8398H129.741C130.021 58.8398 130.241 59.0598 130.241 59.3398V97.3398C130.241 97.6198 130.011 97.8398 129.741 97.8398ZM98.0112 96.8398H129.241V59.8398H98.0112V96.8398Z" fill="black" fill-opacity="0.2"/>
<path d="M123.292 63.7695H102.282C102.002 63.7695 101.782 63.5495 101.782 63.2695C101.782 62.9895 102.002 62.7695 102.282 62.7695H123.292C123.572 62.7695 123.792 62.9895 123.792 63.2695C123.792 63.5495 123.572 63.7695 123.292 63.7695Z" fill="#627CEE"/>
<path d="M123.292 63.7695H102.282C102.002 63.7695 101.782 63.5495 101.782 63.2695C101.782 62.9895 102.002 62.7695 102.282 62.7695H123.292C123.572 62.7695 123.792 62.9895 123.792 63.2695C123.792 63.5495 123.572 63.7695 123.292 63.7695Z" fill="black" fill-opacity="0.2"/>
<path d="M123.292 67.8496H102.282C102.002 67.8496 101.782 67.6296 101.782 67.3496C101.782 67.0696 102.002 66.8496 102.282 66.8496H123.292C123.572 66.8496 123.792 67.0696 123.792 67.3496C123.792 67.6296 123.572 67.8496 123.292 67.8496Z" fill="#627CEE"/>
<path d="M123.292 67.8496H102.282C102.002 67.8496 101.782 67.6296 101.782 67.3496C101.782 67.0696 102.002 66.8496 102.282 66.8496H123.292C123.572 66.8496 123.792 67.0696 123.792 67.3496C123.792 67.6296 123.572 67.8496 123.292 67.8496Z" fill="black" fill-opacity="0.2"/>
<path d="M123.292 71.9297H102.282C102.002 71.9297 101.782 71.7097 101.782 71.4297C101.782 71.1497 102.002 70.9297 102.282 70.9297H123.292C123.572 70.9297 123.792 71.1497 123.792 71.4297C123.792 71.7097 123.572 71.9297 123.292 71.9297Z" fill="#627CEE"/>
<path d="M123.292 71.9297H102.282C102.002 71.9297 101.782 71.7097 101.782 71.4297C101.782 71.1497 102.002 70.9297 102.282 70.9297H123.292C123.572 70.9297 123.792 71.1497 123.792 71.4297C123.792 71.7097 123.572 71.9297 123.292 71.9297Z" fill="black" fill-opacity="0.2"/>
<path d="M123.292 76.0098H102.282C102.002 76.0098 101.782 75.7898 101.782 75.5098C101.782 75.2298 102.002 75.0098 102.282 75.0098H123.292C123.572 75.0098 123.792 75.2298 123.792 75.5098C123.792 75.7898 123.572 76.0098 123.292 76.0098Z" fill="#627CEE"/>
<path d="M123.292 76.0098H102.282C102.002 76.0098 101.782 75.7898 101.782 75.5098C101.782 75.2298 102.002 75.0098 102.282 75.0098H123.292C123.572 75.0098 123.792 75.2298 123.792 75.5098C123.792 75.7898 123.572 76.0098 123.292 76.0098Z" fill="black" fill-opacity="0.2"/>
<path d="M123.292 80.0898H102.282C102.002 80.0898 101.782 79.8698 101.782 79.5898C101.782 79.3098 102.002 79.0898 102.282 79.0898H123.292C123.572 79.0898 123.792 79.3098 123.792 79.5898C123.792 79.8598 123.572 80.0898 123.292 80.0898Z" fill="#627CEE"/>
<path d="M123.292 80.0898H102.282C102.002 80.0898 101.782 79.8698 101.782 79.5898C101.782 79.3098 102.002 79.0898 102.282 79.0898H123.292C123.572 79.0898 123.792 79.3098 123.792 79.5898C123.792 79.8598 123.572 80.0898 123.292 80.0898Z" fill="black" fill-opacity="0.2"/>
<path d="M123.292 84.1602H102.282C102.002 84.1602 101.782 83.9402 101.782 83.6602C101.782 83.3802 102.002 83.1602 102.282 83.1602H123.292C123.572 83.1602 123.792 83.3802 123.792 83.6602C123.792 83.9402 123.572 84.1602 123.292 84.1602Z" fill="#627CEE"/>
<path d="M123.292 84.1602H102.282C102.002 84.1602 101.782 83.9402 101.782 83.6602C101.782 83.3802 102.002 83.1602 102.282 83.1602H123.292C123.572 83.1602 123.792 83.3802 123.792 83.6602C123.792 83.9402 123.572 84.1602 123.292 84.1602Z" fill="black" fill-opacity="0.2"/>
<path d="M123.292 88.2402H102.282C102.002 88.2402 101.782 88.0202 101.782 87.7402C101.782 87.4602 102.002 87.2402 102.282 87.2402H123.292C123.572 87.2402 123.792 87.4602 123.792 87.7402C123.792 88.0202 123.572 88.2402 123.292 88.2402Z" fill="#627CEE"/>
<path d="M123.292 88.2402H102.282C102.002 88.2402 101.782 88.0202 101.782 87.7402C101.782 87.4602 102.002 87.2402 102.282 87.2402H123.292C123.572 87.2402 123.792 87.4602 123.792 87.7402C123.792 88.0202 123.572 88.2402 123.292 88.2402Z" fill="black" fill-opacity="0.2"/>
<path d="M117.282 92.3193H102.282C102.002 92.3193 101.782 92.0993 101.782 91.8193C101.782 91.5393 102.002 91.3193 102.282 91.3193H117.282C117.562 91.3193 117.782 91.5393 117.782 91.8193C117.782 92.0993 117.562 92.3193 117.282 92.3193Z" fill="#627CEE"/>
<path d="M117.282 92.3193H102.282C102.002 92.3193 101.782 92.0993 101.782 91.8193C101.782 91.5393 102.002 91.3193 102.282 91.3193H117.282C117.562 91.3193 117.782 91.5393 117.782 91.8193C117.782 92.0993 117.562 92.3193 117.282 92.3193Z" fill="black" fill-opacity="0.2"/>
<path d="M170.671 59.3496H138.441V76.2896H170.671V59.3496Z" fill="#FF7723"/>
<path d="M170.671 76.7896H138.441C138.161 76.7896 137.941 76.5696 137.941 76.2896V59.3496C137.941 59.0696 138.161 58.8496 138.441 58.8496H170.671C170.951 58.8496 171.171 59.0696 171.171 59.3496V76.2896C171.171 76.5596 170.941 76.7896 170.671 76.7896ZM138.941 75.7896H170.171V59.8496H138.941V75.7896Z" fill="#627CEE"/>
<path d="M170.671 76.7896H138.441C138.161 76.7896 137.941 76.5696 137.941 76.2896V59.3496C137.941 59.0696 138.161 58.8496 138.441 58.8496H170.671C170.951 58.8496 171.171 59.0696 171.171 59.3496V76.2896C171.171 76.5596 170.941 76.7896 170.671 76.7896ZM138.941 75.7896H170.171V59.8496H138.941V75.7896Z" fill="black" fill-opacity="0.2"/>
<path d="M170.671 80.3994H138.441V97.3394H170.671V80.3994Z" fill="#0BCA6C"/>
<path d="M170.671 97.8394H138.441C138.161 97.8394 137.941 97.6194 137.941 97.3394V80.3994C137.941 80.1194 138.161 79.8994 138.441 79.8994H170.671C170.951 79.8994 171.171 80.1194 171.171 80.3994V97.3394C171.171 97.6194 170.941 97.8394 170.671 97.8394ZM138.941 96.8394H170.171V80.8994H138.941V96.8394Z" fill="#627CEE"/>
<path d="M170.671 97.8394H138.441C138.161 97.8394 137.941 97.6194 137.941 97.3394V80.3994C137.941 80.1194 138.161 79.8994 138.441 79.8994H170.671C170.951 79.8994 171.171 80.1194 171.171 80.3994V97.3394C171.171 97.6194 170.941 97.8394 170.671 97.8394ZM138.941 96.8394H170.171V80.8994H138.941V96.8394Z" fill="black" fill-opacity="0.2"/>
<path d="M205.931 73.6702H198.001V65.7402H205.931V73.6702ZM199.011 72.6702H204.941V66.7402H199.011V72.6702Z" fill="white"/>
<path d="M192.801 87.83C192.521 87.83 192.301 87.61 192.301 87.33V66.75H183.481C183.201 66.75 182.981 66.53 182.981 66.25C182.981 65.97 183.201 65.75 183.481 65.75H192.801C193.081 65.75 193.301 65.97 193.301 66.25V87.33C193.301 87.6 193.071 87.83 192.801 87.83Z" fill="white"/>
<path d="M191.912 149.42H180.242C179.962 149.42 179.742 149.2 179.742 148.92C179.742 148.64 179.962 148.42 180.242 148.42H191.412V128.34H173.452C173.172 128.34 172.952 128.12 172.952 127.84C172.952 127.56 173.172 127.34 173.452 127.34H191.912C192.192 127.34 192.412 127.56 192.412 127.84V148.92C192.412 149.2 192.182 149.42 191.912 149.42Z" fill="white"/>
<path d="M87.4609 145.73H75.6909C75.4109 145.73 75.1909 145.51 75.1909 145.23V132.04C75.1909 131.76 75.4109 131.54 75.6909 131.54C75.9709 131.54 76.1909 131.76 76.1909 132.04V144.73H86.9609V127.84C86.9609 127.56 87.1809 127.34 87.4609 127.34H96.0509C96.3309 127.34 96.5509 127.56 96.5509 127.84C96.5509 128.12 96.3309 128.34 96.0509 128.34H87.9609V145.23C87.9609 145.51 87.7409 145.73 87.4609 145.73Z" fill="white"/>
<path d="M207.162 76.1201H203.702V79.5801H207.162V76.1201Z" fill="#F6C1A0"/>
<path d="M192.122 121.069H188.662V124.529H192.122V121.069Z" fill="#FF7723"/>
<path d="M115.361 25.79H111.051V30.1H115.361V25.79Z" fill="white"/>
<path d="M104.901 23.7493H96.9712V15.8193H104.901V23.7493ZM97.9812 22.7493H103.911V16.8193H97.9812V22.7493Z" fill="#627CEE"/>
<path d="M104.901 23.7493H96.9712V15.8193H104.901V23.7493ZM97.9812 22.7493H103.911V16.8193H97.9812V22.7493Z" fill="black" fill-opacity="0.2"/>
<path d="M95.2309 23.6299H91.9009V26.9599H95.2309V23.6299Z" fill="#0BCA6C"/>
<path d="M205.262 155.53H197.332V147.6H205.262V155.53ZM198.342 154.53H204.272V148.6H198.342V154.53Z" fill="#0BCA6C"/>
<path d="M195.591 155.41H192.261V158.74H195.591V155.41Z" fill="#627CEE"/>
<path d="M195.591 155.41H192.261V158.74H195.591V155.41Z" fill="black" fill-opacity="0.2"/>
<path d="M117.792 26.29H117.292C117.012 26.29 116.792 26.07 116.792 25.79C116.792 25.51 117.012 25.29 117.292 25.29H117.792C118.072 25.29 118.292 25.51 118.292 25.79C118.292 26.07 118.072 26.29 117.792 26.29Z" fill="white"/>
<path d="M177.272 26.29H176.282C176.002 26.29 175.782 26.07 175.782 25.79C175.782 25.51 176.002 25.29 176.282 25.29H177.272C177.552 25.29 177.772 25.51 177.772 25.79C177.772 26.07 177.552 26.29 177.272 26.29ZM174.302 26.29H173.312C173.032 26.29 172.812 26.07 172.812 25.79C172.812 25.51 173.032 25.29 173.312 25.29H174.302C174.582 25.29 174.802 25.51 174.802 25.79C174.802 26.07 174.572 26.29 174.302 26.29ZM171.322 26.29H170.332C170.052 26.29 169.832 26.07 169.832 25.79C169.832 25.51 170.052 25.29 170.332 25.29H171.322C171.602 25.29 171.822 25.51 171.822 25.79C171.822 26.07 171.602 26.29 171.322 26.29ZM168.352 26.29H167.362C167.082 26.29 166.862 26.07 166.862 25.79C166.862 25.51 167.082 25.29 167.362 25.29H168.352C168.632 25.29 168.852 25.51 168.852 25.79C168.852 26.07 168.622 26.29 168.352 26.29ZM165.372 26.29H164.382C164.102 26.29 163.882 26.07 163.882 25.79C163.882 25.51 164.102 25.29 164.382 25.29H165.372C165.652 25.29 165.872 25.51 165.872 25.79C165.872 26.07 165.652 26.29 165.372 26.29ZM162.402 26.29H161.412C161.132 26.29 160.912 26.07 160.912 25.79C160.912 25.51 161.132 25.29 161.412 25.29H162.402C162.682 25.29 162.902 25.51 162.902 25.79C162.902 26.07 162.682 26.29 162.402 26.29ZM159.432 26.29H158.442C158.162 26.29 157.942 26.07 157.942 25.79C157.942 25.51 158.162 25.29 158.442 25.29H159.432C159.712 25.29 159.932 25.51 159.932 25.79C159.932 26.07 159.702 26.29 159.432 26.29ZM156.452 26.29H155.462C155.182 26.29 154.962 26.07 154.962 25.79C154.962 25.51 155.182 25.29 155.462 25.29H156.452C156.732 25.29 156.952 25.51 156.952 25.79C156.952 26.07 156.732 26.29 156.452 26.29ZM153.482 26.29H152.492C152.212 26.29 151.992 26.07 151.992 25.79C151.992 25.51 152.212 25.29 152.492 25.29H153.482C153.762 25.29 153.982 25.51 153.982 25.79C153.982 26.07 153.752 26.29 153.482 26.29ZM150.502 26.29H149.512C149.232 26.29 149.012 26.07 149.012 25.79C149.012 25.51 149.232 25.29 149.512 25.29H150.502C150.782 25.29 151.002 25.51 151.002 25.79C151.002 26.07 150.782 26.29 150.502 26.29ZM147.532 26.29H146.542C146.262 26.29 146.042 26.07 146.042 25.79C146.042 25.51 146.262 25.29 146.542 25.29H147.532C147.812 25.29 148.032 25.51 148.032 25.79C148.032 26.07 147.812 26.29 147.532 26.29ZM144.562 26.29H143.572C143.292 26.29 143.072 26.07 143.072 25.79C143.072 25.51 143.292 25.29 143.572 25.29H144.562C144.842 25.29 145.062 25.51 145.062 25.79C145.062 26.07 144.832 26.29 144.562 26.29ZM141.582 26.29H140.592C140.312 26.29 140.092 26.07 140.092 25.79C140.092 25.51 140.312 25.29 140.592 25.29H141.582C141.862 25.29 142.082 25.51 142.082 25.79C142.082 26.07 141.862 26.29 141.582 26.29ZM138.612 26.29H137.622C137.342 26.29 137.122 26.07 137.122 25.79C137.122 25.51 137.342 25.29 137.622 25.29H138.612C138.892 25.29 139.112 25.51 139.112 25.79C139.112 26.07 138.882 26.29 138.612 26.29ZM135.632 26.29H134.642C134.362 26.29 134.142 26.07 134.142 25.79C134.142 25.51 134.362 25.29 134.642 25.29H135.632C135.912 25.29 136.132 25.51 136.132 25.79C136.132 26.07 135.912 26.29 135.632 26.29ZM132.662 26.29H131.672C131.392 26.29 131.172 26.07 131.172 25.79C131.172 25.51 131.392 25.29 131.672 25.29H132.662C132.942 25.29 133.162 25.51 133.162 25.79C133.162 26.07 132.942 26.29 132.662 26.29ZM129.692 26.29H128.702C128.422 26.29 128.202 26.07 128.202 25.79C128.202 25.51 128.422 25.29 128.702 25.29H129.692C129.972 25.29 130.192 25.51 130.192 25.79C130.192 26.07 129.962 26.29 129.692 26.29ZM126.712 26.29H125.722C125.442 26.29 125.222 26.07 125.222 25.79C125.222 25.51 125.442 25.29 125.722 25.29H126.712C126.992 25.29 127.212 25.51 127.212 25.79C127.212 26.07 126.992 26.29 126.712 26.29ZM123.742 26.29H122.752C122.472 26.29 122.252 26.07 122.252 25.79C122.252 25.51 122.472 25.29 122.752 25.29H123.742C124.022 25.29 124.242 25.51 124.242 25.79C124.242 26.07 124.022 26.29 123.742 26.29ZM120.772 26.29H119.782C119.502 26.29 119.282 26.07 119.282 25.79C119.282 25.51 119.502 25.29 119.782 25.29H120.772C121.052 25.29 121.272 25.51 121.272 25.79C121.272 26.07 121.042 26.29 120.772 26.29Z" fill="white"/>
<path d="M179.751 26.29H179.251C178.971 26.29 178.751 26.07 178.751 25.79C178.751 25.51 178.971 25.29 179.251 25.29H179.751C180.031 25.29 180.251 25.51 180.251 25.79C180.251 26.07 180.031 26.29 179.751 26.29Z" fill="white"/>
<path d="M43.8813 42.2197H43.3813C43.1013 42.2197 42.8813 41.9997 42.8813 41.7197C42.8813 41.4397 43.1013 41.2197 43.3813 41.2197H43.8813C44.1613 41.2197 44.3813 41.4397 44.3813 41.7197C44.3813 41.9997 44.1613 42.2197 43.8813 42.2197Z" fill="#C48CDF"/>
<path d="M94.2211 42.2197H93.2311C92.9511 42.2197 92.7311 41.9997 92.7311 41.7197C92.7311 41.4397 92.9511 41.2197 93.2311 41.2197H94.2211C94.5011 41.2197 94.7211 41.4397 94.7211 41.7197C94.7211 41.9997 94.5011 42.2197 94.2211 42.2197ZM91.2611 42.2197H90.2711C89.9911 42.2197 89.7711 41.9997 89.7711 41.7197C89.7711 41.4397 89.9911 41.2197 90.2711 41.2197H91.2611C91.5411 41.2197 91.7611 41.4397 91.7611 41.7197C91.7611 41.9997 91.5311 42.2197 91.2611 42.2197ZM88.3011 42.2197H87.3111C87.0311 42.2197 86.8111 41.9997 86.8111 41.7197C86.8111 41.4397 87.0311 41.2197 87.3111 41.2197H88.3011C88.5811 41.2197 88.8011 41.4397 88.8011 41.7197C88.8011 41.9997 88.5711 42.2197 88.3011 42.2197ZM85.3411 42.2197H84.3511C84.0711 42.2197 83.8511 41.9997 83.8511 41.7197C83.8511 41.4397 84.0711 41.2197 84.3511 41.2197H85.3411C85.6211 41.2197 85.8411 41.4397 85.8411 41.7197C85.8411 41.9997 85.6111 42.2197 85.3411 42.2197ZM82.3811 42.2197H81.3911C81.1111 42.2197 80.8911 41.9997 80.8911 41.7197C80.8911 41.4397 81.1111 41.2197 81.3911 41.2197H82.3811C82.6611 41.2197 82.8811 41.4397 82.8811 41.7197C82.8811 41.9997 82.6511 42.2197 82.3811 42.2197ZM79.4111 42.2197H78.4211C78.1411 42.2197 77.9211 41.9997 77.9211 41.7197C77.9211 41.4397 78.1411 41.2197 78.4211 41.2197H79.4111C79.6911 41.2197 79.9111 41.4397 79.9111 41.7197C79.9111 41.9997 79.6911 42.2197 79.4111 42.2197ZM76.4511 42.2197H75.4611C75.1811 42.2197 74.9611 41.9997 74.9611 41.7197C74.9611 41.4397 75.1811 41.2197 75.4611 41.2197H76.4511C76.7311 41.2197 76.9511 41.4397 76.9511 41.7197C76.9511 41.9997 76.7311 42.2197 76.4511 42.2197ZM73.4911 42.2197H72.5011C72.2211 42.2197 72.0011 41.9997 72.0011 41.7197C72.0011 41.4397 72.2211 41.2197 72.5011 41.2197H73.4911C73.7711 41.2197 73.9911 41.4397 73.9911 41.7197C73.9911 41.9997 73.7711 42.2197 73.4911 42.2197ZM70.5311 42.2197H69.5411C69.2611 42.2197 69.0411 41.9997 69.0411 41.7197C69.0411 41.4397 69.2611 41.2197 69.5411 41.2197H70.5311C70.8111 41.2197 71.0311 41.4397 71.0311 41.7197C71.0311 41.9997 70.8111 42.2197 70.5311 42.2197ZM67.5711 42.2197H66.5811C66.3011 42.2197 66.0811 41.9997 66.0811 41.7197C66.0811 41.4397 66.3011 41.2197 66.5811 41.2197H67.5711C67.8511 41.2197 68.0711 41.4397 68.0711 41.7197C68.0711 41.9997 67.8511 42.2197 67.5711 42.2197ZM64.6111 42.2197H63.6211C63.3411 42.2197 63.1211 41.9997 63.1211 41.7197C63.1211 41.4397 63.3411 41.2197 63.6211 41.2197H64.6111C64.8911 41.2197 65.1111 41.4397 65.1111 41.7197C65.1111 41.9997 64.8911 42.2197 64.6111 42.2197ZM61.6511 42.2197H60.6611C60.3811 42.2197 60.1611 41.9997 60.1611 41.7197C60.1611 41.4397 60.3811 41.2197 60.6611 41.2197H61.6511C61.9311 41.2197 62.1511 41.4397 62.1511 41.7197C62.1511 41.9997 61.9311 42.2197 61.6511 42.2197ZM58.6911 42.2197H57.7011C57.4211 42.2197 57.2011 41.9997 57.2011 41.7197C57.2011 41.4397 57.4211 41.2197 57.7011 41.2197H58.6911C58.9711 41.2197 59.1911 41.4397 59.1911 41.7197C59.1911 41.9997 58.9711 42.2197 58.6911 42.2197ZM55.7311 42.2197H54.7411C54.4611 42.2197 54.2411 41.9997 54.2411 41.7197C54.2411 41.4397 54.4611 41.2197 54.7411 41.2197H55.7311C56.0111 41.2197 56.2311 41.4397 56.2311 41.7197C56.2311 41.9997 56.0011 42.2197 55.7311 42.2197ZM52.7711 42.2197H51.7811C51.5011 42.2197 51.2811 41.9997 51.2811 41.7197C51.2811 41.4397 51.5011 41.2197 51.7811 41.2197H52.7711C53.0511 41.2197 53.2711 41.4397 53.2711 41.7197C53.2711 41.9997 53.0411 42.2197 52.7711 42.2197ZM49.8111 42.2197H48.8211C48.5411 42.2197 48.3211 41.9997 48.3211 41.7197C48.3211 41.4397 48.5411 41.2197 48.8211 41.2197H49.8111C50.0911 41.2197 50.3111 41.4397 50.3111 41.7197C50.3111 41.9997 50.0811 42.2197 49.8111 42.2197ZM46.8411 42.2197H45.8511C45.5711 42.2197 45.3511 41.9997 45.3511 41.7197C45.3511 41.4397 45.5711 41.2197 45.8511 41.2197H46.8411C47.1211 41.2197 47.3411 41.4397 47.3411 41.7197C47.3411 41.9997 47.1211 42.2197 46.8411 42.2197Z" fill="#C48CDF"/>
<path d="M96.6909 42.2197H96.1909C95.9109 42.2197 95.6909 41.9997 95.6909 41.7197C95.6909 41.4397 95.9109 41.2197 96.1909 41.2197H96.6909C96.9709 41.2197 97.1909 41.4397 97.1909 41.7197C97.1909 41.9997 96.9709 42.2197 96.6909 42.2197Z" fill="#C48CDF"/>
<path d="M72.3817 145.81H64.4517V137.88H72.3817V145.81ZM65.4617 144.81H71.3917V138.88H65.4617V144.81Z" fill="#F6C1A0"/>
<path d="M62.7113 145.689H59.3813V149.019H62.7113V145.689Z" fill="#FF7723"/>
</g>
<defs>
<filter id="filter0_d_360_13521" x="-3.80322" y="-4" width="277.803" height="202.39" filterUnits="userSpaceOnUse" color-interpolation-filters="sRGB">
<feFlood flood-opacity="0" result="BackgroundImageFix"/>
<feColorMatrix in="SourceAlpha" type="matrix" values="0 0 0 0 0 0 0 0 0 0 0 0 0 0 0 0 0 0 127 0" result="hardAlpha"/>
<feOffset/>
<feGaussianBlur stdDeviation="2"/>
<feComposite in2="hardAlpha" operator="out"/>
<feColorMatrix type="matrix" values="0 0 0 0 0 0 0 0 0 0 0 0 0 0 0 0 0 0 0.25 0"/>
<feBlend mode="normal" in2="BackgroundImageFix" result="effect1_dropShadow_360_13521"/>
<feBlend mode="normal" in="SourceGraphic" in2="effect1_dropShadow_360_13521" result="shape"/>
</filter>
</defs>
</svg>
