<svg width="41" height="40" viewBox="0 0 41 40" fill="none" xmlns="http://www.w3.org/2000/svg">
<g clip-path="url(#clip0_272_9447)">
<g clip-path="url(#clip1_272_9447)">
<path d="M19.25 0C20.0833 0 20.9167 0 21.75 0C21.8667 0.0166667 21.9833 0.05 22.0833 0.0666667C22.85 0.166667 23.6333 0.233333 24.4 0.383333C35.0167 2.48333 42.05 12.7333 40.2 23.4C38.5833 32.6667 30.7833 39.5667 21.4167 39.9667C16.5333 40.1833 12.1 38.8 8.25 35.7833C4.2 32.6167 1.7 28.4833 0.8 23.4C0.666667 22.7 0.6 21.9667 0.5 21.25C0.5 20.4167 0.5 19.5833 0.5 18.75C0.55 18.2667 0.6 17.8 0.666667 17.3167C1.25 13.25 2.88333 9.66667 5.63333 6.63333C8.71667 3.21667 12.5333 1.1 17.0833 0.3C17.8 0.183333 18.5333 0.1 19.25 0ZM9.01667 8.23333C9.13333 8.41667 9.18333 8.51667 9.26667 8.61667C12.0833 12.7167 14.9167 16.8333 17.7333 20.9333C17.9167 21.2 17.9333 21.3667 17.7 21.6167C14.9 24.85 12.1 28.1 9.31667 31.35C9.23333 31.45 9.15 31.55 9 31.7167C9.61667 31.7167 10.1333 31.7 10.65 31.7167C10.9333 31.7333 11.1 31.6333 11.2833 31.4167C13.7167 28.5667 16.1667 25.7333 18.6167 22.8833C18.7 22.7833 18.7833 22.7 18.8833 22.6C19 22.7667 19.1 22.9 19.1833 23.0333C21.1 25.8167 23.0167 28.6 24.9333 31.4C25.0833 31.6333 25.25 31.7167 25.5333 31.7167C27.5333 31.7 29.55 31.7167 31.55 31.7167C31.6667 31.7167 31.8 31.7 31.9833 31.7C28.8667 27.1667 25.7833 22.6667 22.7 18.1833C25.55 14.8833 28.3667 11.5833 31.2667 8.23333C30.6333 8.23333 30.1167 8.25 29.6 8.23333C29.3333 8.21667 29.1667 8.31667 29 8.51667C27.6333 10.1167 26.2667 11.7 24.9 13.2833C23.8667 14.4833 22.85 15.6667 21.8 16.8833C21.6667 16.7 21.5667 16.5333 21.45 16.3833C19.6667 13.7833 17.8667 11.1667 16.0833 8.56667C15.9333 8.33333 15.7667 8.23333 15.4833 8.25C14.0333 8.26667 12.6 8.25 11.15 8.25C10.4667 8.23333 9.78333 8.23333 9.01667 8.23333Z" fill="white"/>
<path d="M29.2166 30.2835C28.5499 30.2835 27.9499 30.2168 27.3666 30.3002C26.4166 30.4335 25.8999 30.0335 25.3666 29.2668C20.9499 22.8835 16.4999 16.5335 12.0499 10.1835C11.9833 10.0668 11.8999 9.95016 11.7666 9.76682C12.2499 9.76682 12.6666 9.76682 13.0833 9.76682C13.6833 9.76682 14.3666 9.60016 14.8499 9.85016C15.3166 10.0835 15.5666 10.7502 15.8999 11.2168C20.2499 17.4335 24.5833 23.6502 28.9333 29.8668C29.0166 29.9835 29.0833 30.1002 29.2166 30.2835Z" fill="white"/>
</g>
</g>
<defs>
<clipPath id="clip0_272_9447">
<rect width="40" height="40" fill="white" transform="translate(0.5)"/>
</clipPath>
<clipPath id="clip1_272_9447">
<rect width="40" height="40" fill="white" transform="translate(0.5)"/>
</clipPath>
</defs>
</svg>
