<svg width="209" height="209" viewBox="0 0 209 209" fill="none" xmlns="http://www.w3.org/2000/svg">
<path d="M209 104.499C209 128.47 200.931 150.553 187.354 168.184C185.275 170.891 183.063 173.492 180.729 175.98C161.665 196.304 134.564 209 104.499 209C74.4361 209 47.3352 196.304 28.2714 175.98C25.9373 173.494 23.7251 170.893 21.6439 168.187C8.06933 150.555 0 128.47 0 104.499C0 46.7856 46.7856 0 104.499 0C162.214 0 209 46.7856 209 104.499Z" fill="#DFEAEF"/>
<path d="M187.354 168.185C185.275 170.892 183.063 173.492 180.729 175.981C161.665 196.305 134.564 209.001 104.499 209.001C74.4362 209.001 47.3353 196.305 28.2715 175.981C25.9374 173.495 23.7252 170.894 21.644 168.187C22.7732 163.889 24.1161 159.541 27.0389 156.227C30.7896 151.98 36.4926 150.14 41.9128 148.477C54.9861 144.469 68.0571 140.463 81.1303 136.453C82.3537 133.222 83.5725 128.232 83.9635 120.769C81.0614 117.476 78.6307 113.864 77.3751 110.72C75.3491 105.659 74.9168 100.841 74.8961 97.7985C74.3833 98.7368 73.1622 99.2266 72.0883 99.0242C70.8856 98.7966 69.9082 97.8698 69.3333 96.7936C68.7561 95.7174 68.5216 94.4917 68.3284 93.2867C67.6477 89.0853 67.3511 84.8241 67.4408 80.5699C67.4776 78.7555 67.8731 76.5386 69.5886 75.9545C70.3912 75.6832 71.2834 75.8786 72.0239 76.3041C71.6399 67.7794 71.6583 62.6697 72.0791 54.145C72.2952 49.7827 72.6609 45.2616 74.8064 41.4581C76.7887 37.942 80.1185 35.2882 83.814 33.6647C85.7916 32.7978 87.8797 32.0918 89.9424 31.5215C99.8584 28.7781 110.37 28.8217 120.21 31.8365C121.875 32.3447 123.556 32.9495 125.186 33.6647C128.882 35.2882 132.212 37.942 134.192 41.4581C136.337 45.2616 136.705 49.7827 136.921 54.145C137.342 62.6697 137.36 67.7794 136.976 76.3041C137.717 75.8786 138.609 75.6832 139.409 75.9545C141.127 76.5386 141.523 78.7555 141.559 80.5699C141.649 84.8241 141.353 89.0853 140.672 93.2867C140.479 94.4917 140.244 95.7174 139.667 96.7936C139.09 97.8698 138.112 98.7966 136.912 99.0242C135.838 99.2266 134.615 98.7368 134.102 97.7985C134.081 100.841 133.651 105.659 131.625 110.72C130.37 113.864 127.939 117.476 125.034 120.769C125.428 128.232 126.644 133.222 127.868 136.453C140.941 140.463 154.014 144.469 167.087 148.477C172.505 150.14 178.211 151.98 181.961 156.227C184.884 159.541 186.229 163.887 187.354 168.185Z" fill="#94A8B2"/>
</svg>
