<?xml version="1.0" encoding="UTF-8"?>
<svg id="Layer_2" data-name="Layer 2" xmlns="http://www.w3.org/2000/svg" viewBox="0 0 402.38 122.51">
  <defs>
    <style>
      .cls-1 {
        fill: #fafafa;
      }

      .cls-2 {
        fill: #0bca6c;
      }

      .cls-3 {
        fill: #f659a0;
      }

      .cls-4 {
        fill: #ff7723;
      }

      .cls-5 {
        fill: #c48cdf;
      }

      .cls-6 {
        font-family: Nunito-ExtraLight, Nunito;
        font-size: 27px;
        font-variation-settings: 'wght' 200;
        font-weight: 200;
      }

      .cls-6, .cls-7 {
        fill: #181818;
      }

      .cls-8 {
        fill: #627cee;
      }
    </style>
  </defs>
  <g id="Layer_1-2" data-name="Layer 1">
    <g>
      <path class="cls-2" d="M185.99,.07l16.19,47.19V.07h21.82V82.74h-26.87l-14.7-42.94v42.94h-21.82V36.36c0-20.89,0-32.63-7.82-36.29h3.11s30.08,0,30.08,0Z"/>
      <path class="cls-3" d="M253.52,41.74c0,5.53,.41,9.93,1.23,13.22,.82,3.29,2.22,5.68,4.2,7.17,1.98,1.49,6.36,2.39,9.87,2.69v-11.66c0-6.87-2.07-8.22-9.28-11.42h0s27.81,0,27.81,0v36.07c-2.39,1.57-5.49,2.78-9.3,3.64-3.81,.86-8.18,1.29-13.11,1.29-7.17,0-13.37-1.34-18.6-4.03-5.23-2.69-9.26-7.04-12.1-13.05-2.84-6.01-4.26-13.95-4.26-23.81s1.53-17.96,4.59-24.08c3.06-6.12,7.35-10.6,12.88-13.44,5.53-2.84,11.95-4.26,19.27-4.26,2.61,0,5.34,.22,8.18,.67,2.84,.45,5.75,.97,8.74,1.57l-2.02,18.37c-2.47-.45-4.58-.8-6.33-1.06-1.76-.26-3.53-.39-5.32-.39-3.88,0-7.04,.64-9.47,1.9-2.43,1.27-4.2,3.53-5.32,6.78-1.12,3.25-1.68,7.86-1.68,13.83Z"/>
      <path class="cls-8" d="M369.31,21.2c4.52-3.6,9.42-5.4,14.7-5.4s9.66,1.65,13.15,4.94c3.48,3.29,5.22,8.23,5.22,14.81v47.19h-20.67V38.88c0-4.67-2.11-7-6.32-7-1.68,0-3.18,.42-4.48,1.26v49.6h-20.67V42.91c0-16.79-.12-22.52-6.73-26.19h0s24.29,0,24.29,0l1.49,4.48Z"/>
      <path class="cls-4" d="M323.92,82.7c-4.56,0-8.7-.5-12.45-1.51-3.75-1-6.97-2.78-9.67-5.33-2.7-2.55-4.79-6.06-6.25-10.54-1.47-4.48-2.2-10.19-2.2-17.14,0-11.27,2.1-19.78,6.31-25.53,4.21-5.75,10.98-8.63,20.32-8.63,8.49,0,14.65,2.34,18.47,7.01,3.82,4.67,5.73,11.6,5.73,20.78,0,2.16-.08,4.38-.23,6.66-.16,2.28-.43,4.34-.81,6.19h-27.67c.46,4.71,1.77,7.86,3.94,9.44,2.16,1.58,5.79,2.37,10.88,2.37,1.77,0,3.61-.15,5.5-.46,1.89-.31,3.72-.65,5.5-1.04v15.75c-2.7,.54-5.54,1-8.51,1.39-2.97,.39-5.93,.58-8.86,.58Zm-3.13-53.38c-3.09,0-4.9,4.17-5.44,12.51h9.49c0-1.7-.06-3.51-.17-5.44-.12-1.93-.46-3.59-1.04-4.98-.58-1.39-1.53-2.08-2.84-2.08Z"/>
      <text class="cls-6" transform="translate(159.23 115.06)"><tspan x="0" y="0">SCHOOLS</tspan></text>
      <g>
        <path class="cls-5" d="M99.68,0H16.69s7.32,2.09,8.97,19.36L5.11,8.46S-1.11,18.7,.17,40.47c0,0,14.2-13.05,25.8-15.66,.01,.49,.02,1,.02,1.52-1.75,.48-8.02,2.67-19.05,11.4,0,0,.73,10.98,11.53,18.3,0,0,1.98-14.57,7.9-20.7l1.23,20.91c.87,14.86,13.18,26.47,28.07,26.47h42.46c14.89,0,27.19-11.6,28.07-26.47l1.56-26.48c.95-16.15-11.89-29.76-28.07-29.76Z"/>
        <path class="cls-1" d="M114.57,23.01c-12.79,0-37.44,21.16-37.44,21.16,0,0-24.66-21.16-37.44-21.16,0,0-3.81,36.53,18.72,36.68h.01c1.83,0,3.64-.39,5.32-1.14,3.83-1.73,10.99-4.79,13.39-4.79s9.56,3.07,13.39,4.79c1.67,.75,3.48,1.14,5.32,1.14h.01c22.53-.15,18.72-36.68,18.72-36.68Z"/>
        <ellipse class="cls-7" cx="92.28" cy="46.2" rx="7.29" ry="10.18"/>
        <ellipse class="cls-7" cx="61.97" cy="46.2" rx="7.29" ry="10.18"/>
      </g>
    </g>
  </g>
</svg>